<?xml version="1.0" encoding="utf-8" standalone="no"?>
<!DOCTYPE svg PUBLIC "-//W3C//DTD SVG 1.1//EN"
  "http://www.w3.org/Graphics/SVG/1.1/DTD/svg11.dtd">
<!-- Created with matplotlib (https://matplotlib.org/) -->
<svg height="360pt" version="1.1" viewBox="0 0 720 360" width="720pt" xmlns="http://www.w3.org/2000/svg" xmlns:xlink="http://www.w3.org/1999/xlink">
 <defs>
  <style type="text/css">
*{stroke-linecap:butt;stroke-linejoin:round;}
  </style>
 </defs>
 <g id="figure_1">
  <g id="patch_1">
   <path d="M 0 360 
L 720 360 
L 720 0 
L 0 0 
z
" style="fill:#ffffff;"/>
  </g>
  <g id="axes_1">
   <g id="patch_2">
    <path d="M 0 360 
L 720 360 
L 720 0 
L 0 0 
z
" style="fill:#ffffff;"/>
   </g>
   <g id="PathCollection_1">
    <defs>
     <path d="M 0 3 
C 0.795609 3 1.55874 2.683901 2.12132 2.12132 
C 2.683901 1.55874 3 0.795609 3 0 
C 3 -0.795609 2.683901 -1.55874 2.12132 -2.12132 
C 1.55874 -2.683901 0.795609 -3 0 -3 
C -0.795609 -3 -1.55874 -2.683901 -2.12132 -2.12132 
C -2.683901 -1.55874 -3 -0.795609 -3 0 
C -3 0.795609 -2.683901 1.55874 -2.12132 2.12132 
C -1.55874 2.683901 -0.795609 3 0 3 
z
" id="md77a129301" style="stroke:#ff0000;"/>
    </defs>
    <g clip-path="url(#p59edad993c)">
     <use style="fill:#ff0000;stroke:#ff0000;" x="141.818182" xlink:href="#md77a129301" y="28.499963"/>
     <use style="fill:#ff0000;stroke:#ff0000;" x="578.181818" xlink:href="#md77a129301" y="28.294158"/>
    </g>
   </g>
   <g id="PathCollection_2">
    <defs>
     <path d="M 0 3 
C 0.795609 3 1.55874 2.683901 2.12132 2.12132 
C 2.683901 1.55874 3 0.795609 3 0 
C 3 -0.795609 2.683901 -1.55874 2.12132 -2.12132 
C 1.55874 -2.683901 0.795609 -3 0 -3 
C -0.795609 -3 -1.55874 -2.683901 -2.12132 -2.12132 
C -2.683901 -1.55874 -3 -0.795609 -3 0 
C -3 0.795609 -2.683901 1.55874 -2.12132 2.12132 
C -1.55874 2.683901 -0.795609 3 0 3 
z
" id="m4e1375415a" style="stroke:#0000ff;"/>
    </defs>
    <g clip-path="url(#p59edad993c)">
     <use style="fill:#0000ff;stroke:#0000ff;" x="141.818182" xlink:href="#m4e1375415a" y="30.308998"/>
     <use style="fill:#0000ff;stroke:#0000ff;" x="578.181818" xlink:href="#m4e1375415a" y="30.308998"/>
    </g>
   </g>
   <g id="PathCollection_3">
    <defs>
     <path d="M 0 3 
C 0.795609 3 1.55874 2.683901 2.12132 2.12132 
C 2.683901 1.55874 3 0.795609 3 0 
C 3 -0.795609 2.683901 -1.55874 2.12132 -2.12132 
C 1.55874 -2.683901 0.795609 -3 0 -3 
C -0.795609 -3 -1.55874 -2.683901 -2.12132 -2.12132 
C -2.683901 -1.55874 -3 -0.795609 -3 0 
C -3 0.795609 -2.683901 1.55874 -2.12132 2.12132 
C -1.55874 2.683901 -0.795609 3 0 3 
z
" id="m78a3b607a3" style="stroke:#008000;"/>
    </defs>
    <g clip-path="url(#p59edad993c)">
     <use style="fill:#008000;stroke:#008000;" x="141.818182" xlink:href="#m78a3b607a3" y="33.51153"/>
     <use style="fill:#008000;stroke:#008000;" x="578.181818" xlink:href="#m78a3b607a3" y="33.408017"/>
    </g>
   </g>
   <g id="PathCollection_4">
    <defs>
     <path d="M 0 3 
C 0.795609 3 1.55874 2.683901 2.12132 2.12132 
C 2.683901 1.55874 3 0.795609 3 0 
C 3 -0.795609 2.683901 -1.55874 2.12132 -2.12132 
C 1.55874 -2.683901 0.795609 -3 0 -3 
C -0.795609 -3 -1.55874 -2.683901 -2.12132 -2.12132 
C -2.683901 -1.55874 -3 -0.795609 -3 0 
C -3 0.795609 -2.683901 1.55874 -2.12132 2.12132 
C -1.55874 2.683901 -0.795609 3 0 3 
z
" id="m3f64e23798" style="stroke:#ffff00;"/>
    </defs>
    <g clip-path="url(#p59edad993c)">
     <use style="fill:#ffff00;stroke:#ffff00;" x="141.818182" xlink:href="#m3f64e23798" y="30.242607"/>
     <use style="fill:#ffff00;stroke:#ffff00;" x="578.181818" xlink:href="#m3f64e23798" y="30.242607"/>
    </g>
   </g>
   <g id="PolyCollection_1">
    <path clip-path="url(#p59edad993c)" d="M 141.925802 252.640861 
L 141.710562 252.640861 
L 141.723973 250.474533 
L 141.754987 248.308204 
L 141.785698 246.141875 
L 141.805387 243.975547 
L 141.81432 241.809218 
L 141.817289 239.642889 
L 141.818023 237.47656 
L 141.81816 235.310232 
L 141.81818 233.143903 
L 141.818182 230.977574 
L 141.818182 228.811245 
L 141.818182 226.644917 
L 141.818182 224.478588 
L 141.818182 222.312259 
L 141.818181 220.145931 
L 141.818169 217.979602 
L 141.818079 215.813273 
L 141.817565 213.646944 
L 141.815349 211.480616 
L 141.808199 209.314287 
L 141.791172 207.147958 
L 141.761803 204.981629 
L 141.726041 202.815301 
L 141.695045 200.648972 
L 141.669042 198.482643 
L 141.630298 196.316315 
L 141.567508 194.149986 
L 141.506365 191.983657 
L 141.49546 189.817328 
L 141.554149 187.651 
L 141.650387 185.484671 
L 141.735796 183.318342 
L 141.786978 181.152013 
L 141.809067 178.985685 
L 141.816111 176.819356 
L 141.817675 174.653027 
L 141.817213 172.486699 
L 141.813828 170.32037 
L 141.802336 168.154041 
L 141.77353 165.987712 
L 141.720452 163.821384 
L 141.650494 161.655055 
L 141.587875 159.488726 
L 141.55355 157.322397 
L 141.542902 155.156069 
L 141.532933 152.98974 
L 141.507557 150.823411 
L 141.463746 148.657083 
L 141.398868 146.490754 
L 141.309255 144.324425 
L 141.20027 142.158096 
L 141.08182 139.991768 
L 140.96166 137.825439 
L 140.869451 135.65911 
L 140.869307 133.492781 
L 141.000863 131.326453 
L 141.217121 129.160124 
L 141.420191 126.993795 
L 141.545584 124.827467 
L 141.586168 122.661138 
L 141.561561 120.494809 
L 141.500263 118.32848 
L 141.438853 116.162152 
L 141.406199 113.995823 
L 141.399515 111.829494 
L 141.384884 109.663165 
L 141.332074 107.496837 
L 141.251633 105.330508 
L 141.188015 103.164179 
L 141.172501 100.997851 
L 141.196644 98.831522 
L 141.237032 96.665193 
L 141.286012 94.498864 
L 141.340432 92.332536 
L 141.37126 90.166207 
L 141.331296 87.999878 
L 141.206762 85.833549 
L 141.051022 83.667221 
L 140.952959 81.500892 
L 140.972197 79.334563 
L 141.101239 77.168235 
L 141.271768 75.001906 
L 141.390425 72.835577 
L 141.387931 70.669248 
L 141.262058 68.50292 
L 141.073775 66.336591 
L 140.849439 64.170262 
L 140.409677 62.003933 
L 139.197844 59.837605 
L 136.011766 57.671276 
L 128.423757 55.504947 
L 112.644164 53.338619 
L 86.322016 51.17229 
L 54.709949 49.005961 
L 32.727273 46.839632 
L 34.670734 44.673304 
L 59.925035 42.506975 
L 93.232765 40.340646 
L 119.415433 38.174317 
L 164.22093 38.174317 
L 164.22093 38.174317 
L 190.403598 40.340646 
L 223.711328 42.506975 
L 248.965629 44.673304 
L 250.909091 46.839632 
L 228.926414 49.005961 
L 197.314347 51.17229 
L 170.992199 53.338619 
L 155.212607 55.504947 
L 147.624598 57.671276 
L 144.43852 59.837605 
L 143.226686 62.003933 
L 142.786925 64.170262 
L 142.562589 66.336591 
L 142.374305 68.50292 
L 142.248432 70.669248 
L 142.245939 72.835577 
L 142.364596 75.001906 
L 142.535125 77.168235 
L 142.664167 79.334563 
L 142.683405 81.500892 
L 142.585342 83.667221 
L 142.429602 85.833549 
L 142.305068 87.999878 
L 142.265104 90.166207 
L 142.295932 92.332536 
L 142.350351 94.498864 
L 142.399332 96.665193 
L 142.439719 98.831522 
L 142.463862 100.997851 
L 142.448349 103.164179 
L 142.384731 105.330508 
L 142.304289 107.496837 
L 142.251479 109.663165 
L 142.236849 111.829494 
L 142.230164 113.995823 
L 142.197511 116.162152 
L 142.1361 118.32848 
L 142.074803 120.494809 
L 142.050196 122.661138 
L 142.090779 124.827467 
L 142.216173 126.993795 
L 142.419243 129.160124 
L 142.635501 131.326453 
L 142.767056 133.492781 
L 142.766913 135.65911 
L 142.674703 137.825439 
L 142.554543 139.991768 
L 142.436093 142.158096 
L 142.327109 144.324425 
L 142.237496 146.490754 
L 142.172618 148.657083 
L 142.128807 150.823411 
L 142.103431 152.98974 
L 142.093462 155.156069 
L 142.082814 157.322397 
L 142.048489 159.488726 
L 141.985869 161.655055 
L 141.915912 163.821384 
L 141.862834 165.987712 
L 141.834028 168.154041 
L 141.822536 170.32037 
L 141.819151 172.486699 
L 141.818688 174.653027 
L 141.820252 176.819356 
L 141.827296 178.985685 
L 141.849386 181.152013 
L 141.900568 183.318342 
L 141.985976 185.484671 
L 142.082215 187.651 
L 142.140904 189.817328 
L 142.129998 191.983657 
L 142.068855 194.149986 
L 142.006065 196.316315 
L 141.967322 198.482643 
L 141.941319 200.648972 
L 141.910323 202.815301 
L 141.874561 204.981629 
L 141.845191 207.147958 
L 141.828164 209.314287 
L 141.821015 211.480616 
L 141.818798 213.646944 
L 141.818285 215.813273 
L 141.818195 217.979602 
L 141.818183 220.145931 
L 141.818182 222.312259 
L 141.818182 224.478588 
L 141.818182 226.644917 
L 141.818182 228.811245 
L 141.818182 230.977574 
L 141.818184 233.143903 
L 141.818203 235.310232 
L 141.81834 237.47656 
L 141.819075 239.642889 
L 141.822044 241.809218 
L 141.830977 243.975547 
L 141.850666 246.141875 
L 141.881377 248.308204 
L 141.91239 250.474533 
L 141.925802 252.640861 
z
" style="fill:#1f77b4;fill-opacity:0.3;"/>
   </g>
   <g id="PolyCollection_2">
    <path clip-path="url(#p59edad993c)" d="M 581.388676 343.636364 
L 574.974961 343.636364 
L 574.811573 340.551082 
L 574.710396 337.465801 
L 574.665506 334.38052 
L 574.662676 331.295238 
L 574.680449 328.209957 
L 574.692272 325.124676 
L 574.669485 322.039395 
L 574.584749 318.954113 
L 574.41549 315.868832 
L 574.146866 312.783551 
L 573.773839 309.698269 
L 573.302028 306.612988 
L 572.747132 303.527707 
L 572.132931 300.442425 
L 571.48805 297.357144 
L 570.841884 294.271863 
L 570.220256 291.186582 
L 569.641488 288.1013 
L 569.113561 285.016019 
L 568.632904 281.930738 
L 568.185112 278.845456 
L 567.747553 275.760175 
L 567.29345 272.674894 
L 566.796745 269.589612 
L 566.236855 266.504331 
L 565.602454 263.41905 
L 564.89357 260.333768 
L 564.121601 257.248487 
L 563.30728 254.163206 
L 562.476913 251.077925 
L 561.657592 247.992643 
L 560.872156 244.907362 
L 560.134778 241.822081 
L 559.447901 238.736799 
L 558.801109 235.651518 
L 558.172236 232.566237 
L 557.530749 229.480955 
L 556.843067 226.395674 
L 556.079174 223.310393 
L 555.219512 220.225112 
L 554.260984 217.13983 
L 553.220811 214.054549 
L 552.13722 210.969268 
L 551.066376 207.883986 
L 550.075627 204.798705 
L 549.233814 201.713424 
L 548.600055 198.628142 
L 548.212813 195.542861 
L 548.081096 192.45758 
L 548.179385 189.372299 
L 548.447279 186.287017 
L 548.79414 183.201736 
L 549.108209 180.116455 
L 549.269106 177.031173 
L 549.162126 173.945892 
L 548.692614 170.860611 
L 547.798678 167.775329 
L 546.460654 164.690048 
L 544.706054 161.604767 
L 542.609063 158.519486 
L 540.284188 155.434204 
L 537.874334 152.348923 
L 535.534377 149.263642 
L 533.412187 146.17836 
L 531.629774 143.093079 
L 530.267638 140.007798 
L 529.355229 136.922516 
L 528.869585 133.837235 
L 528.742815 130.751954 
L 528.877284 127.666673 
L 529.165728 124.581391 
L 529.512249 121.49611 
L 529.84983 118.410829 
L 530.15057 115.325547 
L 530.426316 112.240266 
L 530.71933 109.154985 
L 531.084639 106.069703 
L 531.567392 102.984422 
L 532.17945 99.899141 
L 532.879632 96.81386 
L 533.561434 93.728578 
L 534.05101 90.643297 
L 534.116895 87.558016 
L 533.491565 84.472734 
L 531.903517 81.387453 
L 529.117153 78.302172 
L 524.976243 75.21689 
L 519.44537 72.131609 
L 512.642668 69.046328 
L 504.856942 65.961047 
L 496.54322 62.875765 
L 488.293348 59.790484 
L 480.782164 56.705203 
L 474.694581 53.619921 
L 470.643423 50.53464 
L 469.090909 47.449359 
L 470.287256 44.364077 
L 474.237471 41.278796 
L 480.702436 38.193515 
L 675.661201 38.193515 
L 675.661201 38.193515 
L 682.126166 41.278796 
L 686.076381 44.364077 
L 687.272727 47.449359 
L 685.720214 50.53464 
L 681.669055 53.619921 
L 675.581472 56.705203 
L 668.070288 59.790484 
L 659.820416 62.875765 
L 651.506695 65.961047 
L 643.720968 69.046328 
L 636.918266 72.131609 
L 631.387393 75.21689 
L 627.246484 78.302172 
L 624.460119 81.387453 
L 622.872071 84.472734 
L 622.246741 87.558016 
L 622.312627 90.643297 
L 622.802203 93.728578 
L 623.484004 96.81386 
L 624.184187 99.899141 
L 624.796245 102.984422 
L 625.278997 106.069703 
L 625.644307 109.154985 
L 625.93732 112.240266 
L 626.213067 115.325547 
L 626.513806 118.410829 
L 626.851387 121.49611 
L 627.197909 124.581391 
L 627.486353 127.666673 
L 627.620822 130.751954 
L 627.494051 133.837235 
L 627.008408 136.922516 
L 626.095998 140.007798 
L 624.733862 143.093079 
L 622.951449 146.17836 
L 620.829259 149.263642 
L 618.489302 152.348923 
L 616.079448 155.434204 
L 613.754573 158.519486 
L 611.657582 161.604767 
L 609.902983 164.690048 
L 608.564959 167.775329 
L 607.671022 170.860611 
L 607.201511 173.945892 
L 607.09453 177.031173 
L 607.255427 180.116455 
L 607.569496 183.201736 
L 607.916357 186.287017 
L 608.184252 189.372299 
L 608.28254 192.45758 
L 608.150824 195.542861 
L 607.763582 198.628142 
L 607.129823 201.713424 
L 606.288009 204.798705 
L 605.29726 207.883986 
L 604.226417 210.969268 
L 603.142825 214.054549 
L 602.102652 217.13983 
L 601.144125 220.225112 
L 600.284463 223.310393 
L 599.520569 226.395674 
L 598.832888 229.480955 
L 598.1914 232.566237 
L 597.562528 235.651518 
L 596.915735 238.736799 
L 596.228859 241.822081 
L 595.49148 244.907362 
L 594.706044 247.992643 
L 593.886723 251.077925 
L 593.056357 254.163206 
L 592.242035 257.248487 
L 591.470067 260.333768 
L 590.761182 263.41905 
L 590.126782 266.504331 
L 589.566892 269.589612 
L 589.070186 272.674894 
L 588.616084 275.760175 
L 588.178525 278.845456 
L 587.730733 281.930738 
L 587.250075 285.016019 
L 586.722148 288.1013 
L 586.143381 291.186582 
L 585.521753 294.271863 
L 584.875587 297.357144 
L 584.230706 300.442425 
L 583.616504 303.527707 
L 583.061608 306.612988 
L 582.589797 309.698269 
L 582.216771 312.783551 
L 581.948146 315.868832 
L 581.778887 318.954113 
L 581.694151 322.039395 
L 581.671364 325.124676 
L 581.683188 328.209957 
L 581.70096 331.295238 
L 581.698131 334.38052 
L 581.65324 337.465801 
L 581.552064 340.551082 
L 581.388676 343.636364 
z
" style="fill:#1f77b4;fill-opacity:0.3;"/>
   </g>
   <g id="matplotlib.axis_1">
    <g id="xtick_1">
     <g id="line2d_1">
      <defs>
       <path d="M 0 0 
L 0 3.5 
" id="mc69b65be47" style="stroke:#000000;stroke-width:0.8;"/>
      </defs>
      <g>
       <use style="stroke:#000000;stroke-width:0.8;" x="141.818182" xlink:href="#mc69b65be47" y="360"/>
      </g>
     </g>
     <g id="text_1">
      <!-- 0.001 -->
      <defs>
       <path d="M 31.78125 66.40625 
Q 24.171875 66.40625 20.328125 58.90625 
Q 16.5 51.421875 16.5 36.375 
Q 16.5 21.390625 20.328125 13.890625 
Q 24.171875 6.390625 31.78125 6.390625 
Q 39.453125 6.390625 43.28125 13.890625 
Q 47.125 21.390625 47.125 36.375 
Q 47.125 51.421875 43.28125 58.90625 
Q 39.453125 66.40625 31.78125 66.40625 
z
M 31.78125 74.21875 
Q 44.046875 74.21875 50.515625 64.515625 
Q 56.984375 54.828125 56.984375 36.375 
Q 56.984375 17.96875 50.515625 8.265625 
Q 44.046875 -1.421875 31.78125 -1.421875 
Q 19.53125 -1.421875 13.0625 8.265625 
Q 6.59375 17.96875 6.59375 36.375 
Q 6.59375 54.828125 13.0625 64.515625 
Q 19.53125 74.21875 31.78125 74.21875 
z
" id="DejaVuSans-48"/>
       <path d="M 10.6875 12.40625 
L 21 12.40625 
L 21 0 
L 10.6875 0 
z
" id="DejaVuSans-46"/>
       <path d="M 12.40625 8.296875 
L 28.515625 8.296875 
L 28.515625 63.921875 
L 10.984375 60.40625 
L 10.984375 69.390625 
L 28.421875 72.90625 
L 38.28125 72.90625 
L 38.28125 8.296875 
L 54.390625 8.296875 
L 54.390625 0 
L 12.40625 0 
z
" id="DejaVuSans-49"/>
      </defs>
      <g transform="translate(127.504119 374.598437)scale(0.1 -0.1)">
       <use xlink:href="#DejaVuSans-48"/>
       <use x="63.623047" xlink:href="#DejaVuSans-46"/>
       <use x="95.410156" xlink:href="#DejaVuSans-48"/>
       <use x="159.033203" xlink:href="#DejaVuSans-48"/>
       <use x="222.65625" xlink:href="#DejaVuSans-49"/>
      </g>
     </g>
    </g>
    <g id="xtick_2">
     <g id="line2d_2">
      <g>
       <use style="stroke:#000000;stroke-width:0.8;" x="578.181818" xlink:href="#mc69b65be47" y="360"/>
      </g>
     </g>
     <g id="text_2">
      <!-- 0.0001 -->
      <g transform="translate(560.686506 374.598437)scale(0.1 -0.1)">
       <use xlink:href="#DejaVuSans-48"/>
       <use x="63.623047" xlink:href="#DejaVuSans-46"/>
       <use x="95.410156" xlink:href="#DejaVuSans-48"/>
       <use x="159.033203" xlink:href="#DejaVuSans-48"/>
       <use x="222.65625" xlink:href="#DejaVuSans-48"/>
       <use x="286.279297" xlink:href="#DejaVuSans-49"/>
      </g>
     </g>
    </g>
    <g id="text_3">
     <!-- Lambda -->
     <defs>
      <path d="M 9.8125 72.90625 
L 19.671875 72.90625 
L 19.671875 8.296875 
L 55.171875 8.296875 
L 55.171875 0 
L 9.8125 0 
z
" id="DejaVuSans-76"/>
      <path d="M 34.28125 27.484375 
Q 23.390625 27.484375 19.1875 25 
Q 14.984375 22.515625 14.984375 16.5 
Q 14.984375 11.71875 18.140625 8.90625 
Q 21.296875 6.109375 26.703125 6.109375 
Q 34.1875 6.109375 38.703125 11.40625 
Q 43.21875 16.703125 43.21875 25.484375 
L 43.21875 27.484375 
z
M 52.203125 31.203125 
L 52.203125 0 
L 43.21875 0 
L 43.21875 8.296875 
Q 40.140625 3.328125 35.546875 0.953125 
Q 30.953125 -1.421875 24.3125 -1.421875 
Q 15.921875 -1.421875 10.953125 3.296875 
Q 6 8.015625 6 15.921875 
Q 6 25.140625 12.171875 29.828125 
Q 18.359375 34.515625 30.609375 34.515625 
L 43.21875 34.515625 
L 43.21875 35.40625 
Q 43.21875 41.609375 39.140625 45 
Q 35.0625 48.390625 27.6875 48.390625 
Q 23 48.390625 18.546875 47.265625 
Q 14.109375 46.140625 10.015625 43.890625 
L 10.015625 52.203125 
Q 14.9375 54.109375 19.578125 55.046875 
Q 24.21875 56 28.609375 56 
Q 40.484375 56 46.34375 49.84375 
Q 52.203125 43.703125 52.203125 31.203125 
z
" id="DejaVuSans-97"/>
      <path d="M 52 44.1875 
Q 55.375 50.25 60.0625 53.125 
Q 64.75 56 71.09375 56 
Q 79.640625 56 84.28125 50.015625 
Q 88.921875 44.046875 88.921875 33.015625 
L 88.921875 0 
L 79.890625 0 
L 79.890625 32.71875 
Q 79.890625 40.578125 77.09375 44.375 
Q 74.3125 48.1875 68.609375 48.1875 
Q 61.625 48.1875 57.5625 43.546875 
Q 53.515625 38.921875 53.515625 30.90625 
L 53.515625 0 
L 44.484375 0 
L 44.484375 32.71875 
Q 44.484375 40.625 41.703125 44.40625 
Q 38.921875 48.1875 33.109375 48.1875 
Q 26.21875 48.1875 22.15625 43.53125 
Q 18.109375 38.875 18.109375 30.90625 
L 18.109375 0 
L 9.078125 0 
L 9.078125 54.6875 
L 18.109375 54.6875 
L 18.109375 46.1875 
Q 21.1875 51.21875 25.484375 53.609375 
Q 29.78125 56 35.6875 56 
Q 41.65625 56 45.828125 52.96875 
Q 50 49.953125 52 44.1875 
z
" id="DejaVuSans-109"/>
      <path d="M 48.6875 27.296875 
Q 48.6875 37.203125 44.609375 42.84375 
Q 40.53125 48.484375 33.40625 48.484375 
Q 26.265625 48.484375 22.1875 42.84375 
Q 18.109375 37.203125 18.109375 27.296875 
Q 18.109375 17.390625 22.1875 11.75 
Q 26.265625 6.109375 33.40625 6.109375 
Q 40.53125 6.109375 44.609375 11.75 
Q 48.6875 17.390625 48.6875 27.296875 
z
M 18.109375 46.390625 
Q 20.953125 51.265625 25.265625 53.625 
Q 29.59375 56 35.59375 56 
Q 45.5625 56 51.78125 48.09375 
Q 58.015625 40.1875 58.015625 27.296875 
Q 58.015625 14.40625 51.78125 6.484375 
Q 45.5625 -1.421875 35.59375 -1.421875 
Q 29.59375 -1.421875 25.265625 0.953125 
Q 20.953125 3.328125 18.109375 8.203125 
L 18.109375 0 
L 9.078125 0 
L 9.078125 75.984375 
L 18.109375 75.984375 
z
" id="DejaVuSans-98"/>
      <path d="M 45.40625 46.390625 
L 45.40625 75.984375 
L 54.390625 75.984375 
L 54.390625 0 
L 45.40625 0 
L 45.40625 8.203125 
Q 42.578125 3.328125 38.25 0.953125 
Q 33.9375 -1.421875 27.875 -1.421875 
Q 17.96875 -1.421875 11.734375 6.484375 
Q 5.515625 14.40625 5.515625 27.296875 
Q 5.515625 40.1875 11.734375 48.09375 
Q 17.96875 56 27.875 56 
Q 33.9375 56 38.25 53.625 
Q 42.578125 51.265625 45.40625 46.390625 
z
M 14.796875 27.296875 
Q 14.796875 17.390625 18.875 11.75 
Q 22.953125 6.109375 30.078125 6.109375 
Q 37.203125 6.109375 41.296875 11.75 
Q 45.40625 17.390625 45.40625 27.296875 
Q 45.40625 37.203125 41.296875 42.84375 
Q 37.203125 48.484375 30.078125 48.484375 
Q 22.953125 48.484375 18.875 42.84375 
Q 14.796875 37.203125 14.796875 27.296875 
z
" id="DejaVuSans-100"/>
     </defs>
     <g transform="translate(335.840625 389.79625)scale(0.12 -0.12)">
      <use xlink:href="#DejaVuSans-76"/>
      <use x="55.712891" xlink:href="#DejaVuSans-97"/>
      <use x="116.992188" xlink:href="#DejaVuSans-109"/>
      <use x="214.404297" xlink:href="#DejaVuSans-98"/>
      <use x="277.880859" xlink:href="#DejaVuSans-100"/>
      <use x="341.357422" xlink:href="#DejaVuSans-97"/>
     </g>
    </g>
   </g>
   <g id="matplotlib.axis_2">
    <g id="ytick_1">
     <g id="line2d_3">
      <defs>
       <path d="M 0 0 
L -3.5 0 
" id="m7c909ca844" style="stroke:#000000;stroke-width:0.8;"/>
      </defs>
      <g>
       <use style="stroke:#000000;stroke-width:0.8;" x="0" xlink:href="#m7c909ca844" y="336.340086"/>
      </g>
     </g>
     <g id="text_4">
      <!-- 0.40 -->
      <defs>
       <path d="M 37.796875 64.3125 
L 12.890625 25.390625 
L 37.796875 25.390625 
z
M 35.203125 72.90625 
L 47.609375 72.90625 
L 47.609375 25.390625 
L 58.015625 25.390625 
L 58.015625 17.1875 
L 47.609375 17.1875 
L 47.609375 0 
L 37.796875 0 
L 37.796875 17.1875 
L 4.890625 17.1875 
L 4.890625 26.703125 
z
" id="DejaVuSans-52"/>
      </defs>
      <g transform="translate(-29.265625 340.139304)scale(0.1 -0.1)">
       <use xlink:href="#DejaVuSans-48"/>
       <use x="63.623047" xlink:href="#DejaVuSans-46"/>
       <use x="95.410156" xlink:href="#DejaVuSans-52"/>
       <use x="159.033203" xlink:href="#DejaVuSans-48"/>
      </g>
     </g>
    </g>
    <g id="ytick_2">
     <g id="line2d_4">
      <g>
       <use style="stroke:#000000;stroke-width:0.8;" x="0" xlink:href="#m7c909ca844" y="264.756957"/>
      </g>
     </g>
     <g id="text_5">
      <!-- 0.45 -->
      <defs>
       <path d="M 10.796875 72.90625 
L 49.515625 72.90625 
L 49.515625 64.59375 
L 19.828125 64.59375 
L 19.828125 46.734375 
Q 21.96875 47.46875 24.109375 47.828125 
Q 26.265625 48.1875 28.421875 48.1875 
Q 40.625 48.1875 47.75 41.5 
Q 54.890625 34.8125 54.890625 23.390625 
Q 54.890625 11.625 47.5625 5.09375 
Q 40.234375 -1.421875 26.90625 -1.421875 
Q 22.3125 -1.421875 17.546875 -0.640625 
Q 12.796875 0.140625 7.71875 1.703125 
L 7.71875 11.625 
Q 12.109375 9.234375 16.796875 8.0625 
Q 21.484375 6.890625 26.703125 6.890625 
Q 35.15625 6.890625 40.078125 11.328125 
Q 45.015625 15.765625 45.015625 23.390625 
Q 45.015625 31 40.078125 35.4375 
Q 35.15625 39.890625 26.703125 39.890625 
Q 22.75 39.890625 18.8125 39.015625 
Q 14.890625 38.140625 10.796875 36.28125 
z
" id="DejaVuSans-53"/>
      </defs>
      <g transform="translate(-29.265625 268.556176)scale(0.1 -0.1)">
       <use xlink:href="#DejaVuSans-48"/>
       <use x="63.623047" xlink:href="#DejaVuSans-46"/>
       <use x="95.410156" xlink:href="#DejaVuSans-52"/>
       <use x="159.033203" xlink:href="#DejaVuSans-53"/>
      </g>
     </g>
    </g>
    <g id="ytick_3">
     <g id="line2d_5">
      <g>
       <use style="stroke:#000000;stroke-width:0.8;" x="0" xlink:href="#m7c909ca844" y="193.173829"/>
      </g>
     </g>
     <g id="text_6">
      <!-- 0.50 -->
      <g transform="translate(-29.265625 196.973048)scale(0.1 -0.1)">
       <use xlink:href="#DejaVuSans-48"/>
       <use x="63.623047" xlink:href="#DejaVuSans-46"/>
       <use x="95.410156" xlink:href="#DejaVuSans-53"/>
       <use x="159.033203" xlink:href="#DejaVuSans-48"/>
      </g>
     </g>
    </g>
    <g id="ytick_4">
     <g id="line2d_6">
      <g>
       <use style="stroke:#000000;stroke-width:0.8;" x="0" xlink:href="#m7c909ca844" y="121.590701"/>
      </g>
     </g>
     <g id="text_7">
      <!-- 0.55 -->
      <g transform="translate(-29.265625 125.389919)scale(0.1 -0.1)">
       <use xlink:href="#DejaVuSans-48"/>
       <use x="63.623047" xlink:href="#DejaVuSans-46"/>
       <use x="95.410156" xlink:href="#DejaVuSans-53"/>
       <use x="159.033203" xlink:href="#DejaVuSans-53"/>
      </g>
     </g>
    </g>
    <g id="ytick_5">
     <g id="line2d_7">
      <g>
       <use style="stroke:#000000;stroke-width:0.8;" x="0" xlink:href="#m7c909ca844" y="50.007572"/>
      </g>
     </g>
     <g id="text_8">
      <!-- 0.60 -->
      <defs>
       <path d="M 33.015625 40.375 
Q 26.375 40.375 22.484375 35.828125 
Q 18.609375 31.296875 18.609375 23.390625 
Q 18.609375 15.53125 22.484375 10.953125 
Q 26.375 6.390625 33.015625 6.390625 
Q 39.65625 6.390625 43.53125 10.953125 
Q 47.40625 15.53125 47.40625 23.390625 
Q 47.40625 31.296875 43.53125 35.828125 
Q 39.65625 40.375 33.015625 40.375 
z
M 52.59375 71.296875 
L 52.59375 62.3125 
Q 48.875 64.0625 45.09375 64.984375 
Q 41.3125 65.921875 37.59375 65.921875 
Q 27.828125 65.921875 22.671875 59.328125 
Q 17.53125 52.734375 16.796875 39.40625 
Q 19.671875 43.65625 24.015625 45.921875 
Q 28.375 48.1875 33.59375 48.1875 
Q 44.578125 48.1875 50.953125 41.515625 
Q 57.328125 34.859375 57.328125 23.390625 
Q 57.328125 12.15625 50.6875 5.359375 
Q 44.046875 -1.421875 33.015625 -1.421875 
Q 20.359375 -1.421875 13.671875 8.265625 
Q 6.984375 17.96875 6.984375 36.375 
Q 6.984375 53.65625 15.1875 63.9375 
Q 23.390625 74.21875 37.203125 74.21875 
Q 40.921875 74.21875 44.703125 73.484375 
Q 48.484375 72.75 52.59375 71.296875 
z
" id="DejaVuSans-54"/>
      </defs>
      <g transform="translate(-29.265625 53.806791)scale(0.1 -0.1)">
       <use xlink:href="#DejaVuSans-48"/>
       <use x="63.623047" xlink:href="#DejaVuSans-46"/>
       <use x="95.410156" xlink:href="#DejaVuSans-54"/>
       <use x="159.033203" xlink:href="#DejaVuSans-48"/>
      </g>
     </g>
    </g>
    <g id="text_9">
     <!-- Accuracy (classes=2) -->
     <defs>
      <path d="M 34.1875 63.1875 
L 20.796875 26.90625 
L 47.609375 26.90625 
z
M 28.609375 72.90625 
L 39.796875 72.90625 
L 67.578125 0 
L 57.328125 0 
L 50.6875 18.703125 
L 17.828125 18.703125 
L 11.1875 0 
L 0.78125 0 
z
" id="DejaVuSans-65"/>
      <path d="M 48.78125 52.59375 
L 48.78125 44.1875 
Q 44.96875 46.296875 41.140625 47.34375 
Q 37.3125 48.390625 33.40625 48.390625 
Q 24.65625 48.390625 19.8125 42.84375 
Q 14.984375 37.3125 14.984375 27.296875 
Q 14.984375 17.28125 19.8125 11.734375 
Q 24.65625 6.203125 33.40625 6.203125 
Q 37.3125 6.203125 41.140625 7.25 
Q 44.96875 8.296875 48.78125 10.40625 
L 48.78125 2.09375 
Q 45.015625 0.34375 40.984375 -0.53125 
Q 36.96875 -1.421875 32.421875 -1.421875 
Q 20.0625 -1.421875 12.78125 6.34375 
Q 5.515625 14.109375 5.515625 27.296875 
Q 5.515625 40.671875 12.859375 48.328125 
Q 20.21875 56 33.015625 56 
Q 37.15625 56 41.109375 55.140625 
Q 45.0625 54.296875 48.78125 52.59375 
z
" id="DejaVuSans-99"/>
      <path d="M 8.5 21.578125 
L 8.5 54.6875 
L 17.484375 54.6875 
L 17.484375 21.921875 
Q 17.484375 14.15625 20.5 10.265625 
Q 23.53125 6.390625 29.59375 6.390625 
Q 36.859375 6.390625 41.078125 11.03125 
Q 45.3125 15.671875 45.3125 23.6875 
L 45.3125 54.6875 
L 54.296875 54.6875 
L 54.296875 0 
L 45.3125 0 
L 45.3125 8.40625 
Q 42.046875 3.421875 37.71875 1 
Q 33.40625 -1.421875 27.6875 -1.421875 
Q 18.265625 -1.421875 13.375 4.4375 
Q 8.5 10.296875 8.5 21.578125 
z
M 31.109375 56 
z
" id="DejaVuSans-117"/>
      <path d="M 41.109375 46.296875 
Q 39.59375 47.171875 37.8125 47.578125 
Q 36.03125 48 33.890625 48 
Q 26.265625 48 22.1875 43.046875 
Q 18.109375 38.09375 18.109375 28.8125 
L 18.109375 0 
L 9.078125 0 
L 9.078125 54.6875 
L 18.109375 54.6875 
L 18.109375 46.1875 
Q 20.953125 51.171875 25.484375 53.578125 
Q 30.03125 56 36.53125 56 
Q 37.453125 56 38.578125 55.875 
Q 39.703125 55.765625 41.0625 55.515625 
z
" id="DejaVuSans-114"/>
      <path d="M 32.171875 -5.078125 
Q 28.375 -14.84375 24.75 -17.8125 
Q 21.140625 -20.796875 15.09375 -20.796875 
L 7.90625 -20.796875 
L 7.90625 -13.28125 
L 13.1875 -13.28125 
Q 16.890625 -13.28125 18.9375 -11.515625 
Q 21 -9.765625 23.484375 -3.21875 
L 25.09375 0.875 
L 2.984375 54.6875 
L 12.5 54.6875 
L 29.59375 11.921875 
L 46.6875 54.6875 
L 56.203125 54.6875 
z
" id="DejaVuSans-121"/>
      <path id="DejaVuSans-32"/>
      <path d="M 31 75.875 
Q 24.46875 64.65625 21.28125 53.65625 
Q 18.109375 42.671875 18.109375 31.390625 
Q 18.109375 20.125 21.3125 9.0625 
Q 24.515625 -2 31 -13.1875 
L 23.1875 -13.1875 
Q 15.875 -1.703125 12.234375 9.375 
Q 8.59375 20.453125 8.59375 31.390625 
Q 8.59375 42.28125 12.203125 53.3125 
Q 15.828125 64.359375 23.1875 75.875 
z
" id="DejaVuSans-40"/>
      <path d="M 9.421875 75.984375 
L 18.40625 75.984375 
L 18.40625 0 
L 9.421875 0 
z
" id="DejaVuSans-108"/>
      <path d="M 44.28125 53.078125 
L 44.28125 44.578125 
Q 40.484375 46.53125 36.375 47.5 
Q 32.28125 48.484375 27.875 48.484375 
Q 21.1875 48.484375 17.84375 46.4375 
Q 14.5 44.390625 14.5 40.28125 
Q 14.5 37.15625 16.890625 35.375 
Q 19.28125 33.59375 26.515625 31.984375 
L 29.59375 31.296875 
Q 39.15625 29.25 43.1875 25.515625 
Q 47.21875 21.78125 47.21875 15.09375 
Q 47.21875 7.46875 41.1875 3.015625 
Q 35.15625 -1.421875 24.609375 -1.421875 
Q 20.21875 -1.421875 15.453125 -0.5625 
Q 10.6875 0.296875 5.421875 2 
L 5.421875 11.28125 
Q 10.40625 8.6875 15.234375 7.390625 
Q 20.0625 6.109375 24.8125 6.109375 
Q 31.15625 6.109375 34.5625 8.28125 
Q 37.984375 10.453125 37.984375 14.40625 
Q 37.984375 18.0625 35.515625 20.015625 
Q 33.0625 21.96875 24.703125 23.78125 
L 21.578125 24.515625 
Q 13.234375 26.265625 9.515625 29.90625 
Q 5.8125 33.546875 5.8125 39.890625 
Q 5.8125 47.609375 11.28125 51.796875 
Q 16.75 56 26.8125 56 
Q 31.78125 56 36.171875 55.265625 
Q 40.578125 54.546875 44.28125 53.078125 
z
" id="DejaVuSans-115"/>
      <path d="M 56.203125 29.59375 
L 56.203125 25.203125 
L 14.890625 25.203125 
Q 15.484375 15.921875 20.484375 11.0625 
Q 25.484375 6.203125 34.421875 6.203125 
Q 39.59375 6.203125 44.453125 7.46875 
Q 49.3125 8.734375 54.109375 11.28125 
L 54.109375 2.78125 
Q 49.265625 0.734375 44.1875 -0.34375 
Q 39.109375 -1.421875 33.890625 -1.421875 
Q 20.796875 -1.421875 13.15625 6.1875 
Q 5.515625 13.8125 5.515625 26.8125 
Q 5.515625 40.234375 12.765625 48.109375 
Q 20.015625 56 32.328125 56 
Q 43.359375 56 49.78125 48.890625 
Q 56.203125 41.796875 56.203125 29.59375 
z
M 47.21875 32.234375 
Q 47.125 39.59375 43.09375 43.984375 
Q 39.0625 48.390625 32.421875 48.390625 
Q 24.90625 48.390625 20.390625 44.140625 
Q 15.875 39.890625 15.1875 32.171875 
z
" id="DejaVuSans-101"/>
      <path d="M 10.59375 45.40625 
L 73.1875 45.40625 
L 73.1875 37.203125 
L 10.59375 37.203125 
z
M 10.59375 25.484375 
L 73.1875 25.484375 
L 73.1875 17.1875 
L 10.59375 17.1875 
z
" id="DejaVuSans-61"/>
      <path d="M 19.1875 8.296875 
L 53.609375 8.296875 
L 53.609375 0 
L 7.328125 0 
L 7.328125 8.296875 
Q 12.9375 14.109375 22.625 23.890625 
Q 32.328125 33.6875 34.8125 36.53125 
Q 39.546875 41.84375 41.421875 45.53125 
Q 43.3125 49.21875 43.3125 52.78125 
Q 43.3125 58.59375 39.234375 62.25 
Q 35.15625 65.921875 28.609375 65.921875 
Q 23.96875 65.921875 18.8125 64.3125 
Q 13.671875 62.703125 7.8125 59.421875 
L 7.8125 69.390625 
Q 13.765625 71.78125 18.9375 73 
Q 24.125 74.21875 28.421875 74.21875 
Q 39.75 74.21875 46.484375 68.546875 
Q 53.21875 62.890625 53.21875 53.421875 
Q 53.21875 48.921875 51.53125 44.890625 
Q 49.859375 40.875 45.40625 35.40625 
Q 44.1875 33.984375 37.640625 27.21875 
Q 31.109375 20.453125 19.1875 8.296875 
z
" id="DejaVuSans-50"/>
      <path d="M 8.015625 75.875 
L 15.828125 75.875 
Q 23.140625 64.359375 26.78125 53.3125 
Q 30.421875 42.28125 30.421875 31.390625 
Q 30.421875 20.453125 26.78125 9.375 
Q 23.140625 -1.703125 15.828125 -13.1875 
L 8.015625 -13.1875 
Q 14.5 -2 17.703125 9.0625 
Q 20.90625 20.125 20.90625 31.390625 
Q 20.90625 42.671875 17.703125 53.65625 
Q 14.5 64.65625 8.015625 75.875 
z
" id="DejaVuSans-41"/>
     </defs>
     <g transform="translate(-35.76125 244.643438)rotate(-90)scale(0.12 -0.12)">
      <use xlink:href="#DejaVuSans-65"/>
      <use x="68.392578" xlink:href="#DejaVuSans-99"/>
      <use x="123.373047" xlink:href="#DejaVuSans-99"/>
      <use x="178.353516" xlink:href="#DejaVuSans-117"/>
      <use x="241.732422" xlink:href="#DejaVuSans-114"/>
      <use x="282.845703" xlink:href="#DejaVuSans-97"/>
      <use x="344.125" xlink:href="#DejaVuSans-99"/>
      <use x="399.105469" xlink:href="#DejaVuSans-121"/>
      <use x="458.285156" xlink:href="#DejaVuSans-32"/>
      <use x="490.072266" xlink:href="#DejaVuSans-40"/>
      <use x="529.085938" xlink:href="#DejaVuSans-99"/>
      <use x="584.066406" xlink:href="#DejaVuSans-108"/>
      <use x="611.849609" xlink:href="#DejaVuSans-97"/>
      <use x="673.128906" xlink:href="#DejaVuSans-115"/>
      <use x="725.228516" xlink:href="#DejaVuSans-115"/>
      <use x="777.328125" xlink:href="#DejaVuSans-101"/>
      <use x="838.851562" xlink:href="#DejaVuSans-115"/>
      <use x="890.951172" xlink:href="#DejaVuSans-61"/>
      <use x="974.740234" xlink:href="#DejaVuSans-50"/>
      <use x="1038.363281" xlink:href="#DejaVuSans-41"/>
     </g>
    </g>
   </g>
   <g id="LineCollection_1">
    <path clip-path="url(#p59edad993c)" d="M 87.272727 38.174317 
L 196.363636 38.174317 
" style="fill:none;stroke:#1f77b4;stroke-width:1.5;"/>
    <path clip-path="url(#p59edad993c)" d="M 523.636364 38.193515 
L 632.727273 38.193515 
" style="fill:none;stroke:#1f77b4;stroke-width:1.5;"/>
   </g>
   <g id="LineCollection_2">
    <path clip-path="url(#p59edad993c)" d="M 87.272727 252.640861 
L 196.363636 252.640861 
" style="fill:none;stroke:#1f77b4;stroke-width:1.5;"/>
    <path clip-path="url(#p59edad993c)" d="M 523.636364 343.636364 
L 632.727273 343.636364 
" style="fill:none;stroke:#1f77b4;stroke-width:1.5;"/>
   </g>
   <g id="LineCollection_3">
    <path clip-path="url(#p59edad993c)" d="M 141.818182 252.640861 
L 141.818182 38.174317 
" style="fill:none;stroke:#1f77b4;stroke-width:1.5;"/>
    <path clip-path="url(#p59edad993c)" d="M 578.181818 343.636364 
L 578.181818 38.193515 
" style="fill:none;stroke:#1f77b4;stroke-width:1.5;"/>
   </g>
   <g id="patch_3">
    <path d="M 0 360 
L 0 0 
" style="fill:none;stroke:#000000;stroke-linecap:square;stroke-linejoin:miter;stroke-width:0.8;"/>
   </g>
   <g id="patch_4">
    <path d="M 720 360 
L 720 0 
" style="fill:none;stroke:#000000;stroke-linecap:square;stroke-linejoin:miter;stroke-width:0.8;"/>
   </g>
   <g id="patch_5">
    <path d="M 0 360 
L 720 360 
" style="fill:none;stroke:#000000;stroke-linecap:square;stroke-linejoin:miter;stroke-width:0.8;"/>
   </g>
   <g id="patch_6">
    <path d="M 0 0 
L 720 0 
" style="fill:none;stroke:#000000;stroke-linecap:square;stroke-linejoin:miter;stroke-width:0.8;"/>
   </g>
   <g id="text_10">
    <!-- Accuracy for CoDACl and Baseline Methods vs Learning Rate -->
    <defs>
     <path d="M 37.109375 75.984375 
L 37.109375 68.5 
L 28.515625 68.5 
Q 23.6875 68.5 21.796875 66.546875 
Q 19.921875 64.59375 19.921875 59.515625 
L 19.921875 54.6875 
L 34.71875 54.6875 
L 34.71875 47.703125 
L 19.921875 47.703125 
L 19.921875 0 
L 10.890625 0 
L 10.890625 47.703125 
L 2.296875 47.703125 
L 2.296875 54.6875 
L 10.890625 54.6875 
L 10.890625 58.5 
Q 10.890625 67.625 15.140625 71.796875 
Q 19.390625 75.984375 28.609375 75.984375 
z
" id="DejaVuSans-102"/>
     <path d="M 30.609375 48.390625 
Q 23.390625 48.390625 19.1875 42.75 
Q 14.984375 37.109375 14.984375 27.296875 
Q 14.984375 17.484375 19.15625 11.84375 
Q 23.34375 6.203125 30.609375 6.203125 
Q 37.796875 6.203125 41.984375 11.859375 
Q 46.1875 17.53125 46.1875 27.296875 
Q 46.1875 37.015625 41.984375 42.703125 
Q 37.796875 48.390625 30.609375 48.390625 
z
M 30.609375 56 
Q 42.328125 56 49.015625 48.375 
Q 55.71875 40.765625 55.71875 27.296875 
Q 55.71875 13.875 49.015625 6.21875 
Q 42.328125 -1.421875 30.609375 -1.421875 
Q 18.84375 -1.421875 12.171875 6.21875 
Q 5.515625 13.875 5.515625 27.296875 
Q 5.515625 40.765625 12.171875 48.375 
Q 18.84375 56 30.609375 56 
z
" id="DejaVuSans-111"/>
     <path d="M 64.40625 67.28125 
L 64.40625 56.890625 
Q 59.421875 61.53125 53.78125 63.8125 
Q 48.140625 66.109375 41.796875 66.109375 
Q 29.296875 66.109375 22.65625 58.46875 
Q 16.015625 50.828125 16.015625 36.375 
Q 16.015625 21.96875 22.65625 14.328125 
Q 29.296875 6.6875 41.796875 6.6875 
Q 48.140625 6.6875 53.78125 8.984375 
Q 59.421875 11.28125 64.40625 15.921875 
L 64.40625 5.609375 
Q 59.234375 2.09375 53.4375 0.328125 
Q 47.65625 -1.421875 41.21875 -1.421875 
Q 24.65625 -1.421875 15.125 8.703125 
Q 5.609375 18.84375 5.609375 36.375 
Q 5.609375 53.953125 15.125 64.078125 
Q 24.65625 74.21875 41.21875 74.21875 
Q 47.75 74.21875 53.53125 72.484375 
Q 59.328125 70.75 64.40625 67.28125 
z
" id="DejaVuSans-67"/>
     <path d="M 19.671875 64.796875 
L 19.671875 8.109375 
L 31.59375 8.109375 
Q 46.6875 8.109375 53.6875 14.9375 
Q 60.6875 21.78125 60.6875 36.53125 
Q 60.6875 51.171875 53.6875 57.984375 
Q 46.6875 64.796875 31.59375 64.796875 
z
M 9.8125 72.90625 
L 30.078125 72.90625 
Q 51.265625 72.90625 61.171875 64.09375 
Q 71.09375 55.28125 71.09375 36.53125 
Q 71.09375 17.671875 61.125 8.828125 
Q 51.171875 0 30.078125 0 
L 9.8125 0 
z
" id="DejaVuSans-68"/>
     <path d="M 54.890625 33.015625 
L 54.890625 0 
L 45.90625 0 
L 45.90625 32.71875 
Q 45.90625 40.484375 42.875 44.328125 
Q 39.84375 48.1875 33.796875 48.1875 
Q 26.515625 48.1875 22.3125 43.546875 
Q 18.109375 38.921875 18.109375 30.90625 
L 18.109375 0 
L 9.078125 0 
L 9.078125 54.6875 
L 18.109375 54.6875 
L 18.109375 46.1875 
Q 21.34375 51.125 25.703125 53.5625 
Q 30.078125 56 35.796875 56 
Q 45.21875 56 50.046875 50.171875 
Q 54.890625 44.34375 54.890625 33.015625 
z
" id="DejaVuSans-110"/>
     <path d="M 19.671875 34.8125 
L 19.671875 8.109375 
L 35.5 8.109375 
Q 43.453125 8.109375 47.28125 11.40625 
Q 51.125 14.703125 51.125 21.484375 
Q 51.125 28.328125 47.28125 31.5625 
Q 43.453125 34.8125 35.5 34.8125 
z
M 19.671875 64.796875 
L 19.671875 42.828125 
L 34.28125 42.828125 
Q 41.5 42.828125 45.03125 45.53125 
Q 48.578125 48.25 48.578125 53.8125 
Q 48.578125 59.328125 45.03125 62.0625 
Q 41.5 64.796875 34.28125 64.796875 
z
M 9.8125 72.90625 
L 35.015625 72.90625 
Q 46.296875 72.90625 52.390625 68.21875 
Q 58.5 63.53125 58.5 54.890625 
Q 58.5 48.1875 55.375 44.234375 
Q 52.25 40.28125 46.1875 39.3125 
Q 53.46875 37.75 57.5 32.78125 
Q 61.53125 27.828125 61.53125 20.40625 
Q 61.53125 10.640625 54.890625 5.3125 
Q 48.25 0 35.984375 0 
L 9.8125 0 
z
" id="DejaVuSans-66"/>
     <path d="M 9.421875 54.6875 
L 18.40625 54.6875 
L 18.40625 0 
L 9.421875 0 
z
M 9.421875 75.984375 
L 18.40625 75.984375 
L 18.40625 64.59375 
L 9.421875 64.59375 
z
" id="DejaVuSans-105"/>
     <path d="M 9.8125 72.90625 
L 24.515625 72.90625 
L 43.109375 23.296875 
L 61.8125 72.90625 
L 76.515625 72.90625 
L 76.515625 0 
L 66.890625 0 
L 66.890625 64.015625 
L 48.09375 14.015625 
L 38.1875 14.015625 
L 19.390625 64.015625 
L 19.390625 0 
L 9.8125 0 
z
" id="DejaVuSans-77"/>
     <path d="M 18.3125 70.21875 
L 18.3125 54.6875 
L 36.8125 54.6875 
L 36.8125 47.703125 
L 18.3125 47.703125 
L 18.3125 18.015625 
Q 18.3125 11.328125 20.140625 9.421875 
Q 21.96875 7.515625 27.59375 7.515625 
L 36.8125 7.515625 
L 36.8125 0 
L 27.59375 0 
Q 17.1875 0 13.234375 3.875 
Q 9.28125 7.765625 9.28125 18.015625 
L 9.28125 47.703125 
L 2.6875 47.703125 
L 2.6875 54.6875 
L 9.28125 54.6875 
L 9.28125 70.21875 
z
" id="DejaVuSans-116"/>
     <path d="M 54.890625 33.015625 
L 54.890625 0 
L 45.90625 0 
L 45.90625 32.71875 
Q 45.90625 40.484375 42.875 44.328125 
Q 39.84375 48.1875 33.796875 48.1875 
Q 26.515625 48.1875 22.3125 43.546875 
Q 18.109375 38.921875 18.109375 30.90625 
L 18.109375 0 
L 9.078125 0 
L 9.078125 75.984375 
L 18.109375 75.984375 
L 18.109375 46.1875 
Q 21.34375 51.125 25.703125 53.5625 
Q 30.078125 56 35.796875 56 
Q 45.21875 56 50.046875 50.171875 
Q 54.890625 44.34375 54.890625 33.015625 
z
" id="DejaVuSans-104"/>
     <path d="M 2.984375 54.6875 
L 12.5 54.6875 
L 29.59375 8.796875 
L 46.6875 54.6875 
L 56.203125 54.6875 
L 35.6875 0 
L 23.484375 0 
z
" id="DejaVuSans-118"/>
     <path d="M 45.40625 27.984375 
Q 45.40625 37.75 41.375 43.109375 
Q 37.359375 48.484375 30.078125 48.484375 
Q 22.859375 48.484375 18.828125 43.109375 
Q 14.796875 37.75 14.796875 27.984375 
Q 14.796875 18.265625 18.828125 12.890625 
Q 22.859375 7.515625 30.078125 7.515625 
Q 37.359375 7.515625 41.375 12.890625 
Q 45.40625 18.265625 45.40625 27.984375 
z
M 54.390625 6.78125 
Q 54.390625 -7.171875 48.1875 -13.984375 
Q 42 -20.796875 29.203125 -20.796875 
Q 24.46875 -20.796875 20.265625 -20.09375 
Q 16.0625 -19.390625 12.109375 -17.921875 
L 12.109375 -9.1875 
Q 16.0625 -11.328125 19.921875 -12.34375 
Q 23.78125 -13.375 27.78125 -13.375 
Q 36.625 -13.375 41.015625 -8.765625 
Q 45.40625 -4.15625 45.40625 5.171875 
L 45.40625 9.625 
Q 42.625 4.78125 38.28125 2.390625 
Q 33.9375 0 27.875 0 
Q 17.828125 0 11.671875 7.65625 
Q 5.515625 15.328125 5.515625 27.984375 
Q 5.515625 40.671875 11.671875 48.328125 
Q 17.828125 56 27.875 56 
Q 33.9375 56 38.28125 53.609375 
Q 42.625 51.21875 45.40625 46.390625 
L 45.40625 54.6875 
L 54.390625 54.6875 
z
" id="DejaVuSans-103"/>
     <path d="M 44.390625 34.1875 
Q 47.5625 33.109375 50.5625 29.59375 
Q 53.5625 26.078125 56.59375 19.921875 
L 66.609375 0 
L 56 0 
L 46.6875 18.703125 
Q 43.0625 26.03125 39.671875 28.421875 
Q 36.28125 30.8125 30.421875 30.8125 
L 19.671875 30.8125 
L 19.671875 0 
L 9.8125 0 
L 9.8125 72.90625 
L 32.078125 72.90625 
Q 44.578125 72.90625 50.734375 67.671875 
Q 56.890625 62.453125 56.890625 51.90625 
Q 56.890625 45.015625 53.6875 40.46875 
Q 50.484375 35.9375 44.390625 34.1875 
z
M 19.671875 64.796875 
L 19.671875 38.921875 
L 32.078125 38.921875 
Q 39.203125 38.921875 42.84375 42.21875 
Q 46.484375 45.515625 46.484375 51.90625 
Q 46.484375 58.296875 42.84375 61.546875 
Q 39.203125 64.796875 32.078125 64.796875 
z
" id="DejaVuSans-82"/>
    </defs>
    <g transform="translate(177.377813 -6)scale(0.12 -0.12)">
     <use xlink:href="#DejaVuSans-65"/>
     <use x="68.392578" xlink:href="#DejaVuSans-99"/>
     <use x="123.373047" xlink:href="#DejaVuSans-99"/>
     <use x="178.353516" xlink:href="#DejaVuSans-117"/>
     <use x="241.732422" xlink:href="#DejaVuSans-114"/>
     <use x="282.845703" xlink:href="#DejaVuSans-97"/>
     <use x="344.125" xlink:href="#DejaVuSans-99"/>
     <use x="399.105469" xlink:href="#DejaVuSans-121"/>
     <use x="458.285156" xlink:href="#DejaVuSans-32"/>
     <use x="490.072266" xlink:href="#DejaVuSans-102"/>
     <use x="525.277344" xlink:href="#DejaVuSans-111"/>
     <use x="586.458984" xlink:href="#DejaVuSans-114"/>
     <use x="627.572266" xlink:href="#DejaVuSans-32"/>
     <use x="659.359375" xlink:href="#DejaVuSans-67"/>
     <use x="729.183594" xlink:href="#DejaVuSans-111"/>
     <use x="790.365234" xlink:href="#DejaVuSans-68"/>
     <use x="867.351562" xlink:href="#DejaVuSans-65"/>
     <use x="935.744141" xlink:href="#DejaVuSans-67"/>
     <use x="1005.568359" xlink:href="#DejaVuSans-108"/>
     <use x="1033.351562" xlink:href="#DejaVuSans-32"/>
     <use x="1065.138672" xlink:href="#DejaVuSans-97"/>
     <use x="1126.417969" xlink:href="#DejaVuSans-110"/>
     <use x="1189.796875" xlink:href="#DejaVuSans-100"/>
     <use x="1253.273438" xlink:href="#DejaVuSans-32"/>
     <use x="1285.060547" xlink:href="#DejaVuSans-66"/>
     <use x="1353.664062" xlink:href="#DejaVuSans-97"/>
     <use x="1414.943359" xlink:href="#DejaVuSans-115"/>
     <use x="1467.042969" xlink:href="#DejaVuSans-101"/>
     <use x="1528.566406" xlink:href="#DejaVuSans-108"/>
     <use x="1556.349609" xlink:href="#DejaVuSans-105"/>
     <use x="1584.132812" xlink:href="#DejaVuSans-110"/>
     <use x="1647.511719" xlink:href="#DejaVuSans-101"/>
     <use x="1709.035156" xlink:href="#DejaVuSans-32"/>
     <use x="1740.822266" xlink:href="#DejaVuSans-77"/>
     <use x="1827.101562" xlink:href="#DejaVuSans-101"/>
     <use x="1888.625" xlink:href="#DejaVuSans-116"/>
     <use x="1927.833984" xlink:href="#DejaVuSans-104"/>
     <use x="1991.212891" xlink:href="#DejaVuSans-111"/>
     <use x="2052.394531" xlink:href="#DejaVuSans-100"/>
     <use x="2115.871094" xlink:href="#DejaVuSans-115"/>
     <use x="2167.970703" xlink:href="#DejaVuSans-32"/>
     <use x="2199.757812" xlink:href="#DejaVuSans-118"/>
     <use x="2258.9375" xlink:href="#DejaVuSans-115"/>
     <use x="2311.037109" xlink:href="#DejaVuSans-32"/>
     <use x="2342.824219" xlink:href="#DejaVuSans-76"/>
     <use x="2398.521484" xlink:href="#DejaVuSans-101"/>
     <use x="2460.044922" xlink:href="#DejaVuSans-97"/>
     <use x="2521.324219" xlink:href="#DejaVuSans-114"/>
     <use x="2562.421875" xlink:href="#DejaVuSans-110"/>
     <use x="2625.800781" xlink:href="#DejaVuSans-105"/>
     <use x="2653.583984" xlink:href="#DejaVuSans-110"/>
     <use x="2716.962891" xlink:href="#DejaVuSans-103"/>
     <use x="2780.439453" xlink:href="#DejaVuSans-32"/>
     <use x="2812.226562" xlink:href="#DejaVuSans-82"/>
     <use x="2881.677734" xlink:href="#DejaVuSans-97"/>
     <use x="2942.957031" xlink:href="#DejaVuSans-116"/>
     <use x="2982.166016" xlink:href="#DejaVuSans-101"/>
    </g>
   </g>
   <g id="legend_1">
    <g id="patch_7">
     <path d="M 7 355 
L 201.592188 355 
Q 203.592188 355 203.592188 353 
L 203.592188 295.2875 
Q 203.592188 293.2875 201.592188 293.2875 
L 7 293.2875 
Q 5 293.2875 5 295.2875 
L 5 353 
Q 5 355 7 355 
z
" style="fill:#ffffff;opacity:0.8;stroke:#cccccc;stroke-linejoin:miter;"/>
    </g>
    <g id="PathCollection_5">
     <g>
      <use style="fill:#ff0000;stroke:#ff0000;" x="19" xlink:href="#md77a129301" y="302.260938"/>
     </g>
    </g>
    <g id="text_11">
     <!-- CoDA-PCA + Logistic Regression -->
     <defs>
      <path d="M 4.890625 31.390625 
L 31.203125 31.390625 
L 31.203125 23.390625 
L 4.890625 23.390625 
z
" id="DejaVuSans-45"/>
      <path d="M 19.671875 64.796875 
L 19.671875 37.40625 
L 32.078125 37.40625 
Q 38.96875 37.40625 42.71875 40.96875 
Q 46.484375 44.53125 46.484375 51.125 
Q 46.484375 57.671875 42.71875 61.234375 
Q 38.96875 64.796875 32.078125 64.796875 
z
M 9.8125 72.90625 
L 32.078125 72.90625 
Q 44.34375 72.90625 50.609375 67.359375 
Q 56.890625 61.8125 56.890625 51.125 
Q 56.890625 40.328125 50.609375 34.8125 
Q 44.34375 29.296875 32.078125 29.296875 
L 19.671875 29.296875 
L 19.671875 0 
L 9.8125 0 
z
" id="DejaVuSans-80"/>
      <path d="M 46 62.703125 
L 46 35.5 
L 73.1875 35.5 
L 73.1875 27.203125 
L 46 27.203125 
L 46 0 
L 37.796875 0 
L 37.796875 27.203125 
L 10.59375 27.203125 
L 10.59375 35.5 
L 37.796875 35.5 
L 37.796875 62.703125 
z
" id="DejaVuSans-43"/>
     </defs>
     <g transform="translate(37 304.885938)scale(0.1 -0.1)">
      <use xlink:href="#DejaVuSans-67"/>
      <use x="69.824219" xlink:href="#DejaVuSans-111"/>
      <use x="131.005859" xlink:href="#DejaVuSans-68"/>
      <use x="207.992188" xlink:href="#DejaVuSans-65"/>
      <use x="276.369141" xlink:href="#DejaVuSans-45"/>
      <use x="312.453125" xlink:href="#DejaVuSans-80"/>
      <use x="372.755859" xlink:href="#DejaVuSans-67"/>
      <use x="442.580078" xlink:href="#DejaVuSans-65"/>
      <use x="510.988281" xlink:href="#DejaVuSans-32"/>
      <use x="542.775391" xlink:href="#DejaVuSans-43"/>
      <use x="626.564453" xlink:href="#DejaVuSans-32"/>
      <use x="658.351562" xlink:href="#DejaVuSans-76"/>
      <use x="714.048828" xlink:href="#DejaVuSans-111"/>
      <use x="775.230469" xlink:href="#DejaVuSans-103"/>
      <use x="838.707031" xlink:href="#DejaVuSans-105"/>
      <use x="866.490234" xlink:href="#DejaVuSans-115"/>
      <use x="918.589844" xlink:href="#DejaVuSans-116"/>
      <use x="957.798828" xlink:href="#DejaVuSans-105"/>
      <use x="985.582031" xlink:href="#DejaVuSans-99"/>
      <use x="1040.5625" xlink:href="#DejaVuSans-32"/>
      <use x="1072.349609" xlink:href="#DejaVuSans-82"/>
      <use x="1141.769531" xlink:href="#DejaVuSans-101"/>
      <use x="1203.292969" xlink:href="#DejaVuSans-103"/>
      <use x="1266.769531" xlink:href="#DejaVuSans-114"/>
      <use x="1307.851562" xlink:href="#DejaVuSans-101"/>
      <use x="1369.375" xlink:href="#DejaVuSans-115"/>
      <use x="1421.474609" xlink:href="#DejaVuSans-115"/>
      <use x="1473.574219" xlink:href="#DejaVuSans-105"/>
      <use x="1501.357422" xlink:href="#DejaVuSans-111"/>
      <use x="1562.539062" xlink:href="#DejaVuSans-110"/>
     </g>
    </g>
    <g id="PathCollection_6">
     <g>
      <use style="fill:#0000ff;stroke:#0000ff;" x="19" xlink:href="#m4e1375415a" y="316.939062"/>
     </g>
    </g>
    <g id="text_12">
     <!-- CLR-PCA + Logistic Regression -->
     <g transform="translate(37 319.564062)scale(0.1 -0.1)">
      <use xlink:href="#DejaVuSans-67"/>
      <use x="69.824219" xlink:href="#DejaVuSans-76"/>
      <use x="125.537109" xlink:href="#DejaVuSans-82"/>
      <use x="194.957031" xlink:href="#DejaVuSans-45"/>
      <use x="231.041016" xlink:href="#DejaVuSans-80"/>
      <use x="291.34375" xlink:href="#DejaVuSans-67"/>
      <use x="361.167969" xlink:href="#DejaVuSans-65"/>
      <use x="429.576172" xlink:href="#DejaVuSans-32"/>
      <use x="461.363281" xlink:href="#DejaVuSans-43"/>
      <use x="545.152344" xlink:href="#DejaVuSans-32"/>
      <use x="576.939453" xlink:href="#DejaVuSans-76"/>
      <use x="632.636719" xlink:href="#DejaVuSans-111"/>
      <use x="693.818359" xlink:href="#DejaVuSans-103"/>
      <use x="757.294922" xlink:href="#DejaVuSans-105"/>
      <use x="785.078125" xlink:href="#DejaVuSans-115"/>
      <use x="837.177734" xlink:href="#DejaVuSans-116"/>
      <use x="876.386719" xlink:href="#DejaVuSans-105"/>
      <use x="904.169922" xlink:href="#DejaVuSans-99"/>
      <use x="959.150391" xlink:href="#DejaVuSans-32"/>
      <use x="990.9375" xlink:href="#DejaVuSans-82"/>
      <use x="1060.357422" xlink:href="#DejaVuSans-101"/>
      <use x="1121.880859" xlink:href="#DejaVuSans-103"/>
      <use x="1185.357422" xlink:href="#DejaVuSans-114"/>
      <use x="1226.439453" xlink:href="#DejaVuSans-101"/>
      <use x="1287.962891" xlink:href="#DejaVuSans-115"/>
      <use x="1340.0625" xlink:href="#DejaVuSans-115"/>
      <use x="1392.162109" xlink:href="#DejaVuSans-105"/>
      <use x="1419.945312" xlink:href="#DejaVuSans-111"/>
      <use x="1481.126953" xlink:href="#DejaVuSans-110"/>
     </g>
    </g>
    <g id="PathCollection_7">
     <g>
      <use style="fill:#008000;stroke:#008000;" x="19" xlink:href="#m78a3b607a3" y="331.617188"/>
     </g>
    </g>
    <g id="text_13">
     <!-- PCA + Logistic Regression -->
     <g transform="translate(37 334.242188)scale(0.1 -0.1)">
      <use xlink:href="#DejaVuSans-80"/>
      <use x="60.302734" xlink:href="#DejaVuSans-67"/>
      <use x="130.126953" xlink:href="#DejaVuSans-65"/>
      <use x="198.535156" xlink:href="#DejaVuSans-32"/>
      <use x="230.322266" xlink:href="#DejaVuSans-43"/>
      <use x="314.111328" xlink:href="#DejaVuSans-32"/>
      <use x="345.898438" xlink:href="#DejaVuSans-76"/>
      <use x="401.595703" xlink:href="#DejaVuSans-111"/>
      <use x="462.777344" xlink:href="#DejaVuSans-103"/>
      <use x="526.253906" xlink:href="#DejaVuSans-105"/>
      <use x="554.037109" xlink:href="#DejaVuSans-115"/>
      <use x="606.136719" xlink:href="#DejaVuSans-116"/>
      <use x="645.345703" xlink:href="#DejaVuSans-105"/>
      <use x="673.128906" xlink:href="#DejaVuSans-99"/>
      <use x="728.109375" xlink:href="#DejaVuSans-32"/>
      <use x="759.896484" xlink:href="#DejaVuSans-82"/>
      <use x="829.316406" xlink:href="#DejaVuSans-101"/>
      <use x="890.839844" xlink:href="#DejaVuSans-103"/>
      <use x="954.316406" xlink:href="#DejaVuSans-114"/>
      <use x="995.398438" xlink:href="#DejaVuSans-101"/>
      <use x="1056.921875" xlink:href="#DejaVuSans-115"/>
      <use x="1109.021484" xlink:href="#DejaVuSans-115"/>
      <use x="1161.121094" xlink:href="#DejaVuSans-105"/>
      <use x="1188.904297" xlink:href="#DejaVuSans-111"/>
      <use x="1250.085938" xlink:href="#DejaVuSans-110"/>
     </g>
    </g>
    <g id="PathCollection_8">
     <g>
      <use style="fill:#ffff00;stroke:#ffff00;" x="19" xlink:href="#m3f64e23798" y="346.295313"/>
     </g>
    </g>
    <g id="text_14">
     <!-- Logistic Regression -->
     <g transform="translate(37 348.920313)scale(0.1 -0.1)">
      <use xlink:href="#DejaVuSans-76"/>
      <use x="55.697266" xlink:href="#DejaVuSans-111"/>
      <use x="116.878906" xlink:href="#DejaVuSans-103"/>
      <use x="180.355469" xlink:href="#DejaVuSans-105"/>
      <use x="208.138672" xlink:href="#DejaVuSans-115"/>
      <use x="260.238281" xlink:href="#DejaVuSans-116"/>
      <use x="299.447266" xlink:href="#DejaVuSans-105"/>
      <use x="327.230469" xlink:href="#DejaVuSans-99"/>
      <use x="382.210938" xlink:href="#DejaVuSans-32"/>
      <use x="413.998047" xlink:href="#DejaVuSans-82"/>
      <use x="483.417969" xlink:href="#DejaVuSans-101"/>
      <use x="544.941406" xlink:href="#DejaVuSans-103"/>
      <use x="608.417969" xlink:href="#DejaVuSans-114"/>
      <use x="649.5" xlink:href="#DejaVuSans-101"/>
      <use x="711.023438" xlink:href="#DejaVuSans-115"/>
      <use x="763.123047" xlink:href="#DejaVuSans-115"/>
      <use x="815.222656" xlink:href="#DejaVuSans-105"/>
      <use x="843.005859" xlink:href="#DejaVuSans-111"/>
      <use x="904.1875" xlink:href="#DejaVuSans-110"/>
     </g>
    </g>
   </g>
  </g>
 </g>
 <defs>
  <clipPath id="p59edad993c">
   <rect height="360" width="720" x="0" y="0"/>
  </clipPath>
 </defs>
</svg>
