<?xml version="1.0" encoding="utf-8" standalone="no"?>
<!DOCTYPE svg PUBLIC "-//W3C//DTD SVG 1.1//EN"
  "http://www.w3.org/Graphics/SVG/1.1/DTD/svg11.dtd">
<!-- Created with matplotlib (https://matplotlib.org/) -->
<svg height="360pt" version="1.1" viewBox="0 0 720 360" width="720pt" xmlns="http://www.w3.org/2000/svg" xmlns:xlink="http://www.w3.org/1999/xlink">
 <defs>
  <style type="text/css">
*{stroke-linecap:butt;stroke-linejoin:round;}
  </style>
 </defs>
 <g id="figure_1">
  <g id="patch_1">
   <path d="M 0 360 
L 720 360 
L 720 0 
L 0 0 
z
" style="fill:#ffffff;"/>
  </g>
  <g id="axes_1">
   <g id="patch_2">
    <path d="M 0 360 
L 720 360 
L 720 0 
L 0 0 
z
" style="fill:#ffffff;"/>
   </g>
   <g id="PathCollection_1">
    <defs>
     <path d="M 0 3 
C 0.795609 3 1.55874 2.683901 2.12132 2.12132 
C 2.683901 1.55874 3 0.795609 3 0 
C 3 -0.795609 2.683901 -1.55874 2.12132 -2.12132 
C 1.55874 -2.683901 0.795609 -3 0 -3 
C -0.795609 -3 -1.55874 -2.683901 -2.12132 -2.12132 
C -2.683901 -1.55874 -3 -0.795609 -3 0 
C -3 0.795609 -2.683901 1.55874 -2.12132 2.12132 
C -1.55874 2.683901 -0.795609 3 0 3 
z
" id="mc3861ddf6b" style="stroke:#ff0000;"/>
    </defs>
    <g clip-path="url(#p2b1177025c)">
     <use style="fill:#ff0000;stroke:#ff0000;" x="54.545455" xlink:href="#mc3861ddf6b" y="52.53394"/>
     <use style="fill:#ff0000;stroke:#ff0000;" x="141.818182" xlink:href="#mc3861ddf6b" y="65.154518"/>
     <use style="fill:#ff0000;stroke:#ff0000;" x="229.090909" xlink:href="#mc3861ddf6b" y="69.365326"/>
     <use style="fill:#ff0000;stroke:#ff0000;" x="316.363636" xlink:href="#mc3861ddf6b" y="65.142673"/>
     <use style="fill:#ff0000;stroke:#ff0000;" x="403.636364" xlink:href="#mc3861ddf6b" y="38.622285"/>
     <use style="fill:#ff0000;stroke:#ff0000;" x="490.909091" xlink:href="#mc3861ddf6b" y="56.77436"/>
     <use style="fill:#ff0000;stroke:#ff0000;" x="578.181818" xlink:href="#mc3861ddf6b" y="27.405309"/>
     <use style="fill:#ff0000;stroke:#ff0000;" x="665.454545" xlink:href="#mc3861ddf6b" y="37.200915"/>
    </g>
   </g>
   <g id="PathCollection_2">
    <defs>
     <path d="M 0 3 
C 0.795609 3 1.55874 2.683901 2.12132 2.12132 
C 2.683901 1.55874 3 0.795609 3 0 
C 3 -0.795609 2.683901 -1.55874 2.12132 -2.12132 
C 1.55874 -2.683901 0.795609 -3 0 -3 
C -0.795609 -3 -1.55874 -2.683901 -2.12132 -2.12132 
C -2.683901 -1.55874 -3 -0.795609 -3 0 
C -3 0.795609 -2.683901 1.55874 -2.12132 2.12132 
C -1.55874 2.683901 -0.795609 3 0 3 
z
" id="m826e7bd79a" style="stroke:#0000ff;"/>
    </defs>
    <g clip-path="url(#p2b1177025c)">
     <use style="fill:#0000ff;stroke:#0000ff;" x="54.545455" xlink:href="#m826e7bd79a" y="40.00812"/>
     <use style="fill:#0000ff;stroke:#0000ff;" x="141.818182" xlink:href="#m826e7bd79a" y="62.406537"/>
     <use style="fill:#0000ff;stroke:#0000ff;" x="229.090909" xlink:href="#m826e7bd79a" y="83.371739"/>
     <use style="fill:#0000ff;stroke:#0000ff;" x="316.363636" xlink:href="#m826e7bd79a" y="67.985413"/>
     <use style="fill:#0000ff;stroke:#0000ff;" x="403.636364" xlink:href="#m826e7bd79a" y="30.218437"/>
     <use style="fill:#0000ff;stroke:#0000ff;" x="490.909091" xlink:href="#m826e7bd79a" y="56.798049"/>
     <use style="fill:#0000ff;stroke:#0000ff;" x="578.181818" xlink:href="#m826e7bd79a" y="37.248294"/>
     <use style="fill:#0000ff;stroke:#0000ff;" x="665.454545" xlink:href="#m826e7bd79a" y="51.183639"/>
    </g>
   </g>
   <g id="PathCollection_3">
    <defs>
     <path d="M 0 3 
C 0.795609 3 1.55874 2.683901 2.12132 2.12132 
C 2.683901 1.55874 3 0.795609 3 0 
C 3 -0.795609 2.683901 -1.55874 2.12132 -2.12132 
C 1.55874 -2.683901 0.795609 -3 0 -3 
C -0.795609 -3 -1.55874 -2.683901 -2.12132 -2.12132 
C -2.683901 -1.55874 -3 -0.795609 -3 0 
C -3 0.795609 -2.683901 1.55874 -2.12132 2.12132 
C -1.55874 2.683901 -0.795609 3 0 3 
z
" id="m457c4f0dfd" style="stroke:#008000;"/>
    </defs>
    <g clip-path="url(#p2b1177025c)">
     <use style="fill:#008000;stroke:#008000;" x="54.545455" xlink:href="#m457c4f0dfd" y="66.569965"/>
     <use style="fill:#008000;stroke:#008000;" x="141.818182" xlink:href="#m457c4f0dfd" y="72.190298"/>
     <use style="fill:#008000;stroke:#008000;" x="229.090909" xlink:href="#m457c4f0dfd" y="69.37717"/>
     <use style="fill:#008000;stroke:#008000;" x="316.363636" xlink:href="#m457c4f0dfd" y="53.990844"/>
     <use style="fill:#008000;stroke:#008000;" x="403.636364" xlink:href="#m457c4f0dfd" y="30.206592"/>
     <use style="fill:#008000;stroke:#008000;" x="490.909091" xlink:href="#m457c4f0dfd" y="60.955555"/>
     <use style="fill:#008000;stroke:#008000;" x="578.181818" xlink:href="#m457c4f0dfd" y="42.82717"/>
     <use style="fill:#008000;stroke:#008000;" x="665.454545" xlink:href="#m457c4f0dfd" y="51.183639"/>
    </g>
   </g>
   <g id="PathCollection_4">
    <defs>
     <path d="M 0 3 
C 0.795609 3 1.55874 2.683901 2.12132 2.12132 
C 2.683901 1.55874 3 0.795609 3 0 
C 3 -0.795609 2.683901 -1.55874 2.12132 -2.12132 
C 1.55874 -2.683901 0.795609 -3 0 -3 
C -0.795609 -3 -1.55874 -2.683901 -2.12132 -2.12132 
C -2.683901 -1.55874 -3 -0.795609 -3 0 
C -3 0.795609 -2.683901 1.55874 -2.12132 2.12132 
C -1.55874 2.683901 -0.795609 3 0 3 
z
" id="m06393ac2a3" style="stroke:#ffff00;"/>
    </defs>
    <g clip-path="url(#p2b1177025c)">
     <use style="fill:#ffff00;stroke:#ffff00;" x="54.545455" xlink:href="#m06393ac2a3" y="65.130829"/>
     <use style="fill:#ffff00;stroke:#ffff00;" x="141.818182" xlink:href="#m06393ac2a3" y="65.130829"/>
     <use style="fill:#ffff00;stroke:#ffff00;" x="229.090909" xlink:href="#m06393ac2a3" y="63.739071"/>
     <use style="fill:#ffff00;stroke:#ffff00;" x="316.363636" xlink:href="#m06393ac2a3" y="63.739071"/>
     <use style="fill:#ffff00;stroke:#ffff00;" x="403.636364" xlink:href="#m06393ac2a3" y="35.761778"/>
     <use style="fill:#ffff00;stroke:#ffff00;" x="490.909091" xlink:href="#m06393ac2a3" y="35.761778"/>
     <use style="fill:#ffff00;stroke:#ffff00;" x="578.181818" xlink:href="#m06393ac2a3" y="49.732657"/>
     <use style="fill:#ffff00;stroke:#ffff00;" x="665.454545" xlink:href="#m06393ac2a3" y="49.732657"/>
    </g>
   </g>
   <g id="PolyCollection_1">
    <path clip-path="url(#p2b1177025c)" d="M 54.868398 336.636118 
L 54.222511 336.636118 
L 54.203531 333.865524 
L 54.187997 331.09493 
L 54.175744 328.324336 
L 54.166332 325.553742 
L 54.15911 322.783148 
L 54.153306 320.012554 
L 54.148139 317.24196 
L 54.142918 314.471366 
L 54.137124 311.700772 
L 54.130469 308.930178 
L 54.122911 306.159584 
L 54.114629 303.38899 
L 54.105976 300.618396 
L 54.097395 297.847802 
L 54.08934 295.077208 
L 54.082202 292.306614 
L 54.076253 289.53602 
L 54.071622 286.765426 
L 54.068306 283.994832 
L 54.0662 281.224238 
L 54.065151 278.453644 
L 54.065006 275.68305 
L 54.065644 272.912456 
L 54.066983 270.141862 
L 54.068945 267.371268 
L 54.071394 264.600674 
L 54.074044 261.83008 
L 54.076359 259.059486 
L 54.07746 256.288892 
L 54.07607 253.518298 
L 54.070494 250.747704 
L 54.058676 247.97711 
L 54.038303 245.206516 
L 54.006991 242.435922 
L 53.962513 239.665328 
L 53.903067 236.894734 
L 53.827558 234.12414 
L 53.735848 231.353546 
L 53.628956 228.582953 
L 53.509152 225.812359 
L 53.379931 223.041765 
L 53.245829 220.271171 
L 53.112096 217.500577 
L 52.984228 214.729983 
L 52.867421 211.959389 
L 52.765992 209.188795 
L 52.682847 206.418201 
L 52.619087 203.647607 
L 52.573794 200.877013 
L 52.544061 198.106419 
L 52.525269 195.335825 
L 52.511599 192.565231 
L 52.496719 189.794637 
L 52.474573 187.024043 
L 52.440166 184.253449 
L 52.390255 181.482855 
L 52.32385 178.712261 
L 52.24244 175.941667 
L 52.149925 173.171073 
L 52.052226 170.400479 
L 51.956632 167.629885 
L 51.870941 164.859291 
L 51.802521 162.088697 
L 51.757404 159.318103 
L 51.739545 156.547509 
L 51.750345 153.776915 
L 51.788507 151.006321 
L 51.850229 148.235727 
L 51.929697 145.465133 
L 52.019769 142.694539 
L 52.112718 139.923945 
L 52.200886 137.153351 
L 52.277103 134.382757 
L 52.334783 131.612163 
L 52.36764 128.841569 
L 52.369052 126.070975 
L 52.331159 123.300381 
L 52.243855 120.529787 
L 52.093852 117.759193 
L 51.864066 114.988599 
L 51.533533 112.218005 
L 51.078093 109.447411 
L 50.471961 106.676817 
L 49.690279 103.906223 
L 48.712544 101.135629 
L 47.526673 98.365035 
L 46.133275 95.594441 
L 44.549537 92.823847 
L 42.812008 90.053253 
L 40.977591 87.282659 
L 39.122176 84.512065 
L 37.336622 81.741471 
L 35.720186 78.970877 
L 34.371971 76.200283 
L 33.381349 73.429689 
L 32.818625 70.659095 
L 32.727273 67.888501 
L 33.118941 65.117907 
L 33.971999 62.347313 
L 75.11891 62.347313 
L 75.11891 62.347313 
L 75.971968 65.117907 
L 76.363636 67.888501 
L 76.272284 70.659095 
L 75.70956 73.429689 
L 74.718938 76.200283 
L 73.370723 78.970877 
L 71.754287 81.741471 
L 69.968733 84.512065 
L 68.113318 87.282659 
L 66.278901 90.053253 
L 64.541372 92.823847 
L 62.957634 95.594441 
L 61.564237 98.365035 
L 60.378365 101.135629 
L 59.40063 103.906223 
L 58.618948 106.676817 
L 58.012816 109.447411 
L 57.557376 112.218005 
L 57.226843 114.988599 
L 56.997057 117.759193 
L 56.847054 120.529787 
L 56.75975 123.300381 
L 56.721857 126.070975 
L 56.723269 128.841569 
L 56.756126 131.612163 
L 56.813806 134.382757 
L 56.890023 137.153351 
L 56.978191 139.923945 
L 57.07114 142.694539 
L 57.161212 145.465133 
L 57.24068 148.235727 
L 57.302402 151.006321 
L 57.340564 153.776915 
L 57.351364 156.547509 
L 57.333505 159.318103 
L 57.288388 162.088697 
L 57.219968 164.859291 
L 57.134277 167.629885 
L 57.038683 170.400479 
L 56.940984 173.171073 
L 56.848469 175.941667 
L 56.767059 178.712261 
L 56.700654 181.482855 
L 56.650743 184.253449 
L 56.616336 187.024043 
L 56.59419 189.794637 
L 56.57931 192.565231 
L 56.56564 195.335825 
L 56.546848 198.106419 
L 56.517115 200.877013 
L 56.471822 203.647607 
L 56.408062 206.418201 
L 56.324918 209.188795 
L 56.223488 211.959389 
L 56.106681 214.729983 
L 55.978813 217.500577 
L 55.84508 220.271171 
L 55.710978 223.041765 
L 55.581757 225.812359 
L 55.461953 228.582953 
L 55.355061 231.353546 
L 55.263351 234.12414 
L 55.187842 236.894734 
L 55.128396 239.665328 
L 55.083918 242.435922 
L 55.052606 245.206516 
L 55.032233 247.97711 
L 55.020415 250.747704 
L 55.014839 253.518298 
L 55.013449 256.288892 
L 55.01455 259.059486 
L 55.016865 261.83008 
L 55.019515 264.600674 
L 55.021965 267.371268 
L 55.023926 270.141862 
L 55.025265 272.912456 
L 55.025903 275.68305 
L 55.025758 278.453644 
L 55.024709 281.224238 
L 55.022604 283.994832 
L 55.019287 286.765426 
L 55.014656 289.53602 
L 55.008707 292.306614 
L 55.001569 295.077208 
L 54.993514 297.847802 
L 54.984933 300.618396 
L 54.97628 303.38899 
L 54.967999 306.159584 
L 54.96044 308.930178 
L 54.953786 311.700772 
L 54.947992 314.471366 
L 54.94277 317.24196 
L 54.937603 320.012554 
L 54.9318 322.783148 
L 54.924577 325.553742 
L 54.915165 328.324336 
L 54.902912 331.09493 
L 54.887378 333.865524 
L 54.868398 336.636118 
z
" style="fill:#1f77b4;fill-opacity:0.3;"/>
   </g>
   <g id="PolyCollection_2">
    <path clip-path="url(#p2b1177025c)" d="M 142.119846 343.624519 
L 141.516518 343.624519 
L 141.511089 340.797274 
L 141.513281 337.970028 
L 141.522503 335.142783 
L 141.537496 332.315537 
L 141.556477 329.488292 
L 141.577345 326.661047 
L 141.597933 323.833801 
L 141.616244 321.006556 
L 141.630657 318.17931 
L 141.640061 315.352065 
L 141.643912 312.52482 
L 141.6422 309.697574 
L 141.635358 306.870329 
L 141.624114 304.043084 
L 141.609328 301.215838 
L 141.591836 298.388593 
L 141.572327 295.561347 
L 141.551272 292.734102 
L 141.528903 289.906857 
L 141.505248 287.079611 
L 141.480185 284.252366 
L 141.45352 281.42512 
L 141.425043 278.597875 
L 141.394559 275.77063 
L 141.361876 272.943384 
L 141.326759 270.116139 
L 141.288865 267.288894 
L 141.247661 264.461648 
L 141.202367 261.634403 
L 141.151919 258.807157 
L 141.094978 255.979912 
L 141.029982 253.152667 
L 140.955235 250.325421 
L 140.869027 247.498176 
L 140.769776 244.67093 
L 140.656188 241.843685 
L 140.527412 239.01644 
L 140.383209 236.189194 
L 140.224101 233.361949 
L 140.051507 230.534704 
L 139.867833 227.707458 
L 139.676493 224.880213 
L 139.481836 222.052967 
L 139.288954 219.225722 
L 139.103362 216.398477 
L 138.930576 213.571231 
L 138.775607 210.743986 
L 138.642447 207.916741 
L 138.5336 205.089495 
L 138.449729 202.26225 
L 138.389466 199.435004 
L 138.349402 196.607759 
L 138.324269 193.780514 
L 138.307273 190.953268 
L 138.290551 188.126023 
L 138.265699 185.298777 
L 138.224346 182.471532 
L 138.158711 179.644287 
L 138.062132 176.817041 
L 137.929501 173.989796 
L 137.757582 171.162551 
L 137.545144 168.335305 
L 137.292882 165.50806 
L 137.003135 162.680814 
L 136.679403 159.853569 
L 136.325793 157.026324 
L 135.946482 154.199078 
L 135.545344 151.371833 
L 135.12584 148.544587 
L 134.691218 145.717342 
L 134.24495 142.890097 
L 133.791303 140.062851 
L 133.335816 137.235606 
L 132.88552 134.408361 
L 132.448711 131.581115 
L 132.034235 128.75387 
L 131.650309 125.926624 
L 131.30301 123.099379 
L 130.994652 120.272134 
L 130.722251 117.444888 
L 130.476341 114.617643 
L 130.240339 111.790398 
L 129.990683 108.963152 
L 129.697945 106.135907 
L 129.329113 103.308661 
L 128.851129 100.481416 
L 128.23563 97.654171 
L 127.464565 94.826925 
L 126.536021 91.99968 
L 125.469292 89.172434 
L 124.308009 86.345189 
L 123.120194 83.517944 
L 121.994476 80.690698 
L 121.032298 77.863453 
L 120.336818 75.036208 
L 120 72.208962 
L 120.089983 69.381717 
L 120.640983 66.554471 
L 121.647648 63.727226 
L 161.988716 63.727226 
L 161.988716 63.727226 
L 162.995381 66.554471 
L 163.546381 69.381717 
L 163.636364 72.208962 
L 163.299546 75.036208 
L 162.604066 77.863453 
L 161.641887 80.690698 
L 160.516169 83.517944 
L 159.328355 86.345189 
L 158.167071 89.172434 
L 157.100343 91.99968 
L 156.171799 94.826925 
L 155.400733 97.654171 
L 154.785234 100.481416 
L 154.30725 103.308661 
L 153.938419 106.135907 
L 153.645681 108.963152 
L 153.396024 111.790398 
L 153.160022 114.617643 
L 152.914113 117.444888 
L 152.641712 120.272134 
L 152.333353 123.099379 
L 151.986055 125.926624 
L 151.602128 128.75387 
L 151.187653 131.581115 
L 150.750844 134.408361 
L 150.300547 137.235606 
L 149.845061 140.062851 
L 149.391413 142.890097 
L 148.945146 145.717342 
L 148.510523 148.544587 
L 148.09102 151.371833 
L 147.689881 154.199078 
L 147.31057 157.026324 
L 146.956961 159.853569 
L 146.633229 162.680814 
L 146.343481 165.50806 
L 146.09122 168.335305 
L 145.878781 171.162551 
L 145.706862 173.989796 
L 145.574232 176.817041 
L 145.477653 179.644287 
L 145.412018 182.471532 
L 145.370665 185.298777 
L 145.345813 188.126023 
L 145.32909 190.953268 
L 145.312094 193.780514 
L 145.286962 196.607759 
L 145.246898 199.435004 
L 145.186635 202.26225 
L 145.102764 205.089495 
L 144.993917 207.916741 
L 144.860756 210.743986 
L 144.705787 213.571231 
L 144.533001 216.398477 
L 144.34741 219.225722 
L 144.154527 222.052967 
L 143.959871 224.880213 
L 143.768531 227.707458 
L 143.584857 230.534704 
L 143.412263 233.361949 
L 143.253155 236.189194 
L 143.108951 239.01644 
L 142.980176 241.843685 
L 142.866587 244.67093 
L 142.767337 247.498176 
L 142.681129 250.325421 
L 142.606382 253.152667 
L 142.541386 255.979912 
L 142.484445 258.807157 
L 142.433997 261.634403 
L 142.388702 264.461648 
L 142.347499 267.288894 
L 142.309605 270.116139 
L 142.274488 272.943384 
L 142.241804 275.77063 
L 142.21132 278.597875 
L 142.182844 281.42512 
L 142.156179 284.252366 
L 142.131116 287.079611 
L 142.10746 289.906857 
L 142.085092 292.734102 
L 142.064037 295.561347 
L 142.044528 298.388593 
L 142.027035 301.215838 
L 142.012249 304.043084 
L 142.001005 306.870329 
L 141.994164 309.697574 
L 141.992452 312.52482 
L 141.996302 315.352065 
L 142.005707 318.17931 
L 142.02012 321.006556 
L 142.038431 323.833801 
L 142.059018 326.661047 
L 142.079887 329.488292 
L 142.098867 332.315537 
L 142.113861 335.142783 
L 142.123083 337.970028 
L 142.125274 340.797274 
L 142.119846 343.624519 
z
" style="fill:#1f77b4;fill-opacity:0.3;"/>
   </g>
   <g id="PolyCollection_3">
    <path clip-path="url(#p2b1177025c)" d="M 229.537453 343.636364 
L 228.644365 343.636364 
L 228.614882 340.823176 
L 228.584412 338.009989 
L 228.551979 335.196802 
L 228.516457 332.383615 
L 228.476649 329.570428 
L 228.431399 326.75724 
L 228.379691 323.944053 
L 228.320755 321.130866 
L 228.254154 318.317679 
L 228.179842 315.504491 
L 228.098186 312.691304 
L 228.009953 309.878117 
L 227.91625 307.06493 
L 227.81844 304.251743 
L 227.718021 301.438555 
L 227.616498 298.625368 
L 227.515262 295.812181 
L 227.415471 292.998994 
L 227.317971 290.185806 
L 227.223247 287.372619 
L 227.13142 284.559432 
L 227.042279 281.746245 
L 226.95535 278.933057 
L 226.869986 276.11987 
L 226.785471 273.306683 
L 226.701125 270.493496 
L 226.616384 267.680309 
L 226.530873 264.867121 
L 226.444442 262.053934 
L 226.35717 259.240747 
L 226.26936 256.42756 
L 226.181494 253.614372 
L 226.094193 250.801185 
L 226.008167 247.987998 
L 225.924169 245.174811 
L 225.842954 242.361624 
L 225.765254 239.548436 
L 225.691751 236.735249 
L 225.623057 233.922062 
L 225.559693 231.108875 
L 225.502056 228.295687 
L 225.450381 225.4825 
L 225.40469 222.669313 
L 225.364729 219.856126 
L 225.329912 217.042939 
L 225.299274 214.229751 
L 225.271434 211.416564 
L 225.244608 208.603377 
L 225.216653 205.79019 
L 225.185163 202.977002 
L 225.147621 200.163815 
L 225.101589 197.350628 
L 225.044935 194.537441 
L 224.976073 191.724254 
L 224.894198 188.911066 
L 224.799476 186.097879 
L 224.693186 183.284692 
L 224.577777 180.471505 
L 224.45682 177.658317 
L 224.334866 174.84513 
L 224.217195 172.031943 
L 224.10948 169.218756 
L 224.017387 166.405569 
L 223.946139 163.592381 
L 223.900079 160.779194 
L 223.882269 157.966007 
L 223.894151 155.15282 
L 223.93529 152.339632 
L 224.003221 149.526445 
L 224.093382 146.713258 
L 224.199146 143.900071 
L 224.311913 141.086884 
L 224.421264 138.273696 
L 224.51514 135.460509 
L 224.580056 132.647322 
L 224.601336 129.834135 
L 224.563403 127.020947 
L 224.45013 124.20776 
L 224.245306 121.394573 
L 223.933244 118.581386 
L 223.499567 115.768199 
L 222.932165 112.955011 
L 222.222322 110.141824 
L 221.365945 107.328637 
L 220.364812 104.51545 
L 219.227702 101.702262 
L 217.971283 98.889075 
L 216.620574 96.075888 
L 215.208862 93.262701 
L 213.776973 90.449514 
L 212.371829 87.636326 
L 211.044343 84.823139 
L 209.846741 82.009952 
L 208.829505 79.196765 
L 208.038171 76.383577 
L 207.510275 73.57039 
L 207.272727 70.757203 
L 207.339872 67.944016 
L 207.712438 65.130829 
L 250.46938 65.130829 
L 250.46938 65.130829 
L 250.841946 67.944016 
L 250.909091 70.757203 
L 250.671543 73.57039 
L 250.143647 76.383577 
L 249.352313 79.196765 
L 248.335077 82.009952 
L 247.137475 84.823139 
L 245.809989 87.636326 
L 244.404845 90.449514 
L 242.972956 93.262701 
L 241.561244 96.075888 
L 240.210535 98.889075 
L 238.954116 101.702262 
L 237.817007 104.51545 
L 236.815873 107.328637 
L 235.959496 110.141824 
L 235.249653 112.955011 
L 234.682251 115.768199 
L 234.248574 118.581386 
L 233.936513 121.394573 
L 233.731688 124.20776 
L 233.618415 127.020947 
L 233.580482 129.834135 
L 233.601763 132.647322 
L 233.666678 135.460509 
L 233.760554 138.273696 
L 233.869905 141.086884 
L 233.982672 143.900071 
L 234.088436 146.713258 
L 234.178598 149.526445 
L 234.246528 152.339632 
L 234.287668 155.15282 
L 234.299549 157.966007 
L 234.28174 160.779194 
L 234.23568 163.592381 
L 234.164431 166.405569 
L 234.072339 169.218756 
L 233.964624 172.031943 
L 233.846952 174.84513 
L 233.724998 177.658317 
L 233.604041 180.471505 
L 233.488632 183.284692 
L 233.382343 186.097879 
L 233.28762 188.911066 
L 233.205745 191.724254 
L 233.136884 194.537441 
L 233.08023 197.350628 
L 233.034197 200.163815 
L 232.996655 202.977002 
L 232.965166 205.79019 
L 232.93721 208.603377 
L 232.910384 211.416564 
L 232.882545 214.229751 
L 232.851906 217.042939 
L 232.81709 219.856126 
L 232.777128 222.669313 
L 232.731437 225.4825 
L 232.679762 228.295687 
L 232.622126 231.108875 
L 232.558761 233.922062 
L 232.490067 236.735249 
L 232.416564 239.548436 
L 232.338864 242.361624 
L 232.257649 245.174811 
L 232.173651 247.987998 
L 232.087625 250.801185 
L 232.000324 253.614372 
L 231.912458 256.42756 
L 231.824648 259.240747 
L 231.737377 262.053934 
L 231.650945 264.867121 
L 231.565434 267.680309 
L 231.480693 270.493496 
L 231.396347 273.306683 
L 231.311832 276.11987 
L 231.226468 278.933057 
L 231.139539 281.746245 
L 231.050398 284.559432 
L 230.958571 287.372619 
L 230.863847 290.185806 
L 230.766347 292.998994 
L 230.666556 295.812181 
L 230.56532 298.625368 
L 230.463798 301.438555 
L 230.363378 304.251743 
L 230.265568 307.06493 
L 230.171866 309.878117 
L 230.083632 312.691304 
L 230.001976 315.504491 
L 229.927664 318.317679 
L 229.861064 321.130866 
L 229.802128 323.944053 
L 229.750419 326.75724 
L 229.705169 329.570428 
L 229.665362 332.383615 
L 229.629839 335.196802 
L 229.597406 338.009989 
L 229.566936 340.823176 
L 229.537453 343.636364 
z
" style="fill:#1f77b4;fill-opacity:0.3;"/>
   </g>
   <g id="PolyCollection_4">
    <path clip-path="url(#p2b1177025c)" d="M 316.679268 340.829159 
L 316.048005 340.829159 
L 316.030751 338.001913 
L 316.01718 335.174668 
L 316.006995 332.347422 
L 315.999554 329.520177 
L 315.993954 326.692932 
L 315.989155 323.865686 
L 315.984122 321.038441 
L 315.977969 318.211196 
L 315.970078 315.38395 
L 315.960176 312.556705 
L 315.948346 309.729459 
L 315.93498 306.902214 
L 315.920677 304.074969 
L 315.906094 301.247723 
L 315.891796 298.420478 
L 315.878099 295.593232 
L 315.864963 292.765987 
L 315.851939 289.938742 
L 315.838175 287.111496 
L 315.822497 284.284251 
L 315.80354 281.457006 
L 315.779922 278.62976 
L 315.75042 275.802515 
L 315.714152 272.975269 
L 315.670706 270.148024 
L 315.620233 267.320779 
L 315.563473 264.493533 
L 315.501712 261.666288 
L 315.436687 258.839043 
L 315.37044 256.011797 
L 315.305128 253.184552 
L 315.242833 250.357306 
L 315.185361 247.530061 
L 315.134078 244.702816 
L 315.089794 241.87557 
L 315.052705 239.048325 
L 315.022418 236.221079 
L 314.998047 233.393834 
L 314.978374 230.566589 
L 314.962053 227.739343 
L 314.947816 224.912098 
L 314.934661 222.084853 
L 314.92196 219.257607 
L 314.90949 216.430362 
L 314.897354 213.603116 
L 314.885808 210.775871 
L 314.875024 207.948626 
L 314.864831 205.12138 
L 314.854477 202.294135 
L 314.842473 199.466889 
L 314.826558 196.639644 
L 314.803807 193.812399 
L 314.770878 190.985153 
L 314.724393 188.157908 
L 314.661391 185.330663 
L 314.579799 182.503417 
L 314.478858 179.676172 
L 314.35943 176.848926 
L 314.224134 174.021681 
L 314.077276 171.194436 
L 313.924556 168.36719 
L 313.772599 165.539945 
L 313.628339 162.7127 
L 313.498344 159.885454 
L 313.388182 157.058209 
L 313.301893 154.230963 
L 313.241662 151.403718 
L 313.207707 148.576473 
L 313.198387 145.749227 
L 313.210473 142.921982 
L 313.239501 140.094736 
L 313.280095 137.267491 
L 313.326139 134.440246 
L 313.370727 131.613 
L 313.405839 128.785755 
L 313.421755 125.95851 
L 313.406315 123.131264 
L 313.344154 120.304019 
L 313.216149 117.476773 
L 312.999303 114.649528 
L 312.667301 111.822283 
L 312.191934 108.995037 
L 311.54546 106.167792 
L 310.70387 103.340546 
L 309.650821 100.513301 
L 308.381831 97.686056 
L 306.908183 94.85881 
L 305.259864 92.031565 
L 303.486887 89.20432 
L 301.65845 86.377074 
L 299.859634 83.549829 
L 298.185693 80.722583 
L 296.734363 77.895338 
L 295.597011 75.068093 
L 294.849715 72.240847 
L 294.545455 69.413602 
L 294.708528 66.586356 
L 295.332004 63.759111 
L 296.37857 60.931866 
L 336.348703 60.931866 
L 336.348703 60.931866 
L 337.395269 63.759111 
L 338.018745 66.586356 
L 338.181818 69.413602 
L 337.877557 72.240847 
L 337.130261 75.068093 
L 335.99291 77.895338 
L 334.541579 80.722583 
L 332.867639 83.549829 
L 331.068823 86.377074 
L 329.240385 89.20432 
L 327.467408 92.031565 
L 325.81909 94.85881 
L 324.345442 97.686056 
L 323.076452 100.513301 
L 322.023402 103.340546 
L 321.181813 106.167792 
L 320.535339 108.995037 
L 320.059971 111.822283 
L 319.72797 114.649528 
L 319.511124 117.476773 
L 319.383119 120.304019 
L 319.320958 123.131264 
L 319.305518 125.95851 
L 319.321434 128.785755 
L 319.356546 131.613 
L 319.401134 134.440246 
L 319.447177 137.267491 
L 319.487771 140.094736 
L 319.5168 142.921982 
L 319.528886 145.749227 
L 319.519565 148.576473 
L 319.485611 151.403718 
L 319.42538 154.230963 
L 319.339091 157.058209 
L 319.228928 159.885454 
L 319.098934 162.7127 
L 318.954674 165.539945 
L 318.802717 168.36719 
L 318.649997 171.194436 
L 318.503138 174.021681 
L 318.367843 176.848926 
L 318.248415 179.676172 
L 318.147474 182.503417 
L 318.065881 185.330663 
L 318.002879 188.157908 
L 317.956395 190.985153 
L 317.923466 193.812399 
L 317.900714 196.639644 
L 317.8848 199.466889 
L 317.872796 202.294135 
L 317.862441 205.12138 
L 317.852249 207.948626 
L 317.841465 210.775871 
L 317.829919 213.603116 
L 317.817782 216.430362 
L 317.805313 219.257607 
L 317.792612 222.084853 
L 317.779456 224.912098 
L 317.76522 227.739343 
L 317.748899 230.566589 
L 317.729226 233.393834 
L 317.704855 236.221079 
L 317.674568 239.048325 
L 317.637479 241.87557 
L 317.593195 244.702816 
L 317.541912 247.530061 
L 317.48444 250.357306 
L 317.422144 253.184552 
L 317.356833 256.011797 
L 317.290586 258.839043 
L 317.225561 261.666288 
L 317.1638 264.493533 
L 317.10704 267.320779 
L 317.056567 270.148024 
L 317.013121 272.975269 
L 316.976853 275.802515 
L 316.947351 278.62976 
L 316.923732 281.457006 
L 316.904776 284.284251 
L 316.889098 287.111496 
L 316.875334 289.938742 
L 316.86231 292.765987 
L 316.849174 295.593232 
L 316.835477 298.420478 
L 316.821178 301.247723 
L 316.806596 304.074969 
L 316.792292 306.902214 
L 316.778926 309.729459 
L 316.767096 312.556705 
L 316.757195 315.38395 
L 316.749304 318.211196 
L 316.743151 321.038441 
L 316.738117 323.865686 
L 316.733319 326.692932 
L 316.727719 329.520177 
L 316.720278 332.347422 
L 316.710093 335.174668 
L 316.696522 338.001913 
L 316.679268 340.829159 
z
" style="fill:#1f77b4;fill-opacity:0.3;"/>
   </g>
   <g id="PolyCollection_5">
    <path clip-path="url(#p2b1177025c)" d="M 403.747206 340.829159 
L 403.525521 340.829159 
L 403.521991 338.072683 
L 403.518914 335.316207 
L 403.515619 332.559731 
L 403.511282 329.803255 
L 403.504989 327.046779 
L 403.495824 324.290303 
L 403.482952 321.533827 
L 403.46571 318.777351 
L 403.443672 316.020875 
L 403.416699 313.264399 
L 403.384954 310.507922 
L 403.348879 307.751446 
L 403.309143 304.99497 
L 403.266552 302.238494 
L 403.221952 299.482018 
L 403.176121 296.725542 
L 403.12968 293.969066 
L 403.083041 291.21259 
L 403.036391 288.456114 
L 402.989738 285.699638 
L 402.942996 282.943162 
L 402.896117 280.186686 
L 402.849228 277.43021 
L 402.802756 274.673734 
L 402.757506 271.917258 
L 402.714671 269.160782 
L 402.67575 266.404306 
L 402.642386 263.64783 
L 402.616125 260.891354 
L 402.598134 258.134878 
L 402.588933 255.378402 
L 402.588156 252.621926 
L 402.594428 249.86545 
L 402.605352 247.108974 
L 402.617648 244.352498 
L 402.627434 241.596022 
L 402.630615 238.839546 
L 402.623347 236.08307 
L 402.602515 233.326594 
L 402.566159 230.570118 
L 402.5138 227.813642 
L 402.446599 225.057166 
L 402.367329 222.30069 
L 402.280148 219.544214 
L 402.19018 216.787738 
L 402.102959 214.031262 
L 402.023785 211.274786 
L 401.957081 208.51831 
L 401.905827 205.761834 
L 401.871149 203.005358 
L 401.852132 200.248882 
L 401.845871 197.492406 
L 401.847786 194.73593 
L 401.852146 191.979454 
L 401.852757 189.222978 
L 401.843719 186.466502 
L 401.82017 183.710026 
L 401.778915 180.95355 
L 401.718873 178.197074 
L 401.641266 175.440598 
L 401.549544 172.684122 
L 401.449036 169.927646 
L 401.346365 167.17117 
L 401.248708 164.414694 
L 401.162983 161.658218 
L 401.095066 158.901742 
L 401.049153 156.145266 
L 401.027341 153.38879 
L 401.029482 150.632314 
L 401.053329 147.875838 
L 401.094931 145.119362 
L 401.149188 142.362886 
L 401.210459 139.60641 
L 401.273081 136.849934 
L 401.331682 134.093458 
L 401.381182 131.336982 
L 401.416445 128.580506 
L 401.431581 125.82403 
L 401.419004 123.067554 
L 401.368365 120.311078 
L 401.265575 117.554602 
L 401.092156 114.798126 
L 400.825154 112.04165 
L 400.437847 109.285174 
L 399.901405 106.528698 
L 399.187567 103.772222 
L 398.27224 101.015746 
L 397.13976 98.25927 
L 395.787359 95.502794 
L 394.229231 92.746318 
L 392.499478 89.989842 
L 390.653243 87.233366 
L 388.765463 84.47689 
L 386.926962 81.720414 
L 385.237999 78.963938 
L 383.799788 76.207462 
L 382.704961 73.450986 
L 382.028177 70.69451 
L 381.818182 67.938034 
L 425.454545 67.938034 
L 425.454545 67.938034 
L 425.244551 70.69451 
L 424.567766 73.450986 
L 423.472939 76.207462 
L 422.034728 78.963938 
L 420.345765 81.720414 
L 418.507265 84.47689 
L 416.619484 87.233366 
L 414.773249 89.989842 
L 413.043497 92.746318 
L 411.485368 95.502794 
L 410.132967 98.25927 
L 409.000487 101.015746 
L 408.08516 103.772222 
L 407.371322 106.528698 
L 406.834881 109.285174 
L 406.447573 112.04165 
L 406.180572 114.798126 
L 406.007153 117.554602 
L 405.904363 120.311078 
L 405.853723 123.067554 
L 405.841146 125.82403 
L 405.856283 128.580506 
L 405.891545 131.336982 
L 405.941046 134.093458 
L 405.999647 136.849934 
L 406.062269 139.60641 
L 406.123539 142.362886 
L 406.177796 145.119362 
L 406.219398 147.875838 
L 406.243245 150.632314 
L 406.245386 153.38879 
L 406.223574 156.145266 
L 406.177662 158.901742 
L 406.109745 161.658218 
L 406.024019 164.414694 
L 405.926362 167.17117 
L 405.823691 169.927646 
L 405.723183 172.684122 
L 405.631462 175.440598 
L 405.553855 178.197074 
L 405.493812 180.95355 
L 405.452558 183.710026 
L 405.429008 186.466502 
L 405.41997 189.222978 
L 405.420581 191.979454 
L 405.424942 194.73593 
L 405.426857 197.492406 
L 405.420596 200.248882 
L 405.401578 203.005358 
L 405.3669 205.761834 
L 405.315646 208.51831 
L 405.248942 211.274786 
L 405.169769 214.031262 
L 405.082547 216.787738 
L 404.992579 219.544214 
L 404.905398 222.30069 
L 404.826128 225.057166 
L 404.758927 227.813642 
L 404.706568 230.570118 
L 404.670213 233.326594 
L 404.64938 236.08307 
L 404.642112 238.839546 
L 404.645293 241.596022 
L 404.655079 244.352498 
L 404.667376 247.108974 
L 404.678299 249.86545 
L 404.684571 252.621926 
L 404.683795 255.378402 
L 404.674593 258.134878 
L 404.656603 260.891354 
L 404.630341 263.64783 
L 404.596977 266.404306 
L 404.558056 269.160782 
L 404.515221 271.917258 
L 404.469971 274.673734 
L 404.423499 277.43021 
L 404.376611 280.186686 
L 404.329732 282.943162 
L 404.28299 285.699638 
L 404.236336 288.456114 
L 404.189686 291.21259 
L 404.143047 293.969066 
L 404.096607 296.725542 
L 404.050775 299.482018 
L 404.006175 302.238494 
L 403.963584 304.99497 
L 403.923848 307.751446 
L 403.887774 310.507922 
L 403.856028 313.264399 
L 403.829055 316.020875 
L 403.807017 318.777351 
L 403.789775 321.533827 
L 403.776904 324.290303 
L 403.767739 327.046779 
L 403.761446 329.803255 
L 403.757108 332.559731 
L 403.753813 335.316207 
L 403.750737 338.072683 
L 403.747206 340.829159 
z
" style="fill:#1f77b4;fill-opacity:0.3;"/>
   </g>
   <g id="PolyCollection_6">
    <path clip-path="url(#p2b1177025c)" d="M 491.041076 340.829159 
L 490.777106 340.829159 
L 490.774323 338.002093 
L 490.772676 335.175027 
L 490.771686 332.347961 
L 490.770752 329.520895 
L 490.76919 326.693829 
L 490.766297 323.866763 
L 490.761395 321.039697 
L 490.753883 318.212631 
L 490.743257 315.385565 
L 490.72912 312.558499 
L 490.711154 309.731434 
L 490.689079 306.904368 
L 490.662587 304.077302 
L 490.631265 301.250236 
L 490.594528 298.42317 
L 490.551563 295.596104 
L 490.501307 292.769038 
L 490.442471 289.941972 
L 490.37361 287.114906 
L 490.293249 284.28784 
L 490.200045 281.460774 
L 490.092982 278.633708 
L 489.971564 275.806643 
L 489.835989 272.979577 
L 489.687266 270.152511 
L 489.527251 267.325445 
L 489.358606 264.498379 
L 489.184637 261.671313 
L 489.009063 258.844247 
L 488.835715 256.017181 
L 488.668206 253.190115 
L 488.509619 250.363049 
L 488.362263 247.535983 
L 488.227525 244.708917 
L 488.10585 241.881852 
L 487.996857 239.054786 
L 487.899571 236.22772 
L 487.81274 233.400654 
L 487.735175 230.573588 
L 487.666057 227.746522 
L 487.605153 224.919456 
L 487.552896 222.09239 
L 487.510289 219.265324 
L 487.478668 216.438258 
L 487.459327 213.611192 
L 487.453083 210.784126 
L 487.45985 207.957061 
L 487.478299 205.129995 
L 487.50567 202.302929 
L 487.537787 199.475863 
L 487.569287 196.648797 
L 487.594061 193.821731 
L 487.605838 190.994665 
L 487.598861 188.167599 
L 487.56856 185.340533 
L 487.51213 182.513467 
L 487.428937 179.686401 
L 487.320695 176.859335 
L 487.191375 174.03227 
L 487.046842 171.205204 
L 486.894274 168.378138 
L 486.741413 165.551072 
L 486.595744 162.724006 
L 486.463722 159.89694 
L 486.350131 157.069874 
L 486.257673 154.242808 
L 486.186851 151.415742 
L 486.136132 148.588676 
L 486.102367 145.76161 
L 486.081372 142.934544 
L 486.068538 140.107479 
L 486.059331 137.280413 
L 486.049552 134.453347 
L 486.035236 131.626281 
L 486.012184 128.799215 
L 485.975138 125.972149 
L 485.916732 123.145083 
L 485.826424 120.318017 
L 485.689631 117.490951 
L 485.487366 114.663885 
L 485.196587 111.836819 
L 484.791451 109.009753 
L 484.245522 106.182688 
L 483.534853 103.355622 
L 482.641687 100.528556 
L 481.558384 97.70149 
L 480.29106 94.874424 
L 478.862347 92.047358 
L 477.312736 89.220292 
L 475.700054 86.393226 
L 474.096861 83.56616 
L 472.585796 80.739094 
L 471.253244 77.912028 
L 470.181939 75.084962 
L 469.443369 72.257897 
L 469.090909 69.430831 
L 469.154581 66.603765 
L 469.638121 63.776699 
L 470.518744 60.949633 
L 511.299438 60.949633 
L 511.299438 60.949633 
L 512.18006 63.776699 
L 512.663601 66.603765 
L 512.727273 69.430831 
L 512.374813 72.257897 
L 511.636242 75.084962 
L 510.564938 77.912028 
L 509.232386 80.739094 
L 507.721321 83.56616 
L 506.118128 86.393226 
L 504.505446 89.220292 
L 502.955834 92.047358 
L 501.527122 94.874424 
L 500.259798 97.70149 
L 499.176495 100.528556 
L 498.283329 103.355622 
L 497.57266 106.182688 
L 497.026731 109.009753 
L 496.621595 111.836819 
L 496.330815 114.663885 
L 496.12855 117.490951 
L 495.991758 120.318017 
L 495.901449 123.145083 
L 495.843044 125.972149 
L 495.805998 128.799215 
L 495.782946 131.626281 
L 495.76863 134.453347 
L 495.75885 137.280413 
L 495.749644 140.107479 
L 495.73681 142.934544 
L 495.715814 145.76161 
L 495.68205 148.588676 
L 495.631331 151.415742 
L 495.560509 154.242808 
L 495.468051 157.069874 
L 495.354459 159.89694 
L 495.222438 162.724006 
L 495.076769 165.551072 
L 494.923907 168.378138 
L 494.77134 171.205204 
L 494.626807 174.03227 
L 494.497486 176.859335 
L 494.389245 179.686401 
L 494.306052 182.513467 
L 494.249622 185.340533 
L 494.219321 188.167599 
L 494.212344 190.994665 
L 494.224121 193.821731 
L 494.248895 196.648797 
L 494.280395 199.475863 
L 494.312511 202.302929 
L 494.339883 205.129995 
L 494.358332 207.957061 
L 494.365099 210.784126 
L 494.358855 213.611192 
L 494.339513 216.438258 
L 494.307892 219.265324 
L 494.265286 222.09239 
L 494.213028 224.919456 
L 494.152125 227.746522 
L 494.083007 230.573588 
L 494.005441 233.400654 
L 493.918611 236.22772 
L 493.821325 239.054786 
L 493.712332 241.881852 
L 493.590656 244.708917 
L 493.455918 247.535983 
L 493.308563 250.363049 
L 493.149976 253.190115 
L 492.982466 256.017181 
L 492.809119 258.844247 
L 492.633545 261.671313 
L 492.459576 264.498379 
L 492.29093 267.325445 
L 492.130916 270.152511 
L 491.982192 272.979577 
L 491.846618 275.806643 
L 491.7252 278.633708 
L 491.618137 281.460774 
L 491.524933 284.28784 
L 491.444572 287.114906 
L 491.375711 289.941972 
L 491.316875 292.769038 
L 491.266619 295.596104 
L 491.223653 298.42317 
L 491.186916 301.250236 
L 491.155595 304.077302 
L 491.129102 306.904368 
L 491.107028 309.731434 
L 491.089062 312.558499 
L 491.074925 315.385565 
L 491.064299 318.212631 
L 491.056787 321.039697 
L 491.051885 323.866763 
L 491.048992 326.693829 
L 491.04743 329.520895 
L 491.046495 332.347961 
L 491.045506 335.175027 
L 491.043859 338.002093 
L 491.041076 340.829159 
z
" style="fill:#1f77b4;fill-opacity:0.3;"/>
   </g>
   <g id="PolyCollection_7">
    <path clip-path="url(#p2b1177025c)" d="M 578.471762 283.524273 
L 577.891874 283.524273 
L 577.889666 281.332516 
L 577.89344 279.140759 
L 577.902204 276.949003 
L 577.914555 274.757246 
L 577.928859 272.565489 
L 577.943442 270.373732 
L 577.956758 268.181976 
L 577.967515 265.990219 
L 577.974743 263.798462 
L 577.977819 261.606705 
L 577.976454 259.414948 
L 577.970677 257.223192 
L 577.960797 255.031435 
L 577.947389 252.839678 
L 577.93126 250.647921 
L 577.913401 248.456165 
L 577.894911 246.264408 
L 577.876884 244.072651 
L 577.860271 241.880894 
L 577.845746 239.689138 
L 577.833589 237.497381 
L 577.823645 235.305624 
L 577.815359 233.113867 
L 577.807891 230.922111 
L 577.800315 228.730354 
L 577.791839 226.538597 
L 577.78201 224.34684 
L 577.770869 222.155084 
L 577.758999 219.963327 
L 577.747468 217.77157 
L 577.737671 215.579813 
L 577.731108 213.388056 
L 577.729125 211.1963 
L 577.732679 209.004543 
L 577.742162 206.812786 
L 577.75731 204.621029 
L 577.777196 202.429273 
L 577.800324 200.237516 
L 577.824775 198.045759 
L 577.848388 195.854002 
L 577.868948 193.662246 
L 577.884341 191.470489 
L 577.892662 189.278732 
L 577.89227 187.086975 
L 577.881794 184.895219 
L 577.860122 182.703462 
L 577.826385 180.511705 
L 577.779978 178.319948 
L 577.720648 176.128192 
L 577.648628 173.936435 
L 577.564821 171.744678 
L 577.470978 169.552921 
L 577.36981 167.361164 
L 577.264981 165.169408 
L 577.16092 162.977651 
L 577.062444 160.785894 
L 576.974221 158.594137 
L 576.900142 156.402381 
L 576.842703 154.210624 
L 576.802545 152.018867 
L 576.778232 149.82711 
L 576.766371 147.635354 
L 576.762073 145.443597 
L 576.759696 143.25184 
L 576.753775 141.060083 
L 576.739956 138.868327 
L 576.715791 136.67657 
L 576.681231 134.484813 
L 576.638737 132.293056 
L 576.592979 130.1013 
L 576.550171 127.909543 
L 576.517147 125.717786 
L 576.500316 123.526029 
L 576.504619 121.334272 
L 576.532613 119.142516 
L 576.583723 116.950759 
L 576.653687 114.759002 
L 576.734139 112.567245 
L 576.812273 110.375489 
L 576.87054 108.183732 
L 576.886363 105.991975 
L 576.831975 103.800218 
L 576.674546 101.608462 
L 576.376909 99.416705 
L 575.899243 97.224948 
L 575.202028 95.033191 
L 574.250465 92.841435 
L 573.02025 90.649678 
L 571.504213 88.457921 
L 569.718868 86.266164 
L 567.709595 84.074408 
L 565.553014 81.882651 
L 563.355261 79.690894 
L 561.245469 77.499137 
L 559.364554 75.30738 
L 557.850471 73.115624 
L 556.821993 70.923867 
L 556.363636 68.73211 
L 556.514425 66.540353 
L 599.849211 66.540353 
L 599.849211 66.540353 
L 600 68.73211 
L 599.541643 70.923867 
L 598.513165 73.115624 
L 596.999083 75.30738 
L 595.118167 77.499137 
L 593.008375 79.690894 
L 590.810623 81.882651 
L 588.654041 84.074408 
L 586.644769 86.266164 
L 584.859423 88.457921 
L 583.343386 90.649678 
L 582.113172 92.841435 
L 581.161608 95.033191 
L 580.464393 97.224948 
L 579.986727 99.416705 
L 579.689091 101.608462 
L 579.531661 103.800218 
L 579.477273 105.991975 
L 579.493097 108.183732 
L 579.551363 110.375489 
L 579.629497 112.567245 
L 579.709949 114.759002 
L 579.779914 116.950759 
L 579.831024 119.142516 
L 579.859017 121.334272 
L 579.863321 123.526029 
L 579.846489 125.717786 
L 579.813465 127.909543 
L 579.770657 130.1013 
L 579.724899 132.293056 
L 579.682405 134.484813 
L 579.647846 136.67657 
L 579.623681 138.868327 
L 579.609862 141.060083 
L 579.60394 143.25184 
L 579.601563 145.443597 
L 579.597265 147.635354 
L 579.585405 149.82711 
L 579.561092 152.018867 
L 579.520933 154.210624 
L 579.463495 156.402381 
L 579.389415 158.594137 
L 579.301193 160.785894 
L 579.202716 162.977651 
L 579.098655 165.169408 
L 578.993826 167.361164 
L 578.892658 169.552921 
L 578.798815 171.744678 
L 578.715008 173.936435 
L 578.642988 176.128192 
L 578.583658 178.319948 
L 578.537252 180.511705 
L 578.503514 182.703462 
L 578.481842 184.895219 
L 578.471367 187.086975 
L 578.470974 189.278732 
L 578.479295 191.470489 
L 578.494688 193.662246 
L 578.515248 195.854002 
L 578.538861 198.045759 
L 578.563312 200.237516 
L 578.58644 202.429273 
L 578.606327 204.621029 
L 578.621474 206.812786 
L 578.630958 209.004543 
L 578.634512 211.1963 
L 578.632528 213.388056 
L 578.625965 215.579813 
L 578.616169 217.77157 
L 578.604637 219.963327 
L 578.592767 222.155084 
L 578.581626 224.34684 
L 578.571798 226.538597 
L 578.563321 228.730354 
L 578.555745 230.922111 
L 578.548278 233.113867 
L 578.539991 235.305624 
L 578.530048 237.497381 
L 578.517891 239.689138 
L 578.503365 241.880894 
L 578.486752 244.072651 
L 578.468725 246.264408 
L 578.450236 248.456165 
L 578.432377 250.647921 
L 578.416248 252.839678 
L 578.40284 255.031435 
L 578.39296 257.223192 
L 578.387182 259.414948 
L 578.385818 261.606705 
L 578.388893 263.798462 
L 578.396121 265.990219 
L 578.406878 268.181976 
L 578.420194 270.373732 
L 578.434777 272.565489 
L 578.449081 274.757246 
L 578.461432 276.949003 
L 578.470196 279.140759 
L 578.47397 281.332516 
L 578.471762 283.524273 
z
" style="fill:#1f77b4;fill-opacity:0.3;"/>
   </g>
   <g id="PolyCollection_8">
    <path clip-path="url(#p2b1177025c)" d="M 665.682244 340.829159 
L 665.226847 340.829159 
L 665.221688 338.030329 
L 665.218249 335.231499 
L 665.21552 332.432669 
L 665.212239 329.633839 
L 665.206994 326.835009 
L 665.198344 324.036179 
L 665.184962 321.237349 
L 665.165766 318.438519 
L 665.14003 315.639689 
L 665.107474 312.840859 
L 665.068295 310.042029 
L 665.023159 307.243199 
L 664.973144 304.444369 
L 664.919634 301.645539 
L 664.864182 298.846709 
L 664.808355 296.047879 
L 664.753586 293.249049 
L 664.70104 290.450219 
L 664.651528 287.651389 
L 664.605462 284.85256 
L 664.562874 282.05373 
L 664.523482 279.2549 
L 664.48679 276.45607 
L 664.452213 273.65724 
L 664.419197 270.85841 
L 664.387312 268.05958 
L 664.356309 265.26075 
L 664.326128 262.46192 
L 664.296851 259.66309 
L 664.268624 256.86426 
L 664.24156 254.06543 
L 664.215636 251.2666 
L 664.190622 248.46777 
L 664.166046 245.66894 
L 664.141221 242.87011 
L 664.115321 240.07128 
L 664.08752 237.27245 
L 664.057148 234.47362 
L 664.023865 231.67479 
L 663.987802 228.87596 
L 663.949657 226.07713 
L 663.910696 223.278301 
L 663.872674 220.479471 
L 663.837648 217.680641 
L 663.807715 214.881811 
L 663.784687 212.082981 
L 663.769765 209.284151 
L 663.763235 206.485321 
L 663.764262 203.686491 
L 663.770784 200.887661 
L 663.779571 198.088831 
L 663.786425 195.290001 
L 663.786526 192.491171 
L 663.774879 189.692341 
L 663.746834 186.893511 
L 663.698597 184.094681 
L 663.627696 181.295851 
L 663.533322 178.497021 
L 663.41652 175.698191 
L 663.280189 172.899361 
L 663.128876 170.100531 
L 662.968401 167.301701 
L 662.805341 164.502871 
L 662.646428 161.704042 
L 662.497954 158.905212 
L 662.365242 156.106382 
L 662.252261 153.307552 
L 662.161419 150.508722 
L 662.093548 147.709892 
L 662.048051 144.911062 
L 662.023152 142.112232 
L 662.016147 139.313402 
L 662.023576 136.514572 
L 662.041204 133.715742 
L 662.063774 130.916912 
L 662.084517 128.118082 
L 662.094459 125.319252 
L 662.081646 122.520422 
L 662.030453 119.721592 
L 661.921168 116.922762 
L 661.730067 114.123932 
L 661.430165 111.325102 
L 660.99278 108.526272 
L 660.389947 105.727442 
L 659.597578 102.928612 
L 658.599168 100.129783 
L 657.389644 97.330953 
L 655.978873 94.532123 
L 654.394274 91.733293 
L 652.681959 88.934463 
L 650.905973 86.135633 
L 649.145378 83.336803 
L 647.489227 80.537973 
L 646.029767 77.739143 
L 644.854572 74.940313 
L 644.038479 72.141483 
L 643.636364 69.342653 
L 643.677691 66.543823 
L 644.163609 63.744993 
L 686.745481 63.744993 
L 686.745481 63.744993 
L 687.2314 66.543823 
L 687.272727 69.342653 
L 686.870611 72.141483 
L 686.054519 74.940313 
L 684.879324 77.739143 
L 683.419864 80.537973 
L 681.763713 83.336803 
L 680.003118 86.135633 
L 678.227132 88.934463 
L 676.514817 91.733293 
L 674.930218 94.532123 
L 673.519447 97.330953 
L 672.309922 100.129783 
L 671.311513 102.928612 
L 670.519144 105.727442 
L 669.91631 108.526272 
L 669.478926 111.325102 
L 669.179024 114.123932 
L 668.987922 116.922762 
L 668.878638 119.721592 
L 668.827445 122.520422 
L 668.814632 125.319252 
L 668.824574 128.118082 
L 668.845317 130.916912 
L 668.867887 133.715742 
L 668.885515 136.514572 
L 668.892944 139.313402 
L 668.885939 142.112232 
L 668.86104 144.911062 
L 668.815543 147.709892 
L 668.747672 150.508722 
L 668.65683 153.307552 
L 668.543849 156.106382 
L 668.411137 158.905212 
L 668.262663 161.704042 
L 668.10375 164.502871 
L 667.94069 167.301701 
L 667.780215 170.100531 
L 667.628902 172.899361 
L 667.49257 175.698191 
L 667.375769 178.497021 
L 667.281395 181.295851 
L 667.210494 184.094681 
L 667.162257 186.893511 
L 667.134212 189.692341 
L 667.122565 192.491171 
L 667.122666 195.290001 
L 667.12952 198.088831 
L 667.138307 200.887661 
L 667.144829 203.686491 
L 667.145856 206.485321 
L 667.139326 209.284151 
L 667.124404 212.082981 
L 667.101376 214.881811 
L 667.071443 217.680641 
L 667.036417 220.479471 
L 666.998395 223.278301 
L 666.959434 226.07713 
L 666.921289 228.87596 
L 666.885226 231.67479 
L 666.851943 234.47362 
L 666.821571 237.27245 
L 666.79377 240.07128 
L 666.76787 242.87011 
L 666.743044 245.66894 
L 666.718469 248.46777 
L 666.693454 251.2666 
L 666.667531 254.06543 
L 666.640467 256.86426 
L 666.61224 259.66309 
L 666.582963 262.46192 
L 666.552781 265.26075 
L 666.521779 268.05958 
L 666.489894 270.85841 
L 666.456878 273.65724 
L 666.422301 276.45607 
L 666.385609 279.2549 
L 666.346217 282.05373 
L 666.303629 284.85256 
L 666.257563 287.651389 
L 666.208051 290.450219 
L 666.155505 293.249049 
L 666.100736 296.047879 
L 666.044909 298.846709 
L 665.989456 301.645539 
L 665.935947 304.444369 
L 665.885932 307.243199 
L 665.840796 310.042029 
L 665.801617 312.840859 
L 665.76906 315.639689 
L 665.743325 318.438519 
L 665.724129 321.237349 
L 665.710747 324.036179 
L 665.702097 326.835009 
L 665.696852 329.633839 
L 665.693571 332.432669 
L 665.690842 335.231499 
L 665.687403 338.030329 
L 665.682244 340.829159 
z
" style="fill:#1f77b4;fill-opacity:0.3;"/>
   </g>
   <g id="matplotlib.axis_1">
    <g id="xtick_1">
     <g id="line2d_1">
      <defs>
       <path d="M 0 0 
L 0 3.5 
" id="m6a6736b159" style="stroke:#000000;stroke-width:0.8;"/>
      </defs>
      <g>
       <use style="stroke:#000000;stroke-width:0.8;" x="54.545455" xlink:href="#m6a6736b159" y="360"/>
      </g>
     </g>
     <g id="text_1">
      <!-- [10, 5] -->
      <defs>
       <path d="M 8.59375 75.984375 
L 29.296875 75.984375 
L 29.296875 69 
L 17.578125 69 
L 17.578125 -6.203125 
L 29.296875 -6.203125 
L 29.296875 -13.1875 
L 8.59375 -13.1875 
z
" id="DejaVuSans-91"/>
       <path d="M 12.40625 8.296875 
L 28.515625 8.296875 
L 28.515625 63.921875 
L 10.984375 60.40625 
L 10.984375 69.390625 
L 28.421875 72.90625 
L 38.28125 72.90625 
L 38.28125 8.296875 
L 54.390625 8.296875 
L 54.390625 0 
L 12.40625 0 
z
" id="DejaVuSans-49"/>
       <path d="M 31.78125 66.40625 
Q 24.171875 66.40625 20.328125 58.90625 
Q 16.5 51.421875 16.5 36.375 
Q 16.5 21.390625 20.328125 13.890625 
Q 24.171875 6.390625 31.78125 6.390625 
Q 39.453125 6.390625 43.28125 13.890625 
Q 47.125 21.390625 47.125 36.375 
Q 47.125 51.421875 43.28125 58.90625 
Q 39.453125 66.40625 31.78125 66.40625 
z
M 31.78125 74.21875 
Q 44.046875 74.21875 50.515625 64.515625 
Q 56.984375 54.828125 56.984375 36.375 
Q 56.984375 17.96875 50.515625 8.265625 
Q 44.046875 -1.421875 31.78125 -1.421875 
Q 19.53125 -1.421875 13.0625 8.265625 
Q 6.59375 17.96875 6.59375 36.375 
Q 6.59375 54.828125 13.0625 64.515625 
Q 19.53125 74.21875 31.78125 74.21875 
z
" id="DejaVuSans-48"/>
       <path d="M 11.71875 12.40625 
L 22.015625 12.40625 
L 22.015625 4 
L 14.015625 -11.625 
L 7.71875 -11.625 
L 11.71875 4 
z
" id="DejaVuSans-44"/>
       <path id="DejaVuSans-32"/>
       <path d="M 10.796875 72.90625 
L 49.515625 72.90625 
L 49.515625 64.59375 
L 19.828125 64.59375 
L 19.828125 46.734375 
Q 21.96875 47.46875 24.109375 47.828125 
Q 26.265625 48.1875 28.421875 48.1875 
Q 40.625 48.1875 47.75 41.5 
Q 54.890625 34.8125 54.890625 23.390625 
Q 54.890625 11.625 47.5625 5.09375 
Q 40.234375 -1.421875 26.90625 -1.421875 
Q 22.3125 -1.421875 17.546875 -0.640625 
Q 12.796875 0.140625 7.71875 1.703125 
L 7.71875 11.625 
Q 12.109375 9.234375 16.796875 8.0625 
Q 21.484375 6.890625 26.703125 6.890625 
Q 35.15625 6.890625 40.078125 11.328125 
Q 45.015625 15.765625 45.015625 23.390625 
Q 45.015625 31 40.078125 35.4375 
Q 35.15625 39.890625 26.703125 39.890625 
Q 22.75 39.890625 18.8125 39.015625 
Q 14.890625 38.140625 10.796875 36.28125 
z
" id="DejaVuSans-53"/>
       <path d="M 30.421875 75.984375 
L 30.421875 -13.1875 
L 9.71875 -13.1875 
L 9.71875 -6.203125 
L 21.390625 -6.203125 
L 21.390625 69 
L 9.71875 69 
L 9.71875 75.984375 
z
" id="DejaVuSans-93"/>
      </defs>
      <g transform="translate(37.922017 374.598437)scale(0.1 -0.1)">
       <use xlink:href="#DejaVuSans-91"/>
       <use x="39.013672" xlink:href="#DejaVuSans-49"/>
       <use x="102.636719" xlink:href="#DejaVuSans-48"/>
       <use x="166.259766" xlink:href="#DejaVuSans-44"/>
       <use x="198.046875" xlink:href="#DejaVuSans-32"/>
       <use x="229.833984" xlink:href="#DejaVuSans-53"/>
       <use x="293.457031" xlink:href="#DejaVuSans-93"/>
      </g>
     </g>
    </g>
    <g id="xtick_2">
     <g id="line2d_2">
      <g>
       <use style="stroke:#000000;stroke-width:0.8;" x="141.818182" xlink:href="#m6a6736b159" y="360"/>
      </g>
     </g>
     <g id="text_2">
      <!-- [15, 5] -->
      <g transform="translate(125.194744 374.598437)scale(0.1 -0.1)">
       <use xlink:href="#DejaVuSans-91"/>
       <use x="39.013672" xlink:href="#DejaVuSans-49"/>
       <use x="102.636719" xlink:href="#DejaVuSans-53"/>
       <use x="166.259766" xlink:href="#DejaVuSans-44"/>
       <use x="198.046875" xlink:href="#DejaVuSans-32"/>
       <use x="229.833984" xlink:href="#DejaVuSans-53"/>
       <use x="293.457031" xlink:href="#DejaVuSans-93"/>
      </g>
     </g>
    </g>
    <g id="xtick_3">
     <g id="line2d_3">
      <g>
       <use style="stroke:#000000;stroke-width:0.8;" x="229.090909" xlink:href="#m6a6736b159" y="360"/>
      </g>
     </g>
     <g id="text_3">
      <!-- [20, 5] -->
      <defs>
       <path d="M 19.1875 8.296875 
L 53.609375 8.296875 
L 53.609375 0 
L 7.328125 0 
L 7.328125 8.296875 
Q 12.9375 14.109375 22.625 23.890625 
Q 32.328125 33.6875 34.8125 36.53125 
Q 39.546875 41.84375 41.421875 45.53125 
Q 43.3125 49.21875 43.3125 52.78125 
Q 43.3125 58.59375 39.234375 62.25 
Q 35.15625 65.921875 28.609375 65.921875 
Q 23.96875 65.921875 18.8125 64.3125 
Q 13.671875 62.703125 7.8125 59.421875 
L 7.8125 69.390625 
Q 13.765625 71.78125 18.9375 73 
Q 24.125 74.21875 28.421875 74.21875 
Q 39.75 74.21875 46.484375 68.546875 
Q 53.21875 62.890625 53.21875 53.421875 
Q 53.21875 48.921875 51.53125 44.890625 
Q 49.859375 40.875 45.40625 35.40625 
Q 44.1875 33.984375 37.640625 27.21875 
Q 31.109375 20.453125 19.1875 8.296875 
z
" id="DejaVuSans-50"/>
      </defs>
      <g transform="translate(212.467472 374.598437)scale(0.1 -0.1)">
       <use xlink:href="#DejaVuSans-91"/>
       <use x="39.013672" xlink:href="#DejaVuSans-50"/>
       <use x="102.636719" xlink:href="#DejaVuSans-48"/>
       <use x="166.259766" xlink:href="#DejaVuSans-44"/>
       <use x="198.046875" xlink:href="#DejaVuSans-32"/>
       <use x="229.833984" xlink:href="#DejaVuSans-53"/>
       <use x="293.457031" xlink:href="#DejaVuSans-93"/>
      </g>
     </g>
    </g>
    <g id="xtick_4">
     <g id="line2d_4">
      <g>
       <use style="stroke:#000000;stroke-width:0.8;" x="316.363636" xlink:href="#m6a6736b159" y="360"/>
      </g>
     </g>
     <g id="text_4">
      <!-- [20, 10] -->
      <g transform="translate(296.558949 374.598437)scale(0.1 -0.1)">
       <use xlink:href="#DejaVuSans-91"/>
       <use x="39.013672" xlink:href="#DejaVuSans-50"/>
       <use x="102.636719" xlink:href="#DejaVuSans-48"/>
       <use x="166.259766" xlink:href="#DejaVuSans-44"/>
       <use x="198.046875" xlink:href="#DejaVuSans-32"/>
       <use x="229.833984" xlink:href="#DejaVuSans-49"/>
       <use x="293.457031" xlink:href="#DejaVuSans-48"/>
       <use x="357.080078" xlink:href="#DejaVuSans-93"/>
      </g>
     </g>
    </g>
    <g id="xtick_5">
     <g id="line2d_5">
      <g>
       <use style="stroke:#000000;stroke-width:0.8;" x="403.636364" xlink:href="#m6a6736b159" y="360"/>
      </g>
     </g>
     <g id="text_5">
      <!-- [50, 10] -->
      <g transform="translate(383.831676 374.598437)scale(0.1 -0.1)">
       <use xlink:href="#DejaVuSans-91"/>
       <use x="39.013672" xlink:href="#DejaVuSans-53"/>
       <use x="102.636719" xlink:href="#DejaVuSans-48"/>
       <use x="166.259766" xlink:href="#DejaVuSans-44"/>
       <use x="198.046875" xlink:href="#DejaVuSans-32"/>
       <use x="229.833984" xlink:href="#DejaVuSans-49"/>
       <use x="293.457031" xlink:href="#DejaVuSans-48"/>
       <use x="357.080078" xlink:href="#DejaVuSans-93"/>
      </g>
     </g>
    </g>
    <g id="xtick_6">
     <g id="line2d_6">
      <g>
       <use style="stroke:#000000;stroke-width:0.8;" x="490.909091" xlink:href="#m6a6736b159" y="360"/>
      </g>
     </g>
     <g id="text_6">
      <!-- [50, 5] -->
      <g transform="translate(474.285653 374.598437)scale(0.1 -0.1)">
       <use xlink:href="#DejaVuSans-91"/>
       <use x="39.013672" xlink:href="#DejaVuSans-53"/>
       <use x="102.636719" xlink:href="#DejaVuSans-48"/>
       <use x="166.259766" xlink:href="#DejaVuSans-44"/>
       <use x="198.046875" xlink:href="#DejaVuSans-32"/>
       <use x="229.833984" xlink:href="#DejaVuSans-53"/>
       <use x="293.457031" xlink:href="#DejaVuSans-93"/>
      </g>
     </g>
    </g>
    <g id="xtick_7">
     <g id="line2d_7">
      <g>
       <use style="stroke:#000000;stroke-width:0.8;" x="578.181818" xlink:href="#m6a6736b159" y="360"/>
      </g>
     </g>
     <g id="text_7">
      <!-- [100, 20] -->
      <g transform="translate(555.195881 374.598437)scale(0.1 -0.1)">
       <use xlink:href="#DejaVuSans-91"/>
       <use x="39.013672" xlink:href="#DejaVuSans-49"/>
       <use x="102.636719" xlink:href="#DejaVuSans-48"/>
       <use x="166.259766" xlink:href="#DejaVuSans-48"/>
       <use x="229.882812" xlink:href="#DejaVuSans-44"/>
       <use x="261.669922" xlink:href="#DejaVuSans-32"/>
       <use x="293.457031" xlink:href="#DejaVuSans-50"/>
       <use x="357.080078" xlink:href="#DejaVuSans-48"/>
       <use x="420.703125" xlink:href="#DejaVuSans-93"/>
      </g>
     </g>
    </g>
    <g id="xtick_8">
     <g id="line2d_8">
      <g>
       <use style="stroke:#000000;stroke-width:0.8;" x="665.454545" xlink:href="#m6a6736b159" y="360"/>
      </g>
     </g>
     <g id="text_8">
      <!-- [100, 10] -->
      <g transform="translate(642.468608 374.598437)scale(0.1 -0.1)">
       <use xlink:href="#DejaVuSans-91"/>
       <use x="39.013672" xlink:href="#DejaVuSans-49"/>
       <use x="102.636719" xlink:href="#DejaVuSans-48"/>
       <use x="166.259766" xlink:href="#DejaVuSans-48"/>
       <use x="229.882812" xlink:href="#DejaVuSans-44"/>
       <use x="261.669922" xlink:href="#DejaVuSans-32"/>
       <use x="293.457031" xlink:href="#DejaVuSans-49"/>
       <use x="357.080078" xlink:href="#DejaVuSans-48"/>
       <use x="420.703125" xlink:href="#DejaVuSans-93"/>
      </g>
     </g>
    </g>
    <g id="text_9">
     <!-- [Features, Representation] -->
     <defs>
      <path d="M 9.8125 72.90625 
L 51.703125 72.90625 
L 51.703125 64.59375 
L 19.671875 64.59375 
L 19.671875 43.109375 
L 48.578125 43.109375 
L 48.578125 34.8125 
L 19.671875 34.8125 
L 19.671875 0 
L 9.8125 0 
z
" id="DejaVuSans-70"/>
      <path d="M 56.203125 29.59375 
L 56.203125 25.203125 
L 14.890625 25.203125 
Q 15.484375 15.921875 20.484375 11.0625 
Q 25.484375 6.203125 34.421875 6.203125 
Q 39.59375 6.203125 44.453125 7.46875 
Q 49.3125 8.734375 54.109375 11.28125 
L 54.109375 2.78125 
Q 49.265625 0.734375 44.1875 -0.34375 
Q 39.109375 -1.421875 33.890625 -1.421875 
Q 20.796875 -1.421875 13.15625 6.1875 
Q 5.515625 13.8125 5.515625 26.8125 
Q 5.515625 40.234375 12.765625 48.109375 
Q 20.015625 56 32.328125 56 
Q 43.359375 56 49.78125 48.890625 
Q 56.203125 41.796875 56.203125 29.59375 
z
M 47.21875 32.234375 
Q 47.125 39.59375 43.09375 43.984375 
Q 39.0625 48.390625 32.421875 48.390625 
Q 24.90625 48.390625 20.390625 44.140625 
Q 15.875 39.890625 15.1875 32.171875 
z
" id="DejaVuSans-101"/>
      <path d="M 34.28125 27.484375 
Q 23.390625 27.484375 19.1875 25 
Q 14.984375 22.515625 14.984375 16.5 
Q 14.984375 11.71875 18.140625 8.90625 
Q 21.296875 6.109375 26.703125 6.109375 
Q 34.1875 6.109375 38.703125 11.40625 
Q 43.21875 16.703125 43.21875 25.484375 
L 43.21875 27.484375 
z
M 52.203125 31.203125 
L 52.203125 0 
L 43.21875 0 
L 43.21875 8.296875 
Q 40.140625 3.328125 35.546875 0.953125 
Q 30.953125 -1.421875 24.3125 -1.421875 
Q 15.921875 -1.421875 10.953125 3.296875 
Q 6 8.015625 6 15.921875 
Q 6 25.140625 12.171875 29.828125 
Q 18.359375 34.515625 30.609375 34.515625 
L 43.21875 34.515625 
L 43.21875 35.40625 
Q 43.21875 41.609375 39.140625 45 
Q 35.0625 48.390625 27.6875 48.390625 
Q 23 48.390625 18.546875 47.265625 
Q 14.109375 46.140625 10.015625 43.890625 
L 10.015625 52.203125 
Q 14.9375 54.109375 19.578125 55.046875 
Q 24.21875 56 28.609375 56 
Q 40.484375 56 46.34375 49.84375 
Q 52.203125 43.703125 52.203125 31.203125 
z
" id="DejaVuSans-97"/>
      <path d="M 18.3125 70.21875 
L 18.3125 54.6875 
L 36.8125 54.6875 
L 36.8125 47.703125 
L 18.3125 47.703125 
L 18.3125 18.015625 
Q 18.3125 11.328125 20.140625 9.421875 
Q 21.96875 7.515625 27.59375 7.515625 
L 36.8125 7.515625 
L 36.8125 0 
L 27.59375 0 
Q 17.1875 0 13.234375 3.875 
Q 9.28125 7.765625 9.28125 18.015625 
L 9.28125 47.703125 
L 2.6875 47.703125 
L 2.6875 54.6875 
L 9.28125 54.6875 
L 9.28125 70.21875 
z
" id="DejaVuSans-116"/>
      <path d="M 8.5 21.578125 
L 8.5 54.6875 
L 17.484375 54.6875 
L 17.484375 21.921875 
Q 17.484375 14.15625 20.5 10.265625 
Q 23.53125 6.390625 29.59375 6.390625 
Q 36.859375 6.390625 41.078125 11.03125 
Q 45.3125 15.671875 45.3125 23.6875 
L 45.3125 54.6875 
L 54.296875 54.6875 
L 54.296875 0 
L 45.3125 0 
L 45.3125 8.40625 
Q 42.046875 3.421875 37.71875 1 
Q 33.40625 -1.421875 27.6875 -1.421875 
Q 18.265625 -1.421875 13.375 4.4375 
Q 8.5 10.296875 8.5 21.578125 
z
M 31.109375 56 
z
" id="DejaVuSans-117"/>
      <path d="M 41.109375 46.296875 
Q 39.59375 47.171875 37.8125 47.578125 
Q 36.03125 48 33.890625 48 
Q 26.265625 48 22.1875 43.046875 
Q 18.109375 38.09375 18.109375 28.8125 
L 18.109375 0 
L 9.078125 0 
L 9.078125 54.6875 
L 18.109375 54.6875 
L 18.109375 46.1875 
Q 20.953125 51.171875 25.484375 53.578125 
Q 30.03125 56 36.53125 56 
Q 37.453125 56 38.578125 55.875 
Q 39.703125 55.765625 41.0625 55.515625 
z
" id="DejaVuSans-114"/>
      <path d="M 44.28125 53.078125 
L 44.28125 44.578125 
Q 40.484375 46.53125 36.375 47.5 
Q 32.28125 48.484375 27.875 48.484375 
Q 21.1875 48.484375 17.84375 46.4375 
Q 14.5 44.390625 14.5 40.28125 
Q 14.5 37.15625 16.890625 35.375 
Q 19.28125 33.59375 26.515625 31.984375 
L 29.59375 31.296875 
Q 39.15625 29.25 43.1875 25.515625 
Q 47.21875 21.78125 47.21875 15.09375 
Q 47.21875 7.46875 41.1875 3.015625 
Q 35.15625 -1.421875 24.609375 -1.421875 
Q 20.21875 -1.421875 15.453125 -0.5625 
Q 10.6875 0.296875 5.421875 2 
L 5.421875 11.28125 
Q 10.40625 8.6875 15.234375 7.390625 
Q 20.0625 6.109375 24.8125 6.109375 
Q 31.15625 6.109375 34.5625 8.28125 
Q 37.984375 10.453125 37.984375 14.40625 
Q 37.984375 18.0625 35.515625 20.015625 
Q 33.0625 21.96875 24.703125 23.78125 
L 21.578125 24.515625 
Q 13.234375 26.265625 9.515625 29.90625 
Q 5.8125 33.546875 5.8125 39.890625 
Q 5.8125 47.609375 11.28125 51.796875 
Q 16.75 56 26.8125 56 
Q 31.78125 56 36.171875 55.265625 
Q 40.578125 54.546875 44.28125 53.078125 
z
" id="DejaVuSans-115"/>
      <path d="M 44.390625 34.1875 
Q 47.5625 33.109375 50.5625 29.59375 
Q 53.5625 26.078125 56.59375 19.921875 
L 66.609375 0 
L 56 0 
L 46.6875 18.703125 
Q 43.0625 26.03125 39.671875 28.421875 
Q 36.28125 30.8125 30.421875 30.8125 
L 19.671875 30.8125 
L 19.671875 0 
L 9.8125 0 
L 9.8125 72.90625 
L 32.078125 72.90625 
Q 44.578125 72.90625 50.734375 67.671875 
Q 56.890625 62.453125 56.890625 51.90625 
Q 56.890625 45.015625 53.6875 40.46875 
Q 50.484375 35.9375 44.390625 34.1875 
z
M 19.671875 64.796875 
L 19.671875 38.921875 
L 32.078125 38.921875 
Q 39.203125 38.921875 42.84375 42.21875 
Q 46.484375 45.515625 46.484375 51.90625 
Q 46.484375 58.296875 42.84375 61.546875 
Q 39.203125 64.796875 32.078125 64.796875 
z
" id="DejaVuSans-82"/>
      <path d="M 18.109375 8.203125 
L 18.109375 -20.796875 
L 9.078125 -20.796875 
L 9.078125 54.6875 
L 18.109375 54.6875 
L 18.109375 46.390625 
Q 20.953125 51.265625 25.265625 53.625 
Q 29.59375 56 35.59375 56 
Q 45.5625 56 51.78125 48.09375 
Q 58.015625 40.1875 58.015625 27.296875 
Q 58.015625 14.40625 51.78125 6.484375 
Q 45.5625 -1.421875 35.59375 -1.421875 
Q 29.59375 -1.421875 25.265625 0.953125 
Q 20.953125 3.328125 18.109375 8.203125 
z
M 48.6875 27.296875 
Q 48.6875 37.203125 44.609375 42.84375 
Q 40.53125 48.484375 33.40625 48.484375 
Q 26.265625 48.484375 22.1875 42.84375 
Q 18.109375 37.203125 18.109375 27.296875 
Q 18.109375 17.390625 22.1875 11.75 
Q 26.265625 6.109375 33.40625 6.109375 
Q 40.53125 6.109375 44.609375 11.75 
Q 48.6875 17.390625 48.6875 27.296875 
z
" id="DejaVuSans-112"/>
      <path d="M 54.890625 33.015625 
L 54.890625 0 
L 45.90625 0 
L 45.90625 32.71875 
Q 45.90625 40.484375 42.875 44.328125 
Q 39.84375 48.1875 33.796875 48.1875 
Q 26.515625 48.1875 22.3125 43.546875 
Q 18.109375 38.921875 18.109375 30.90625 
L 18.109375 0 
L 9.078125 0 
L 9.078125 54.6875 
L 18.109375 54.6875 
L 18.109375 46.1875 
Q 21.34375 51.125 25.703125 53.5625 
Q 30.078125 56 35.796875 56 
Q 45.21875 56 50.046875 50.171875 
Q 54.890625 44.34375 54.890625 33.015625 
z
" id="DejaVuSans-110"/>
      <path d="M 9.421875 54.6875 
L 18.40625 54.6875 
L 18.40625 0 
L 9.421875 0 
z
M 9.421875 75.984375 
L 18.40625 75.984375 
L 18.40625 64.59375 
L 9.421875 64.59375 
z
" id="DejaVuSans-105"/>
      <path d="M 30.609375 48.390625 
Q 23.390625 48.390625 19.1875 42.75 
Q 14.984375 37.109375 14.984375 27.296875 
Q 14.984375 17.484375 19.15625 11.84375 
Q 23.34375 6.203125 30.609375 6.203125 
Q 37.796875 6.203125 41.984375 11.859375 
Q 46.1875 17.53125 46.1875 27.296875 
Q 46.1875 37.015625 41.984375 42.703125 
Q 37.796875 48.390625 30.609375 48.390625 
z
M 30.609375 56 
Q 42.328125 56 49.015625 48.375 
Q 55.71875 40.765625 55.71875 27.296875 
Q 55.71875 13.875 49.015625 6.21875 
Q 42.328125 -1.421875 30.609375 -1.421875 
Q 18.84375 -1.421875 12.171875 6.21875 
Q 5.515625 13.875 5.515625 27.296875 
Q 5.515625 40.765625 12.171875 48.375 
Q 18.84375 56 30.609375 56 
z
" id="DejaVuSans-111"/>
     </defs>
     <g transform="translate(279.287812 389.79625)scale(0.12 -0.12)">
      <use xlink:href="#DejaVuSans-91"/>
      <use x="39.013672" xlink:href="#DejaVuSans-70"/>
      <use x="96.455078" xlink:href="#DejaVuSans-101"/>
      <use x="157.978516" xlink:href="#DejaVuSans-97"/>
      <use x="219.257812" xlink:href="#DejaVuSans-116"/>
      <use x="258.466797" xlink:href="#DejaVuSans-117"/>
      <use x="321.845703" xlink:href="#DejaVuSans-114"/>
      <use x="362.927734" xlink:href="#DejaVuSans-101"/>
      <use x="424.451172" xlink:href="#DejaVuSans-115"/>
      <use x="476.550781" xlink:href="#DejaVuSans-44"/>
      <use x="508.337891" xlink:href="#DejaVuSans-32"/>
      <use x="540.125" xlink:href="#DejaVuSans-82"/>
      <use x="609.544922" xlink:href="#DejaVuSans-101"/>
      <use x="671.068359" xlink:href="#DejaVuSans-112"/>
      <use x="734.544922" xlink:href="#DejaVuSans-114"/>
      <use x="775.626953" xlink:href="#DejaVuSans-101"/>
      <use x="837.150391" xlink:href="#DejaVuSans-115"/>
      <use x="889.25" xlink:href="#DejaVuSans-101"/>
      <use x="950.773438" xlink:href="#DejaVuSans-110"/>
      <use x="1014.152344" xlink:href="#DejaVuSans-116"/>
      <use x="1053.361328" xlink:href="#DejaVuSans-97"/>
      <use x="1114.640625" xlink:href="#DejaVuSans-116"/>
      <use x="1153.849609" xlink:href="#DejaVuSans-105"/>
      <use x="1181.632812" xlink:href="#DejaVuSans-111"/>
      <use x="1242.814453" xlink:href="#DejaVuSans-110"/>
      <use x="1306.193359" xlink:href="#DejaVuSans-93"/>
     </g>
    </g>
   </g>
   <g id="matplotlib.axis_2">
    <g id="ytick_1">
     <g id="line2d_9">
      <defs>
       <path d="M 0 0 
L -3.5 0 
" id="m6625b8677d" style="stroke:#000000;stroke-width:0.8;"/>
      </defs>
      <g>
       <use style="stroke:#000000;stroke-width:0.8;" x="0" xlink:href="#m6625b8677d" y="336.883673"/>
      </g>
     </g>
     <g id="text_10">
      <!-- 0.40 -->
      <defs>
       <path d="M 10.6875 12.40625 
L 21 12.40625 
L 21 0 
L 10.6875 0 
z
" id="DejaVuSans-46"/>
       <path d="M 37.796875 64.3125 
L 12.890625 25.390625 
L 37.796875 25.390625 
z
M 35.203125 72.90625 
L 47.609375 72.90625 
L 47.609375 25.390625 
L 58.015625 25.390625 
L 58.015625 17.1875 
L 47.609375 17.1875 
L 47.609375 0 
L 37.796875 0 
L 37.796875 17.1875 
L 4.890625 17.1875 
L 4.890625 26.703125 
z
" id="DejaVuSans-52"/>
      </defs>
      <g transform="translate(-29.265625 340.682892)scale(0.1 -0.1)">
       <use xlink:href="#DejaVuSans-48"/>
       <use x="63.623047" xlink:href="#DejaVuSans-46"/>
       <use x="95.410156" xlink:href="#DejaVuSans-52"/>
       <use x="159.033203" xlink:href="#DejaVuSans-48"/>
      </g>
     </g>
    </g>
    <g id="ytick_2">
     <g id="line2d_10">
      <g>
       <use style="stroke:#000000;stroke-width:0.8;" x="0" xlink:href="#m6625b8677d" y="270.633635"/>
      </g>
     </g>
     <g id="text_11">
      <!-- 0.45 -->
      <g transform="translate(-29.265625 274.432853)scale(0.1 -0.1)">
       <use xlink:href="#DejaVuSans-48"/>
       <use x="63.623047" xlink:href="#DejaVuSans-46"/>
       <use x="95.410156" xlink:href="#DejaVuSans-52"/>
       <use x="159.033203" xlink:href="#DejaVuSans-53"/>
      </g>
     </g>
    </g>
    <g id="ytick_3">
     <g id="line2d_11">
      <g>
       <use style="stroke:#000000;stroke-width:0.8;" x="0" xlink:href="#m6625b8677d" y="204.383596"/>
      </g>
     </g>
     <g id="text_12">
      <!-- 0.50 -->
      <g transform="translate(-29.265625 208.182815)scale(0.1 -0.1)">
       <use xlink:href="#DejaVuSans-48"/>
       <use x="63.623047" xlink:href="#DejaVuSans-46"/>
       <use x="95.410156" xlink:href="#DejaVuSans-53"/>
       <use x="159.033203" xlink:href="#DejaVuSans-48"/>
      </g>
     </g>
    </g>
    <g id="ytick_4">
     <g id="line2d_12">
      <g>
       <use style="stroke:#000000;stroke-width:0.8;" x="0" xlink:href="#m6625b8677d" y="138.133557"/>
      </g>
     </g>
     <g id="text_13">
      <!-- 0.55 -->
      <g transform="translate(-29.265625 141.932776)scale(0.1 -0.1)">
       <use xlink:href="#DejaVuSans-48"/>
       <use x="63.623047" xlink:href="#DejaVuSans-46"/>
       <use x="95.410156" xlink:href="#DejaVuSans-53"/>
       <use x="159.033203" xlink:href="#DejaVuSans-53"/>
      </g>
     </g>
    </g>
    <g id="ytick_5">
     <g id="line2d_13">
      <g>
       <use style="stroke:#000000;stroke-width:0.8;" x="0" xlink:href="#m6625b8677d" y="71.883519"/>
      </g>
     </g>
     <g id="text_14">
      <!-- 0.60 -->
      <defs>
       <path d="M 33.015625 40.375 
Q 26.375 40.375 22.484375 35.828125 
Q 18.609375 31.296875 18.609375 23.390625 
Q 18.609375 15.53125 22.484375 10.953125 
Q 26.375 6.390625 33.015625 6.390625 
Q 39.65625 6.390625 43.53125 10.953125 
Q 47.40625 15.53125 47.40625 23.390625 
Q 47.40625 31.296875 43.53125 35.828125 
Q 39.65625 40.375 33.015625 40.375 
z
M 52.59375 71.296875 
L 52.59375 62.3125 
Q 48.875 64.0625 45.09375 64.984375 
Q 41.3125 65.921875 37.59375 65.921875 
Q 27.828125 65.921875 22.671875 59.328125 
Q 17.53125 52.734375 16.796875 39.40625 
Q 19.671875 43.65625 24.015625 45.921875 
Q 28.375 48.1875 33.59375 48.1875 
Q 44.578125 48.1875 50.953125 41.515625 
Q 57.328125 34.859375 57.328125 23.390625 
Q 57.328125 12.15625 50.6875 5.359375 
Q 44.046875 -1.421875 33.015625 -1.421875 
Q 20.359375 -1.421875 13.671875 8.265625 
Q 6.984375 17.96875 6.984375 36.375 
Q 6.984375 53.65625 15.1875 63.9375 
Q 23.390625 74.21875 37.203125 74.21875 
Q 40.921875 74.21875 44.703125 73.484375 
Q 48.484375 72.75 52.59375 71.296875 
z
" id="DejaVuSans-54"/>
      </defs>
      <g transform="translate(-29.265625 75.682738)scale(0.1 -0.1)">
       <use xlink:href="#DejaVuSans-48"/>
       <use x="63.623047" xlink:href="#DejaVuSans-46"/>
       <use x="95.410156" xlink:href="#DejaVuSans-54"/>
       <use x="159.033203" xlink:href="#DejaVuSans-48"/>
      </g>
     </g>
    </g>
    <g id="ytick_6">
     <g id="line2d_14">
      <g>
       <use style="stroke:#000000;stroke-width:0.8;" x="0" xlink:href="#m6625b8677d" y="5.63348"/>
      </g>
     </g>
     <g id="text_15">
      <!-- 0.65 -->
      <g transform="translate(-29.265625 9.432699)scale(0.1 -0.1)">
       <use xlink:href="#DejaVuSans-48"/>
       <use x="63.623047" xlink:href="#DejaVuSans-46"/>
       <use x="95.410156" xlink:href="#DejaVuSans-54"/>
       <use x="159.033203" xlink:href="#DejaVuSans-53"/>
      </g>
     </g>
    </g>
    <g id="text_16">
     <!-- Accuracy (classes=2) -->
     <defs>
      <path d="M 34.1875 63.1875 
L 20.796875 26.90625 
L 47.609375 26.90625 
z
M 28.609375 72.90625 
L 39.796875 72.90625 
L 67.578125 0 
L 57.328125 0 
L 50.6875 18.703125 
L 17.828125 18.703125 
L 11.1875 0 
L 0.78125 0 
z
" id="DejaVuSans-65"/>
      <path d="M 48.78125 52.59375 
L 48.78125 44.1875 
Q 44.96875 46.296875 41.140625 47.34375 
Q 37.3125 48.390625 33.40625 48.390625 
Q 24.65625 48.390625 19.8125 42.84375 
Q 14.984375 37.3125 14.984375 27.296875 
Q 14.984375 17.28125 19.8125 11.734375 
Q 24.65625 6.203125 33.40625 6.203125 
Q 37.3125 6.203125 41.140625 7.25 
Q 44.96875 8.296875 48.78125 10.40625 
L 48.78125 2.09375 
Q 45.015625 0.34375 40.984375 -0.53125 
Q 36.96875 -1.421875 32.421875 -1.421875 
Q 20.0625 -1.421875 12.78125 6.34375 
Q 5.515625 14.109375 5.515625 27.296875 
Q 5.515625 40.671875 12.859375 48.328125 
Q 20.21875 56 33.015625 56 
Q 37.15625 56 41.109375 55.140625 
Q 45.0625 54.296875 48.78125 52.59375 
z
" id="DejaVuSans-99"/>
      <path d="M 32.171875 -5.078125 
Q 28.375 -14.84375 24.75 -17.8125 
Q 21.140625 -20.796875 15.09375 -20.796875 
L 7.90625 -20.796875 
L 7.90625 -13.28125 
L 13.1875 -13.28125 
Q 16.890625 -13.28125 18.9375 -11.515625 
Q 21 -9.765625 23.484375 -3.21875 
L 25.09375 0.875 
L 2.984375 54.6875 
L 12.5 54.6875 
L 29.59375 11.921875 
L 46.6875 54.6875 
L 56.203125 54.6875 
z
" id="DejaVuSans-121"/>
      <path d="M 31 75.875 
Q 24.46875 64.65625 21.28125 53.65625 
Q 18.109375 42.671875 18.109375 31.390625 
Q 18.109375 20.125 21.3125 9.0625 
Q 24.515625 -2 31 -13.1875 
L 23.1875 -13.1875 
Q 15.875 -1.703125 12.234375 9.375 
Q 8.59375 20.453125 8.59375 31.390625 
Q 8.59375 42.28125 12.203125 53.3125 
Q 15.828125 64.359375 23.1875 75.875 
z
" id="DejaVuSans-40"/>
      <path d="M 9.421875 75.984375 
L 18.40625 75.984375 
L 18.40625 0 
L 9.421875 0 
z
" id="DejaVuSans-108"/>
      <path d="M 10.59375 45.40625 
L 73.1875 45.40625 
L 73.1875 37.203125 
L 10.59375 37.203125 
z
M 10.59375 25.484375 
L 73.1875 25.484375 
L 73.1875 17.1875 
L 10.59375 17.1875 
z
" id="DejaVuSans-61"/>
      <path d="M 8.015625 75.875 
L 15.828125 75.875 
Q 23.140625 64.359375 26.78125 53.3125 
Q 30.421875 42.28125 30.421875 31.390625 
Q 30.421875 20.453125 26.78125 9.375 
Q 23.140625 -1.703125 15.828125 -13.1875 
L 8.015625 -13.1875 
Q 14.5 -2 17.703125 9.0625 
Q 20.90625 20.125 20.90625 31.390625 
Q 20.90625 42.671875 17.703125 53.65625 
Q 14.5 64.65625 8.015625 75.875 
z
" id="DejaVuSans-41"/>
     </defs>
     <g transform="translate(-35.76125 244.643438)rotate(-90)scale(0.12 -0.12)">
      <use xlink:href="#DejaVuSans-65"/>
      <use x="68.392578" xlink:href="#DejaVuSans-99"/>
      <use x="123.373047" xlink:href="#DejaVuSans-99"/>
      <use x="178.353516" xlink:href="#DejaVuSans-117"/>
      <use x="241.732422" xlink:href="#DejaVuSans-114"/>
      <use x="282.845703" xlink:href="#DejaVuSans-97"/>
      <use x="344.125" xlink:href="#DejaVuSans-99"/>
      <use x="399.105469" xlink:href="#DejaVuSans-121"/>
      <use x="458.285156" xlink:href="#DejaVuSans-32"/>
      <use x="490.072266" xlink:href="#DejaVuSans-40"/>
      <use x="529.085938" xlink:href="#DejaVuSans-99"/>
      <use x="584.066406" xlink:href="#DejaVuSans-108"/>
      <use x="611.849609" xlink:href="#DejaVuSans-97"/>
      <use x="673.128906" xlink:href="#DejaVuSans-115"/>
      <use x="725.228516" xlink:href="#DejaVuSans-115"/>
      <use x="777.328125" xlink:href="#DejaVuSans-101"/>
      <use x="838.851562" xlink:href="#DejaVuSans-115"/>
      <use x="890.951172" xlink:href="#DejaVuSans-61"/>
      <use x="974.740234" xlink:href="#DejaVuSans-50"/>
      <use x="1038.363281" xlink:href="#DejaVuSans-41"/>
     </g>
    </g>
   </g>
   <g id="LineCollection_1">
    <path clip-path="url(#p2b1177025c)" d="M 43.636364 62.347313 
L 65.454545 62.347313 
" style="fill:none;stroke:#1f77b4;stroke-width:1.5;"/>
    <path clip-path="url(#p2b1177025c)" d="M 130.909091 63.727226 
L 152.727273 63.727226 
" style="fill:none;stroke:#1f77b4;stroke-width:1.5;"/>
    <path clip-path="url(#p2b1177025c)" d="M 218.181818 65.130829 
L 240 65.130829 
" style="fill:none;stroke:#1f77b4;stroke-width:1.5;"/>
    <path clip-path="url(#p2b1177025c)" d="M 305.454545 60.931866 
L 327.272727 60.931866 
" style="fill:none;stroke:#1f77b4;stroke-width:1.5;"/>
    <path clip-path="url(#p2b1177025c)" d="M 392.727273 67.938034 
L 414.545455 67.938034 
" style="fill:none;stroke:#1f77b4;stroke-width:1.5;"/>
    <path clip-path="url(#p2b1177025c)" d="M 480 60.949633 
L 501.818182 60.949633 
" style="fill:none;stroke:#1f77b4;stroke-width:1.5;"/>
    <path clip-path="url(#p2b1177025c)" d="M 567.272727 66.540353 
L 589.090909 66.540353 
" style="fill:none;stroke:#1f77b4;stroke-width:1.5;"/>
    <path clip-path="url(#p2b1177025c)" d="M 654.545455 63.744993 
L 676.363636 63.744993 
" style="fill:none;stroke:#1f77b4;stroke-width:1.5;"/>
   </g>
   <g id="LineCollection_2">
    <path clip-path="url(#p2b1177025c)" d="M 43.636364 336.636118 
L 65.454545 336.636118 
" style="fill:none;stroke:#1f77b4;stroke-width:1.5;"/>
    <path clip-path="url(#p2b1177025c)" d="M 130.909091 343.624519 
L 152.727273 343.624519 
" style="fill:none;stroke:#1f77b4;stroke-width:1.5;"/>
    <path clip-path="url(#p2b1177025c)" d="M 218.181818 343.636364 
L 240 343.636364 
" style="fill:none;stroke:#1f77b4;stroke-width:1.5;"/>
    <path clip-path="url(#p2b1177025c)" d="M 305.454545 340.829159 
L 327.272727 340.829159 
" style="fill:none;stroke:#1f77b4;stroke-width:1.5;"/>
    <path clip-path="url(#p2b1177025c)" d="M 392.727273 340.829159 
L 414.545455 340.829159 
" style="fill:none;stroke:#1f77b4;stroke-width:1.5;"/>
    <path clip-path="url(#p2b1177025c)" d="M 480 340.829159 
L 501.818182 340.829159 
" style="fill:none;stroke:#1f77b4;stroke-width:1.5;"/>
    <path clip-path="url(#p2b1177025c)" d="M 567.272727 283.524273 
L 589.090909 283.524273 
" style="fill:none;stroke:#1f77b4;stroke-width:1.5;"/>
    <path clip-path="url(#p2b1177025c)" d="M 654.545455 340.829159 
L 676.363636 340.829159 
" style="fill:none;stroke:#1f77b4;stroke-width:1.5;"/>
   </g>
   <g id="LineCollection_3">
    <path clip-path="url(#p2b1177025c)" d="M 54.545455 336.636118 
L 54.545455 62.347313 
" style="fill:none;stroke:#1f77b4;stroke-width:1.5;"/>
    <path clip-path="url(#p2b1177025c)" d="M 141.818182 343.624519 
L 141.818182 63.727226 
" style="fill:none;stroke:#1f77b4;stroke-width:1.5;"/>
    <path clip-path="url(#p2b1177025c)" d="M 229.090909 343.636364 
L 229.090909 65.130829 
" style="fill:none;stroke:#1f77b4;stroke-width:1.5;"/>
    <path clip-path="url(#p2b1177025c)" d="M 316.363636 340.829159 
L 316.363636 60.931866 
" style="fill:none;stroke:#1f77b4;stroke-width:1.5;"/>
    <path clip-path="url(#p2b1177025c)" d="M 403.636364 340.829159 
L 403.636364 67.938034 
" style="fill:none;stroke:#1f77b4;stroke-width:1.5;"/>
    <path clip-path="url(#p2b1177025c)" d="M 490.909091 340.829159 
L 490.909091 60.949633 
" style="fill:none;stroke:#1f77b4;stroke-width:1.5;"/>
    <path clip-path="url(#p2b1177025c)" d="M 578.181818 283.524273 
L 578.181818 66.540353 
" style="fill:none;stroke:#1f77b4;stroke-width:1.5;"/>
    <path clip-path="url(#p2b1177025c)" d="M 665.454545 340.829159 
L 665.454545 63.744993 
" style="fill:none;stroke:#1f77b4;stroke-width:1.5;"/>
   </g>
   <g id="patch_3">
    <path d="M 0 360 
L 0 0 
" style="fill:none;stroke:#000000;stroke-linecap:square;stroke-linejoin:miter;stroke-width:0.8;"/>
   </g>
   <g id="patch_4">
    <path d="M 720 360 
L 720 0 
" style="fill:none;stroke:#000000;stroke-linecap:square;stroke-linejoin:miter;stroke-width:0.8;"/>
   </g>
   <g id="patch_5">
    <path d="M 0 360 
L 720 360 
" style="fill:none;stroke:#000000;stroke-linecap:square;stroke-linejoin:miter;stroke-width:0.8;"/>
   </g>
   <g id="patch_6">
    <path d="M 0 0 
L 720 0 
" style="fill:none;stroke:#000000;stroke-linecap:square;stroke-linejoin:miter;stroke-width:0.8;"/>
   </g>
   <g id="text_17">
    <!-- Accuracy for CoDACl and Baseline Methods vs [Features, Representation] -->
    <defs>
     <path d="M 37.109375 75.984375 
L 37.109375 68.5 
L 28.515625 68.5 
Q 23.6875 68.5 21.796875 66.546875 
Q 19.921875 64.59375 19.921875 59.515625 
L 19.921875 54.6875 
L 34.71875 54.6875 
L 34.71875 47.703125 
L 19.921875 47.703125 
L 19.921875 0 
L 10.890625 0 
L 10.890625 47.703125 
L 2.296875 47.703125 
L 2.296875 54.6875 
L 10.890625 54.6875 
L 10.890625 58.5 
Q 10.890625 67.625 15.140625 71.796875 
Q 19.390625 75.984375 28.609375 75.984375 
z
" id="DejaVuSans-102"/>
     <path d="M 64.40625 67.28125 
L 64.40625 56.890625 
Q 59.421875 61.53125 53.78125 63.8125 
Q 48.140625 66.109375 41.796875 66.109375 
Q 29.296875 66.109375 22.65625 58.46875 
Q 16.015625 50.828125 16.015625 36.375 
Q 16.015625 21.96875 22.65625 14.328125 
Q 29.296875 6.6875 41.796875 6.6875 
Q 48.140625 6.6875 53.78125 8.984375 
Q 59.421875 11.28125 64.40625 15.921875 
L 64.40625 5.609375 
Q 59.234375 2.09375 53.4375 0.328125 
Q 47.65625 -1.421875 41.21875 -1.421875 
Q 24.65625 -1.421875 15.125 8.703125 
Q 5.609375 18.84375 5.609375 36.375 
Q 5.609375 53.953125 15.125 64.078125 
Q 24.65625 74.21875 41.21875 74.21875 
Q 47.75 74.21875 53.53125 72.484375 
Q 59.328125 70.75 64.40625 67.28125 
z
" id="DejaVuSans-67"/>
     <path d="M 19.671875 64.796875 
L 19.671875 8.109375 
L 31.59375 8.109375 
Q 46.6875 8.109375 53.6875 14.9375 
Q 60.6875 21.78125 60.6875 36.53125 
Q 60.6875 51.171875 53.6875 57.984375 
Q 46.6875 64.796875 31.59375 64.796875 
z
M 9.8125 72.90625 
L 30.078125 72.90625 
Q 51.265625 72.90625 61.171875 64.09375 
Q 71.09375 55.28125 71.09375 36.53125 
Q 71.09375 17.671875 61.125 8.828125 
Q 51.171875 0 30.078125 0 
L 9.8125 0 
z
" id="DejaVuSans-68"/>
     <path d="M 45.40625 46.390625 
L 45.40625 75.984375 
L 54.390625 75.984375 
L 54.390625 0 
L 45.40625 0 
L 45.40625 8.203125 
Q 42.578125 3.328125 38.25 0.953125 
Q 33.9375 -1.421875 27.875 -1.421875 
Q 17.96875 -1.421875 11.734375 6.484375 
Q 5.515625 14.40625 5.515625 27.296875 
Q 5.515625 40.1875 11.734375 48.09375 
Q 17.96875 56 27.875 56 
Q 33.9375 56 38.25 53.625 
Q 42.578125 51.265625 45.40625 46.390625 
z
M 14.796875 27.296875 
Q 14.796875 17.390625 18.875 11.75 
Q 22.953125 6.109375 30.078125 6.109375 
Q 37.203125 6.109375 41.296875 11.75 
Q 45.40625 17.390625 45.40625 27.296875 
Q 45.40625 37.203125 41.296875 42.84375 
Q 37.203125 48.484375 30.078125 48.484375 
Q 22.953125 48.484375 18.875 42.84375 
Q 14.796875 37.203125 14.796875 27.296875 
z
" id="DejaVuSans-100"/>
     <path d="M 19.671875 34.8125 
L 19.671875 8.109375 
L 35.5 8.109375 
Q 43.453125 8.109375 47.28125 11.40625 
Q 51.125 14.703125 51.125 21.484375 
Q 51.125 28.328125 47.28125 31.5625 
Q 43.453125 34.8125 35.5 34.8125 
z
M 19.671875 64.796875 
L 19.671875 42.828125 
L 34.28125 42.828125 
Q 41.5 42.828125 45.03125 45.53125 
Q 48.578125 48.25 48.578125 53.8125 
Q 48.578125 59.328125 45.03125 62.0625 
Q 41.5 64.796875 34.28125 64.796875 
z
M 9.8125 72.90625 
L 35.015625 72.90625 
Q 46.296875 72.90625 52.390625 68.21875 
Q 58.5 63.53125 58.5 54.890625 
Q 58.5 48.1875 55.375 44.234375 
Q 52.25 40.28125 46.1875 39.3125 
Q 53.46875 37.75 57.5 32.78125 
Q 61.53125 27.828125 61.53125 20.40625 
Q 61.53125 10.640625 54.890625 5.3125 
Q 48.25 0 35.984375 0 
L 9.8125 0 
z
" id="DejaVuSans-66"/>
     <path d="M 9.8125 72.90625 
L 24.515625 72.90625 
L 43.109375 23.296875 
L 61.8125 72.90625 
L 76.515625 72.90625 
L 76.515625 0 
L 66.890625 0 
L 66.890625 64.015625 
L 48.09375 14.015625 
L 38.1875 14.015625 
L 19.390625 64.015625 
L 19.390625 0 
L 9.8125 0 
z
" id="DejaVuSans-77"/>
     <path d="M 54.890625 33.015625 
L 54.890625 0 
L 45.90625 0 
L 45.90625 32.71875 
Q 45.90625 40.484375 42.875 44.328125 
Q 39.84375 48.1875 33.796875 48.1875 
Q 26.515625 48.1875 22.3125 43.546875 
Q 18.109375 38.921875 18.109375 30.90625 
L 18.109375 0 
L 9.078125 0 
L 9.078125 75.984375 
L 18.109375 75.984375 
L 18.109375 46.1875 
Q 21.34375 51.125 25.703125 53.5625 
Q 30.078125 56 35.796875 56 
Q 45.21875 56 50.046875 50.171875 
Q 54.890625 44.34375 54.890625 33.015625 
z
" id="DejaVuSans-104"/>
     <path d="M 2.984375 54.6875 
L 12.5 54.6875 
L 29.59375 8.796875 
L 46.6875 54.6875 
L 56.203125 54.6875 
L 35.6875 0 
L 23.484375 0 
z
" id="DejaVuSans-118"/>
    </defs>
    <g transform="translate(138.718125 -6)scale(0.12 -0.12)">
     <use xlink:href="#DejaVuSans-65"/>
     <use x="68.392578" xlink:href="#DejaVuSans-99"/>
     <use x="123.373047" xlink:href="#DejaVuSans-99"/>
     <use x="178.353516" xlink:href="#DejaVuSans-117"/>
     <use x="241.732422" xlink:href="#DejaVuSans-114"/>
     <use x="282.845703" xlink:href="#DejaVuSans-97"/>
     <use x="344.125" xlink:href="#DejaVuSans-99"/>
     <use x="399.105469" xlink:href="#DejaVuSans-121"/>
     <use x="458.285156" xlink:href="#DejaVuSans-32"/>
     <use x="490.072266" xlink:href="#DejaVuSans-102"/>
     <use x="525.277344" xlink:href="#DejaVuSans-111"/>
     <use x="586.458984" xlink:href="#DejaVuSans-114"/>
     <use x="627.572266" xlink:href="#DejaVuSans-32"/>
     <use x="659.359375" xlink:href="#DejaVuSans-67"/>
     <use x="729.183594" xlink:href="#DejaVuSans-111"/>
     <use x="790.365234" xlink:href="#DejaVuSans-68"/>
     <use x="867.351562" xlink:href="#DejaVuSans-65"/>
     <use x="935.744141" xlink:href="#DejaVuSans-67"/>
     <use x="1005.568359" xlink:href="#DejaVuSans-108"/>
     <use x="1033.351562" xlink:href="#DejaVuSans-32"/>
     <use x="1065.138672" xlink:href="#DejaVuSans-97"/>
     <use x="1126.417969" xlink:href="#DejaVuSans-110"/>
     <use x="1189.796875" xlink:href="#DejaVuSans-100"/>
     <use x="1253.273438" xlink:href="#DejaVuSans-32"/>
     <use x="1285.060547" xlink:href="#DejaVuSans-66"/>
     <use x="1353.664062" xlink:href="#DejaVuSans-97"/>
     <use x="1414.943359" xlink:href="#DejaVuSans-115"/>
     <use x="1467.042969" xlink:href="#DejaVuSans-101"/>
     <use x="1528.566406" xlink:href="#DejaVuSans-108"/>
     <use x="1556.349609" xlink:href="#DejaVuSans-105"/>
     <use x="1584.132812" xlink:href="#DejaVuSans-110"/>
     <use x="1647.511719" xlink:href="#DejaVuSans-101"/>
     <use x="1709.035156" xlink:href="#DejaVuSans-32"/>
     <use x="1740.822266" xlink:href="#DejaVuSans-77"/>
     <use x="1827.101562" xlink:href="#DejaVuSans-101"/>
     <use x="1888.625" xlink:href="#DejaVuSans-116"/>
     <use x="1927.833984" xlink:href="#DejaVuSans-104"/>
     <use x="1991.212891" xlink:href="#DejaVuSans-111"/>
     <use x="2052.394531" xlink:href="#DejaVuSans-100"/>
     <use x="2115.871094" xlink:href="#DejaVuSans-115"/>
     <use x="2167.970703" xlink:href="#DejaVuSans-32"/>
     <use x="2199.757812" xlink:href="#DejaVuSans-118"/>
     <use x="2258.9375" xlink:href="#DejaVuSans-115"/>
     <use x="2311.037109" xlink:href="#DejaVuSans-32"/>
     <use x="2342.824219" xlink:href="#DejaVuSans-91"/>
     <use x="2381.837891" xlink:href="#DejaVuSans-70"/>
     <use x="2439.279297" xlink:href="#DejaVuSans-101"/>
     <use x="2500.802734" xlink:href="#DejaVuSans-97"/>
     <use x="2562.082031" xlink:href="#DejaVuSans-116"/>
     <use x="2601.291016" xlink:href="#DejaVuSans-117"/>
     <use x="2664.669922" xlink:href="#DejaVuSans-114"/>
     <use x="2705.751953" xlink:href="#DejaVuSans-101"/>
     <use x="2767.275391" xlink:href="#DejaVuSans-115"/>
     <use x="2819.375" xlink:href="#DejaVuSans-44"/>
     <use x="2851.162109" xlink:href="#DejaVuSans-32"/>
     <use x="2882.949219" xlink:href="#DejaVuSans-82"/>
     <use x="2952.369141" xlink:href="#DejaVuSans-101"/>
     <use x="3013.892578" xlink:href="#DejaVuSans-112"/>
     <use x="3077.369141" xlink:href="#DejaVuSans-114"/>
     <use x="3118.451172" xlink:href="#DejaVuSans-101"/>
     <use x="3179.974609" xlink:href="#DejaVuSans-115"/>
     <use x="3232.074219" xlink:href="#DejaVuSans-101"/>
     <use x="3293.597656" xlink:href="#DejaVuSans-110"/>
     <use x="3356.976562" xlink:href="#DejaVuSans-116"/>
     <use x="3396.185547" xlink:href="#DejaVuSans-97"/>
     <use x="3457.464844" xlink:href="#DejaVuSans-116"/>
     <use x="3496.673828" xlink:href="#DejaVuSans-105"/>
     <use x="3524.457031" xlink:href="#DejaVuSans-111"/>
     <use x="3585.638672" xlink:href="#DejaVuSans-110"/>
     <use x="3649.017578" xlink:href="#DejaVuSans-93"/>
    </g>
   </g>
   <g id="legend_1">
    <g id="patch_7">
     <path d="M 7 355 
L 201.592188 355 
Q 203.592188 355 203.592188 353 
L 203.592188 295.2875 
Q 203.592188 293.2875 201.592188 293.2875 
L 7 293.2875 
Q 5 293.2875 5 295.2875 
L 5 353 
Q 5 355 7 355 
z
" style="fill:#ffffff;opacity:0.8;stroke:#cccccc;stroke-linejoin:miter;"/>
    </g>
    <g id="PathCollection_5">
     <g>
      <use style="fill:#ff0000;stroke:#ff0000;" x="19" xlink:href="#mc3861ddf6b" y="302.260938"/>
     </g>
    </g>
    <g id="text_18">
     <!-- CoDA-PCA + Logistic Regression -->
     <defs>
      <path d="M 4.890625 31.390625 
L 31.203125 31.390625 
L 31.203125 23.390625 
L 4.890625 23.390625 
z
" id="DejaVuSans-45"/>
      <path d="M 19.671875 64.796875 
L 19.671875 37.40625 
L 32.078125 37.40625 
Q 38.96875 37.40625 42.71875 40.96875 
Q 46.484375 44.53125 46.484375 51.125 
Q 46.484375 57.671875 42.71875 61.234375 
Q 38.96875 64.796875 32.078125 64.796875 
z
M 9.8125 72.90625 
L 32.078125 72.90625 
Q 44.34375 72.90625 50.609375 67.359375 
Q 56.890625 61.8125 56.890625 51.125 
Q 56.890625 40.328125 50.609375 34.8125 
Q 44.34375 29.296875 32.078125 29.296875 
L 19.671875 29.296875 
L 19.671875 0 
L 9.8125 0 
z
" id="DejaVuSans-80"/>
      <path d="M 46 62.703125 
L 46 35.5 
L 73.1875 35.5 
L 73.1875 27.203125 
L 46 27.203125 
L 46 0 
L 37.796875 0 
L 37.796875 27.203125 
L 10.59375 27.203125 
L 10.59375 35.5 
L 37.796875 35.5 
L 37.796875 62.703125 
z
" id="DejaVuSans-43"/>
      <path d="M 9.8125 72.90625 
L 19.671875 72.90625 
L 19.671875 8.296875 
L 55.171875 8.296875 
L 55.171875 0 
L 9.8125 0 
z
" id="DejaVuSans-76"/>
      <path d="M 45.40625 27.984375 
Q 45.40625 37.75 41.375 43.109375 
Q 37.359375 48.484375 30.078125 48.484375 
Q 22.859375 48.484375 18.828125 43.109375 
Q 14.796875 37.75 14.796875 27.984375 
Q 14.796875 18.265625 18.828125 12.890625 
Q 22.859375 7.515625 30.078125 7.515625 
Q 37.359375 7.515625 41.375 12.890625 
Q 45.40625 18.265625 45.40625 27.984375 
z
M 54.390625 6.78125 
Q 54.390625 -7.171875 48.1875 -13.984375 
Q 42 -20.796875 29.203125 -20.796875 
Q 24.46875 -20.796875 20.265625 -20.09375 
Q 16.0625 -19.390625 12.109375 -17.921875 
L 12.109375 -9.1875 
Q 16.0625 -11.328125 19.921875 -12.34375 
Q 23.78125 -13.375 27.78125 -13.375 
Q 36.625 -13.375 41.015625 -8.765625 
Q 45.40625 -4.15625 45.40625 5.171875 
L 45.40625 9.625 
Q 42.625 4.78125 38.28125 2.390625 
Q 33.9375 0 27.875 0 
Q 17.828125 0 11.671875 7.65625 
Q 5.515625 15.328125 5.515625 27.984375 
Q 5.515625 40.671875 11.671875 48.328125 
Q 17.828125 56 27.875 56 
Q 33.9375 56 38.28125 53.609375 
Q 42.625 51.21875 45.40625 46.390625 
L 45.40625 54.6875 
L 54.390625 54.6875 
z
" id="DejaVuSans-103"/>
     </defs>
     <g transform="translate(37 304.885938)scale(0.1 -0.1)">
      <use xlink:href="#DejaVuSans-67"/>
      <use x="69.824219" xlink:href="#DejaVuSans-111"/>
      <use x="131.005859" xlink:href="#DejaVuSans-68"/>
      <use x="207.992188" xlink:href="#DejaVuSans-65"/>
      <use x="276.369141" xlink:href="#DejaVuSans-45"/>
      <use x="312.453125" xlink:href="#DejaVuSans-80"/>
      <use x="372.755859" xlink:href="#DejaVuSans-67"/>
      <use x="442.580078" xlink:href="#DejaVuSans-65"/>
      <use x="510.988281" xlink:href="#DejaVuSans-32"/>
      <use x="542.775391" xlink:href="#DejaVuSans-43"/>
      <use x="626.564453" xlink:href="#DejaVuSans-32"/>
      <use x="658.351562" xlink:href="#DejaVuSans-76"/>
      <use x="714.048828" xlink:href="#DejaVuSans-111"/>
      <use x="775.230469" xlink:href="#DejaVuSans-103"/>
      <use x="838.707031" xlink:href="#DejaVuSans-105"/>
      <use x="866.490234" xlink:href="#DejaVuSans-115"/>
      <use x="918.589844" xlink:href="#DejaVuSans-116"/>
      <use x="957.798828" xlink:href="#DejaVuSans-105"/>
      <use x="985.582031" xlink:href="#DejaVuSans-99"/>
      <use x="1040.5625" xlink:href="#DejaVuSans-32"/>
      <use x="1072.349609" xlink:href="#DejaVuSans-82"/>
      <use x="1141.769531" xlink:href="#DejaVuSans-101"/>
      <use x="1203.292969" xlink:href="#DejaVuSans-103"/>
      <use x="1266.769531" xlink:href="#DejaVuSans-114"/>
      <use x="1307.851562" xlink:href="#DejaVuSans-101"/>
      <use x="1369.375" xlink:href="#DejaVuSans-115"/>
      <use x="1421.474609" xlink:href="#DejaVuSans-115"/>
      <use x="1473.574219" xlink:href="#DejaVuSans-105"/>
      <use x="1501.357422" xlink:href="#DejaVuSans-111"/>
      <use x="1562.539062" xlink:href="#DejaVuSans-110"/>
     </g>
    </g>
    <g id="PathCollection_6">
     <g>
      <use style="fill:#0000ff;stroke:#0000ff;" x="19" xlink:href="#m826e7bd79a" y="316.939062"/>
     </g>
    </g>
    <g id="text_19">
     <!-- CLR-PCA + Logistic Regression -->
     <g transform="translate(37 319.564062)scale(0.1 -0.1)">
      <use xlink:href="#DejaVuSans-67"/>
      <use x="69.824219" xlink:href="#DejaVuSans-76"/>
      <use x="125.537109" xlink:href="#DejaVuSans-82"/>
      <use x="194.957031" xlink:href="#DejaVuSans-45"/>
      <use x="231.041016" xlink:href="#DejaVuSans-80"/>
      <use x="291.34375" xlink:href="#DejaVuSans-67"/>
      <use x="361.167969" xlink:href="#DejaVuSans-65"/>
      <use x="429.576172" xlink:href="#DejaVuSans-32"/>
      <use x="461.363281" xlink:href="#DejaVuSans-43"/>
      <use x="545.152344" xlink:href="#DejaVuSans-32"/>
      <use x="576.939453" xlink:href="#DejaVuSans-76"/>
      <use x="632.636719" xlink:href="#DejaVuSans-111"/>
      <use x="693.818359" xlink:href="#DejaVuSans-103"/>
      <use x="757.294922" xlink:href="#DejaVuSans-105"/>
      <use x="785.078125" xlink:href="#DejaVuSans-115"/>
      <use x="837.177734" xlink:href="#DejaVuSans-116"/>
      <use x="876.386719" xlink:href="#DejaVuSans-105"/>
      <use x="904.169922" xlink:href="#DejaVuSans-99"/>
      <use x="959.150391" xlink:href="#DejaVuSans-32"/>
      <use x="990.9375" xlink:href="#DejaVuSans-82"/>
      <use x="1060.357422" xlink:href="#DejaVuSans-101"/>
      <use x="1121.880859" xlink:href="#DejaVuSans-103"/>
      <use x="1185.357422" xlink:href="#DejaVuSans-114"/>
      <use x="1226.439453" xlink:href="#DejaVuSans-101"/>
      <use x="1287.962891" xlink:href="#DejaVuSans-115"/>
      <use x="1340.0625" xlink:href="#DejaVuSans-115"/>
      <use x="1392.162109" xlink:href="#DejaVuSans-105"/>
      <use x="1419.945312" xlink:href="#DejaVuSans-111"/>
      <use x="1481.126953" xlink:href="#DejaVuSans-110"/>
     </g>
    </g>
    <g id="PathCollection_7">
     <g>
      <use style="fill:#008000;stroke:#008000;" x="19" xlink:href="#m457c4f0dfd" y="331.617188"/>
     </g>
    </g>
    <g id="text_20">
     <!-- PCA + Logistic Regression -->
     <g transform="translate(37 334.242188)scale(0.1 -0.1)">
      <use xlink:href="#DejaVuSans-80"/>
      <use x="60.302734" xlink:href="#DejaVuSans-67"/>
      <use x="130.126953" xlink:href="#DejaVuSans-65"/>
      <use x="198.535156" xlink:href="#DejaVuSans-32"/>
      <use x="230.322266" xlink:href="#DejaVuSans-43"/>
      <use x="314.111328" xlink:href="#DejaVuSans-32"/>
      <use x="345.898438" xlink:href="#DejaVuSans-76"/>
      <use x="401.595703" xlink:href="#DejaVuSans-111"/>
      <use x="462.777344" xlink:href="#DejaVuSans-103"/>
      <use x="526.253906" xlink:href="#DejaVuSans-105"/>
      <use x="554.037109" xlink:href="#DejaVuSans-115"/>
      <use x="606.136719" xlink:href="#DejaVuSans-116"/>
      <use x="645.345703" xlink:href="#DejaVuSans-105"/>
      <use x="673.128906" xlink:href="#DejaVuSans-99"/>
      <use x="728.109375" xlink:href="#DejaVuSans-32"/>
      <use x="759.896484" xlink:href="#DejaVuSans-82"/>
      <use x="829.316406" xlink:href="#DejaVuSans-101"/>
      <use x="890.839844" xlink:href="#DejaVuSans-103"/>
      <use x="954.316406" xlink:href="#DejaVuSans-114"/>
      <use x="995.398438" xlink:href="#DejaVuSans-101"/>
      <use x="1056.921875" xlink:href="#DejaVuSans-115"/>
      <use x="1109.021484" xlink:href="#DejaVuSans-115"/>
      <use x="1161.121094" xlink:href="#DejaVuSans-105"/>
      <use x="1188.904297" xlink:href="#DejaVuSans-111"/>
      <use x="1250.085938" xlink:href="#DejaVuSans-110"/>
     </g>
    </g>
    <g id="PathCollection_8">
     <g>
      <use style="fill:#ffff00;stroke:#ffff00;" x="19" xlink:href="#m06393ac2a3" y="346.295313"/>
     </g>
    </g>
    <g id="text_21">
     <!-- Logistic Regression -->
     <g transform="translate(37 348.920313)scale(0.1 -0.1)">
      <use xlink:href="#DejaVuSans-76"/>
      <use x="55.697266" xlink:href="#DejaVuSans-111"/>
      <use x="116.878906" xlink:href="#DejaVuSans-103"/>
      <use x="180.355469" xlink:href="#DejaVuSans-105"/>
      <use x="208.138672" xlink:href="#DejaVuSans-115"/>
      <use x="260.238281" xlink:href="#DejaVuSans-116"/>
      <use x="299.447266" xlink:href="#DejaVuSans-105"/>
      <use x="327.230469" xlink:href="#DejaVuSans-99"/>
      <use x="382.210938" xlink:href="#DejaVuSans-32"/>
      <use x="413.998047" xlink:href="#DejaVuSans-82"/>
      <use x="483.417969" xlink:href="#DejaVuSans-101"/>
      <use x="544.941406" xlink:href="#DejaVuSans-103"/>
      <use x="608.417969" xlink:href="#DejaVuSans-114"/>
      <use x="649.5" xlink:href="#DejaVuSans-101"/>
      <use x="711.023438" xlink:href="#DejaVuSans-115"/>
      <use x="763.123047" xlink:href="#DejaVuSans-115"/>
      <use x="815.222656" xlink:href="#DejaVuSans-105"/>
      <use x="843.005859" xlink:href="#DejaVuSans-111"/>
      <use x="904.1875" xlink:href="#DejaVuSans-110"/>
     </g>
    </g>
   </g>
  </g>
 </g>
 <defs>
  <clipPath id="p2b1177025c">
   <rect height="360" width="720" x="0" y="0"/>
  </clipPath>
 </defs>
</svg>
