<?xml version="1.0" encoding="utf-8" standalone="no"?>
<!DOCTYPE svg PUBLIC "-//W3C//DTD SVG 1.1//EN"
  "http://www.w3.org/Graphics/SVG/1.1/DTD/svg11.dtd">
<!-- Created with matplotlib (https://matplotlib.org/) -->
<svg height="360pt" version="1.1" viewBox="0 0 720 360" width="720pt" xmlns="http://www.w3.org/2000/svg" xmlns:xlink="http://www.w3.org/1999/xlink">
 <defs>
  <style type="text/css">
*{stroke-linecap:butt;stroke-linejoin:round;}
  </style>
 </defs>
 <g id="figure_1">
  <g id="patch_1">
   <path d="M 0 360 
L 720 360 
L 720 0 
L 0 0 
z
" style="fill:#ffffff;"/>
  </g>
  <g id="axes_1">
   <g id="patch_2">
    <path d="M 0 360 
L 720 360 
L 720 0 
L 0 0 
z
" style="fill:#ffffff;"/>
   </g>
   <g id="PathCollection_1">
    <defs>
     <path d="M 0 3 
C 0.795609 3 1.55874 2.683901 2.12132 2.12132 
C 2.683901 1.55874 3 0.795609 3 0 
C 3 -0.795609 2.683901 -1.55874 2.12132 -2.12132 
C 1.55874 -2.683901 0.795609 -3 0 -3 
C -0.795609 -3 -1.55874 -2.683901 -2.12132 -2.12132 
C -2.683901 -1.55874 -3 -0.795609 -3 0 
C -3 0.795609 -2.683901 1.55874 -2.12132 2.12132 
C -1.55874 2.683901 -0.795609 3 0 3 
z
" id="m931878acb9" style="stroke:#ff0000;"/>
    </defs>
    <g clip-path="url(#p89eaaaf894)">
     <use style="fill:#ff0000;stroke:#ff0000;" x="54.545455" xlink:href="#m931878acb9" y="28.982308"/>
     <use style="fill:#ff0000;stroke:#ff0000;" x="141.818182" xlink:href="#m931878acb9" y="29.107555"/>
     <use style="fill:#ff0000;stroke:#ff0000;" x="229.090909" xlink:href="#m931878acb9" y="29.25403"/>
     <use style="fill:#ff0000;stroke:#ff0000;" x="316.363636" xlink:href="#m931878acb9" y="29.118513"/>
     <use style="fill:#ff0000;stroke:#ff0000;" x="403.636364" xlink:href="#m931878acb9" y="28.955267"/>
     <use style="fill:#ff0000;stroke:#ff0000;" x="490.909091" xlink:href="#m931878acb9" y="28.274821"/>
     <use style="fill:#ff0000;stroke:#ff0000;" x="578.181818" xlink:href="#m931878acb9" y="29.176478"/>
     <use style="fill:#ff0000;stroke:#ff0000;" x="665.454545" xlink:href="#m931878acb9" y="28.883224"/>
    </g>
   </g>
   <g id="PathCollection_2">
    <defs>
     <path d="M 0 3 
C 0.795609 3 1.55874 2.683901 2.12132 2.12132 
C 2.683901 1.55874 3 0.795609 3 0 
C 3 -0.795609 2.683901 -1.55874 2.12132 -2.12132 
C 1.55874 -2.683901 0.795609 -3 0 -3 
C -0.795609 -3 -1.55874 -2.683901 -2.12132 -2.12132 
C -2.683901 -1.55874 -3 -0.795609 -3 0 
C -3 0.795609 -2.683901 1.55874 -2.12132 2.12132 
C -1.55874 2.683901 -0.795609 3 0 3 
z
" id="m62dc613e40" style="stroke:#0000ff;"/>
    </defs>
    <g clip-path="url(#p89eaaaf894)">
     <use style="fill:#0000ff;stroke:#0000ff;" x="54.545455" xlink:href="#m62dc613e40" y="30.816833"/>
     <use style="fill:#0000ff;stroke:#0000ff;" x="141.818182" xlink:href="#m62dc613e40" y="30.816833"/>
     <use style="fill:#0000ff;stroke:#0000ff;" x="229.090909" xlink:href="#m62dc613e40" y="30.816833"/>
     <use style="fill:#0000ff;stroke:#0000ff;" x="316.363636" xlink:href="#m62dc613e40" y="30.816833"/>
     <use style="fill:#0000ff;stroke:#0000ff;" x="403.636364" xlink:href="#m62dc613e40" y="30.816833"/>
     <use style="fill:#0000ff;stroke:#0000ff;" x="490.909091" xlink:href="#m62dc613e40" y="30.816833"/>
     <use style="fill:#0000ff;stroke:#0000ff;" x="578.181818" xlink:href="#m62dc613e40" y="30.816833"/>
     <use style="fill:#0000ff;stroke:#0000ff;" x="665.454545" xlink:href="#m62dc613e40" y="30.816833"/>
    </g>
   </g>
   <g id="PathCollection_3">
    <defs>
     <path d="M 0 3 
C 0.795609 3 1.55874 2.683901 2.12132 2.12132 
C 2.683901 1.55874 3 0.795609 3 0 
C 3 -0.795609 2.683901 -1.55874 2.12132 -2.12132 
C 1.55874 -2.683901 0.795609 -3 0 -3 
C -0.795609 -3 -1.55874 -2.683901 -2.12132 -2.12132 
C -2.683901 -1.55874 -3 -0.795609 -3 0 
C -3 0.795609 -2.683901 1.55874 -2.12132 2.12132 
C -1.55874 2.683901 -0.795609 3 0 3 
z
" id="maee882db14" style="stroke:#008000;"/>
    </defs>
    <g clip-path="url(#p89eaaaf894)">
     <use style="fill:#008000;stroke:#008000;" x="54.545455" xlink:href="#maee882db14" y="33.981749"/>
     <use style="fill:#008000;stroke:#008000;" x="141.818182" xlink:href="#maee882db14" y="34.162564"/>
     <use style="fill:#008000;stroke:#008000;" x="229.090909" xlink:href="#maee882db14" y="33.842483"/>
     <use style="fill:#008000;stroke:#008000;" x="316.363636" xlink:href="#maee882db14" y="33.879107"/>
     <use style="fill:#008000;stroke:#008000;" x="403.636364" xlink:href="#maee882db14" y="33.894946"/>
     <use style="fill:#008000;stroke:#008000;" x="490.909091" xlink:href="#maee882db14" y="34.004997"/>
     <use style="fill:#008000;stroke:#008000;" x="578.181818" xlink:href="#maee882db14" y="34.110456"/>
     <use style="fill:#008000;stroke:#008000;" x="665.454545" xlink:href="#maee882db14" y="33.956087"/>
    </g>
   </g>
   <g id="PathCollection_4">
    <defs>
     <path d="M 0 3 
C 0.795609 3 1.55874 2.683901 2.12132 2.12132 
C 2.683901 1.55874 3 0.795609 3 0 
C 3 -0.795609 2.683901 -1.55874 2.12132 -2.12132 
C 1.55874 -2.683901 0.795609 -3 0 -3 
C -0.795609 -3 -1.55874 -2.683901 -2.12132 -2.12132 
C -2.683901 -1.55874 -3 -0.795609 -3 0 
C -3 0.795609 -2.683901 1.55874 -2.12132 2.12132 
C -1.55874 2.683901 -0.795609 3 0 3 
z
" id="m5cef610d26" style="stroke:#ffff00;"/>
    </defs>
    <g clip-path="url(#p89eaaaf894)">
     <use style="fill:#ffff00;stroke:#ffff00;" x="54.545455" xlink:href="#m5cef610d26" y="30.75055"/>
     <use style="fill:#ffff00;stroke:#ffff00;" x="141.818182" xlink:href="#m5cef610d26" y="30.75055"/>
     <use style="fill:#ffff00;stroke:#ffff00;" x="229.090909" xlink:href="#m5cef610d26" y="30.75055"/>
     <use style="fill:#ffff00;stroke:#ffff00;" x="316.363636" xlink:href="#m5cef610d26" y="30.75055"/>
     <use style="fill:#ffff00;stroke:#ffff00;" x="403.636364" xlink:href="#m5cef610d26" y="30.75055"/>
     <use style="fill:#ffff00;stroke:#ffff00;" x="490.909091" xlink:href="#m5cef610d26" y="30.75055"/>
     <use style="fill:#ffff00;stroke:#ffff00;" x="578.181818" xlink:href="#m5cef610d26" y="30.75055"/>
     <use style="fill:#ffff00;stroke:#ffff00;" x="665.454545" xlink:href="#m5cef610d26" y="30.75055"/>
    </g>
   </g>
   <g id="PolyCollection_1">
    <path clip-path="url(#p89eaaaf894)" d="M 54.656857 343.623586 
L 54.434052 343.623586 
L 54.428286 340.543241 
L 54.424332 337.462896 
L 54.421675 334.38255 
L 54.419482 331.302205 
L 54.416701 328.22186 
L 54.412188 325.141515 
L 54.404875 322.061169 
L 54.393921 318.980824 
L 54.378837 315.900479 
L 54.359569 312.820134 
L 54.336505 309.739788 
L 54.310429 306.659443 
L 54.282404 303.579098 
L 54.253612 300.498752 
L 54.225172 297.418407 
L 54.197941 294.338062 
L 54.172357 291.257717 
L 54.148324 288.177371 
L 54.12517 285.097026 
L 54.101708 282.016681 
L 54.076386 278.936336 
L 54.047528 275.85599 
L 54.013631 272.775645 
L 53.973681 269.6953 
L 53.927411 266.614955 
L 53.875473 263.534609 
L 53.819447 260.454264 
L 53.761688 257.373919 
L 53.705018 254.293574 
L 53.652293 251.213228 
L 53.605917 248.132883 
L 53.567391 245.052538 
L 53.536951 241.972192 
L 53.513382 238.891847 
L 53.494024 235.811502 
L 53.475011 232.731157 
L 53.451715 229.650811 
L 53.419362 226.570466 
L 53.37376 223.490121 
L 53.312028 220.409776 
L 53.233225 217.32943 
L 53.138762 214.249085 
L 53.032478 211.16874 
L 52.920338 208.088395 
L 52.809755 205.008049 
L 52.70861 201.927704 
L 52.624108 198.847359 
L 52.56168 195.767014 
L 52.524079 192.686668 
L 52.510866 189.606323 
L 52.518337 186.525978 
L 52.539922 183.445633 
L 52.56697 180.365287 
L 52.589804 177.284942 
L 52.5989 174.204597 
L 52.586029 171.124251 
L 52.545258 168.043906 
L 52.473704 164.963561 
L 52.371981 161.883216 
L 52.244278 158.80287 
L 52.09805 155.722525 
L 51.943278 152.64218 
L 51.791355 149.561835 
L 51.653682 146.481489 
L 51.540137 143.401144 
L 51.457686 140.320799 
L 51.40938 137.240454 
L 51.393991 134.160108 
L 51.406391 131.079763 
L 51.438649 127.999418 
L 51.481639 124.919073 
L 51.526788 121.838727 
L 51.567581 118.758382 
L 51.600427 115.678037 
L 51.624655 112.597691 
L 51.641556 109.517346 
L 51.652586 106.437001 
L 51.657 103.356656 
L 51.649247 100.27631 
L 51.616539 97.195965 
L 51.53699 94.11562 
L 51.378739 91.035275 
L 51.100501 87.954929 
L 50.653963 84.874584 
L 49.988353 81.794239 
L 49.057295 78.713894 
L 47.827592 75.633548 
L 46.289031 72.553203 
L 44.463603 69.472858 
L 42.412099 66.392513 
L 40.23588 63.312167 
L 38.072161 60.231822 
L 36.08217 57.151477 
L 34.433142 54.071131 
L 33.276683 50.990786 
L 32.727273 47.910441 
L 32.845096 44.830096 
L 33.626756 41.74975 
L 35.005848 38.669405 
L 74.085061 38.669405 
L 74.085061 38.669405 
L 75.464153 41.74975 
L 76.245813 44.830096 
L 76.363636 47.910441 
L 75.814226 50.990786 
L 74.657767 54.071131 
L 73.008739 57.151477 
L 71.018748 60.231822 
L 68.855029 63.312167 
L 66.67881 66.392513 
L 64.627306 69.472858 
L 62.801879 72.553203 
L 61.263317 75.633548 
L 60.033614 78.713894 
L 59.102556 81.794239 
L 58.436946 84.874584 
L 57.990408 87.954929 
L 57.712171 91.035275 
L 57.553919 94.11562 
L 57.47437 97.195965 
L 57.441662 100.27631 
L 57.433909 103.356656 
L 57.438323 106.437001 
L 57.449353 109.517346 
L 57.466254 112.597691 
L 57.490482 115.678037 
L 57.523329 118.758382 
L 57.564121 121.838727 
L 57.60927 124.919073 
L 57.65226 127.999418 
L 57.684518 131.079763 
L 57.696918 134.160108 
L 57.681529 137.240454 
L 57.633223 140.320799 
L 57.550772 143.401144 
L 57.437227 146.481489 
L 57.299554 149.561835 
L 57.147632 152.64218 
L 56.992859 155.722525 
L 56.846631 158.80287 
L 56.718929 161.883216 
L 56.617205 164.963561 
L 56.545651 168.043906 
L 56.50488 171.124251 
L 56.492009 174.204597 
L 56.501105 177.284942 
L 56.523939 180.365287 
L 56.550987 183.445633 
L 56.572572 186.525978 
L 56.580043 189.606323 
L 56.56683 192.686668 
L 56.529229 195.767014 
L 56.466801 198.847359 
L 56.382299 201.927704 
L 56.281154 205.008049 
L 56.170571 208.088395 
L 56.058431 211.16874 
L 55.952147 214.249085 
L 55.857684 217.32943 
L 55.778881 220.409776 
L 55.717149 223.490121 
L 55.671547 226.570466 
L 55.639194 229.650811 
L 55.615898 232.731157 
L 55.596885 235.811502 
L 55.577527 238.891847 
L 55.553958 241.972192 
L 55.523518 245.052538 
L 55.484992 248.132883 
L 55.438616 251.213228 
L 55.385891 254.293574 
L 55.329221 257.373919 
L 55.271462 260.454264 
L 55.215436 263.534609 
L 55.163498 266.614955 
L 55.117228 269.6953 
L 55.077278 272.775645 
L 55.043381 275.85599 
L 55.014523 278.936336 
L 54.989201 282.016681 
L 54.965739 285.097026 
L 54.942585 288.177371 
L 54.918552 291.257717 
L 54.892968 294.338062 
L 54.865737 297.418407 
L 54.837297 300.498752 
L 54.808506 303.579098 
L 54.78048 306.659443 
L 54.754404 309.739788 
L 54.73134 312.820134 
L 54.712072 315.900479 
L 54.696988 318.980824 
L 54.686034 322.061169 
L 54.678721 325.141515 
L 54.674209 328.22186 
L 54.671427 331.302205 
L 54.669234 334.38255 
L 54.666577 337.462896 
L 54.662623 340.543241 
L 54.656857 343.623586 
z
" style="fill:#1f77b4;fill-opacity:0.3;"/>
   </g>
   <g id="PolyCollection_2">
    <path clip-path="url(#p89eaaaf894)" d="M 141.94061 340.608096 
L 141.695754 340.608096 
L 141.691248 337.558404 
L 141.687109 334.508712 
L 141.682436 331.45902 
L 141.676158 328.409328 
L 141.667152 325.359636 
L 141.654389 322.309943 
L 141.637086 319.260251 
L 141.614843 316.210559 
L 141.587745 313.160867 
L 141.556405 310.111175 
L 141.52194 307.061482 
L 141.485865 304.01179 
L 141.449922 300.962098 
L 141.415855 297.912406 
L 141.385161 294.862714 
L 141.358857 291.813022 
L 141.337295 288.763329 
L 141.320064 285.713637 
L 141.305996 282.663945 
L 141.293283 279.614253 
L 141.279695 276.564561 
L 141.262866 273.514869 
L 141.240616 270.465176 
L 141.211242 267.415484 
L 141.173761 264.365792 
L 141.128043 261.3161 
L 141.07483 258.266408 
L 141.015634 255.216716 
L 140.952528 252.167023 
L 140.887859 249.117331 
L 140.823936 246.067639 
L 140.762718 243.017947 
L 140.705565 239.968255 
L 140.653079 236.918563 
L 140.605068 233.86887 
L 140.560625 230.819178 
L 140.518347 227.769486 
L 140.476634 224.719794 
L 140.434051 221.670102 
L 140.389683 218.62041 
L 140.343435 215.570717 
L 140.296201 212.521025 
L 140.249879 209.471333 
L 140.207186 206.421641 
L 140.171301 203.371949 
L 140.14536 200.322256 
L 140.131871 197.272564 
L 140.132139 194.222872 
L 140.145779 191.17318 
L 140.170404 188.123488 
L 140.201552 185.073796 
L 140.232874 182.024103 
L 140.256598 178.974411 
L 140.264224 175.924719 
L 140.247398 172.875027 
L 140.198864 169.825335 
L 140.113396 166.775643 
L 139.988583 163.72595 
L 139.82535 160.676258 
L 139.628119 157.626566 
L 139.404547 154.576874 
L 139.164831 151.527182 
L 138.920649 148.47749 
L 138.683863 145.427797 
L 138.465177 142.378105 
L 138.272954 139.328413 
L 138.112397 136.278721 
L 137.985239 133.229029 
L 137.889973 130.179337 
L 137.822579 127.129644 
L 137.777555 124.079952 
L 137.74901 121.03026 
L 137.731548 117.980568 
L 137.720692 114.930876 
L 137.712695 111.881184 
L 137.703706 108.831491 
L 137.688392 105.781799 
L 137.658248 102.732107 
L 137.599928 99.682415 
L 137.49398 96.632723 
L 137.314361 93.583031 
L 137.029076 90.533338 
L 136.60216 87.483646 
L 135.997097 84.433954 
L 135.181517 81.384262 
L 134.132821 78.33457 
L 132.844087 75.284877 
L 131.329398 72.235185 
L 129.627627 69.185493 
L 127.803673 66.135801 
L 125.946442 63.086109 
L 124.16321 60.036417 
L 122.570655 56.986724 
L 121.283434 53.937032 
L 120.401795 50.88734 
L 120 47.837648 
L 120.117406 44.787956 
L 120.753657 41.738264 
L 121.868797 38.688571 
L 161.767567 38.688571 
L 161.767567 38.688571 
L 162.882707 41.738264 
L 163.518957 44.787956 
L 163.636364 47.837648 
L 163.234569 50.88734 
L 162.352929 53.937032 
L 161.065709 56.986724 
L 159.473153 60.036417 
L 157.689922 63.086109 
L 155.832691 66.135801 
L 154.008737 69.185493 
L 152.306965 72.235185 
L 150.792277 75.284877 
L 149.503542 78.33457 
L 148.454847 81.384262 
L 147.639267 84.433954 
L 147.034203 87.483646 
L 146.607288 90.533338 
L 146.322002 93.583031 
L 146.142384 96.632723 
L 146.036436 99.682415 
L 145.978116 102.732107 
L 145.947971 105.781799 
L 145.932657 108.831491 
L 145.923669 111.881184 
L 145.915672 114.930876 
L 145.904816 117.980568 
L 145.887353 121.03026 
L 145.858808 124.079952 
L 145.813784 127.129644 
L 145.746391 130.179337 
L 145.651125 133.229029 
L 145.523966 136.278721 
L 145.36341 139.328413 
L 145.171186 142.378105 
L 144.952501 145.427797 
L 144.715715 148.47749 
L 144.471532 151.527182 
L 144.231816 154.576874 
L 144.008244 157.626566 
L 143.811014 160.676258 
L 143.647781 163.72595 
L 143.522968 166.775643 
L 143.4375 169.825335 
L 143.388966 172.875027 
L 143.37214 175.924719 
L 143.379766 178.974411 
L 143.40349 182.024103 
L 143.434812 185.073796 
L 143.465959 188.123488 
L 143.490585 191.17318 
L 143.504224 194.222872 
L 143.504492 197.272564 
L 143.491004 200.322256 
L 143.465062 203.371949 
L 143.429178 206.421641 
L 143.386485 209.471333 
L 143.340163 212.521025 
L 143.292929 215.570717 
L 143.246681 218.62041 
L 143.202313 221.670102 
L 143.15973 224.719794 
L 143.118017 227.769486 
L 143.075739 230.819178 
L 143.031296 233.86887 
L 142.983284 236.918563 
L 142.930799 239.968255 
L 142.873646 243.017947 
L 142.812427 246.067639 
L 142.748504 249.117331 
L 142.683836 252.167023 
L 142.620729 255.216716 
L 142.561533 258.266408 
L 142.50832 261.3161 
L 142.462602 264.365792 
L 142.425121 267.415484 
L 142.395748 270.465176 
L 142.373497 273.514869 
L 142.356669 276.564561 
L 142.34308 279.614253 
L 142.330367 282.663945 
L 142.316299 285.713637 
L 142.299069 288.763329 
L 142.277507 291.813022 
L 142.251203 294.862714 
L 142.220509 297.912406 
L 142.186442 300.962098 
L 142.150499 304.01179 
L 142.114424 307.061482 
L 142.079958 310.111175 
L 142.048619 313.160867 
L 142.021521 316.210559 
L 141.999278 319.260251 
L 141.981975 322.309943 
L 141.969212 325.359636 
L 141.960206 328.409328 
L 141.953927 331.45902 
L 141.949255 334.508712 
L 141.945116 337.558404 
L 141.94061 340.608096 
z
" style="fill:#1f77b4;fill-opacity:0.3;"/>
   </g>
   <g id="PolyCollection_3">
    <path clip-path="url(#p89eaaaf894)" d="M 229.348528 340.608096 
L 228.83329 340.608096 
L 228.815224 337.604093 
L 228.801814 334.60009 
L 228.793479 331.596088 
L 228.790169 328.592085 
L 228.791338 325.588082 
L 228.795968 322.584079 
L 228.802661 319.580076 
L 228.809788 316.576073 
L 228.815668 313.57207 
L 228.818772 310.568067 
L 228.817916 307.564064 
L 228.812416 304.560061 
L 228.802185 301.556058 
L 228.787761 298.552055 
L 228.77025 295.548052 
L 228.7512 292.544049 
L 228.732408 289.540047 
L 228.715703 286.536044 
L 228.70271 283.532041 
L 228.694654 280.528038 
L 228.692196 277.524035 
L 228.695353 274.520032 
L 228.703494 271.516029 
L 228.715406 268.512026 
L 228.72944 265.508023 
L 228.743684 262.50402 
L 228.756162 259.500017 
L 228.765019 256.496014 
L 228.768665 253.492011 
L 228.765873 250.488008 
L 228.755802 247.484005 
L 228.737976 244.480003 
L 228.712214 241.476 
L 228.678547 238.471997 
L 228.637144 235.467994 
L 228.588269 232.463991 
L 228.532294 229.459988 
L 228.469757 226.455985 
L 228.401464 223.451982 
L 228.328605 220.447979 
L 228.252844 217.443976 
L 228.176343 214.439973 
L 228.101701 211.43597 
L 228.03177 208.431967 
L 227.969368 205.427964 
L 227.916912 202.423961 
L 227.876023 199.419959 
L 227.847163 196.415956 
L 227.829375 193.411953 
L 227.820173 190.40795 
L 227.81563 187.403947 
L 227.810658 184.399944 
L 227.799464 181.395941 
L 227.776134 178.391938 
L 227.735279 175.387935 
L 227.672674 172.383932 
L 227.585816 169.379929 
L 227.47434 166.375926 
L 227.340232 163.371923 
L 227.187805 160.36792 
L 227.023418 157.363918 
L 226.854934 154.359915 
L 226.690962 151.355912 
L 226.539946 148.351909 
L 226.409226 145.347906 
L 226.304178 142.343903 
L 226.227595 139.3399 
L 226.179403 136.335897 
L 226.156776 133.331894 
L 226.154654 130.327891 
L 226.166547 127.323888 
L 226.185505 124.319885 
L 226.205026 121.315882 
L 226.219746 118.311879 
L 226.225721 115.307876 
L 226.220225 112.303874 
L 226.201044 109.299871 
L 226.165326 106.295868 
L 226.108138 103.291865 
L 226.020905 100.287862 
L 225.889984 97.283859 
L 225.695658 94.279856 
L 225.411848 91.275853 
L 225.006867 88.27185 
L 224.445488 85.267847 
L 223.692492 82.263844 
L 222.717648 79.259841 
L 221.5018 76.255838 
L 220.043361 73.251835 
L 218.364194 70.247832 
L 216.513637 67.24383 
L 214.569445 64.239827 
L 212.6347 61.235824 
L 210.830368 58.231821 
L 209.283964 55.227818 
L 208.115661 52.223815 
L 207.423884 49.219812 
L 207.272727 46.215809 
L 207.683409 43.211806 
L 250.498409 43.211806 
L 250.498409 43.211806 
L 250.909091 46.215809 
L 250.757934 49.219812 
L 250.066157 52.223815 
L 248.897855 55.227818 
L 247.35145 58.231821 
L 245.547118 61.235824 
L 243.612373 64.239827 
L 241.668181 67.24383 
L 239.817624 70.247832 
L 238.138457 73.251835 
L 236.680018 76.255838 
L 235.46417 79.259841 
L 234.489326 82.263844 
L 233.73633 85.267847 
L 233.174952 88.27185 
L 232.76997 91.275853 
L 232.48616 94.279856 
L 232.291834 97.283859 
L 232.160913 100.287862 
L 232.07368 103.291865 
L 232.016492 106.295868 
L 231.980775 109.299871 
L 231.961593 112.303874 
L 231.956097 115.307876 
L 231.962073 118.311879 
L 231.976793 121.315882 
L 231.996314 124.319885 
L 232.015271 127.323888 
L 232.027164 130.327891 
L 232.025042 133.331894 
L 232.002416 136.335897 
L 231.954223 139.3399 
L 231.87764 142.343903 
L 231.772593 145.347906 
L 231.641872 148.351909 
L 231.490857 151.355912 
L 231.326884 154.359915 
L 231.1584 157.363918 
L 230.994013 160.36792 
L 230.841586 163.371923 
L 230.707478 166.375926 
L 230.596002 169.379929 
L 230.509144 172.383932 
L 230.446539 175.387935 
L 230.405684 178.391938 
L 230.382354 181.395941 
L 230.37116 184.399944 
L 230.366189 187.403947 
L 230.361646 190.40795 
L 230.352443 193.411953 
L 230.334655 196.415956 
L 230.305795 199.419959 
L 230.264906 202.423961 
L 230.21245 205.427964 
L 230.150048 208.431967 
L 230.080117 211.43597 
L 230.005475 214.439973 
L 229.928975 217.443976 
L 229.853213 220.447979 
L 229.780354 223.451982 
L 229.712061 226.455985 
L 229.649524 229.459988 
L 229.593549 232.463991 
L 229.544674 235.467994 
L 229.503271 238.471997 
L 229.469604 241.476 
L 229.443842 244.480003 
L 229.426016 247.484005 
L 229.415945 250.488008 
L 229.413153 253.492011 
L 229.4168 256.496014 
L 229.425656 259.500017 
L 229.438134 262.50402 
L 229.452378 265.508023 
L 229.466412 268.512026 
L 229.478325 271.516029 
L 229.486465 274.520032 
L 229.489622 277.524035 
L 229.487164 280.528038 
L 229.479108 283.532041 
L 229.466116 286.536044 
L 229.44941 289.540047 
L 229.430618 292.544049 
L 229.411568 295.548052 
L 229.394058 298.552055 
L 229.379633 301.556058 
L 229.369402 304.560061 
L 229.363902 307.564064 
L 229.363046 310.568067 
L 229.36615 313.57207 
L 229.37203 316.576073 
L 229.379157 319.580076 
L 229.385851 322.584079 
L 229.39048 325.588082 
L 229.391649 328.592085 
L 229.38834 331.596088 
L 229.380005 334.60009 
L 229.366595 337.604093 
L 229.348528 340.608096 
z
" style="fill:#1f77b4;fill-opacity:0.3;"/>
   </g>
   <g id="PolyCollection_4">
    <path clip-path="url(#p89eaaaf894)" d="M 316.585334 340.608096 
L 316.141939 340.608096 
L 316.134435 337.6039 
L 316.129659 334.599703 
L 316.126981 331.595507 
L 316.125456 328.59131 
L 316.123902 325.587114 
L 316.12102 322.582917 
L 316.115526 319.578721 
L 316.106289 316.574524 
L 316.092467 313.570328 
L 316.073599 310.566131 
L 316.049667 307.561935 
L 316.021098 304.557738 
L 315.98872 301.553541 
L 315.953663 298.549345 
L 315.917224 295.545148 
L 315.880711 292.540952 
L 315.845284 289.536755 
L 315.811804 286.532559 
L 315.780733 283.528362 
L 315.752067 280.524166 
L 315.725336 277.519969 
L 315.69966 274.515773 
L 315.673853 271.511576 
L 315.646577 268.50738 
L 315.616501 265.503183 
L 315.582479 262.498987 
L 315.543684 259.49479 
L 315.499721 256.490594 
L 315.450673 253.486397 
L 315.397079 250.4822 
L 315.339864 247.478004 
L 315.280202 244.473807 
L 315.21935 241.469611 
L 315.158482 238.465414 
L 315.098534 235.461218 
L 315.040109 232.457021 
L 314.98345 229.452825 
L 314.928493 226.448628 
L 314.874994 223.444432 
L 314.822705 220.440235 
L 314.771571 217.436039 
L 314.721892 214.431842 
L 314.674418 211.427646 
L 314.630344 208.423449 
L 314.591187 205.419252 
L 314.558557 202.415056 
L 314.53385 199.410859 
L 314.517908 196.406663 
L 314.510704 193.402466 
L 314.511114 190.39827 
L 314.516811 187.394073 
L 314.524324 184.389877 
L 314.529258 181.38568 
L 314.526665 178.381484 
L 314.511522 175.377287 
L 314.479272 172.373091 
L 314.426349 169.368894 
L 314.350633 166.364698 
L 314.251775 163.360501 
L 314.131335 160.356305 
L 313.992718 157.352108 
L 313.840896 154.347911 
L 313.681957 151.343715 
L 313.522515 148.339518 
L 313.369072 145.335322 
L 313.227408 142.331125 
L 313.102091 139.326929 
L 312.99616 136.322732 
L 312.911033 133.318536 
L 312.846613 130.314339 
L 312.801562 127.310143 
L 312.77364 124.305946 
L 312.760003 121.30175 
L 312.757359 118.297553 
L 312.761876 115.293357 
L 312.768813 112.28916 
L 312.771871 109.284964 
L 312.762343 106.280767 
L 312.728211 103.27657 
L 312.653362 100.272374 
L 312.517158 97.268177 
L 312.294584 94.263981 
L 311.957182 91.259784 
L 311.474887 88.255588 
L 310.818825 85.251391 
L 309.96493 82.247195 
L 308.898118 79.242998 
L 307.616555 76.238802 
L 306.135427 73.234605 
L 304.489542 70.230409 
L 302.734114 67.226212 
L 300.943245 64.222016 
L 299.205873 61.217819 
L 297.619353 58.213622 
L 296.281203 55.209426 
L 295.279952 52.205229 
L 294.686251 49.201033 
L 294.545455 46.196836 
L 294.872764 43.19264 
L 337.854509 43.19264 
L 337.854509 43.19264 
L 338.181818 46.196836 
L 338.041022 49.201033 
L 337.447321 52.205229 
L 336.44607 55.209426 
L 335.10792 58.213622 
L 333.5214 61.217819 
L 331.784028 64.222016 
L 329.993159 67.226212 
L 328.23773 70.230409 
L 326.591845 73.234605 
L 325.110718 76.238802 
L 323.829155 79.242998 
L 322.762343 82.247195 
L 321.908448 85.251391 
L 321.252386 88.255588 
L 320.770091 91.259784 
L 320.432688 94.263981 
L 320.210115 97.268177 
L 320.07391 100.272374 
L 319.999061 103.27657 
L 319.96493 106.280767 
L 319.955402 109.284964 
L 319.958459 112.28916 
L 319.965396 115.293357 
L 319.969914 118.297553 
L 319.967269 121.30175 
L 319.953633 124.305946 
L 319.925711 127.310143 
L 319.88066 130.314339 
L 319.81624 133.318536 
L 319.731112 136.322732 
L 319.625182 139.326929 
L 319.499864 142.331125 
L 319.358201 145.335322 
L 319.204758 148.339518 
L 319.045316 151.343715 
L 318.886377 154.347911 
L 318.734555 157.352108 
L 318.595938 160.356305 
L 318.475498 163.360501 
L 318.37664 166.364698 
L 318.300924 169.368894 
L 318.248 172.373091 
L 318.21575 175.377287 
L 318.200608 178.381484 
L 318.198015 181.38568 
L 318.202949 184.389877 
L 318.210462 187.394073 
L 318.216159 190.39827 
L 318.216569 193.402466 
L 318.209365 196.406663 
L 318.193423 199.410859 
L 318.168716 202.415056 
L 318.136086 205.419252 
L 318.096929 208.423449 
L 318.052854 211.427646 
L 318.00538 214.431842 
L 317.955701 217.436039 
L 317.904568 220.440235 
L 317.852279 223.444432 
L 317.798779 226.448628 
L 317.743822 229.452825 
L 317.687164 232.457021 
L 317.628739 235.461218 
L 317.568791 238.465414 
L 317.507922 241.469611 
L 317.447071 244.473807 
L 317.387408 247.478004 
L 317.330194 250.4822 
L 317.2766 253.486397 
L 317.227551 256.490594 
L 317.183589 259.49479 
L 317.144794 262.498987 
L 317.110771 265.503183 
L 317.080696 268.50738 
L 317.05342 271.511576 
L 317.027613 274.515773 
L 317.001936 277.519969 
L 316.975205 280.524166 
L 316.94654 283.528362 
L 316.915469 286.532559 
L 316.881989 289.536755 
L 316.846561 292.540952 
L 316.810049 295.545148 
L 316.77361 298.549345 
L 316.738552 301.553541 
L 316.706174 304.557738 
L 316.677606 307.561935 
L 316.653673 310.566131 
L 316.634806 313.570328 
L 316.620983 316.574524 
L 316.611747 319.578721 
L 316.606252 322.582917 
L 316.603371 325.587114 
L 316.601817 328.59131 
L 316.600291 331.595507 
L 316.597614 334.599703 
L 316.592838 337.6039 
L 316.585334 340.608096 
z
" style="fill:#1f77b4;fill-opacity:0.3;"/>
   </g>
   <g id="PolyCollection_5">
    <path clip-path="url(#p89eaaaf894)" d="M 403.75339 343.636364 
L 403.519337 343.636364 
L 403.516357 340.586542 
L 403.514023 337.536721 
L 403.511517 334.4869 
L 403.507807 331.437079 
L 403.501719 328.387257 
L 403.492035 325.337436 
L 403.477604 322.287615 
L 403.457464 319.237794 
L 403.430952 316.187973 
L 403.397797 313.138151 
L 403.358167 310.08833 
L 403.312683 307.038509 
L 403.26237 303.988688 
L 403.20856 300.938866 
L 403.152747 297.889045 
L 403.096422 294.839224 
L 403.040896 291.789403 
L 402.987151 288.739581 
L 402.935745 285.68976 
L 402.886782 282.639939 
L 402.839962 279.590118 
L 402.794702 276.540296 
L 402.750304 273.490475 
L 402.706145 270.440654 
L 402.661841 267.390833 
L 402.617362 264.341011 
L 402.573068 261.29119 
L 402.52966 258.241369 
L 402.488056 255.191548 
L 402.449222 252.141727 
L 402.413987 249.091905 
L 402.382888 246.042084 
L 402.356073 242.992263 
L 402.333283 239.942442 
L 402.313912 236.89262 
L 402.297143 233.842799 
L 402.282114 230.792978 
L 402.268098 227.743157 
L 402.254651 224.693335 
L 402.241696 221.643514 
L 402.229532 218.593693 
L 402.21876 215.543872 
L 402.210122 212.49405 
L 402.204303 209.444229 
L 402.201687 206.394408 
L 402.202144 203.344587 
L 402.204846 200.294766 
L 402.20817 197.244944 
L 402.209699 194.195123 
L 402.206325 191.145302 
L 402.194464 188.095481 
L 402.170358 185.045659 
L 402.130441 181.995838 
L 402.07173 178.946017 
L 401.992198 175.896196 
L 401.891095 172.846374 
L 401.769159 169.796553 
L 401.628713 166.746732 
L 401.473588 163.696911 
L 401.308897 160.647089 
L 401.140648 157.597268 
L 400.97523 154.547447 
L 400.818819 151.497626 
L 400.676766 148.447804 
L 400.553049 145.397983 
L 400.449857 142.348162 
L 400.367389 139.298341 
L 400.303895 136.24852 
L 400.255983 133.198698 
L 400.219132 130.148877 
L 400.188346 127.099056 
L 400.158814 124.049235 
L 400.12643 120.999413 
L 400.088043 117.949592 
L 400.041322 114.899771 
L 399.984176 111.84995 
L 399.913767 108.800128 
L 399.825212 105.750307 
L 399.710173 102.700486 
L 399.555602 99.650665 
L 399.342931 96.600843 
L 399.048042 93.551022 
L 398.64224 90.501201 
L 398.094433 87.45138 
L 397.374481 84.401559 
L 396.457566 81.351737 
L 395.329139 78.301916 
L 393.98986 75.252095 
L 392.459738 72.202274 
L 390.780676 69.152452 
L 389.016686 66.102631 
L 387.251293 63.05281 
L 385.582024 60.002989 
L 384.112356 56.953167 
L 382.941964 53.903346 
L 382.156475 50.853525 
L 381.818182 47.803704 
L 381.959036 44.753882 
L 382.577029 41.704061 
L 424.695698 41.704061 
L 424.695698 41.704061 
L 425.313691 44.753882 
L 425.454545 47.803704 
L 425.116252 50.853525 
L 424.330764 53.903346 
L 423.160371 56.953167 
L 421.690704 60.002989 
L 420.021434 63.05281 
L 418.256041 66.102631 
L 416.492051 69.152452 
L 414.812989 72.202274 
L 413.282867 75.252095 
L 411.943588 78.301916 
L 410.815162 81.351737 
L 409.898246 84.401559 
L 409.178294 87.45138 
L 408.630487 90.501201 
L 408.224686 93.551022 
L 407.929796 96.600843 
L 407.717126 99.650665 
L 407.562554 102.700486 
L 407.447515 105.750307 
L 407.35896 108.800128 
L 407.288551 111.84995 
L 407.231405 114.899771 
L 407.184684 117.949592 
L 407.146297 120.999413 
L 407.113913 124.049235 
L 407.084381 127.099056 
L 407.053596 130.148877 
L 407.016744 133.198698 
L 406.968832 136.24852 
L 406.905338 139.298341 
L 406.82287 142.348162 
L 406.719678 145.397983 
L 406.595961 148.447804 
L 406.453909 151.497626 
L 406.297498 154.547447 
L 406.13208 157.597268 
L 405.963831 160.647089 
L 405.799139 163.696911 
L 405.644014 166.746732 
L 405.503568 169.796553 
L 405.381633 172.846374 
L 405.280529 175.896196 
L 405.200997 178.946017 
L 405.142286 181.995838 
L 405.10237 185.045659 
L 405.078264 188.095481 
L 405.066402 191.145302 
L 405.063028 194.195123 
L 405.064557 197.244944 
L 405.067882 200.294766 
L 405.070583 203.344587 
L 405.07104 206.394408 
L 405.068425 209.444229 
L 405.062605 212.49405 
L 405.053968 215.543872 
L 405.043195 218.593693 
L 405.031031 221.643514 
L 405.018076 224.693335 
L 405.004629 227.743157 
L 404.990614 230.792978 
L 404.975585 233.842799 
L 404.958815 236.89262 
L 404.939444 239.942442 
L 404.916654 242.992263 
L 404.889839 246.042084 
L 404.85874 249.091905 
L 404.823505 252.141727 
L 404.784671 255.191548 
L 404.743067 258.241369 
L 404.699659 261.29119 
L 404.655365 264.341011 
L 404.610886 267.390833 
L 404.566582 270.440654 
L 404.522423 273.490475 
L 404.478025 276.540296 
L 404.432765 279.590118 
L 404.385945 282.639939 
L 404.336983 285.68976 
L 404.285577 288.739581 
L 404.231832 291.789403 
L 404.176305 294.839224 
L 404.11998 297.889045 
L 404.064168 300.938866 
L 404.010357 303.988688 
L 403.960044 307.038509 
L 403.91456 310.08833 
L 403.87493 313.138151 
L 403.841775 316.187973 
L 403.815264 319.237794 
L 403.795124 322.287615 
L 403.780692 325.337436 
L 403.771008 328.387257 
L 403.76492 331.437079 
L 403.761211 334.4869 
L 403.758705 337.536721 
L 403.75637 340.586542 
L 403.75339 343.636364 
z
" style="fill:#1f77b4;fill-opacity:0.3;"/>
   </g>
   <g id="PolyCollection_6">
    <path clip-path="url(#p89eaaaf894)" d="M 491.387046 340.608096 
L 490.431136 340.608096 
L 490.417637 337.57344 
L 490.408474 334.538784 
L 490.402829 331.504128 
L 490.399588 328.469472 
L 490.397451 325.434816 
L 490.39505 322.40016 
L 490.39108 319.365504 
L 490.384417 316.330848 
L 490.374205 313.296192 
L 490.359909 310.261536 
L 490.341323 307.22688 
L 490.318524 304.192224 
L 490.2918 301.157568 
L 490.261543 298.122912 
L 490.228129 295.088256 
L 490.191815 292.0536 
L 490.15265 289.018944 
L 490.110429 285.984288 
L 490.064691 282.949632 
L 490.014765 279.914976 
L 489.959865 276.88032 
L 489.899205 273.845664 
L 489.832143 270.811008 
L 489.758311 267.776352 
L 489.67773 264.741696 
L 489.59088 261.70704 
L 489.498727 258.672384 
L 489.402689 255.637728 
L 489.304548 252.603072 
L 489.20632 249.568416 
L 489.110097 246.53376 
L 489.017868 243.499104 
L 488.931369 240.464448 
L 488.851939 237.429792 
L 488.780444 234.395136 
L 488.717246 231.36048 
L 488.662227 228.325824 
L 488.614875 225.291167 
L 488.574398 222.256511 
L 488.539866 219.221855 
L 488.51034 216.187199 
L 488.484986 213.152543 
L 488.463135 210.117887 
L 488.444304 207.083231 
L 488.428153 204.048575 
L 488.414405 201.013919 
L 488.402737 197.979263 
L 488.392668 194.944607 
L 488.383472 191.909951 
L 488.374132 188.875295 
L 488.363356 185.840639 
L 488.349664 182.805983 
L 488.331528 179.771327 
L 488.307564 176.736671 
L 488.276736 173.702015 
L 488.238542 170.667359 
L 488.193165 167.632703 
L 488.141533 164.598047 
L 488.0853 161.563391 
L 488.026718 158.528735 
L 487.968429 155.494079 
L 487.913185 152.459423 
L 487.863539 149.424767 
L 487.821545 146.390111 
L 487.788498 143.355455 
L 487.764758 140.320799 
L 487.749654 137.286143 
L 487.741488 134.251487 
L 487.737606 131.216831 
L 487.73451 128.182175 
L 487.727955 125.147519 
L 487.713006 122.112863 
L 487.683994 119.078207 
L 487.634366 116.043551 
L 487.556444 113.008895 
L 487.441108 109.974239 
L 487.277502 106.939583 
L 487.052837 103.904927 
L 486.752417 100.870271 
L 486.359992 97.835615 
L 485.858523 94.800958 
L 485.231424 91.766302 
L 484.464238 88.731646 
L 483.546687 85.69699 
L 482.474913 82.662334 
L 481.253667 79.627678 
L 479.898168 76.593022 
L 478.435311 73.558366 
L 476.903943 70.52371 
L 475.354007 67.489054 
L 473.844442 64.454398 
L 472.439914 61.419742 
L 471.206576 58.385086 
L 470.207242 55.35043 
L 469.496445 52.315774 
L 469.115899 49.281118 
L 469.090909 46.246462 
L 469.428121 43.211806 
L 470.114897 40.17715 
L 511.703285 40.17715 
L 511.703285 40.17715 
L 512.390061 43.211806 
L 512.727273 46.246462 
L 512.702283 49.281118 
L 512.321737 52.315774 
L 511.610939 55.35043 
L 510.611606 58.385086 
L 509.378268 61.419742 
L 507.973739 64.454398 
L 506.464175 67.489054 
L 504.914239 70.52371 
L 503.382871 73.558366 
L 501.920014 76.593022 
L 500.564515 79.627678 
L 499.343269 82.662334 
L 498.271494 85.69699 
L 497.353944 88.731646 
L 496.586758 91.766302 
L 495.959658 94.800958 
L 495.45819 97.835615 
L 495.065765 100.870271 
L 494.765345 103.904927 
L 494.54068 106.939583 
L 494.377074 109.974239 
L 494.261738 113.008895 
L 494.183816 116.043551 
L 494.134188 119.078207 
L 494.105175 122.112863 
L 494.090227 125.147519 
L 494.083672 128.182175 
L 494.080576 131.216831 
L 494.076694 134.251487 
L 494.068528 137.286143 
L 494.053424 140.320799 
L 494.029684 143.355455 
L 493.996637 146.390111 
L 493.954643 149.424767 
L 493.904997 152.459423 
L 493.849752 155.494079 
L 493.791464 158.528735 
L 493.732882 161.563391 
L 493.676649 164.598047 
L 493.625017 167.632703 
L 493.57964 170.667359 
L 493.541446 173.702015 
L 493.510618 176.736671 
L 493.486654 179.771327 
L 493.468518 182.805983 
L 493.454826 185.840639 
L 493.44405 188.875295 
L 493.434709 191.909951 
L 493.425514 194.944607 
L 493.415445 197.979263 
L 493.403777 201.013919 
L 493.390029 204.048575 
L 493.373878 207.083231 
L 493.355047 210.117887 
L 493.333196 213.152543 
L 493.307841 216.187199 
L 493.278316 219.221855 
L 493.243784 222.256511 
L 493.203307 225.291167 
L 493.155955 228.325824 
L 493.100936 231.36048 
L 493.037737 234.395136 
L 492.966243 237.429792 
L 492.886813 240.464448 
L 492.800313 243.499104 
L 492.708085 246.53376 
L 492.611861 249.568416 
L 492.513634 252.603072 
L 492.415492 255.637728 
L 492.319454 258.672384 
L 492.227302 261.70704 
L 492.140452 264.741696 
L 492.059871 267.776352 
L 491.986039 270.811008 
L 491.918977 273.845664 
L 491.858317 276.88032 
L 491.803417 279.914976 
L 491.753491 282.949632 
L 491.707753 285.984288 
L 491.665531 289.018944 
L 491.626367 292.0536 
L 491.590053 295.088256 
L 491.556639 298.122912 
L 491.526382 301.157568 
L 491.499658 304.192224 
L 491.476859 307.22688 
L 491.458272 310.261536 
L 491.443977 313.296192 
L 491.433765 316.330848 
L 491.427102 319.365504 
L 491.423132 322.40016 
L 491.420731 325.434816 
L 491.418594 328.469472 
L 491.415353 331.504128 
L 491.409708 334.538784 
L 491.400545 337.57344 
L 491.387046 340.608096 
z
" style="fill:#1f77b4;fill-opacity:0.3;"/>
   </g>
   <g id="PolyCollection_7">
    <path clip-path="url(#p89eaaaf894)" d="M 578.458994 343.623586 
L 577.904642 343.623586 
L 577.886287 340.5737 
L 577.868606 337.523815 
L 577.851109 334.473929 
L 577.833146 331.424043 
L 577.813964 328.374157 
L 577.792782 325.324272 
L 577.768865 322.274386 
L 577.741606 319.2245 
L 577.710578 316.174614 
L 577.675577 313.124728 
L 577.636633 310.074843 
L 577.593987 307.024957 
L 577.548053 303.975071 
L 577.49935 300.925185 
L 577.448428 297.8753 
L 577.39579 294.825414 
L 577.34183 291.775528 
L 577.286779 288.725642 
L 577.23069 285.675757 
L 577.173441 282.625871 
L 577.114773 279.575985 
L 577.054346 276.526099 
L 576.991814 273.476213 
L 576.926898 270.426328 
L 576.85946 267.376442 
L 576.789548 264.326556 
L 576.717418 261.27667 
L 576.643525 258.226785 
L 576.568478 255.176899 
L 576.492964 252.127013 
L 576.417662 249.077127 
L 576.343143 246.027242 
L 576.269787 242.977356 
L 576.197722 239.92747 
L 576.126805 236.877584 
L 576.056649 233.827698 
L 575.98669 230.777813 
L 575.916302 227.727927 
L 575.844933 224.678041 
L 575.77224 221.628155 
L 575.698207 218.57827 
L 575.623218 215.528384 
L 575.54807 212.478498 
L 575.473906 209.428612 
L 575.402096 206.378727 
L 575.334049 203.328841 
L 575.271001 200.278955 
L 575.213812 197.229069 
L 575.162788 194.179183 
L 575.117569 191.129298 
L 575.077108 188.079412 
L 575.039734 185.029526 
L 575.003304 181.97964 
L 574.965424 178.929755 
L 574.923711 175.879869 
L 574.876052 172.829983 
L 574.820844 169.780097 
L 574.75717 166.730212 
L 574.684899 163.680326 
L 574.604685 160.63044 
L 574.517892 157.580554 
L 574.426433 154.530668 
L 574.332562 151.480783 
L 574.238644 148.430897 
L 574.146939 145.381011 
L 574.059418 142.331125 
L 573.977634 139.28124 
L 573.902656 136.231354 
L 573.835038 133.181468 
L 573.774816 130.131582 
L 573.721479 127.081697 
L 573.673869 124.031811 
L 573.629989 120.981925 
L 573.586679 117.932039 
L 573.539183 114.882153 
L 573.480635 111.832268 
L 573.401545 108.782382 
L 573.289385 105.732496 
L 573.128412 102.68261 
L 572.899851 99.632725 
L 572.582553 96.582839 
L 572.154222 93.532953 
L 571.593198 90.483067 
L 570.880758 87.433181 
L 570.003769 84.383296 
L 568.957451 81.33341 
L 567.747929 78.283524 
L 566.394218 75.233638 
L 564.929276 72.183753 
L 563.399825 69.133867 
L 561.864735 66.083981 
L 560.391956 63.034095 
L 559.054132 59.98421 
L 557.92327 56.934324 
L 557.064965 53.884438 
L 556.532809 50.834552 
L 556.363636 47.784666 
L 556.57416 44.734781 
L 557.159441 41.684895 
L 599.204195 41.684895 
L 599.204195 41.684895 
L 599.789476 44.734781 
L 600 47.784666 
L 599.830827 50.834552 
L 599.298672 53.884438 
L 598.440366 56.934324 
L 597.309504 59.98421 
L 595.97168 63.034095 
L 594.498901 66.083981 
L 592.963811 69.133867 
L 591.43436 72.183753 
L 589.969418 75.233638 
L 588.615707 78.283524 
L 587.406185 81.33341 
L 586.359867 84.383296 
L 585.482879 87.433181 
L 584.770439 90.483067 
L 584.209414 93.532953 
L 583.781083 96.582839 
L 583.463786 99.632725 
L 583.235224 102.68261 
L 583.074251 105.732496 
L 582.962092 108.782382 
L 582.883001 111.832268 
L 582.824454 114.882153 
L 582.776958 117.932039 
L 582.733647 120.981925 
L 582.689767 124.031811 
L 582.642157 127.081697 
L 582.58882 130.131582 
L 582.528599 133.181468 
L 582.460981 136.231354 
L 582.386002 139.28124 
L 582.304218 142.331125 
L 582.216697 145.381011 
L 582.124993 148.430897 
L 582.031075 151.480783 
L 581.937203 154.530668 
L 581.845744 157.580554 
L 581.758951 160.63044 
L 581.678738 163.680326 
L 581.606466 166.730212 
L 581.542793 169.780097 
L 581.487584 172.829983 
L 581.439925 175.879869 
L 581.398212 178.929755 
L 581.360333 181.97964 
L 581.323903 185.029526 
L 581.286528 188.079412 
L 581.246067 191.129298 
L 581.200848 194.179183 
L 581.149824 197.229069 
L 581.092635 200.278955 
L 581.029588 203.328841 
L 580.96154 206.378727 
L 580.88973 209.428612 
L 580.815567 212.478498 
L 580.740418 215.528384 
L 580.665429 218.57827 
L 580.591396 221.628155 
L 580.518703 224.678041 
L 580.447334 227.727927 
L 580.376947 230.777813 
L 580.306987 233.827698 
L 580.236831 236.877584 
L 580.165915 239.92747 
L 580.09385 242.977356 
L 580.020493 246.027242 
L 579.945974 249.077127 
L 579.870672 252.127013 
L 579.795158 255.176899 
L 579.720111 258.226785 
L 579.646218 261.27667 
L 579.574089 264.326556 
L 579.504176 267.376442 
L 579.436738 270.426328 
L 579.371823 273.476213 
L 579.30929 276.526099 
L 579.248863 279.575985 
L 579.190195 282.625871 
L 579.132946 285.675757 
L 579.076857 288.725642 
L 579.021806 291.775528 
L 578.967846 294.825414 
L 578.915208 297.8753 
L 578.864286 300.925185 
L 578.815583 303.975071 
L 578.76965 307.024957 
L 578.727004 310.074843 
L 578.688059 313.124728 
L 578.653058 316.174614 
L 578.62203 319.2245 
L 578.594771 322.274386 
L 578.570855 325.324272 
L 578.549672 328.374157 
L 578.530491 331.424043 
L 578.512528 334.473929 
L 578.49503 337.523815 
L 578.477349 340.5737 
L 578.458994 343.623586 
z
" style="fill:#1f77b4;fill-opacity:0.3;"/>
   </g>
   <g id="PolyCollection_8">
    <path clip-path="url(#p89eaaaf894)" d="M 665.666296 343.636364 
L 665.242795 343.636364 
L 665.22985 340.556083 
L 665.225507 337.475802 
L 665.229839 334.395521 
L 665.241644 331.315241 
L 665.258575 328.23496 
L 665.277457 325.154679 
L 665.294694 322.074399 
L 665.306708 318.994118 
L 665.310347 315.913837 
L 665.30324 312.833556 
L 665.284087 309.753276 
L 665.252885 306.672995 
L 665.211042 303.592714 
L 665.161341 300.512433 
L 665.107695 297.432153 
L 665.054659 294.351872 
L 665.006757 291.271591 
L 664.967691 288.191311 
L 664.939619 285.11103 
L 664.922664 282.030749 
L 664.914799 278.950468 
L 664.912189 275.870188 
L 664.90993 272.789907 
L 664.903044 269.709626 
L 664.887487 266.629345 
L 664.86093 263.549065 
L 664.823131 260.468784 
L 664.775823 257.388503 
L 664.722203 254.308222 
L 664.66619 251.227942 
L 664.611678 248.147661 
L 664.56194 245.06738 
L 664.519253 241.9871 
L 664.484711 238.906819 
L 664.458124 235.826538 
L 664.437955 232.746257 
L 664.421308 229.665977 
L 664.404084 226.585696 
L 664.381451 223.505415 
L 664.348669 220.425134 
L 664.302212 217.344854 
L 664.240915 214.264573 
L 664.166823 211.184292 
L 664.085404 208.104012 
L 664.004961 205.023731 
L 663.935287 201.94345 
L 663.885837 198.863169 
L 663.863809 195.782889 
L 663.872574 192.702608 
L 663.910788 189.622327 
L 663.972349 186.542046 
L 664.047163 183.461766 
L 664.122515 180.381485 
L 664.184744 177.301204 
L 664.220921 174.220924 
L 664.220284 171.140643 
L 664.175331 168.060362 
L 664.082594 164.980081 
L 663.943171 161.899801 
L 663.763061 158.81952 
L 663.553243 155.739239 
L 663.329253 152.658958 
L 663.10998 149.578678 
L 662.91549 146.498397 
L 662.763981 143.418116 
L 662.668366 140.337835 
L 662.633336 137.257555 
L 662.65382 134.177274 
L 662.715538 131.096993 
L 662.797771 128.016713 
L 662.877813 124.936432 
L 662.936012 121.856151 
L 662.960089 118.77587 
L 662.947625 115.69559 
L 662.906101 112.615309 
L 662.850554 109.535028 
L 662.799496 106.454747 
L 662.770039 103.374467 
L 662.773201 100.294186 
L 662.810053 97.213905 
L 662.868982 94.133625 
L 662.923975 91.053344 
L 662.933704 87.973063 
L 662.841457 84.892782 
L 662.576492 81.812502 
L 662.05809 78.732221 
L 661.203931 75.65194 
L 659.944013 72.571659 
L 658.239798 69.491379 
L 656.10576 66.411098 
L 653.627807 63.330817 
L 650.971334 60.250537 
L 648.372413 57.170256 
L 646.10926 54.089975 
L 644.457162 51.009694 
L 643.636364 47.929414 
L 643.766431 44.849133 
L 644.840182 41.768852 
L 646.725101 38.688571 
L 684.183989 38.688571 
L 684.183989 38.688571 
L 686.068909 41.768852 
L 687.14266 44.849133 
L 687.272727 47.929414 
L 686.451929 51.009694 
L 684.799831 54.089975 
L 682.536678 57.170256 
L 679.937757 60.250537 
L 677.281284 63.330817 
L 674.80333 66.411098 
L 672.669293 69.491379 
L 670.965078 72.571659 
L 669.70516 75.65194 
L 668.851001 78.732221 
L 668.332599 81.812502 
L 668.067634 84.892782 
L 667.975387 87.973063 
L 667.985116 91.053344 
L 668.040109 94.133625 
L 668.099038 97.213905 
L 668.13589 100.294186 
L 668.139052 103.374467 
L 668.109595 106.454747 
L 668.058536 109.535028 
L 668.00299 112.615309 
L 667.961466 115.69559 
L 667.949002 118.77587 
L 667.973079 121.856151 
L 668.031278 124.936432 
L 668.11132 128.016713 
L 668.193553 131.096993 
L 668.255271 134.177274 
L 668.275755 137.257555 
L 668.240725 140.337835 
L 668.14511 143.418116 
L 667.993601 146.498397 
L 667.799111 149.578678 
L 667.579838 152.658958 
L 667.355848 155.739239 
L 667.14603 158.81952 
L 666.96592 161.899801 
L 666.826496 164.980081 
L 666.73376 168.060362 
L 666.688807 171.140643 
L 666.68817 174.220924 
L 666.724347 177.301204 
L 666.786576 180.381485 
L 666.861928 183.461766 
L 666.936742 186.542046 
L 666.998303 189.622327 
L 667.036517 192.702608 
L 667.045282 195.782889 
L 667.023254 198.863169 
L 666.973804 201.94345 
L 666.90413 205.023731 
L 666.823687 208.104012 
L 666.742268 211.184292 
L 666.668176 214.264573 
L 666.606879 217.344854 
L 666.560422 220.425134 
L 666.52764 223.505415 
L 666.505007 226.585696 
L 666.487783 229.665977 
L 666.471136 232.746257 
L 666.450967 235.826538 
L 666.42438 238.906819 
L 666.389838 241.9871 
L 666.347151 245.06738 
L 666.297413 248.147661 
L 666.242901 251.227942 
L 666.186888 254.308222 
L 666.133268 257.388503 
L 666.08596 260.468784 
L 666.048161 263.549065 
L 666.021604 266.629345 
L 666.006047 269.709626 
L 665.999161 272.789907 
L 665.996902 275.870188 
L 665.994292 278.950468 
L 665.986427 282.030749 
L 665.969472 285.11103 
L 665.9414 288.191311 
L 665.902334 291.271591 
L 665.854432 294.351872 
L 665.801396 297.432153 
L 665.74775 300.512433 
L 665.698049 303.592714 
L 665.656206 306.672995 
L 665.625004 309.753276 
L 665.605851 312.833556 
L 665.598744 315.913837 
L 665.602383 318.994118 
L 665.614397 322.074399 
L 665.631634 325.154679 
L 665.650516 328.23496 
L 665.667447 331.315241 
L 665.679252 334.395521 
L 665.683584 337.475802 
L 665.679241 340.556083 
L 665.666296 343.636364 
z
" style="fill:#1f77b4;fill-opacity:0.3;"/>
   </g>
   <g id="matplotlib.axis_1">
    <g id="xtick_1">
     <g id="line2d_1">
      <defs>
       <path d="M 0 0 
L 0 3.5 
" id="m431db6d7c6" style="stroke:#000000;stroke-width:0.8;"/>
      </defs>
      <g>
       <use style="stroke:#000000;stroke-width:0.8;" x="54.545455" xlink:href="#m431db6d7c6" y="360"/>
      </g>
     </g>
     <g id="text_1">
      <!-- 0 -->
      <defs>
       <path d="M 31.78125 66.40625 
Q 24.171875 66.40625 20.328125 58.90625 
Q 16.5 51.421875 16.5 36.375 
Q 16.5 21.390625 20.328125 13.890625 
Q 24.171875 6.390625 31.78125 6.390625 
Q 39.453125 6.390625 43.28125 13.890625 
Q 47.125 21.390625 47.125 36.375 
Q 47.125 51.421875 43.28125 58.90625 
Q 39.453125 66.40625 31.78125 66.40625 
z
M 31.78125 74.21875 
Q 44.046875 74.21875 50.515625 64.515625 
Q 56.984375 54.828125 56.984375 36.375 
Q 56.984375 17.96875 50.515625 8.265625 
Q 44.046875 -1.421875 31.78125 -1.421875 
Q 19.53125 -1.421875 13.0625 8.265625 
Q 6.59375 17.96875 6.59375 36.375 
Q 6.59375 54.828125 13.0625 64.515625 
Q 19.53125 74.21875 31.78125 74.21875 
z
" id="DejaVuSans-48"/>
      </defs>
      <g transform="translate(51.364205 374.598437)scale(0.1 -0.1)">
       <use xlink:href="#DejaVuSans-48"/>
      </g>
     </g>
    </g>
    <g id="xtick_2">
     <g id="line2d_2">
      <g>
       <use style="stroke:#000000;stroke-width:0.8;" x="141.818182" xlink:href="#m431db6d7c6" y="360"/>
      </g>
     </g>
     <g id="text_2">
      <!-- 1e-12 -->
      <defs>
       <path d="M 12.40625 8.296875 
L 28.515625 8.296875 
L 28.515625 63.921875 
L 10.984375 60.40625 
L 10.984375 69.390625 
L 28.421875 72.90625 
L 38.28125 72.90625 
L 38.28125 8.296875 
L 54.390625 8.296875 
L 54.390625 0 
L 12.40625 0 
z
" id="DejaVuSans-49"/>
       <path d="M 56.203125 29.59375 
L 56.203125 25.203125 
L 14.890625 25.203125 
Q 15.484375 15.921875 20.484375 11.0625 
Q 25.484375 6.203125 34.421875 6.203125 
Q 39.59375 6.203125 44.453125 7.46875 
Q 49.3125 8.734375 54.109375 11.28125 
L 54.109375 2.78125 
Q 49.265625 0.734375 44.1875 -0.34375 
Q 39.109375 -1.421875 33.890625 -1.421875 
Q 20.796875 -1.421875 13.15625 6.1875 
Q 5.515625 13.8125 5.515625 26.8125 
Q 5.515625 40.234375 12.765625 48.109375 
Q 20.015625 56 32.328125 56 
Q 43.359375 56 49.78125 48.890625 
Q 56.203125 41.796875 56.203125 29.59375 
z
M 47.21875 32.234375 
Q 47.125 39.59375 43.09375 43.984375 
Q 39.0625 48.390625 32.421875 48.390625 
Q 24.90625 48.390625 20.390625 44.140625 
Q 15.875 39.890625 15.1875 32.171875 
z
" id="DejaVuSans-101"/>
       <path d="M 4.890625 31.390625 
L 31.203125 31.390625 
L 31.203125 23.390625 
L 4.890625 23.390625 
z
" id="DejaVuSans-45"/>
       <path d="M 19.1875 8.296875 
L 53.609375 8.296875 
L 53.609375 0 
L 7.328125 0 
L 7.328125 8.296875 
Q 12.9375 14.109375 22.625 23.890625 
Q 32.328125 33.6875 34.8125 36.53125 
Q 39.546875 41.84375 41.421875 45.53125 
Q 43.3125 49.21875 43.3125 52.78125 
Q 43.3125 58.59375 39.234375 62.25 
Q 35.15625 65.921875 28.609375 65.921875 
Q 23.96875 65.921875 18.8125 64.3125 
Q 13.671875 62.703125 7.8125 59.421875 
L 7.8125 69.390625 
Q 13.765625 71.78125 18.9375 73 
Q 24.125 74.21875 28.421875 74.21875 
Q 39.75 74.21875 46.484375 68.546875 
Q 53.21875 62.890625 53.21875 53.421875 
Q 53.21875 48.921875 51.53125 44.890625 
Q 49.859375 40.875 45.40625 35.40625 
Q 44.1875 33.984375 37.640625 27.21875 
Q 31.109375 20.453125 19.1875 8.296875 
z
" id="DejaVuSans-50"/>
      </defs>
      <g transform="translate(127.393963 374.598437)scale(0.1 -0.1)">
       <use xlink:href="#DejaVuSans-49"/>
       <use x="63.623047" xlink:href="#DejaVuSans-101"/>
       <use x="125.146484" xlink:href="#DejaVuSans-45"/>
       <use x="161.230469" xlink:href="#DejaVuSans-49"/>
       <use x="224.853516" xlink:href="#DejaVuSans-50"/>
      </g>
     </g>
    </g>
    <g id="xtick_3">
     <g id="line2d_3">
      <g>
       <use style="stroke:#000000;stroke-width:0.8;" x="229.090909" xlink:href="#m431db6d7c6" y="360"/>
      </g>
     </g>
     <g id="text_3">
      <!-- 1e-11 -->
      <g transform="translate(214.66669 374.598437)scale(0.1 -0.1)">
       <use xlink:href="#DejaVuSans-49"/>
       <use x="63.623047" xlink:href="#DejaVuSans-101"/>
       <use x="125.146484" xlink:href="#DejaVuSans-45"/>
       <use x="161.230469" xlink:href="#DejaVuSans-49"/>
       <use x="224.853516" xlink:href="#DejaVuSans-49"/>
      </g>
     </g>
    </g>
    <g id="xtick_4">
     <g id="line2d_4">
      <g>
       <use style="stroke:#000000;stroke-width:0.8;" x="316.363636" xlink:href="#m431db6d7c6" y="360"/>
      </g>
     </g>
     <g id="text_4">
      <!-- 1e-10 -->
      <g transform="translate(301.939418 374.598437)scale(0.1 -0.1)">
       <use xlink:href="#DejaVuSans-49"/>
       <use x="63.623047" xlink:href="#DejaVuSans-101"/>
       <use x="125.146484" xlink:href="#DejaVuSans-45"/>
       <use x="161.230469" xlink:href="#DejaVuSans-49"/>
       <use x="224.853516" xlink:href="#DejaVuSans-48"/>
      </g>
     </g>
    </g>
    <g id="xtick_5">
     <g id="line2d_5">
      <g>
       <use style="stroke:#000000;stroke-width:0.8;" x="403.636364" xlink:href="#m431db6d7c6" y="360"/>
      </g>
     </g>
     <g id="text_5">
      <!-- 1e-08 -->
      <defs>
       <path d="M 31.78125 34.625 
Q 24.75 34.625 20.71875 30.859375 
Q 16.703125 27.09375 16.703125 20.515625 
Q 16.703125 13.921875 20.71875 10.15625 
Q 24.75 6.390625 31.78125 6.390625 
Q 38.8125 6.390625 42.859375 10.171875 
Q 46.921875 13.96875 46.921875 20.515625 
Q 46.921875 27.09375 42.890625 30.859375 
Q 38.875 34.625 31.78125 34.625 
z
M 21.921875 38.8125 
Q 15.578125 40.375 12.03125 44.71875 
Q 8.5 49.078125 8.5 55.328125 
Q 8.5 64.0625 14.71875 69.140625 
Q 20.953125 74.21875 31.78125 74.21875 
Q 42.671875 74.21875 48.875 69.140625 
Q 55.078125 64.0625 55.078125 55.328125 
Q 55.078125 49.078125 51.53125 44.71875 
Q 48 40.375 41.703125 38.8125 
Q 48.828125 37.15625 52.796875 32.3125 
Q 56.78125 27.484375 56.78125 20.515625 
Q 56.78125 9.90625 50.3125 4.234375 
Q 43.84375 -1.421875 31.78125 -1.421875 
Q 19.734375 -1.421875 13.25 4.234375 
Q 6.78125 9.90625 6.78125 20.515625 
Q 6.78125 27.484375 10.78125 32.3125 
Q 14.796875 37.15625 21.921875 38.8125 
z
M 18.3125 54.390625 
Q 18.3125 48.734375 21.84375 45.5625 
Q 25.390625 42.390625 31.78125 42.390625 
Q 38.140625 42.390625 41.71875 45.5625 
Q 45.3125 48.734375 45.3125 54.390625 
Q 45.3125 60.0625 41.71875 63.234375 
Q 38.140625 66.40625 31.78125 66.40625 
Q 25.390625 66.40625 21.84375 63.234375 
Q 18.3125 60.0625 18.3125 54.390625 
z
" id="DejaVuSans-56"/>
      </defs>
      <g transform="translate(389.212145 374.598437)scale(0.1 -0.1)">
       <use xlink:href="#DejaVuSans-49"/>
       <use x="63.623047" xlink:href="#DejaVuSans-101"/>
       <use x="125.146484" xlink:href="#DejaVuSans-45"/>
       <use x="161.230469" xlink:href="#DejaVuSans-48"/>
       <use x="224.853516" xlink:href="#DejaVuSans-56"/>
      </g>
     </g>
    </g>
    <g id="xtick_6">
     <g id="line2d_6">
      <g>
       <use style="stroke:#000000;stroke-width:0.8;" x="490.909091" xlink:href="#m431db6d7c6" y="360"/>
      </g>
     </g>
     <g id="text_6">
      <!-- 1e-05 -->
      <defs>
       <path d="M 10.796875 72.90625 
L 49.515625 72.90625 
L 49.515625 64.59375 
L 19.828125 64.59375 
L 19.828125 46.734375 
Q 21.96875 47.46875 24.109375 47.828125 
Q 26.265625 48.1875 28.421875 48.1875 
Q 40.625 48.1875 47.75 41.5 
Q 54.890625 34.8125 54.890625 23.390625 
Q 54.890625 11.625 47.5625 5.09375 
Q 40.234375 -1.421875 26.90625 -1.421875 
Q 22.3125 -1.421875 17.546875 -0.640625 
Q 12.796875 0.140625 7.71875 1.703125 
L 7.71875 11.625 
Q 12.109375 9.234375 16.796875 8.0625 
Q 21.484375 6.890625 26.703125 6.890625 
Q 35.15625 6.890625 40.078125 11.328125 
Q 45.015625 15.765625 45.015625 23.390625 
Q 45.015625 31 40.078125 35.4375 
Q 35.15625 39.890625 26.703125 39.890625 
Q 22.75 39.890625 18.8125 39.015625 
Q 14.890625 38.140625 10.796875 36.28125 
z
" id="DejaVuSans-53"/>
      </defs>
      <g transform="translate(476.484872 374.598437)scale(0.1 -0.1)">
       <use xlink:href="#DejaVuSans-49"/>
       <use x="63.623047" xlink:href="#DejaVuSans-101"/>
       <use x="125.146484" xlink:href="#DejaVuSans-45"/>
       <use x="161.230469" xlink:href="#DejaVuSans-48"/>
       <use x="224.853516" xlink:href="#DejaVuSans-53"/>
      </g>
     </g>
    </g>
    <g id="xtick_7">
     <g id="line2d_7">
      <g>
       <use style="stroke:#000000;stroke-width:0.8;" x="578.181818" xlink:href="#m431db6d7c6" y="360"/>
      </g>
     </g>
     <g id="text_7">
      <!-- 0.01 -->
      <defs>
       <path d="M 10.6875 12.40625 
L 21 12.40625 
L 21 0 
L 10.6875 0 
z
" id="DejaVuSans-46"/>
      </defs>
      <g transform="translate(567.049006 374.598437)scale(0.1 -0.1)">
       <use xlink:href="#DejaVuSans-48"/>
       <use x="63.623047" xlink:href="#DejaVuSans-46"/>
       <use x="95.410156" xlink:href="#DejaVuSans-48"/>
       <use x="159.033203" xlink:href="#DejaVuSans-49"/>
      </g>
     </g>
    </g>
    <g id="xtick_8">
     <g id="line2d_8">
      <g>
       <use style="stroke:#000000;stroke-width:0.8;" x="665.454545" xlink:href="#m431db6d7c6" y="360"/>
      </g>
     </g>
     <g id="text_8">
      <!-- 1 -->
      <g transform="translate(662.273295 374.598437)scale(0.1 -0.1)">
       <use xlink:href="#DejaVuSans-49"/>
      </g>
     </g>
    </g>
    <g id="text_9">
     <!-- $\lambda$ -->
     <defs>
      <path d="M 36.71875 67.4375 
L 48.828125 0 
L 39.3125 0 
L 31.84375 40.4375 
L 5.125 0 
L -4.390625 0 
L 29.734375 52.4375 
L 28.03125 62.109375 
Q 26.953125 68.265625 21.734375 68.265625 
L 17.046875 68.265625 
L 18.5 75.984375 
L 24.21875 75.875 
Q 35.203125 75.734375 36.71875 67.4375 
z
" id="DejaVuSans-Oblique-955"/>
     </defs>
     <g transform="translate(356.4 389.79625)scale(0.12 -0.12)">
      <use transform="translate(0 0.015625)" xlink:href="#DejaVuSans-Oblique-955"/>
     </g>
    </g>
   </g>
   <g id="matplotlib.axis_2">
    <g id="ytick_1">
     <g id="line2d_9">
      <defs>
       <path d="M 0 0 
L -3.5 0 
" id="mbde7a4769b" style="stroke:#000000;stroke-width:0.8;"/>
      </defs>
      <g>
       <use style="stroke:#000000;stroke-width:0.8;" x="0" xlink:href="#mbde7a4769b" y="336.351911"/>
      </g>
     </g>
     <g id="text_10">
      <!-- 0.40 -->
      <defs>
       <path d="M 37.796875 64.3125 
L 12.890625 25.390625 
L 37.796875 25.390625 
z
M 35.203125 72.90625 
L 47.609375 72.90625 
L 47.609375 25.390625 
L 58.015625 25.390625 
L 58.015625 17.1875 
L 47.609375 17.1875 
L 47.609375 0 
L 37.796875 0 
L 37.796875 17.1875 
L 4.890625 17.1875 
L 4.890625 26.703125 
z
" id="DejaVuSans-52"/>
      </defs>
      <g transform="translate(-29.265625 340.15113)scale(0.1 -0.1)">
       <use xlink:href="#DejaVuSans-48"/>
       <use x="63.623047" xlink:href="#DejaVuSans-46"/>
       <use x="95.410156" xlink:href="#DejaVuSans-52"/>
       <use x="159.033203" xlink:href="#DejaVuSans-48"/>
      </g>
     </g>
    </g>
    <g id="ytick_2">
     <g id="line2d_10">
      <g>
       <use style="stroke:#000000;stroke-width:0.8;" x="0" xlink:href="#mbde7a4769b" y="264.884804"/>
      </g>
     </g>
     <g id="text_11">
      <!-- 0.45 -->
      <g transform="translate(-29.265625 268.684023)scale(0.1 -0.1)">
       <use xlink:href="#DejaVuSans-48"/>
       <use x="63.623047" xlink:href="#DejaVuSans-46"/>
       <use x="95.410156" xlink:href="#DejaVuSans-52"/>
       <use x="159.033203" xlink:href="#DejaVuSans-53"/>
      </g>
     </g>
    </g>
    <g id="ytick_3">
     <g id="line2d_11">
      <g>
       <use style="stroke:#000000;stroke-width:0.8;" x="0" xlink:href="#mbde7a4769b" y="193.417696"/>
      </g>
     </g>
     <g id="text_12">
      <!-- 0.50 -->
      <g transform="translate(-29.265625 197.216915)scale(0.1 -0.1)">
       <use xlink:href="#DejaVuSans-48"/>
       <use x="63.623047" xlink:href="#DejaVuSans-46"/>
       <use x="95.410156" xlink:href="#DejaVuSans-53"/>
       <use x="159.033203" xlink:href="#DejaVuSans-48"/>
      </g>
     </g>
    </g>
    <g id="ytick_4">
     <g id="line2d_12">
      <g>
       <use style="stroke:#000000;stroke-width:0.8;" x="0" xlink:href="#mbde7a4769b" y="121.950588"/>
      </g>
     </g>
     <g id="text_13">
      <!-- 0.55 -->
      <g transform="translate(-29.265625 125.749807)scale(0.1 -0.1)">
       <use xlink:href="#DejaVuSans-48"/>
       <use x="63.623047" xlink:href="#DejaVuSans-46"/>
       <use x="95.410156" xlink:href="#DejaVuSans-53"/>
       <use x="159.033203" xlink:href="#DejaVuSans-53"/>
      </g>
     </g>
    </g>
    <g id="ytick_5">
     <g id="line2d_13">
      <g>
       <use style="stroke:#000000;stroke-width:0.8;" x="0" xlink:href="#mbde7a4769b" y="50.483481"/>
      </g>
     </g>
     <g id="text_14">
      <!-- 0.60 -->
      <defs>
       <path d="M 33.015625 40.375 
Q 26.375 40.375 22.484375 35.828125 
Q 18.609375 31.296875 18.609375 23.390625 
Q 18.609375 15.53125 22.484375 10.953125 
Q 26.375 6.390625 33.015625 6.390625 
Q 39.65625 6.390625 43.53125 10.953125 
Q 47.40625 15.53125 47.40625 23.390625 
Q 47.40625 31.296875 43.53125 35.828125 
Q 39.65625 40.375 33.015625 40.375 
z
M 52.59375 71.296875 
L 52.59375 62.3125 
Q 48.875 64.0625 45.09375 64.984375 
Q 41.3125 65.921875 37.59375 65.921875 
Q 27.828125 65.921875 22.671875 59.328125 
Q 17.53125 52.734375 16.796875 39.40625 
Q 19.671875 43.65625 24.015625 45.921875 
Q 28.375 48.1875 33.59375 48.1875 
Q 44.578125 48.1875 50.953125 41.515625 
Q 57.328125 34.859375 57.328125 23.390625 
Q 57.328125 12.15625 50.6875 5.359375 
Q 44.046875 -1.421875 33.015625 -1.421875 
Q 20.359375 -1.421875 13.671875 8.265625 
Q 6.984375 17.96875 6.984375 36.375 
Q 6.984375 53.65625 15.1875 63.9375 
Q 23.390625 74.21875 37.203125 74.21875 
Q 40.921875 74.21875 44.703125 73.484375 
Q 48.484375 72.75 52.59375 71.296875 
z
" id="DejaVuSans-54"/>
      </defs>
      <g transform="translate(-29.265625 54.2827)scale(0.1 -0.1)">
       <use xlink:href="#DejaVuSans-48"/>
       <use x="63.623047" xlink:href="#DejaVuSans-46"/>
       <use x="95.410156" xlink:href="#DejaVuSans-54"/>
       <use x="159.033203" xlink:href="#DejaVuSans-48"/>
      </g>
     </g>
    </g>
    <g id="text_15">
     <!-- Accuracy (classes=2) -->
     <defs>
      <path d="M 34.1875 63.1875 
L 20.796875 26.90625 
L 47.609375 26.90625 
z
M 28.609375 72.90625 
L 39.796875 72.90625 
L 67.578125 0 
L 57.328125 0 
L 50.6875 18.703125 
L 17.828125 18.703125 
L 11.1875 0 
L 0.78125 0 
z
" id="DejaVuSans-65"/>
      <path d="M 48.78125 52.59375 
L 48.78125 44.1875 
Q 44.96875 46.296875 41.140625 47.34375 
Q 37.3125 48.390625 33.40625 48.390625 
Q 24.65625 48.390625 19.8125 42.84375 
Q 14.984375 37.3125 14.984375 27.296875 
Q 14.984375 17.28125 19.8125 11.734375 
Q 24.65625 6.203125 33.40625 6.203125 
Q 37.3125 6.203125 41.140625 7.25 
Q 44.96875 8.296875 48.78125 10.40625 
L 48.78125 2.09375 
Q 45.015625 0.34375 40.984375 -0.53125 
Q 36.96875 -1.421875 32.421875 -1.421875 
Q 20.0625 -1.421875 12.78125 6.34375 
Q 5.515625 14.109375 5.515625 27.296875 
Q 5.515625 40.671875 12.859375 48.328125 
Q 20.21875 56 33.015625 56 
Q 37.15625 56 41.109375 55.140625 
Q 45.0625 54.296875 48.78125 52.59375 
z
" id="DejaVuSans-99"/>
      <path d="M 8.5 21.578125 
L 8.5 54.6875 
L 17.484375 54.6875 
L 17.484375 21.921875 
Q 17.484375 14.15625 20.5 10.265625 
Q 23.53125 6.390625 29.59375 6.390625 
Q 36.859375 6.390625 41.078125 11.03125 
Q 45.3125 15.671875 45.3125 23.6875 
L 45.3125 54.6875 
L 54.296875 54.6875 
L 54.296875 0 
L 45.3125 0 
L 45.3125 8.40625 
Q 42.046875 3.421875 37.71875 1 
Q 33.40625 -1.421875 27.6875 -1.421875 
Q 18.265625 -1.421875 13.375 4.4375 
Q 8.5 10.296875 8.5 21.578125 
z
M 31.109375 56 
z
" id="DejaVuSans-117"/>
      <path d="M 41.109375 46.296875 
Q 39.59375 47.171875 37.8125 47.578125 
Q 36.03125 48 33.890625 48 
Q 26.265625 48 22.1875 43.046875 
Q 18.109375 38.09375 18.109375 28.8125 
L 18.109375 0 
L 9.078125 0 
L 9.078125 54.6875 
L 18.109375 54.6875 
L 18.109375 46.1875 
Q 20.953125 51.171875 25.484375 53.578125 
Q 30.03125 56 36.53125 56 
Q 37.453125 56 38.578125 55.875 
Q 39.703125 55.765625 41.0625 55.515625 
z
" id="DejaVuSans-114"/>
      <path d="M 34.28125 27.484375 
Q 23.390625 27.484375 19.1875 25 
Q 14.984375 22.515625 14.984375 16.5 
Q 14.984375 11.71875 18.140625 8.90625 
Q 21.296875 6.109375 26.703125 6.109375 
Q 34.1875 6.109375 38.703125 11.40625 
Q 43.21875 16.703125 43.21875 25.484375 
L 43.21875 27.484375 
z
M 52.203125 31.203125 
L 52.203125 0 
L 43.21875 0 
L 43.21875 8.296875 
Q 40.140625 3.328125 35.546875 0.953125 
Q 30.953125 -1.421875 24.3125 -1.421875 
Q 15.921875 -1.421875 10.953125 3.296875 
Q 6 8.015625 6 15.921875 
Q 6 25.140625 12.171875 29.828125 
Q 18.359375 34.515625 30.609375 34.515625 
L 43.21875 34.515625 
L 43.21875 35.40625 
Q 43.21875 41.609375 39.140625 45 
Q 35.0625 48.390625 27.6875 48.390625 
Q 23 48.390625 18.546875 47.265625 
Q 14.109375 46.140625 10.015625 43.890625 
L 10.015625 52.203125 
Q 14.9375 54.109375 19.578125 55.046875 
Q 24.21875 56 28.609375 56 
Q 40.484375 56 46.34375 49.84375 
Q 52.203125 43.703125 52.203125 31.203125 
z
" id="DejaVuSans-97"/>
      <path d="M 32.171875 -5.078125 
Q 28.375 -14.84375 24.75 -17.8125 
Q 21.140625 -20.796875 15.09375 -20.796875 
L 7.90625 -20.796875 
L 7.90625 -13.28125 
L 13.1875 -13.28125 
Q 16.890625 -13.28125 18.9375 -11.515625 
Q 21 -9.765625 23.484375 -3.21875 
L 25.09375 0.875 
L 2.984375 54.6875 
L 12.5 54.6875 
L 29.59375 11.921875 
L 46.6875 54.6875 
L 56.203125 54.6875 
z
" id="DejaVuSans-121"/>
      <path id="DejaVuSans-32"/>
      <path d="M 31 75.875 
Q 24.46875 64.65625 21.28125 53.65625 
Q 18.109375 42.671875 18.109375 31.390625 
Q 18.109375 20.125 21.3125 9.0625 
Q 24.515625 -2 31 -13.1875 
L 23.1875 -13.1875 
Q 15.875 -1.703125 12.234375 9.375 
Q 8.59375 20.453125 8.59375 31.390625 
Q 8.59375 42.28125 12.203125 53.3125 
Q 15.828125 64.359375 23.1875 75.875 
z
" id="DejaVuSans-40"/>
      <path d="M 9.421875 75.984375 
L 18.40625 75.984375 
L 18.40625 0 
L 9.421875 0 
z
" id="DejaVuSans-108"/>
      <path d="M 44.28125 53.078125 
L 44.28125 44.578125 
Q 40.484375 46.53125 36.375 47.5 
Q 32.28125 48.484375 27.875 48.484375 
Q 21.1875 48.484375 17.84375 46.4375 
Q 14.5 44.390625 14.5 40.28125 
Q 14.5 37.15625 16.890625 35.375 
Q 19.28125 33.59375 26.515625 31.984375 
L 29.59375 31.296875 
Q 39.15625 29.25 43.1875 25.515625 
Q 47.21875 21.78125 47.21875 15.09375 
Q 47.21875 7.46875 41.1875 3.015625 
Q 35.15625 -1.421875 24.609375 -1.421875 
Q 20.21875 -1.421875 15.453125 -0.5625 
Q 10.6875 0.296875 5.421875 2 
L 5.421875 11.28125 
Q 10.40625 8.6875 15.234375 7.390625 
Q 20.0625 6.109375 24.8125 6.109375 
Q 31.15625 6.109375 34.5625 8.28125 
Q 37.984375 10.453125 37.984375 14.40625 
Q 37.984375 18.0625 35.515625 20.015625 
Q 33.0625 21.96875 24.703125 23.78125 
L 21.578125 24.515625 
Q 13.234375 26.265625 9.515625 29.90625 
Q 5.8125 33.546875 5.8125 39.890625 
Q 5.8125 47.609375 11.28125 51.796875 
Q 16.75 56 26.8125 56 
Q 31.78125 56 36.171875 55.265625 
Q 40.578125 54.546875 44.28125 53.078125 
z
" id="DejaVuSans-115"/>
      <path d="M 10.59375 45.40625 
L 73.1875 45.40625 
L 73.1875 37.203125 
L 10.59375 37.203125 
z
M 10.59375 25.484375 
L 73.1875 25.484375 
L 73.1875 17.1875 
L 10.59375 17.1875 
z
" id="DejaVuSans-61"/>
      <path d="M 8.015625 75.875 
L 15.828125 75.875 
Q 23.140625 64.359375 26.78125 53.3125 
Q 30.421875 42.28125 30.421875 31.390625 
Q 30.421875 20.453125 26.78125 9.375 
Q 23.140625 -1.703125 15.828125 -13.1875 
L 8.015625 -13.1875 
Q 14.5 -2 17.703125 9.0625 
Q 20.90625 20.125 20.90625 31.390625 
Q 20.90625 42.671875 17.703125 53.65625 
Q 14.5 64.65625 8.015625 75.875 
z
" id="DejaVuSans-41"/>
     </defs>
     <g transform="translate(-35.76125 244.643438)rotate(-90)scale(0.12 -0.12)">
      <use xlink:href="#DejaVuSans-65"/>
      <use x="68.392578" xlink:href="#DejaVuSans-99"/>
      <use x="123.373047" xlink:href="#DejaVuSans-99"/>
      <use x="178.353516" xlink:href="#DejaVuSans-117"/>
      <use x="241.732422" xlink:href="#DejaVuSans-114"/>
      <use x="282.845703" xlink:href="#DejaVuSans-97"/>
      <use x="344.125" xlink:href="#DejaVuSans-99"/>
      <use x="399.105469" xlink:href="#DejaVuSans-121"/>
      <use x="458.285156" xlink:href="#DejaVuSans-32"/>
      <use x="490.072266" xlink:href="#DejaVuSans-40"/>
      <use x="529.085938" xlink:href="#DejaVuSans-99"/>
      <use x="584.066406" xlink:href="#DejaVuSans-108"/>
      <use x="611.849609" xlink:href="#DejaVuSans-97"/>
      <use x="673.128906" xlink:href="#DejaVuSans-115"/>
      <use x="725.228516" xlink:href="#DejaVuSans-115"/>
      <use x="777.328125" xlink:href="#DejaVuSans-101"/>
      <use x="838.851562" xlink:href="#DejaVuSans-115"/>
      <use x="890.951172" xlink:href="#DejaVuSans-61"/>
      <use x="974.740234" xlink:href="#DejaVuSans-50"/>
      <use x="1038.363281" xlink:href="#DejaVuSans-41"/>
     </g>
    </g>
   </g>
   <g id="LineCollection_1">
    <path clip-path="url(#p89eaaaf894)" d="M 43.636364 38.669405 
L 65.454545 38.669405 
" style="fill:none;stroke:#1f77b4;stroke-width:1.5;"/>
    <path clip-path="url(#p89eaaaf894)" d="M 130.909091 38.688571 
L 152.727273 38.688571 
" style="fill:none;stroke:#1f77b4;stroke-width:1.5;"/>
    <path clip-path="url(#p89eaaaf894)" d="M 218.181818 43.211806 
L 240 43.211806 
" style="fill:none;stroke:#1f77b4;stroke-width:1.5;"/>
    <path clip-path="url(#p89eaaaf894)" d="M 305.454545 43.19264 
L 327.272727 43.19264 
" style="fill:none;stroke:#1f77b4;stroke-width:1.5;"/>
    <path clip-path="url(#p89eaaaf894)" d="M 392.727273 41.704061 
L 414.545455 41.704061 
" style="fill:none;stroke:#1f77b4;stroke-width:1.5;"/>
    <path clip-path="url(#p89eaaaf894)" d="M 480 40.17715 
L 501.818182 40.17715 
" style="fill:none;stroke:#1f77b4;stroke-width:1.5;"/>
    <path clip-path="url(#p89eaaaf894)" d="M 567.272727 41.684895 
L 589.090909 41.684895 
" style="fill:none;stroke:#1f77b4;stroke-width:1.5;"/>
    <path clip-path="url(#p89eaaaf894)" d="M 654.545455 38.688571 
L 676.363636 38.688571 
" style="fill:none;stroke:#1f77b4;stroke-width:1.5;"/>
   </g>
   <g id="LineCollection_2">
    <path clip-path="url(#p89eaaaf894)" d="M 43.636364 343.623586 
L 65.454545 343.623586 
" style="fill:none;stroke:#1f77b4;stroke-width:1.5;"/>
    <path clip-path="url(#p89eaaaf894)" d="M 130.909091 340.608096 
L 152.727273 340.608096 
" style="fill:none;stroke:#1f77b4;stroke-width:1.5;"/>
    <path clip-path="url(#p89eaaaf894)" d="M 218.181818 340.608096 
L 240 340.608096 
" style="fill:none;stroke:#1f77b4;stroke-width:1.5;"/>
    <path clip-path="url(#p89eaaaf894)" d="M 305.454545 340.608096 
L 327.272727 340.608096 
" style="fill:none;stroke:#1f77b4;stroke-width:1.5;"/>
    <path clip-path="url(#p89eaaaf894)" d="M 392.727273 343.636364 
L 414.545455 343.636364 
" style="fill:none;stroke:#1f77b4;stroke-width:1.5;"/>
    <path clip-path="url(#p89eaaaf894)" d="M 480 340.608096 
L 501.818182 340.608096 
" style="fill:none;stroke:#1f77b4;stroke-width:1.5;"/>
    <path clip-path="url(#p89eaaaf894)" d="M 567.272727 343.623586 
L 589.090909 343.623586 
" style="fill:none;stroke:#1f77b4;stroke-width:1.5;"/>
    <path clip-path="url(#p89eaaaf894)" d="M 654.545455 343.636364 
L 676.363636 343.636364 
" style="fill:none;stroke:#1f77b4;stroke-width:1.5;"/>
   </g>
   <g id="LineCollection_3">
    <path clip-path="url(#p89eaaaf894)" d="M 54.545455 343.623586 
L 54.545455 38.669405 
" style="fill:none;stroke:#1f77b4;stroke-width:1.5;"/>
    <path clip-path="url(#p89eaaaf894)" d="M 141.818182 340.608096 
L 141.818182 38.688571 
" style="fill:none;stroke:#1f77b4;stroke-width:1.5;"/>
    <path clip-path="url(#p89eaaaf894)" d="M 229.090909 340.608096 
L 229.090909 43.211806 
" style="fill:none;stroke:#1f77b4;stroke-width:1.5;"/>
    <path clip-path="url(#p89eaaaf894)" d="M 316.363636 340.608096 
L 316.363636 43.19264 
" style="fill:none;stroke:#1f77b4;stroke-width:1.5;"/>
    <path clip-path="url(#p89eaaaf894)" d="M 403.636364 343.636364 
L 403.636364 41.704061 
" style="fill:none;stroke:#1f77b4;stroke-width:1.5;"/>
    <path clip-path="url(#p89eaaaf894)" d="M 490.909091 340.608096 
L 490.909091 40.17715 
" style="fill:none;stroke:#1f77b4;stroke-width:1.5;"/>
    <path clip-path="url(#p89eaaaf894)" d="M 578.181818 343.623586 
L 578.181818 41.684895 
" style="fill:none;stroke:#1f77b4;stroke-width:1.5;"/>
    <path clip-path="url(#p89eaaaf894)" d="M 665.454545 343.636364 
L 665.454545 38.688571 
" style="fill:none;stroke:#1f77b4;stroke-width:1.5;"/>
   </g>
   <g id="patch_3">
    <path d="M 0 360 
L 0 0 
" style="fill:none;stroke:#000000;stroke-linecap:square;stroke-linejoin:miter;stroke-width:0.8;"/>
   </g>
   <g id="patch_4">
    <path d="M 720 360 
L 720 0 
" style="fill:none;stroke:#000000;stroke-linecap:square;stroke-linejoin:miter;stroke-width:0.8;"/>
   </g>
   <g id="patch_5">
    <path d="M 0 360 
L 720 360 
" style="fill:none;stroke:#000000;stroke-linecap:square;stroke-linejoin:miter;stroke-width:0.8;"/>
   </g>
   <g id="patch_6">
    <path d="M 0 0 
L 720 0 
" style="fill:none;stroke:#000000;stroke-linecap:square;stroke-linejoin:miter;stroke-width:0.8;"/>
   </g>
   <g id="text_16">
    <!-- Accuracy for CoDACl and Baseline Methods vs $\lambda$ -->
    <defs>
     <path d="M 37.109375 75.984375 
L 37.109375 68.5 
L 28.515625 68.5 
Q 23.6875 68.5 21.796875 66.546875 
Q 19.921875 64.59375 19.921875 59.515625 
L 19.921875 54.6875 
L 34.71875 54.6875 
L 34.71875 47.703125 
L 19.921875 47.703125 
L 19.921875 0 
L 10.890625 0 
L 10.890625 47.703125 
L 2.296875 47.703125 
L 2.296875 54.6875 
L 10.890625 54.6875 
L 10.890625 58.5 
Q 10.890625 67.625 15.140625 71.796875 
Q 19.390625 75.984375 28.609375 75.984375 
z
" id="DejaVuSans-102"/>
     <path d="M 30.609375 48.390625 
Q 23.390625 48.390625 19.1875 42.75 
Q 14.984375 37.109375 14.984375 27.296875 
Q 14.984375 17.484375 19.15625 11.84375 
Q 23.34375 6.203125 30.609375 6.203125 
Q 37.796875 6.203125 41.984375 11.859375 
Q 46.1875 17.53125 46.1875 27.296875 
Q 46.1875 37.015625 41.984375 42.703125 
Q 37.796875 48.390625 30.609375 48.390625 
z
M 30.609375 56 
Q 42.328125 56 49.015625 48.375 
Q 55.71875 40.765625 55.71875 27.296875 
Q 55.71875 13.875 49.015625 6.21875 
Q 42.328125 -1.421875 30.609375 -1.421875 
Q 18.84375 -1.421875 12.171875 6.21875 
Q 5.515625 13.875 5.515625 27.296875 
Q 5.515625 40.765625 12.171875 48.375 
Q 18.84375 56 30.609375 56 
z
" id="DejaVuSans-111"/>
     <path d="M 64.40625 67.28125 
L 64.40625 56.890625 
Q 59.421875 61.53125 53.78125 63.8125 
Q 48.140625 66.109375 41.796875 66.109375 
Q 29.296875 66.109375 22.65625 58.46875 
Q 16.015625 50.828125 16.015625 36.375 
Q 16.015625 21.96875 22.65625 14.328125 
Q 29.296875 6.6875 41.796875 6.6875 
Q 48.140625 6.6875 53.78125 8.984375 
Q 59.421875 11.28125 64.40625 15.921875 
L 64.40625 5.609375 
Q 59.234375 2.09375 53.4375 0.328125 
Q 47.65625 -1.421875 41.21875 -1.421875 
Q 24.65625 -1.421875 15.125 8.703125 
Q 5.609375 18.84375 5.609375 36.375 
Q 5.609375 53.953125 15.125 64.078125 
Q 24.65625 74.21875 41.21875 74.21875 
Q 47.75 74.21875 53.53125 72.484375 
Q 59.328125 70.75 64.40625 67.28125 
z
" id="DejaVuSans-67"/>
     <path d="M 19.671875 64.796875 
L 19.671875 8.109375 
L 31.59375 8.109375 
Q 46.6875 8.109375 53.6875 14.9375 
Q 60.6875 21.78125 60.6875 36.53125 
Q 60.6875 51.171875 53.6875 57.984375 
Q 46.6875 64.796875 31.59375 64.796875 
z
M 9.8125 72.90625 
L 30.078125 72.90625 
Q 51.265625 72.90625 61.171875 64.09375 
Q 71.09375 55.28125 71.09375 36.53125 
Q 71.09375 17.671875 61.125 8.828125 
Q 51.171875 0 30.078125 0 
L 9.8125 0 
z
" id="DejaVuSans-68"/>
     <path d="M 54.890625 33.015625 
L 54.890625 0 
L 45.90625 0 
L 45.90625 32.71875 
Q 45.90625 40.484375 42.875 44.328125 
Q 39.84375 48.1875 33.796875 48.1875 
Q 26.515625 48.1875 22.3125 43.546875 
Q 18.109375 38.921875 18.109375 30.90625 
L 18.109375 0 
L 9.078125 0 
L 9.078125 54.6875 
L 18.109375 54.6875 
L 18.109375 46.1875 
Q 21.34375 51.125 25.703125 53.5625 
Q 30.078125 56 35.796875 56 
Q 45.21875 56 50.046875 50.171875 
Q 54.890625 44.34375 54.890625 33.015625 
z
" id="DejaVuSans-110"/>
     <path d="M 45.40625 46.390625 
L 45.40625 75.984375 
L 54.390625 75.984375 
L 54.390625 0 
L 45.40625 0 
L 45.40625 8.203125 
Q 42.578125 3.328125 38.25 0.953125 
Q 33.9375 -1.421875 27.875 -1.421875 
Q 17.96875 -1.421875 11.734375 6.484375 
Q 5.515625 14.40625 5.515625 27.296875 
Q 5.515625 40.1875 11.734375 48.09375 
Q 17.96875 56 27.875 56 
Q 33.9375 56 38.25 53.625 
Q 42.578125 51.265625 45.40625 46.390625 
z
M 14.796875 27.296875 
Q 14.796875 17.390625 18.875 11.75 
Q 22.953125 6.109375 30.078125 6.109375 
Q 37.203125 6.109375 41.296875 11.75 
Q 45.40625 17.390625 45.40625 27.296875 
Q 45.40625 37.203125 41.296875 42.84375 
Q 37.203125 48.484375 30.078125 48.484375 
Q 22.953125 48.484375 18.875 42.84375 
Q 14.796875 37.203125 14.796875 27.296875 
z
" id="DejaVuSans-100"/>
     <path d="M 19.671875 34.8125 
L 19.671875 8.109375 
L 35.5 8.109375 
Q 43.453125 8.109375 47.28125 11.40625 
Q 51.125 14.703125 51.125 21.484375 
Q 51.125 28.328125 47.28125 31.5625 
Q 43.453125 34.8125 35.5 34.8125 
z
M 19.671875 64.796875 
L 19.671875 42.828125 
L 34.28125 42.828125 
Q 41.5 42.828125 45.03125 45.53125 
Q 48.578125 48.25 48.578125 53.8125 
Q 48.578125 59.328125 45.03125 62.0625 
Q 41.5 64.796875 34.28125 64.796875 
z
M 9.8125 72.90625 
L 35.015625 72.90625 
Q 46.296875 72.90625 52.390625 68.21875 
Q 58.5 63.53125 58.5 54.890625 
Q 58.5 48.1875 55.375 44.234375 
Q 52.25 40.28125 46.1875 39.3125 
Q 53.46875 37.75 57.5 32.78125 
Q 61.53125 27.828125 61.53125 20.40625 
Q 61.53125 10.640625 54.890625 5.3125 
Q 48.25 0 35.984375 0 
L 9.8125 0 
z
" id="DejaVuSans-66"/>
     <path d="M 9.421875 54.6875 
L 18.40625 54.6875 
L 18.40625 0 
L 9.421875 0 
z
M 9.421875 75.984375 
L 18.40625 75.984375 
L 18.40625 64.59375 
L 9.421875 64.59375 
z
" id="DejaVuSans-105"/>
     <path d="M 9.8125 72.90625 
L 24.515625 72.90625 
L 43.109375 23.296875 
L 61.8125 72.90625 
L 76.515625 72.90625 
L 76.515625 0 
L 66.890625 0 
L 66.890625 64.015625 
L 48.09375 14.015625 
L 38.1875 14.015625 
L 19.390625 64.015625 
L 19.390625 0 
L 9.8125 0 
z
" id="DejaVuSans-77"/>
     <path d="M 18.3125 70.21875 
L 18.3125 54.6875 
L 36.8125 54.6875 
L 36.8125 47.703125 
L 18.3125 47.703125 
L 18.3125 18.015625 
Q 18.3125 11.328125 20.140625 9.421875 
Q 21.96875 7.515625 27.59375 7.515625 
L 36.8125 7.515625 
L 36.8125 0 
L 27.59375 0 
Q 17.1875 0 13.234375 3.875 
Q 9.28125 7.765625 9.28125 18.015625 
L 9.28125 47.703125 
L 2.6875 47.703125 
L 2.6875 54.6875 
L 9.28125 54.6875 
L 9.28125 70.21875 
z
" id="DejaVuSans-116"/>
     <path d="M 54.890625 33.015625 
L 54.890625 0 
L 45.90625 0 
L 45.90625 32.71875 
Q 45.90625 40.484375 42.875 44.328125 
Q 39.84375 48.1875 33.796875 48.1875 
Q 26.515625 48.1875 22.3125 43.546875 
Q 18.109375 38.921875 18.109375 30.90625 
L 18.109375 0 
L 9.078125 0 
L 9.078125 75.984375 
L 18.109375 75.984375 
L 18.109375 46.1875 
Q 21.34375 51.125 25.703125 53.5625 
Q 30.078125 56 35.796875 56 
Q 45.21875 56 50.046875 50.171875 
Q 54.890625 44.34375 54.890625 33.015625 
z
" id="DejaVuSans-104"/>
     <path d="M 2.984375 54.6875 
L 12.5 54.6875 
L 29.59375 8.796875 
L 46.6875 54.6875 
L 56.203125 54.6875 
L 35.6875 0 
L 23.484375 0 
z
" id="DejaVuSans-118"/>
    </defs>
    <g transform="translate(215.82 -6)scale(0.12 -0.12)">
     <use transform="translate(0 0.015625)" xlink:href="#DejaVuSans-65"/>
     <use transform="translate(68.408203 0.015625)" xlink:href="#DejaVuSans-99"/>
     <use transform="translate(123.388672 0.015625)" xlink:href="#DejaVuSans-99"/>
     <use transform="translate(178.369141 0.015625)" xlink:href="#DejaVuSans-117"/>
     <use transform="translate(241.748047 0.015625)" xlink:href="#DejaVuSans-114"/>
     <use transform="translate(282.861328 0.015625)" xlink:href="#DejaVuSans-97"/>
     <use transform="translate(344.140625 0.015625)" xlink:href="#DejaVuSans-99"/>
     <use transform="translate(399.121094 0.015625)" xlink:href="#DejaVuSans-121"/>
     <use transform="translate(458.300781 0.015625)" xlink:href="#DejaVuSans-32"/>
     <use transform="translate(490.087891 0.015625)" xlink:href="#DejaVuSans-102"/>
     <use transform="translate(525.292969 0.015625)" xlink:href="#DejaVuSans-111"/>
     <use transform="translate(586.474609 0.015625)" xlink:href="#DejaVuSans-114"/>
     <use transform="translate(627.587891 0.015625)" xlink:href="#DejaVuSans-32"/>
     <use transform="translate(659.375 0.015625)" xlink:href="#DejaVuSans-67"/>
     <use transform="translate(729.199219 0.015625)" xlink:href="#DejaVuSans-111"/>
     <use transform="translate(790.380859 0.015625)" xlink:href="#DejaVuSans-68"/>
     <use transform="translate(867.382812 0.015625)" xlink:href="#DejaVuSans-65"/>
     <use transform="translate(935.791016 0.015625)" xlink:href="#DejaVuSans-67"/>
     <use transform="translate(1005.615234 0.015625)" xlink:href="#DejaVuSans-108"/>
     <use transform="translate(1033.398438 0.015625)" xlink:href="#DejaVuSans-32"/>
     <use transform="translate(1065.185547 0.015625)" xlink:href="#DejaVuSans-97"/>
     <use transform="translate(1126.464844 0.015625)" xlink:href="#DejaVuSans-110"/>
     <use transform="translate(1189.84375 0.015625)" xlink:href="#DejaVuSans-100"/>
     <use transform="translate(1253.320312 0.015625)" xlink:href="#DejaVuSans-32"/>
     <use transform="translate(1285.107422 0.015625)" xlink:href="#DejaVuSans-66"/>
     <use transform="translate(1353.710938 0.015625)" xlink:href="#DejaVuSans-97"/>
     <use transform="translate(1414.990234 0.015625)" xlink:href="#DejaVuSans-115"/>
     <use transform="translate(1467.089844 0.015625)" xlink:href="#DejaVuSans-101"/>
     <use transform="translate(1528.613281 0.015625)" xlink:href="#DejaVuSans-108"/>
     <use transform="translate(1556.396484 0.015625)" xlink:href="#DejaVuSans-105"/>
     <use transform="translate(1584.179688 0.015625)" xlink:href="#DejaVuSans-110"/>
     <use transform="translate(1647.558594 0.015625)" xlink:href="#DejaVuSans-101"/>
     <use transform="translate(1709.082031 0.015625)" xlink:href="#DejaVuSans-32"/>
     <use transform="translate(1740.869141 0.015625)" xlink:href="#DejaVuSans-77"/>
     <use transform="translate(1827.148438 0.015625)" xlink:href="#DejaVuSans-101"/>
     <use transform="translate(1888.671875 0.015625)" xlink:href="#DejaVuSans-116"/>
     <use transform="translate(1927.880859 0.015625)" xlink:href="#DejaVuSans-104"/>
     <use transform="translate(1991.259766 0.015625)" xlink:href="#DejaVuSans-111"/>
     <use transform="translate(2052.441406 0.015625)" xlink:href="#DejaVuSans-100"/>
     <use transform="translate(2115.917969 0.015625)" xlink:href="#DejaVuSans-115"/>
     <use transform="translate(2168.017578 0.015625)" xlink:href="#DejaVuSans-32"/>
     <use transform="translate(2199.804688 0.015625)" xlink:href="#DejaVuSans-118"/>
     <use transform="translate(2258.984375 0.015625)" xlink:href="#DejaVuSans-115"/>
     <use transform="translate(2311.083984 0.015625)" xlink:href="#DejaVuSans-32"/>
     <use transform="translate(2342.871094 0.015625)" xlink:href="#DejaVuSans-Oblique-955"/>
    </g>
   </g>
   <g id="legend_1">
    <g id="patch_7">
     <path d="M 7 355 
L 201.592188 355 
Q 203.592188 355 203.592188 353 
L 203.592188 295.2875 
Q 203.592188 293.2875 201.592188 293.2875 
L 7 293.2875 
Q 5 293.2875 5 295.2875 
L 5 353 
Q 5 355 7 355 
z
" style="fill:#ffffff;opacity:0.8;stroke:#cccccc;stroke-linejoin:miter;"/>
    </g>
    <g id="PathCollection_5">
     <g>
      <use style="fill:#ff0000;stroke:#ff0000;" x="19" xlink:href="#m931878acb9" y="302.260938"/>
     </g>
    </g>
    <g id="text_17">
     <!-- CoDA-PCA + Logistic Regression -->
     <defs>
      <path d="M 19.671875 64.796875 
L 19.671875 37.40625 
L 32.078125 37.40625 
Q 38.96875 37.40625 42.71875 40.96875 
Q 46.484375 44.53125 46.484375 51.125 
Q 46.484375 57.671875 42.71875 61.234375 
Q 38.96875 64.796875 32.078125 64.796875 
z
M 9.8125 72.90625 
L 32.078125 72.90625 
Q 44.34375 72.90625 50.609375 67.359375 
Q 56.890625 61.8125 56.890625 51.125 
Q 56.890625 40.328125 50.609375 34.8125 
Q 44.34375 29.296875 32.078125 29.296875 
L 19.671875 29.296875 
L 19.671875 0 
L 9.8125 0 
z
" id="DejaVuSans-80"/>
      <path d="M 46 62.703125 
L 46 35.5 
L 73.1875 35.5 
L 73.1875 27.203125 
L 46 27.203125 
L 46 0 
L 37.796875 0 
L 37.796875 27.203125 
L 10.59375 27.203125 
L 10.59375 35.5 
L 37.796875 35.5 
L 37.796875 62.703125 
z
" id="DejaVuSans-43"/>
      <path d="M 9.8125 72.90625 
L 19.671875 72.90625 
L 19.671875 8.296875 
L 55.171875 8.296875 
L 55.171875 0 
L 9.8125 0 
z
" id="DejaVuSans-76"/>
      <path d="M 45.40625 27.984375 
Q 45.40625 37.75 41.375 43.109375 
Q 37.359375 48.484375 30.078125 48.484375 
Q 22.859375 48.484375 18.828125 43.109375 
Q 14.796875 37.75 14.796875 27.984375 
Q 14.796875 18.265625 18.828125 12.890625 
Q 22.859375 7.515625 30.078125 7.515625 
Q 37.359375 7.515625 41.375 12.890625 
Q 45.40625 18.265625 45.40625 27.984375 
z
M 54.390625 6.78125 
Q 54.390625 -7.171875 48.1875 -13.984375 
Q 42 -20.796875 29.203125 -20.796875 
Q 24.46875 -20.796875 20.265625 -20.09375 
Q 16.0625 -19.390625 12.109375 -17.921875 
L 12.109375 -9.1875 
Q 16.0625 -11.328125 19.921875 -12.34375 
Q 23.78125 -13.375 27.78125 -13.375 
Q 36.625 -13.375 41.015625 -8.765625 
Q 45.40625 -4.15625 45.40625 5.171875 
L 45.40625 9.625 
Q 42.625 4.78125 38.28125 2.390625 
Q 33.9375 0 27.875 0 
Q 17.828125 0 11.671875 7.65625 
Q 5.515625 15.328125 5.515625 27.984375 
Q 5.515625 40.671875 11.671875 48.328125 
Q 17.828125 56 27.875 56 
Q 33.9375 56 38.28125 53.609375 
Q 42.625 51.21875 45.40625 46.390625 
L 45.40625 54.6875 
L 54.390625 54.6875 
z
" id="DejaVuSans-103"/>
      <path d="M 44.390625 34.1875 
Q 47.5625 33.109375 50.5625 29.59375 
Q 53.5625 26.078125 56.59375 19.921875 
L 66.609375 0 
L 56 0 
L 46.6875 18.703125 
Q 43.0625 26.03125 39.671875 28.421875 
Q 36.28125 30.8125 30.421875 30.8125 
L 19.671875 30.8125 
L 19.671875 0 
L 9.8125 0 
L 9.8125 72.90625 
L 32.078125 72.90625 
Q 44.578125 72.90625 50.734375 67.671875 
Q 56.890625 62.453125 56.890625 51.90625 
Q 56.890625 45.015625 53.6875 40.46875 
Q 50.484375 35.9375 44.390625 34.1875 
z
M 19.671875 64.796875 
L 19.671875 38.921875 
L 32.078125 38.921875 
Q 39.203125 38.921875 42.84375 42.21875 
Q 46.484375 45.515625 46.484375 51.90625 
Q 46.484375 58.296875 42.84375 61.546875 
Q 39.203125 64.796875 32.078125 64.796875 
z
" id="DejaVuSans-82"/>
     </defs>
     <g transform="translate(37 304.885938)scale(0.1 -0.1)">
      <use xlink:href="#DejaVuSans-67"/>
      <use x="69.824219" xlink:href="#DejaVuSans-111"/>
      <use x="131.005859" xlink:href="#DejaVuSans-68"/>
      <use x="207.992188" xlink:href="#DejaVuSans-65"/>
      <use x="276.369141" xlink:href="#DejaVuSans-45"/>
      <use x="312.453125" xlink:href="#DejaVuSans-80"/>
      <use x="372.755859" xlink:href="#DejaVuSans-67"/>
      <use x="442.580078" xlink:href="#DejaVuSans-65"/>
      <use x="510.988281" xlink:href="#DejaVuSans-32"/>
      <use x="542.775391" xlink:href="#DejaVuSans-43"/>
      <use x="626.564453" xlink:href="#DejaVuSans-32"/>
      <use x="658.351562" xlink:href="#DejaVuSans-76"/>
      <use x="714.048828" xlink:href="#DejaVuSans-111"/>
      <use x="775.230469" xlink:href="#DejaVuSans-103"/>
      <use x="838.707031" xlink:href="#DejaVuSans-105"/>
      <use x="866.490234" xlink:href="#DejaVuSans-115"/>
      <use x="918.589844" xlink:href="#DejaVuSans-116"/>
      <use x="957.798828" xlink:href="#DejaVuSans-105"/>
      <use x="985.582031" xlink:href="#DejaVuSans-99"/>
      <use x="1040.5625" xlink:href="#DejaVuSans-32"/>
      <use x="1072.349609" xlink:href="#DejaVuSans-82"/>
      <use x="1141.769531" xlink:href="#DejaVuSans-101"/>
      <use x="1203.292969" xlink:href="#DejaVuSans-103"/>
      <use x="1266.769531" xlink:href="#DejaVuSans-114"/>
      <use x="1307.851562" xlink:href="#DejaVuSans-101"/>
      <use x="1369.375" xlink:href="#DejaVuSans-115"/>
      <use x="1421.474609" xlink:href="#DejaVuSans-115"/>
      <use x="1473.574219" xlink:href="#DejaVuSans-105"/>
      <use x="1501.357422" xlink:href="#DejaVuSans-111"/>
      <use x="1562.539062" xlink:href="#DejaVuSans-110"/>
     </g>
    </g>
    <g id="PathCollection_6">
     <g>
      <use style="fill:#0000ff;stroke:#0000ff;" x="19" xlink:href="#m62dc613e40" y="316.939062"/>
     </g>
    </g>
    <g id="text_18">
     <!-- CLR-PCA + Logistic Regression -->
     <g transform="translate(37 319.564062)scale(0.1 -0.1)">
      <use xlink:href="#DejaVuSans-67"/>
      <use x="69.824219" xlink:href="#DejaVuSans-76"/>
      <use x="125.537109" xlink:href="#DejaVuSans-82"/>
      <use x="194.957031" xlink:href="#DejaVuSans-45"/>
      <use x="231.041016" xlink:href="#DejaVuSans-80"/>
      <use x="291.34375" xlink:href="#DejaVuSans-67"/>
      <use x="361.167969" xlink:href="#DejaVuSans-65"/>
      <use x="429.576172" xlink:href="#DejaVuSans-32"/>
      <use x="461.363281" xlink:href="#DejaVuSans-43"/>
      <use x="545.152344" xlink:href="#DejaVuSans-32"/>
      <use x="576.939453" xlink:href="#DejaVuSans-76"/>
      <use x="632.636719" xlink:href="#DejaVuSans-111"/>
      <use x="693.818359" xlink:href="#DejaVuSans-103"/>
      <use x="757.294922" xlink:href="#DejaVuSans-105"/>
      <use x="785.078125" xlink:href="#DejaVuSans-115"/>
      <use x="837.177734" xlink:href="#DejaVuSans-116"/>
      <use x="876.386719" xlink:href="#DejaVuSans-105"/>
      <use x="904.169922" xlink:href="#DejaVuSans-99"/>
      <use x="959.150391" xlink:href="#DejaVuSans-32"/>
      <use x="990.9375" xlink:href="#DejaVuSans-82"/>
      <use x="1060.357422" xlink:href="#DejaVuSans-101"/>
      <use x="1121.880859" xlink:href="#DejaVuSans-103"/>
      <use x="1185.357422" xlink:href="#DejaVuSans-114"/>
      <use x="1226.439453" xlink:href="#DejaVuSans-101"/>
      <use x="1287.962891" xlink:href="#DejaVuSans-115"/>
      <use x="1340.0625" xlink:href="#DejaVuSans-115"/>
      <use x="1392.162109" xlink:href="#DejaVuSans-105"/>
      <use x="1419.945312" xlink:href="#DejaVuSans-111"/>
      <use x="1481.126953" xlink:href="#DejaVuSans-110"/>
     </g>
    </g>
    <g id="PathCollection_7">
     <g>
      <use style="fill:#008000;stroke:#008000;" x="19" xlink:href="#maee882db14" y="331.617188"/>
     </g>
    </g>
    <g id="text_19">
     <!-- PCA + Logistic Regression -->
     <g transform="translate(37 334.242188)scale(0.1 -0.1)">
      <use xlink:href="#DejaVuSans-80"/>
      <use x="60.302734" xlink:href="#DejaVuSans-67"/>
      <use x="130.126953" xlink:href="#DejaVuSans-65"/>
      <use x="198.535156" xlink:href="#DejaVuSans-32"/>
      <use x="230.322266" xlink:href="#DejaVuSans-43"/>
      <use x="314.111328" xlink:href="#DejaVuSans-32"/>
      <use x="345.898438" xlink:href="#DejaVuSans-76"/>
      <use x="401.595703" xlink:href="#DejaVuSans-111"/>
      <use x="462.777344" xlink:href="#DejaVuSans-103"/>
      <use x="526.253906" xlink:href="#DejaVuSans-105"/>
      <use x="554.037109" xlink:href="#DejaVuSans-115"/>
      <use x="606.136719" xlink:href="#DejaVuSans-116"/>
      <use x="645.345703" xlink:href="#DejaVuSans-105"/>
      <use x="673.128906" xlink:href="#DejaVuSans-99"/>
      <use x="728.109375" xlink:href="#DejaVuSans-32"/>
      <use x="759.896484" xlink:href="#DejaVuSans-82"/>
      <use x="829.316406" xlink:href="#DejaVuSans-101"/>
      <use x="890.839844" xlink:href="#DejaVuSans-103"/>
      <use x="954.316406" xlink:href="#DejaVuSans-114"/>
      <use x="995.398438" xlink:href="#DejaVuSans-101"/>
      <use x="1056.921875" xlink:href="#DejaVuSans-115"/>
      <use x="1109.021484" xlink:href="#DejaVuSans-115"/>
      <use x="1161.121094" xlink:href="#DejaVuSans-105"/>
      <use x="1188.904297" xlink:href="#DejaVuSans-111"/>
      <use x="1250.085938" xlink:href="#DejaVuSans-110"/>
     </g>
    </g>
    <g id="PathCollection_8">
     <g>
      <use style="fill:#ffff00;stroke:#ffff00;" x="19" xlink:href="#m5cef610d26" y="346.295313"/>
     </g>
    </g>
    <g id="text_20">
     <!-- Logistic Regression -->
     <g transform="translate(37 348.920313)scale(0.1 -0.1)">
      <use xlink:href="#DejaVuSans-76"/>
      <use x="55.697266" xlink:href="#DejaVuSans-111"/>
      <use x="116.878906" xlink:href="#DejaVuSans-103"/>
      <use x="180.355469" xlink:href="#DejaVuSans-105"/>
      <use x="208.138672" xlink:href="#DejaVuSans-115"/>
      <use x="260.238281" xlink:href="#DejaVuSans-116"/>
      <use x="299.447266" xlink:href="#DejaVuSans-105"/>
      <use x="327.230469" xlink:href="#DejaVuSans-99"/>
      <use x="382.210938" xlink:href="#DejaVuSans-32"/>
      <use x="413.998047" xlink:href="#DejaVuSans-82"/>
      <use x="483.417969" xlink:href="#DejaVuSans-101"/>
      <use x="544.941406" xlink:href="#DejaVuSans-103"/>
      <use x="608.417969" xlink:href="#DejaVuSans-114"/>
      <use x="649.5" xlink:href="#DejaVuSans-101"/>
      <use x="711.023438" xlink:href="#DejaVuSans-115"/>
      <use x="763.123047" xlink:href="#DejaVuSans-115"/>
      <use x="815.222656" xlink:href="#DejaVuSans-105"/>
      <use x="843.005859" xlink:href="#DejaVuSans-111"/>
      <use x="904.1875" xlink:href="#DejaVuSans-110"/>
     </g>
    </g>
   </g>
  </g>
 </g>
 <defs>
  <clipPath id="p89eaaaf894">
   <rect height="360" width="720" x="0" y="0"/>
  </clipPath>
 </defs>
</svg>
