<?xml version="1.0" encoding="utf-8" standalone="no"?>
<!DOCTYPE svg PUBLIC "-//W3C//DTD SVG 1.1//EN"
  "http://www.w3.org/Graphics/SVG/1.1/DTD/svg11.dtd">
<!-- Created with matplotlib (https://matplotlib.org/) -->
<svg height="360pt" version="1.1" viewBox="0 0 720 360" width="720pt" xmlns="http://www.w3.org/2000/svg" xmlns:xlink="http://www.w3.org/1999/xlink">
 <defs>
  <style type="text/css">
*{stroke-linecap:butt;stroke-linejoin:round;}
  </style>
 </defs>
 <g id="figure_1">
  <g id="patch_1">
   <path d="M 0 360 
L 720 360 
L 720 0 
L 0 0 
z
" style="fill:#ffffff;"/>
  </g>
  <g id="axes_1">
   <g id="patch_2">
    <path d="M 0 360 
L 720 360 
L 720 0 
L 0 0 
z
" style="fill:#ffffff;"/>
   </g>
   <g id="PathCollection_1">
    <defs>
     <path d="M 0 3 
C 0.795609 3 1.55874 2.683901 2.12132 2.12132 
C 2.683901 1.55874 3 0.795609 3 0 
C 3 -0.795609 2.683901 -1.55874 2.12132 -2.12132 
C 1.55874 -2.683901 0.795609 -3 0 -3 
C -0.795609 -3 -1.55874 -2.683901 -2.12132 -2.12132 
C -2.683901 -1.55874 -3 -0.795609 -3 0 
C -3 0.795609 -2.683901 1.55874 -2.12132 2.12132 
C -1.55874 2.683901 -0.795609 3 0 3 
z
" id="mfd7802bc87" style="stroke:#ff0000;"/>
    </defs>
    <g clip-path="url(#p9a97e06058)">
     <use style="fill:#ff0000;stroke:#ff0000;" x="62.479339" xlink:href="#mfd7802bc87" y="28.320053"/>
     <use style="fill:#ff0000;stroke:#ff0000;" x="181.487603" xlink:href="#mfd7802bc87" y="28.496837"/>
     <use style="fill:#ff0000;stroke:#ff0000;" x="300.495868" xlink:href="#mfd7802bc87" y="28.848174"/>
     <use style="fill:#ff0000;stroke:#ff0000;" x="419.504132" xlink:href="#mfd7802bc87" y="28.67333"/>
     <use style="fill:#ff0000;stroke:#ff0000;" x="538.512397" xlink:href="#mfd7802bc87" y="28.610801"/>
     <use style="fill:#ff0000;stroke:#ff0000;" x="657.520661" xlink:href="#mfd7802bc87" y="28.288564"/>
    </g>
   </g>
   <g id="PathCollection_2">
    <defs>
     <path d="M 0 3 
C 0.795609 3 1.55874 2.683901 2.12132 2.12132 
C 2.683901 1.55874 3 0.795609 3 0 
C 3 -0.795609 2.683901 -1.55874 2.12132 -2.12132 
C 1.55874 -2.683901 0.795609 -3 0 -3 
C -0.795609 -3 -1.55874 -2.683901 -2.12132 -2.12132 
C -2.683901 -1.55874 -3 -0.795609 -3 0 
C -3 0.795609 -2.683901 1.55874 -2.12132 2.12132 
C -1.55874 2.683901 -0.795609 3 0 3 
z
" id="m608a45641f" style="stroke:#0000ff;"/>
    </defs>
    <g clip-path="url(#p9a97e06058)">
     <use style="fill:#0000ff;stroke:#0000ff;" x="62.479339" xlink:href="#m608a45641f" y="30.455916"/>
     <use style="fill:#0000ff;stroke:#0000ff;" x="181.487603" xlink:href="#m608a45641f" y="30.455916"/>
     <use style="fill:#0000ff;stroke:#0000ff;" x="300.495868" xlink:href="#m608a45641f" y="30.455916"/>
     <use style="fill:#0000ff;stroke:#0000ff;" x="419.504132" xlink:href="#m608a45641f" y="30.455916"/>
     <use style="fill:#0000ff;stroke:#0000ff;" x="538.512397" xlink:href="#m608a45641f" y="30.455916"/>
     <use style="fill:#0000ff;stroke:#0000ff;" x="657.520661" xlink:href="#m608a45641f" y="30.455916"/>
    </g>
   </g>
   <g id="PathCollection_3">
    <defs>
     <path d="M 0 3 
C 0.795609 3 1.55874 2.683901 2.12132 2.12132 
C 2.683901 1.55874 3 0.795609 3 0 
C 3 -0.795609 2.683901 -1.55874 2.12132 -2.12132 
C 1.55874 -2.683901 0.795609 -3 0 -3 
C -0.795609 -3 -1.55874 -2.683901 -2.12132 -2.12132 
C -2.683901 -1.55874 -3 -0.795609 -3 0 
C -3 0.795609 -2.683901 1.55874 -2.12132 2.12132 
C -1.55874 2.683901 -0.795609 3 0 3 
z
" id="m0c8dbf9d89" style="stroke:#008000;"/>
    </defs>
    <g clip-path="url(#p9a97e06058)">
     <use style="fill:#008000;stroke:#008000;" x="62.479339" xlink:href="#m0c8dbf9d89" y="33.493757"/>
     <use style="fill:#008000;stroke:#008000;" x="181.487603" xlink:href="#m0c8dbf9d89" y="33.838331"/>
     <use style="fill:#008000;stroke:#008000;" x="300.495868" xlink:href="#m0c8dbf9d89" y="33.73526"/>
     <use style="fill:#008000;stroke:#008000;" x="419.504132" xlink:href="#m0c8dbf9d89" y="33.491574"/>
     <use style="fill:#008000;stroke:#008000;" x="538.512397" xlink:href="#m0c8dbf9d89" y="33.578605"/>
     <use style="fill:#008000;stroke:#008000;" x="657.520661" xlink:href="#m0c8dbf9d89" y="33.44427"/>
    </g>
   </g>
   <g id="PathCollection_4">
    <defs>
     <path d="M 0 3 
C 0.795609 3 1.55874 2.683901 2.12132 2.12132 
C 2.683901 1.55874 3 0.795609 3 0 
C 3 -0.795609 2.683901 -1.55874 2.12132 -2.12132 
C 1.55874 -2.683901 0.795609 -3 0 -3 
C -0.795609 -3 -1.55874 -2.683901 -2.12132 -2.12132 
C -2.683901 -1.55874 -3 -0.795609 -3 0 
C -3 0.795609 -2.683901 1.55874 -2.12132 2.12132 
C -1.55874 2.683901 -0.795609 3 0 3 
z
" id="mf66fc1c23f" style="stroke:#ffff00;"/>
    </defs>
    <g clip-path="url(#p9a97e06058)">
     <use style="fill:#ffff00;stroke:#ffff00;" x="62.479339" xlink:href="#mf66fc1c23f" y="30.389556"/>
     <use style="fill:#ffff00;stroke:#ffff00;" x="181.487603" xlink:href="#mf66fc1c23f" y="30.389556"/>
     <use style="fill:#ffff00;stroke:#ffff00;" x="300.495868" xlink:href="#mf66fc1c23f" y="30.389556"/>
     <use style="fill:#ffff00;stroke:#ffff00;" x="419.504132" xlink:href="#mf66fc1c23f" y="30.389556"/>
     <use style="fill:#ffff00;stroke:#ffff00;" x="538.512397" xlink:href="#mf66fc1c23f" y="30.389556"/>
     <use style="fill:#ffff00;stroke:#ffff00;" x="657.520661" xlink:href="#mf66fc1c23f" y="30.389556"/>
    </g>
   </g>
   <g id="PolyCollection_1">
    <path clip-path="url(#p9a97e06058)" d="M 62.866852 343.636364 
L 62.091826 343.636364 
L 62.067519 340.552335 
L 62.051682 337.468307 
L 62.044421 334.384278 
L 62.04479 331.30025 
L 62.050819 328.216221 
L 62.059673 325.132193 
L 62.067951 322.048165 
L 62.072061 318.964136 
L 62.06865 315.880108 
L 62.055014 312.796079 
L 62.029442 309.712051 
L 61.991438 306.628022 
L 61.941784 303.543994 
L 61.882425 300.459965 
L 61.816183 297.375937 
L 61.746334 294.291908 
L 61.676101 291.20788 
L 61.608154 288.123852 
L 61.544187 285.039823 
L 61.484679 281.955795 
L 61.428857 278.871766 
L 61.37492 275.787738 
L 61.320445 272.703709 
L 61.262939 269.619681 
L 61.200409 266.535652 
L 61.131836 263.451624 
L 61.057463 260.367596 
L 60.978833 257.283567 
L 60.898572 254.199539 
L 60.819949 251.11551 
L 60.74632 248.031482 
L 60.680541 244.947453 
L 60.62447 241.863425 
L 60.578638 238.779396 
L 60.542141 235.695368 
L 60.512776 232.61134 
L 60.487395 229.527311 
L 60.46243 226.443283 
L 60.434511 223.359254 
L 60.401092 220.275226 
L 60.360978 217.191197 
L 60.31467 214.107169 
L 60.264447 211.02314 
L 60.214147 207.939112 
L 60.168666 204.855084 
L 60.133226 201.771055 
L 60.112518 198.687027 
L 60.10987 195.602998 
L 60.126547 192.51897 
L 60.161332 189.434941 
L 60.210437 186.350913 
L 60.267771 183.266884 
L 60.325528 180.182856 
L 60.375017 177.098828 
L 60.407625 174.014799 
L 60.415794 170.930771 
L 60.393907 167.846742 
L 60.338964 164.762714 
L 60.250996 161.678685 
L 60.133124 158.594657 
L 59.991256 155.510628 
L 59.833415 152.4266 
L 59.668759 149.342571 
L 59.506409 146.258543 
L 59.354265 143.174515 
L 59.217997 140.090486 
L 59.10044 137.006458 
L 59.001517 133.922429 
L 58.918744 130.838401 
L 58.848223 127.754372 
L 58.785896 124.670344 
L 58.728737 121.586315 
L 58.675561 118.502287 
L 58.627134 115.418259 
L 58.585437 112.33423 
L 58.552073 109.250202 
L 58.525974 106.166173 
L 58.5007 103.082145 
L 58.461725 99.998116 
L 58.38416 96.914088 
L 58.231386 93.830059 
L 57.955095 90.746031 
L 57.497229 87.662003 
L 56.794197 84.577974 
L 55.783603 81.493946 
L 54.41331 78.409917 
L 52.652177 75.325889 
L 50.501144 72.24186 
L 48.002756 69.157832 
L 45.246885 66.073803 
L 42.370477 62.989775 
L 39.549898 59.905747 
L 36.985642 56.821718 
L 34.880819 53.73769 
L 33.416399 50.653661 
L 32.727273 47.569633 
L 32.883498 44.485604 
L 33.880332 41.401576 
L 35.639022 38.317547 
L 89.319655 38.317547 
L 89.319655 38.317547 
L 91.078346 41.401576 
L 92.07518 44.485604 
L 92.231405 47.569633 
L 91.542278 50.653661 
L 90.077858 53.73769 
L 87.973036 56.821718 
L 85.408779 59.905747 
L 82.5882 62.989775 
L 79.711793 66.073803 
L 76.955921 69.157832 
L 74.457534 72.24186 
L 72.3065 75.325889 
L 70.545368 78.409917 
L 69.175075 81.493946 
L 68.164481 84.577974 
L 67.461449 87.662003 
L 67.003583 90.746031 
L 66.727292 93.830059 
L 66.574517 96.914088 
L 66.496952 99.998116 
L 66.457978 103.082145 
L 66.432704 106.166173 
L 66.406605 109.250202 
L 66.373241 112.33423 
L 66.331544 115.418259 
L 66.283116 118.502287 
L 66.22994 121.586315 
L 66.172782 124.670344 
L 66.110454 127.754372 
L 66.039934 130.838401 
L 65.957161 133.922429 
L 65.858237 137.006458 
L 65.74068 140.090486 
L 65.604413 143.174515 
L 65.452268 146.258543 
L 65.289919 149.342571 
L 65.125262 152.4266 
L 64.967421 155.510628 
L 64.825554 158.594657 
L 64.707682 161.678685 
L 64.619714 164.762714 
L 64.564771 167.846742 
L 64.542883 170.930771 
L 64.551053 174.014799 
L 64.583661 177.098828 
L 64.63315 180.182856 
L 64.690906 183.266884 
L 64.74824 186.350913 
L 64.797345 189.434941 
L 64.832131 192.51897 
L 64.848808 195.602998 
L 64.846159 198.687027 
L 64.825452 201.771055 
L 64.790012 204.855084 
L 64.744531 207.939112 
L 64.694231 211.02314 
L 64.644008 214.107169 
L 64.5977 217.191197 
L 64.557586 220.275226 
L 64.524166 223.359254 
L 64.496247 226.443283 
L 64.471282 229.527311 
L 64.445902 232.61134 
L 64.416537 235.695368 
L 64.38004 238.779396 
L 64.334208 241.863425 
L 64.278137 244.947453 
L 64.212358 248.031482 
L 64.138729 251.11551 
L 64.060106 254.199539 
L 63.979844 257.283567 
L 63.901215 260.367596 
L 63.826842 263.451624 
L 63.758268 266.535652 
L 63.695738 269.619681 
L 63.638233 272.703709 
L 63.583758 275.787738 
L 63.52982 278.871766 
L 63.473999 281.955795 
L 63.41449 285.039823 
L 63.350524 288.123852 
L 63.282576 291.20788 
L 63.212344 294.291908 
L 63.142495 297.375937 
L 63.076253 300.459965 
L 63.016894 303.543994 
L 62.967239 306.628022 
L 62.929236 309.712051 
L 62.903664 312.796079 
L 62.890028 315.880108 
L 62.886616 318.964136 
L 62.890726 322.048165 
L 62.899004 325.132193 
L 62.907859 328.216221 
L 62.913887 331.30025 
L 62.914257 334.384278 
L 62.906996 337.468307 
L 62.891159 340.552335 
L 62.866852 343.636364 
z
" style="fill:#1f77b4;fill-opacity:0.3;"/>
   </g>
   <g id="PolyCollection_2">
    <path clip-path="url(#p9a97e06058)" d="M 181.868168 340.604602 
L 181.107039 340.604602 
L 181.074384 337.581693 
L 181.038268 334.558783 
L 180.997239 331.535873 
L 180.949804 328.512963 
L 180.894582 325.490053 
L 180.830481 322.467143 
L 180.756853 319.444233 
L 180.673611 316.421323 
L 180.581305 313.398413 
L 180.481111 310.375503 
L 180.374758 307.352593 
L 180.264379 304.329683 
L 180.152307 301.306773 
L 180.040831 298.283863 
L 179.93196 295.260953 
L 179.827201 292.238043 
L 179.727408 289.215133 
L 179.632708 286.192223 
L 179.542519 283.169313 
L 179.455669 280.146403 
L 179.370592 277.123493 
L 179.285566 274.100583 
L 179.198977 271.077673 
L 179.109541 268.054763 
L 179.016474 265.031853 
L 178.919554 262.008943 
L 178.819082 258.986034 
L 178.715744 255.963124 
L 178.610374 252.940214 
L 178.50369 249.917304 
L 178.396014 246.894394 
L 178.287056 243.871484 
L 178.175786 240.848574 
L 178.060439 237.825664 
L 177.938665 234.802754 
L 177.807819 231.779844 
L 177.665353 228.756934 
L 177.509271 225.734024 
L 177.338574 222.711114 
L 177.153616 219.688204 
L 176.956323 216.665294 
L 176.750195 213.642384 
L 176.54009 210.619474 
L 176.331769 207.596564 
L 176.131269 204.573654 
L 175.94416 201.550744 
L 175.77478 198.527834 
L 175.625576 195.504924 
L 175.496635 192.482014 
L 175.385503 189.459104 
L 175.28733 186.436194 
L 175.195359 183.413285 
L 175.101698 180.390375 
L 174.998308 177.367465 
L 174.87808 174.344555 
L 174.735853 171.321645 
L 174.56926 168.298735 
L 174.379263 165.275825 
L 174.170301 162.252915 
L 173.950021 159.230005 
L 173.728612 156.207095 
L 173.5178 153.184185 
L 173.32964 150.161275 
L 173.175236 147.138365 
L 173.063555 144.115455 
L 173.000477 141.092545 
L 172.98819 138.069635 
L 173.024999 135.046725 
L 173.105535 132.023815 
L 173.221315 129.000905 
L 173.361515 125.977995 
L 173.513822 122.955085 
L 173.665185 119.932175 
L 173.802324 116.909265 
L 173.911903 113.886355 
L 173.980336 110.863445 
L 173.993283 107.840535 
L 173.934962 104.817626 
L 173.787492 101.794716 
L 173.530504 98.771806 
L 173.14126 95.748896 
L 172.595498 92.725986 
L 171.86912 89.703076 
L 170.94072 86.680166 
L 169.794819 83.657256 
L 168.425504 80.634346 
L 166.84003 77.611436 
L 165.061874 74.588526 
L 163.132671 71.565616 
L 161.112546 68.542706 
L 159.07848 65.519796 
L 157.120588 62.496886 
L 155.336462 59.473976 
L 153.824018 56.451066 
L 152.673554 53.428156 
L 151.959891 50.405246 
L 151.735537 47.382336 
L 152.025722 44.359426 
L 152.82593 41.336516 
L 210.149277 41.336516 
L 210.149277 41.336516 
L 210.949484 44.359426 
L 211.239669 47.382336 
L 211.015316 50.405246 
L 210.301653 53.428156 
L 209.151188 56.451066 
L 207.638745 59.473976 
L 205.854619 62.496886 
L 203.896727 65.519796 
L 201.862661 68.542706 
L 199.842536 71.565616 
L 197.913333 74.588526 
L 196.135176 77.611436 
L 194.549702 80.634346 
L 193.180387 83.657256 
L 192.034487 86.680166 
L 191.106087 89.703076 
L 190.379708 92.725986 
L 189.833947 95.748896 
L 189.444702 98.771806 
L 189.187714 101.794716 
L 189.040245 104.817626 
L 188.981923 107.840535 
L 188.99487 110.863445 
L 189.063304 113.886355 
L 189.172883 116.909265 
L 189.310021 119.932175 
L 189.461384 122.955085 
L 189.613692 125.977995 
L 189.753892 129.000905 
L 189.869671 132.023815 
L 189.950208 135.046725 
L 189.987016 138.069635 
L 189.97473 141.092545 
L 189.911651 144.115455 
L 189.799971 147.138365 
L 189.645567 150.161275 
L 189.457407 153.184185 
L 189.246595 156.207095 
L 189.025186 159.230005 
L 188.804906 162.252915 
L 188.595943 165.275825 
L 188.405946 168.298735 
L 188.239354 171.321645 
L 188.097127 174.344555 
L 187.976898 177.367465 
L 187.873509 180.390375 
L 187.779847 183.413285 
L 187.687876 186.436194 
L 187.589704 189.459104 
L 187.478572 192.482014 
L 187.349631 195.504924 
L 187.200426 198.527834 
L 187.031046 201.550744 
L 186.843937 204.573654 
L 186.643438 207.596564 
L 186.435117 210.619474 
L 186.225011 213.642384 
L 186.018884 216.665294 
L 185.821591 219.688204 
L 185.636633 222.711114 
L 185.465935 225.734024 
L 185.309853 228.756934 
L 185.167387 231.779844 
L 185.036541 234.802754 
L 184.914768 237.825664 
L 184.799421 240.848574 
L 184.688151 243.871484 
L 184.579193 246.894394 
L 184.471517 249.917304 
L 184.364832 252.940214 
L 184.259463 255.963124 
L 184.156124 258.986034 
L 184.055653 262.008943 
L 183.958732 265.031853 
L 183.865665 268.054763 
L 183.77623 271.077673 
L 183.68964 274.100583 
L 183.604615 277.123493 
L 183.519537 280.146403 
L 183.432688 283.169313 
L 183.342499 286.192223 
L 183.247798 289.215133 
L 183.148006 292.238043 
L 183.043247 295.260953 
L 182.934376 298.283863 
L 182.8229 301.306773 
L 182.710827 304.329683 
L 182.600449 307.352593 
L 182.494096 310.375503 
L 182.393901 313.398413 
L 182.301595 316.421323 
L 182.218354 319.444233 
L 182.144725 322.467143 
L 182.080625 325.490053 
L 182.025403 328.512963 
L 181.977967 331.535873 
L 181.936939 334.558783 
L 181.900822 337.581693 
L 181.868168 340.604602 
z
" style="fill:#1f77b4;fill-opacity:0.3;"/>
   </g>
   <g id="PolyCollection_3">
    <path clip-path="url(#p9a97e06058)" d="M 300.617219 340.604602 
L 300.374516 340.604602 
L 300.374278 337.566445 
L 300.376282 334.528288 
L 300.379756 331.490131 
L 300.383639 328.451973 
L 300.386672 325.413816 
L 300.387503 322.375659 
L 300.384817 319.337502 
L 300.37744 316.299344 
L 300.364445 313.261187 
L 300.345221 310.22303 
L 300.319518 307.184872 
L 300.287451 304.146715 
L 300.249478 301.108558 
L 300.206336 298.070401 
L 300.158962 295.032243 
L 300.108385 291.994086 
L 300.055621 288.955929 
L 300.001567 285.917771 
L 299.946927 282.879614 
L 299.892155 279.841457 
L 299.837445 276.8033 
L 299.782752 273.765142 
L 299.72784 270.726985 
L 299.672349 267.688828 
L 299.615877 264.650671 
L 299.558047 261.612513 
L 299.498576 258.574356 
L 299.437304 255.536199 
L 299.374201 252.498041 
L 299.309323 249.459884 
L 299.242708 246.421727 
L 299.174227 243.38357 
L 299.103401 240.345412 
L 299.029225 237.307255 
L 298.95007 234.269098 
L 298.863725 231.23094 
L 298.767624 228.192783 
L 298.659289 225.154626 
L 298.536933 222.116469 
L 298.400126 219.078311 
L 298.250381 216.040154 
L 298.09149 213.001997 
L 297.929485 209.963839 
L 297.772144 206.925682 
L 297.628082 203.887525 
L 297.505524 200.849368 
L 297.410998 197.81121 
L 297.348141 194.773053 
L 297.316868 191.734896 
L 297.313054 188.696739 
L 297.328795 185.658581 
L 297.353219 182.620424 
L 297.373727 179.582267 
L 297.377477 176.544109 
L 297.352924 173.505952 
L 297.291201 170.467795 
L 297.187204 167.429638 
L 297.040251 164.39148 
L 296.854263 161.353323 
L 296.637433 158.315166 
L 296.401406 155.277008 
L 296.160032 152.238851 
L 295.927803 149.200694 
L 295.718139 146.162537 
L 295.541735 143.124379 
L 295.405224 140.086222 
L 295.310371 137.048065 
L 295.254 134.009908 
L 295.228692 130.97175 
L 295.224192 127.933593 
L 295.229295 124.895436 
L 295.233842 121.857278 
L 295.23042 118.819121 
L 295.215367 115.780964 
L 295.188763 112.742807 
L 295.153297 109.704649 
L 295.112045 106.666492 
L 295.065446 103.628335 
L 295.007905 100.590177 
L 294.924575 97.55202 
L 294.788955 94.513863 
L 294.561905 91.475706 
L 294.192661 88.437548 
L 293.622236 85.399391 
L 292.789388 82.361234 
L 291.638964 79.323076 
L 290.131971 76.284919 
L 288.256205 73.246762 
L 286.035781 70.208605 
L 283.537638 67.170447 
L 280.87311 64.13229 
L 278.19316 61.094133 
L 275.676807 58.055976 
L 273.513557 55.017818 
L 271.881963 51.979661 
L 270.927556 48.941504 
L 270.743802 45.903346 
L 271.359528 42.865189 
L 272.73511 39.827032 
L 328.256626 39.827032 
L 328.256626 39.827032 
L 329.632208 42.865189 
L 330.247934 45.903346 
L 330.06418 48.941504 
L 329.109772 51.979661 
L 327.478179 55.017818 
L 325.314928 58.055976 
L 322.798576 61.094133 
L 320.118626 64.13229 
L 317.454098 67.170447 
L 314.955954 70.208605 
L 312.73553 73.246762 
L 310.859764 76.284919 
L 309.352772 79.323076 
L 308.202348 82.361234 
L 307.369499 85.399391 
L 306.799074 88.437548 
L 306.42983 91.475706 
L 306.202781 94.513863 
L 306.06716 97.55202 
L 305.983831 100.590177 
L 305.92629 103.628335 
L 305.879691 106.666492 
L 305.838438 109.704649 
L 305.802972 112.742807 
L 305.776369 115.780964 
L 305.761315 118.819121 
L 305.757894 121.857278 
L 305.76244 124.895436 
L 305.767543 127.933593 
L 305.763044 130.97175 
L 305.737735 134.009908 
L 305.681364 137.048065 
L 305.586512 140.086222 
L 305.45 143.124379 
L 305.273597 146.162537 
L 305.063932 149.200694 
L 304.831704 152.238851 
L 304.59033 155.277008 
L 304.354303 158.315166 
L 304.137472 161.353323 
L 303.951485 164.39148 
L 303.804532 167.429638 
L 303.700535 170.467795 
L 303.638812 173.505952 
L 303.614259 176.544109 
L 303.618009 179.582267 
L 303.638516 182.620424 
L 303.66294 185.658581 
L 303.678682 188.696739 
L 303.674868 191.734896 
L 303.643595 194.773053 
L 303.580738 197.81121 
L 303.486212 200.849368 
L 303.363654 203.887525 
L 303.219591 206.925682 
L 303.062251 209.963839 
L 302.900246 213.001997 
L 302.741355 216.040154 
L 302.591609 219.078311 
L 302.454802 222.116469 
L 302.332446 225.154626 
L 302.224112 228.192783 
L 302.128011 231.23094 
L 302.041665 234.269098 
L 301.962511 237.307255 
L 301.888334 240.345412 
L 301.817508 243.38357 
L 301.749028 246.421727 
L 301.682413 249.459884 
L 301.617534 252.498041 
L 301.554432 255.536199 
L 301.493159 258.574356 
L 301.433688 261.612513 
L 301.375859 264.650671 
L 301.319387 267.688828 
L 301.263896 270.726985 
L 301.208983 273.765142 
L 301.15429 276.8033 
L 301.099581 279.841457 
L 301.044809 282.879614 
L 300.990168 285.917771 
L 300.936115 288.955929 
L 300.88335 291.994086 
L 300.832773 295.032243 
L 300.785399 298.070401 
L 300.742258 301.108558 
L 300.704284 304.146715 
L 300.672218 307.184872 
L 300.646514 310.22303 
L 300.627291 313.261187 
L 300.614296 316.299344 
L 300.606919 319.337502 
L 300.604232 322.375659 
L 300.605064 325.413816 
L 300.608096 328.451973 
L 300.611979 331.490131 
L 300.615454 334.528288 
L 300.617458 337.566445 
L 300.617219 340.604602 
z
" style="fill:#1f77b4;fill-opacity:0.3;"/>
   </g>
   <g id="PolyCollection_4">
    <path clip-path="url(#p9a97e06058)" d="M 419.735868 340.604602 
L 419.272397 340.604602 
L 419.265196 337.551392 
L 419.261492 334.498181 
L 419.259978 331.44497 
L 419.258763 328.391759 
L 419.255565 325.338549 
L 419.247978 322.285338 
L 419.233788 319.232127 
L 419.211302 316.178916 
L 419.179638 313.125706 
L 419.138928 310.072495 
L 419.090402 307.019284 
L 419.036314 303.966073 
L 418.979725 300.912862 
L 418.924132 297.859652 
L 418.873014 294.806441 
L 418.829341 291.75323 
L 418.795133 288.700019 
L 418.77115 285.646809 
L 418.75676 282.593598 
L 418.75004 279.540387 
L 418.748068 276.487176 
L 418.747398 273.433965 
L 418.744596 270.380755 
L 418.736766 267.327544 
L 418.721964 264.274333 
L 418.699421 261.221122 
L 418.66955 258.167912 
L 418.633737 255.114701 
L 418.593969 252.06149 
L 418.552366 249.008279 
L 418.510708 245.955068 
L 418.470043 242.901858 
L 418.430434 239.848647 
L 418.390896 236.795436 
L 418.349521 233.742225 
L 418.303797 230.689015 
L 418.251059 227.635804 
L 418.189021 224.582593 
L 418.116316 221.529382 
L 418.032944 218.476171 
L 417.940554 215.422961 
L 417.842482 212.36975 
L 417.74351 209.316539 
L 417.649329 206.263328 
L 417.565762 203.210118 
L 417.497847 200.156907 
L 417.448884 197.103696 
L 417.41963 194.050485 
L 417.407742 190.997275 
L 417.407614 187.944064 
L 417.410633 184.890853 
L 417.405872 181.837642 
L 417.381152 178.784431 
L 417.324361 175.731221 
L 417.224898 172.67801 
L 417.075068 169.624799 
L 416.871295 166.571588 
L 416.61496 163.518378 
L 416.312771 160.465167 
L 415.976539 157.411956 
L 415.622328 154.358745 
L 415.268996 151.305534 
L 414.936276 148.252324 
L 414.642587 145.199113 
L 414.40291 142.145902 
L 414.227041 139.092691 
L 414.118553 136.039481 
L 414.074649 132.98627 
L 414.08698 129.933059 
L 414.143261 126.879848 
L 414.22939 123.826637 
L 414.331617 120.773427 
L 414.438318 117.720216 
L 414.540951 114.667005 
L 414.633969 111.613794 
L 414.713597 108.560584 
L 414.775645 105.507373 
L 414.812672 102.454162 
L 414.810962 99.400951 
L 414.747884 96.34774 
L 414.590198 93.29453 
L 414.293911 90.241319 
L 413.806163 87.188108 
L 413.06949 84.134897 
L 412.028535 81.081687 
L 410.63887 78.028476 
L 408.877107 74.975265 
L 406.75093 71.922054 
L 404.307251 68.868844 
L 401.636526 65.815633 
L 398.871485 62.762422 
L 396.179228 59.709211 
L 393.746775 56.656 
L 391.76147 53.60279 
L 390.388935 50.549579 
L 389.752066 47.496368 
L 389.91474 44.443157 
L 390.87319 41.389947 
L 392.556685 38.336736 
L 446.451579 38.336736 
L 446.451579 38.336736 
L 448.135074 41.389947 
L 449.093525 44.443157 
L 449.256198 47.496368 
L 448.61933 50.549579 
L 447.246794 53.60279 
L 445.26149 56.656 
L 442.829036 59.709211 
L 440.13678 62.762422 
L 437.371738 65.815633 
L 434.701013 68.868844 
L 432.257334 71.922054 
L 430.131157 74.975265 
L 428.369395 78.028476 
L 426.97973 81.081687 
L 425.938774 84.134897 
L 425.202102 87.188108 
L 424.714354 90.241319 
L 424.418067 93.29453 
L 424.260381 96.34774 
L 424.197302 99.400951 
L 424.195593 102.454162 
L 424.232619 105.507373 
L 424.294668 108.560584 
L 424.374295 111.613794 
L 424.467313 114.667005 
L 424.569947 117.720216 
L 424.676647 120.773427 
L 424.778875 123.826637 
L 424.865003 126.879848 
L 424.921284 129.933059 
L 424.933615 132.98627 
L 424.889711 136.039481 
L 424.781223 139.092691 
L 424.605355 142.145902 
L 424.365677 145.199113 
L 424.071989 148.252324 
L 423.739268 151.305534 
L 423.385937 154.358745 
L 423.031725 157.411956 
L 422.695494 160.465167 
L 422.393305 163.518378 
L 422.13697 166.571588 
L 421.933196 169.624799 
L 421.783367 172.67801 
L 421.683903 175.731221 
L 421.627112 178.784431 
L 421.602392 181.837642 
L 421.597632 184.890853 
L 421.60065 187.944064 
L 421.600523 190.997275 
L 421.588635 194.050485 
L 421.55938 197.103696 
L 421.510418 200.156907 
L 421.442502 203.210118 
L 421.358936 206.263328 
L 421.264754 209.316539 
L 421.165782 212.36975 
L 421.067711 215.422961 
L 420.97532 218.476171 
L 420.891948 221.529382 
L 420.819244 224.582593 
L 420.757206 227.635804 
L 420.704467 230.689015 
L 420.658744 233.742225 
L 420.617369 236.795436 
L 420.57783 239.848647 
L 420.538222 242.901858 
L 420.497557 245.955068 
L 420.455899 249.008279 
L 420.414295 252.06149 
L 420.374527 255.114701 
L 420.338715 258.167912 
L 420.308843 261.221122 
L 420.2863 264.274333 
L 420.271498 267.327544 
L 420.263669 270.380755 
L 420.260866 273.433965 
L 420.260196 276.487176 
L 420.258225 279.540387 
L 420.251504 282.593598 
L 420.237115 285.646809 
L 420.213131 288.700019 
L 420.178924 291.75323 
L 420.135251 294.806441 
L 420.084133 297.859652 
L 420.02854 300.912862 
L 419.971951 303.966073 
L 419.917863 307.019284 
L 419.869336 310.072495 
L 419.828626 313.125706 
L 419.796962 316.178916 
L 419.774477 319.232127 
L 419.760287 322.285338 
L 419.752699 325.338549 
L 419.749502 328.391759 
L 419.748287 331.44497 
L 419.746772 334.498181 
L 419.743069 337.551392 
L 419.735868 340.604602 
z
" style="fill:#1f77b4;fill-opacity:0.3;"/>
   </g>
   <g id="PolyCollection_5">
    <path clip-path="url(#p9a97e06058)" d="M 538.697789 343.623571 
L 538.327005 343.623571 
L 538.322652 340.570167 
L 538.327203 337.516762 
L 538.340029 334.463358 
L 538.359411 331.409953 
L 538.382918 328.356548 
L 538.407905 325.303144 
L 538.431992 322.249739 
L 538.453408 319.196335 
L 538.471138 316.14293 
L 538.484885 313.089525 
L 538.494908 310.036121 
L 538.501794 306.982716 
L 538.506254 303.929312 
L 538.508966 300.875907 
L 538.51048 297.822502 
L 538.511179 294.769098 
L 538.511268 291.715693 
L 538.510784 288.662289 
L 538.50959 285.608884 
L 538.507379 282.555479 
L 538.503665 279.502075 
L 538.497795 276.44867 
L 538.488972 273.395266 
L 538.476314 270.341861 
L 538.458944 267.288456 
L 538.436091 264.235052 
L 538.407202 261.181647 
L 538.372028 258.128243 
L 538.330701 255.074838 
L 538.283769 252.021433 
L 538.232219 248.968029 
L 538.17747 245.914624 
L 538.121307 242.86122 
L 538.065745 239.807815 
L 538.012793 236.754411 
L 537.964154 233.701006 
L 537.920932 230.647601 
L 537.883434 227.594197 
L 537.851187 224.540792 
L 537.823166 221.487388 
L 537.798204 218.433983 
L 537.775442 215.380578 
L 537.754667 212.327174 
L 537.736412 209.273769 
L 537.721807 206.220365 
L 537.71222 203.16696 
L 537.708858 200.113555 
L 537.712454 197.060151 
L 537.723124 194.006746 
L 537.740399 190.953342 
L 537.763304 187.899937 
L 537.790341 184.846532 
L 537.819281 181.793128 
L 537.846781 178.739723 
L 537.867963 175.686319 
L 537.876223 172.632914 
L 537.863515 169.579509 
L 537.821289 166.526105 
L 537.742073 163.4727 
L 537.6215 160.419296 
L 537.460324 157.365891 
L 537.265873 154.312486 
L 537.052325 151.259082 
L 536.83939 148.205677 
L 536.649315 145.152273 
L 536.502654 142.098868 
L 536.413711 139.045463 
L 536.386874 135.992059 
L 536.41498 132.938654 
L 536.480414 129.88525 
L 536.558881 126.831845 
L 536.624969 123.77844 
L 536.65808 120.725036 
L 536.647088 117.671631 
L 536.592522 114.618227 
L 536.505702 111.564822 
L 536.405201 108.511417 
L 536.311618 105.458013 
L 536.242013 102.404608 
L 536.205158 99.351204 
L 536.198247 96.297799 
L 536.204953 93.244394 
L 536.194161 90.19099 
L 536.118547 87.137585 
L 535.912669 84.084181 
L 535.491449 81.030776 
L 534.751402 77.977371 
L 533.578142 74.923967 
L 531.86351 71.870562 
L 529.533446 68.817158 
L 526.583301 65.763753 
L 523.111908 62.710349 
L 519.341659 59.656944 
L 515.611787 56.603539 
L 512.33777 53.550135 
L 509.940429 50.49673 
L 508.760331 47.443326 
L 508.98125 44.389921 
L 510.58636 41.336516 
L 566.438433 41.336516 
L 566.438433 41.336516 
L 568.043543 44.389921 
L 568.264463 47.443326 
L 567.084364 50.49673 
L 564.687023 53.550135 
L 561.413006 56.603539 
L 557.683134 59.656944 
L 553.912885 62.710349 
L 550.441492 65.763753 
L 547.491347 68.817158 
L 545.161284 71.870562 
L 543.446652 74.923967 
L 542.273391 77.977371 
L 541.533344 81.030776 
L 541.112125 84.084181 
L 540.906247 87.137585 
L 540.830632 90.19099 
L 540.819841 93.244394 
L 540.826546 96.297799 
L 540.819635 99.351204 
L 540.782781 102.404608 
L 540.713175 105.458013 
L 540.619593 108.511417 
L 540.519092 111.564822 
L 540.432272 114.618227 
L 540.377705 117.671631 
L 540.366714 120.725036 
L 540.399824 123.77844 
L 540.465913 126.831845 
L 540.544379 129.88525 
L 540.609813 132.938654 
L 540.637919 135.992059 
L 540.611082 139.045463 
L 540.52214 142.098868 
L 540.375478 145.152273 
L 540.185403 148.205677 
L 539.972468 151.259082 
L 539.75892 154.312486 
L 539.564469 157.365891 
L 539.403293 160.419296 
L 539.28272 163.4727 
L 539.203505 166.526105 
L 539.161278 169.579509 
L 539.148571 172.632914 
L 539.156831 175.686319 
L 539.178013 178.739723 
L 539.205512 181.793128 
L 539.234452 184.846532 
L 539.261489 187.899937 
L 539.284394 190.953342 
L 539.30167 194.006746 
L 539.31234 197.060151 
L 539.315935 200.113555 
L 539.312574 203.16696 
L 539.302987 206.220365 
L 539.288381 209.273769 
L 539.270127 212.327174 
L 539.249351 215.380578 
L 539.22659 218.433983 
L 539.201628 221.487388 
L 539.173607 224.540792 
L 539.141359 227.594197 
L 539.103862 230.647601 
L 539.060639 233.701006 
L 539.012001 236.754411 
L 538.959049 239.807815 
L 538.903486 242.86122 
L 538.847324 245.914624 
L 538.792575 248.968029 
L 538.741025 252.021433 
L 538.694092 255.074838 
L 538.652765 258.128243 
L 538.617592 261.181647 
L 538.588702 264.235052 
L 538.56585 267.288456 
L 538.548479 270.341861 
L 538.535822 273.395266 
L 538.526998 276.44867 
L 538.521128 279.502075 
L 538.517415 282.555479 
L 538.515203 285.608884 
L 538.514009 288.662289 
L 538.513525 291.715693 
L 538.513615 294.769098 
L 538.514313 297.822502 
L 538.515827 300.875907 
L 538.518539 303.929312 
L 538.522999 306.982716 
L 538.529885 310.036121 
L 538.539908 313.089525 
L 538.553656 316.14293 
L 538.571386 319.196335 
L 538.592801 322.249739 
L 538.616889 325.303144 
L 538.641875 328.356548 
L 538.665382 331.409953 
L 538.684764 334.463358 
L 538.69759 337.516762 
L 538.702142 340.570167 
L 538.697789 343.623571 
z
" style="fill:#1f77b4;fill-opacity:0.3;"/>
   </g>
   <g id="PolyCollection_6">
    <path clip-path="url(#p9a97e06058)" d="M 657.610498 162.235988 
L 657.430825 162.235988 
L 657.432335 160.999727 
L 657.437715 159.763467 
L 657.445316 158.527207 
L 657.452964 157.290947 
L 657.458434 156.054686 
L 657.459923 154.818426 
L 657.456394 153.582166 
L 657.447721 152.345905 
L 657.43462 151.109645 
L 657.418392 149.873385 
L 657.400556 148.637125 
L 657.382456 147.400864 
L 657.36496 146.164604 
L 657.348325 144.928344 
L 657.332269 143.692084 
L 657.316222 142.455823 
L 657.299704 141.219563 
L 657.282699 139.983303 
L 657.265935 138.747042 
L 657.25095 137.510782 
L 657.239894 136.274522 
L 657.235087 135.038262 
L 657.238429 133.802001 
L 657.250825 132.565741 
L 657.271797 131.329481 
L 657.299406 130.09322 
L 657.330492 128.85696 
L 657.36117 127.6207 
L 657.387424 126.38444 
L 657.405671 125.148179 
L 657.41319 123.911919 
L 657.408377 122.675659 
L 657.390803 121.439399 
L 657.3611 120.203138 
L 657.320697 118.966878 
L 657.271489 117.730618 
L 657.215538 116.494357 
L 657.154938 115.258097 
L 657.091893 114.021837 
L 657.028929 112.785577 
L 656.969067 111.549316 
L 656.915703 110.313056 
L 656.872112 109.076796 
L 656.840661 107.840535 
L 656.822057 106.604275 
L 656.814999 105.368015 
L 656.816479 104.131755 
L 656.822731 102.895494 
L 656.83049 101.659234 
L 656.838102 100.422974 
L 656.84602 99.186714 
L 656.856468 97.950453 
L 656.872363 96.714193 
L 656.895935 95.477933 
L 656.927565 94.241672 
L 656.965337 93.005412 
L 657.00546 91.769152 
L 657.04339 90.532892 
L 657.075217 89.296631 
L 657.098802 88.060371 
L 657.114318 86.824111 
L 657.124054 85.58785 
L 657.131629 84.35159 
L 657.140887 83.11533 
L 657.154798 81.87907 
L 657.174658 80.642809 
L 657.199749 79.406549 
L 657.227545 78.170289 
L 657.254374 76.934029 
L 657.276372 75.697768 
L 657.290459 74.461508 
L 657.295061 73.225248 
L 657.290335 71.988987 
L 657.277753 70.752727 
L 657.259014 69.516467 
L 657.234364 68.280207 
L 657.200486 67.043946 
L 657.148131 65.807686 
L 657.059613 64.571426 
L 656.906189 63.335165 
L 656.645238 62.098905 
L 656.217337 60.862645 
L 655.543934 59.626385 
L 654.527649 58.390124 
L 653.058744 57.153864 
L 651.032098 55.917604 
L 648.377473 54.681344 
L 645.100872 53.445083 
L 641.327021 52.208823 
L 637.325693 50.972563 
L 633.50272 49.736302 
L 630.344264 48.500042 
L 628.319756 47.263782 
L 627.768595 46.027522 
L 628.80796 44.791261 
L 631.296006 43.555001 
L 634.865561 42.318741 
L 639.016713 41.082481 
L 643.235252 39.84622 
L 671.80607 39.84622 
L 671.80607 39.84622 
L 676.024609 41.082481 
L 680.175762 42.318741 
L 683.745316 43.555001 
L 686.233363 44.791261 
L 687.272727 46.027522 
L 686.721566 47.263782 
L 684.697059 48.500042 
L 681.538602 49.736302 
L 677.715629 50.972563 
L 673.714301 52.208823 
L 669.94045 53.445083 
L 666.663849 54.681344 
L 664.009225 55.917604 
L 661.982579 57.153864 
L 660.513673 58.390124 
L 659.497388 59.626385 
L 658.823985 60.862645 
L 658.396084 62.098905 
L 658.135134 63.335165 
L 657.981709 64.571426 
L 657.893191 65.807686 
L 657.840836 67.043946 
L 657.806959 68.280207 
L 657.782308 69.516467 
L 657.763569 70.752727 
L 657.750987 71.988987 
L 657.746262 73.225248 
L 657.750864 74.461508 
L 657.76495 75.697768 
L 657.786948 76.934029 
L 657.813777 78.170289 
L 657.841573 79.406549 
L 657.866665 80.642809 
L 657.886524 81.87907 
L 657.900436 83.11533 
L 657.909693 84.35159 
L 657.917269 85.58785 
L 657.927004 86.824111 
L 657.94252 88.060371 
L 657.966105 89.296631 
L 657.997932 90.532892 
L 658.035863 91.769152 
L 658.075986 93.005412 
L 658.113758 94.241672 
L 658.145387 95.477933 
L 658.168959 96.714193 
L 658.184855 97.950453 
L 658.195302 99.186714 
L 658.203221 100.422974 
L 658.210832 101.659234 
L 658.218591 102.895494 
L 658.224843 104.131755 
L 658.226324 105.368015 
L 658.219265 106.604275 
L 658.200661 107.840535 
L 658.16921 109.076796 
L 658.125619 110.313056 
L 658.072255 111.549316 
L 658.012393 112.785577 
L 657.94943 114.021837 
L 657.886384 115.258097 
L 657.825784 116.494357 
L 657.769833 117.730618 
L 657.720625 118.966878 
L 657.680223 120.203138 
L 657.65052 121.439399 
L 657.632946 122.675659 
L 657.628132 123.911919 
L 657.635651 125.148179 
L 657.653898 126.38444 
L 657.680152 127.6207 
L 657.710831 128.85696 
L 657.741917 130.09322 
L 657.769525 131.329481 
L 657.790497 132.565741 
L 657.802893 133.802001 
L 657.806235 135.038262 
L 657.801428 136.274522 
L 657.790372 137.510782 
L 657.775387 138.747042 
L 657.758624 139.983303 
L 657.741619 141.219563 
L 657.7251 142.455823 
L 657.709053 143.692084 
L 657.692997 144.928344 
L 657.676363 146.164604 
L 657.658867 147.400864 
L 657.640766 148.637125 
L 657.62293 149.873385 
L 657.606703 151.109645 
L 657.593602 152.345905 
L 657.584928 153.582166 
L 657.581399 154.818426 
L 657.582888 156.054686 
L 657.588358 157.290947 
L 657.596006 158.527207 
L 657.603608 159.763467 
L 657.608988 160.999727 
L 657.610498 162.235988 
z
" style="fill:#1f77b4;fill-opacity:0.3;"/>
   </g>
   <g id="matplotlib.axis_1">
    <g id="xtick_1">
     <g id="line2d_1">
      <defs>
       <path d="M 0 0 
L 0 3.5 
" id="ma3682f3a85" style="stroke:#000000;stroke-width:0.8;"/>
      </defs>
      <g>
       <use style="stroke:#000000;stroke-width:0.8;" x="62.479339" xlink:href="#ma3682f3a85" y="360"/>
      </g>
     </g>
     <g id="text_1">
      <!-- 100 -->
      <defs>
       <path d="M 12.40625 8.296875 
L 28.515625 8.296875 
L 28.515625 63.921875 
L 10.984375 60.40625 
L 10.984375 69.390625 
L 28.421875 72.90625 
L 38.28125 72.90625 
L 38.28125 8.296875 
L 54.390625 8.296875 
L 54.390625 0 
L 12.40625 0 
z
" id="DejaVuSans-49"/>
       <path d="M 31.78125 66.40625 
Q 24.171875 66.40625 20.328125 58.90625 
Q 16.5 51.421875 16.5 36.375 
Q 16.5 21.390625 20.328125 13.890625 
Q 24.171875 6.390625 31.78125 6.390625 
Q 39.453125 6.390625 43.28125 13.890625 
Q 47.125 21.390625 47.125 36.375 
Q 47.125 51.421875 43.28125 58.90625 
Q 39.453125 66.40625 31.78125 66.40625 
z
M 31.78125 74.21875 
Q 44.046875 74.21875 50.515625 64.515625 
Q 56.984375 54.828125 56.984375 36.375 
Q 56.984375 17.96875 50.515625 8.265625 
Q 44.046875 -1.421875 31.78125 -1.421875 
Q 19.53125 -1.421875 13.0625 8.265625 
Q 6.59375 17.96875 6.59375 36.375 
Q 6.59375 54.828125 13.0625 64.515625 
Q 19.53125 74.21875 31.78125 74.21875 
z
" id="DejaVuSans-48"/>
      </defs>
      <g transform="translate(52.935589 374.598437)scale(0.1 -0.1)">
       <use xlink:href="#DejaVuSans-49"/>
       <use x="63.623047" xlink:href="#DejaVuSans-48"/>
       <use x="127.246094" xlink:href="#DejaVuSans-48"/>
      </g>
     </g>
    </g>
    <g id="xtick_2">
     <g id="line2d_2">
      <g>
       <use style="stroke:#000000;stroke-width:0.8;" x="181.487603" xlink:href="#ma3682f3a85" y="360"/>
      </g>
     </g>
     <g id="text_2">
      <!-- 200 -->
      <defs>
       <path d="M 19.1875 8.296875 
L 53.609375 8.296875 
L 53.609375 0 
L 7.328125 0 
L 7.328125 8.296875 
Q 12.9375 14.109375 22.625 23.890625 
Q 32.328125 33.6875 34.8125 36.53125 
Q 39.546875 41.84375 41.421875 45.53125 
Q 43.3125 49.21875 43.3125 52.78125 
Q 43.3125 58.59375 39.234375 62.25 
Q 35.15625 65.921875 28.609375 65.921875 
Q 23.96875 65.921875 18.8125 64.3125 
Q 13.671875 62.703125 7.8125 59.421875 
L 7.8125 69.390625 
Q 13.765625 71.78125 18.9375 73 
Q 24.125 74.21875 28.421875 74.21875 
Q 39.75 74.21875 46.484375 68.546875 
Q 53.21875 62.890625 53.21875 53.421875 
Q 53.21875 48.921875 51.53125 44.890625 
Q 49.859375 40.875 45.40625 35.40625 
Q 44.1875 33.984375 37.640625 27.21875 
Q 31.109375 20.453125 19.1875 8.296875 
z
" id="DejaVuSans-50"/>
      </defs>
      <g transform="translate(171.943853 374.598437)scale(0.1 -0.1)">
       <use xlink:href="#DejaVuSans-50"/>
       <use x="63.623047" xlink:href="#DejaVuSans-48"/>
       <use x="127.246094" xlink:href="#DejaVuSans-48"/>
      </g>
     </g>
    </g>
    <g id="xtick_3">
     <g id="line2d_3">
      <g>
       <use style="stroke:#000000;stroke-width:0.8;" x="300.495868" xlink:href="#ma3682f3a85" y="360"/>
      </g>
     </g>
     <g id="text_3">
      <!-- 300 -->
      <defs>
       <path d="M 40.578125 39.3125 
Q 47.65625 37.796875 51.625 33 
Q 55.609375 28.21875 55.609375 21.1875 
Q 55.609375 10.40625 48.1875 4.484375 
Q 40.765625 -1.421875 27.09375 -1.421875 
Q 22.515625 -1.421875 17.65625 -0.515625 
Q 12.796875 0.390625 7.625 2.203125 
L 7.625 11.71875 
Q 11.71875 9.328125 16.59375 8.109375 
Q 21.484375 6.890625 26.8125 6.890625 
Q 36.078125 6.890625 40.9375 10.546875 
Q 45.796875 14.203125 45.796875 21.1875 
Q 45.796875 27.640625 41.28125 31.265625 
Q 36.765625 34.90625 28.71875 34.90625 
L 20.21875 34.90625 
L 20.21875 43.015625 
L 29.109375 43.015625 
Q 36.375 43.015625 40.234375 45.921875 
Q 44.09375 48.828125 44.09375 54.296875 
Q 44.09375 59.90625 40.109375 62.90625 
Q 36.140625 65.921875 28.71875 65.921875 
Q 24.65625 65.921875 20.015625 65.03125 
Q 15.375 64.15625 9.8125 62.3125 
L 9.8125 71.09375 
Q 15.4375 72.65625 20.34375 73.4375 
Q 25.25 74.21875 29.59375 74.21875 
Q 40.828125 74.21875 47.359375 69.109375 
Q 53.90625 64.015625 53.90625 55.328125 
Q 53.90625 49.265625 50.4375 45.09375 
Q 46.96875 40.921875 40.578125 39.3125 
z
" id="DejaVuSans-51"/>
      </defs>
      <g transform="translate(290.952118 374.598437)scale(0.1 -0.1)">
       <use xlink:href="#DejaVuSans-51"/>
       <use x="63.623047" xlink:href="#DejaVuSans-48"/>
       <use x="127.246094" xlink:href="#DejaVuSans-48"/>
      </g>
     </g>
    </g>
    <g id="xtick_4">
     <g id="line2d_4">
      <g>
       <use style="stroke:#000000;stroke-width:0.8;" x="419.504132" xlink:href="#ma3682f3a85" y="360"/>
      </g>
     </g>
     <g id="text_4">
      <!-- 400 -->
      <defs>
       <path d="M 37.796875 64.3125 
L 12.890625 25.390625 
L 37.796875 25.390625 
z
M 35.203125 72.90625 
L 47.609375 72.90625 
L 47.609375 25.390625 
L 58.015625 25.390625 
L 58.015625 17.1875 
L 47.609375 17.1875 
L 47.609375 0 
L 37.796875 0 
L 37.796875 17.1875 
L 4.890625 17.1875 
L 4.890625 26.703125 
z
" id="DejaVuSans-52"/>
      </defs>
      <g transform="translate(409.960382 374.598437)scale(0.1 -0.1)">
       <use xlink:href="#DejaVuSans-52"/>
       <use x="63.623047" xlink:href="#DejaVuSans-48"/>
       <use x="127.246094" xlink:href="#DejaVuSans-48"/>
      </g>
     </g>
    </g>
    <g id="xtick_5">
     <g id="line2d_5">
      <g>
       <use style="stroke:#000000;stroke-width:0.8;" x="538.512397" xlink:href="#ma3682f3a85" y="360"/>
      </g>
     </g>
     <g id="text_5">
      <!-- 500 -->
      <defs>
       <path d="M 10.796875 72.90625 
L 49.515625 72.90625 
L 49.515625 64.59375 
L 19.828125 64.59375 
L 19.828125 46.734375 
Q 21.96875 47.46875 24.109375 47.828125 
Q 26.265625 48.1875 28.421875 48.1875 
Q 40.625 48.1875 47.75 41.5 
Q 54.890625 34.8125 54.890625 23.390625 
Q 54.890625 11.625 47.5625 5.09375 
Q 40.234375 -1.421875 26.90625 -1.421875 
Q 22.3125 -1.421875 17.546875 -0.640625 
Q 12.796875 0.140625 7.71875 1.703125 
L 7.71875 11.625 
Q 12.109375 9.234375 16.796875 8.0625 
Q 21.484375 6.890625 26.703125 6.890625 
Q 35.15625 6.890625 40.078125 11.328125 
Q 45.015625 15.765625 45.015625 23.390625 
Q 45.015625 31 40.078125 35.4375 
Q 35.15625 39.890625 26.703125 39.890625 
Q 22.75 39.890625 18.8125 39.015625 
Q 14.890625 38.140625 10.796875 36.28125 
z
" id="DejaVuSans-53"/>
      </defs>
      <g transform="translate(528.968647 374.598437)scale(0.1 -0.1)">
       <use xlink:href="#DejaVuSans-53"/>
       <use x="63.623047" xlink:href="#DejaVuSans-48"/>
       <use x="127.246094" xlink:href="#DejaVuSans-48"/>
      </g>
     </g>
    </g>
    <g id="xtick_6">
     <g id="line2d_6">
      <g>
       <use style="stroke:#000000;stroke-width:0.8;" x="657.520661" xlink:href="#ma3682f3a85" y="360"/>
      </g>
     </g>
     <g id="text_6">
      <!-- 1000 -->
      <g transform="translate(644.795661 374.598437)scale(0.1 -0.1)">
       <use xlink:href="#DejaVuSans-49"/>
       <use x="63.623047" xlink:href="#DejaVuSans-48"/>
       <use x="127.246094" xlink:href="#DejaVuSans-48"/>
       <use x="190.869141" xlink:href="#DejaVuSans-48"/>
      </g>
     </g>
    </g>
    <g id="text_7">
     <!-- Lambda -->
     <defs>
      <path d="M 9.8125 72.90625 
L 19.671875 72.90625 
L 19.671875 8.296875 
L 55.171875 8.296875 
L 55.171875 0 
L 9.8125 0 
z
" id="DejaVuSans-76"/>
      <path d="M 34.28125 27.484375 
Q 23.390625 27.484375 19.1875 25 
Q 14.984375 22.515625 14.984375 16.5 
Q 14.984375 11.71875 18.140625 8.90625 
Q 21.296875 6.109375 26.703125 6.109375 
Q 34.1875 6.109375 38.703125 11.40625 
Q 43.21875 16.703125 43.21875 25.484375 
L 43.21875 27.484375 
z
M 52.203125 31.203125 
L 52.203125 0 
L 43.21875 0 
L 43.21875 8.296875 
Q 40.140625 3.328125 35.546875 0.953125 
Q 30.953125 -1.421875 24.3125 -1.421875 
Q 15.921875 -1.421875 10.953125 3.296875 
Q 6 8.015625 6 15.921875 
Q 6 25.140625 12.171875 29.828125 
Q 18.359375 34.515625 30.609375 34.515625 
L 43.21875 34.515625 
L 43.21875 35.40625 
Q 43.21875 41.609375 39.140625 45 
Q 35.0625 48.390625 27.6875 48.390625 
Q 23 48.390625 18.546875 47.265625 
Q 14.109375 46.140625 10.015625 43.890625 
L 10.015625 52.203125 
Q 14.9375 54.109375 19.578125 55.046875 
Q 24.21875 56 28.609375 56 
Q 40.484375 56 46.34375 49.84375 
Q 52.203125 43.703125 52.203125 31.203125 
z
" id="DejaVuSans-97"/>
      <path d="M 52 44.1875 
Q 55.375 50.25 60.0625 53.125 
Q 64.75 56 71.09375 56 
Q 79.640625 56 84.28125 50.015625 
Q 88.921875 44.046875 88.921875 33.015625 
L 88.921875 0 
L 79.890625 0 
L 79.890625 32.71875 
Q 79.890625 40.578125 77.09375 44.375 
Q 74.3125 48.1875 68.609375 48.1875 
Q 61.625 48.1875 57.5625 43.546875 
Q 53.515625 38.921875 53.515625 30.90625 
L 53.515625 0 
L 44.484375 0 
L 44.484375 32.71875 
Q 44.484375 40.625 41.703125 44.40625 
Q 38.921875 48.1875 33.109375 48.1875 
Q 26.21875 48.1875 22.15625 43.53125 
Q 18.109375 38.875 18.109375 30.90625 
L 18.109375 0 
L 9.078125 0 
L 9.078125 54.6875 
L 18.109375 54.6875 
L 18.109375 46.1875 
Q 21.1875 51.21875 25.484375 53.609375 
Q 29.78125 56 35.6875 56 
Q 41.65625 56 45.828125 52.96875 
Q 50 49.953125 52 44.1875 
z
" id="DejaVuSans-109"/>
      <path d="M 48.6875 27.296875 
Q 48.6875 37.203125 44.609375 42.84375 
Q 40.53125 48.484375 33.40625 48.484375 
Q 26.265625 48.484375 22.1875 42.84375 
Q 18.109375 37.203125 18.109375 27.296875 
Q 18.109375 17.390625 22.1875 11.75 
Q 26.265625 6.109375 33.40625 6.109375 
Q 40.53125 6.109375 44.609375 11.75 
Q 48.6875 17.390625 48.6875 27.296875 
z
M 18.109375 46.390625 
Q 20.953125 51.265625 25.265625 53.625 
Q 29.59375 56 35.59375 56 
Q 45.5625 56 51.78125 48.09375 
Q 58.015625 40.1875 58.015625 27.296875 
Q 58.015625 14.40625 51.78125 6.484375 
Q 45.5625 -1.421875 35.59375 -1.421875 
Q 29.59375 -1.421875 25.265625 0.953125 
Q 20.953125 3.328125 18.109375 8.203125 
L 18.109375 0 
L 9.078125 0 
L 9.078125 75.984375 
L 18.109375 75.984375 
z
" id="DejaVuSans-98"/>
      <path d="M 45.40625 46.390625 
L 45.40625 75.984375 
L 54.390625 75.984375 
L 54.390625 0 
L 45.40625 0 
L 45.40625 8.203125 
Q 42.578125 3.328125 38.25 0.953125 
Q 33.9375 -1.421875 27.875 -1.421875 
Q 17.96875 -1.421875 11.734375 6.484375 
Q 5.515625 14.40625 5.515625 27.296875 
Q 5.515625 40.1875 11.734375 48.09375 
Q 17.96875 56 27.875 56 
Q 33.9375 56 38.25 53.625 
Q 42.578125 51.265625 45.40625 46.390625 
z
M 14.796875 27.296875 
Q 14.796875 17.390625 18.875 11.75 
Q 22.953125 6.109375 30.078125 6.109375 
Q 37.203125 6.109375 41.296875 11.75 
Q 45.40625 17.390625 45.40625 27.296875 
Q 45.40625 37.203125 41.296875 42.84375 
Q 37.203125 48.484375 30.078125 48.484375 
Q 22.953125 48.484375 18.875 42.84375 
Q 14.796875 37.203125 14.796875 27.296875 
z
" id="DejaVuSans-100"/>
     </defs>
     <g transform="translate(335.840625 389.79625)scale(0.12 -0.12)">
      <use xlink:href="#DejaVuSans-76"/>
      <use x="55.712891" xlink:href="#DejaVuSans-97"/>
      <use x="116.992188" xlink:href="#DejaVuSans-109"/>
      <use x="214.404297" xlink:href="#DejaVuSans-98"/>
      <use x="277.880859" xlink:href="#DejaVuSans-100"/>
      <use x="341.357422" xlink:href="#DejaVuSans-97"/>
     </g>
    </g>
   </g>
   <g id="matplotlib.axis_2">
    <g id="ytick_1">
     <g id="line2d_7">
      <defs>
       <path d="M 0 0 
L -3.5 0 
" id="m2d17b9939d" style="stroke:#000000;stroke-width:0.8;"/>
      </defs>
      <g>
       <use style="stroke:#000000;stroke-width:0.8;" x="0" xlink:href="#m2d17b9939d" y="336.343507"/>
      </g>
     </g>
     <g id="text_8">
      <!-- 0.40 -->
      <defs>
       <path d="M 10.6875 12.40625 
L 21 12.40625 
L 21 0 
L 10.6875 0 
z
" id="DejaVuSans-46"/>
      </defs>
      <g transform="translate(-29.265625 340.142726)scale(0.1 -0.1)">
       <use xlink:href="#DejaVuSans-48"/>
       <use x="63.623047" xlink:href="#DejaVuSans-46"/>
       <use x="95.410156" xlink:href="#DejaVuSans-52"/>
       <use x="159.033203" xlink:href="#DejaVuSans-48"/>
      </g>
     </g>
    </g>
    <g id="ytick_2">
     <g id="line2d_8">
      <g>
       <use style="stroke:#000000;stroke-width:0.8;" x="0" xlink:href="#m2d17b9939d" y="264.793944"/>
      </g>
     </g>
     <g id="text_9">
      <!-- 0.45 -->
      <g transform="translate(-29.265625 268.593162)scale(0.1 -0.1)">
       <use xlink:href="#DejaVuSans-48"/>
       <use x="63.623047" xlink:href="#DejaVuSans-46"/>
       <use x="95.410156" xlink:href="#DejaVuSans-52"/>
       <use x="159.033203" xlink:href="#DejaVuSans-53"/>
      </g>
     </g>
    </g>
    <g id="ytick_3">
     <g id="line2d_9">
      <g>
       <use style="stroke:#000000;stroke-width:0.8;" x="0" xlink:href="#m2d17b9939d" y="193.24438"/>
      </g>
     </g>
     <g id="text_10">
      <!-- 0.50 -->
      <g transform="translate(-29.265625 197.043599)scale(0.1 -0.1)">
       <use xlink:href="#DejaVuSans-48"/>
       <use x="63.623047" xlink:href="#DejaVuSans-46"/>
       <use x="95.410156" xlink:href="#DejaVuSans-53"/>
       <use x="159.033203" xlink:href="#DejaVuSans-48"/>
      </g>
     </g>
    </g>
    <g id="ytick_4">
     <g id="line2d_10">
      <g>
       <use style="stroke:#000000;stroke-width:0.8;" x="0" xlink:href="#m2d17b9939d" y="121.694817"/>
      </g>
     </g>
     <g id="text_11">
      <!-- 0.55 -->
      <g transform="translate(-29.265625 125.494036)scale(0.1 -0.1)">
       <use xlink:href="#DejaVuSans-48"/>
       <use x="63.623047" xlink:href="#DejaVuSans-46"/>
       <use x="95.410156" xlink:href="#DejaVuSans-53"/>
       <use x="159.033203" xlink:href="#DejaVuSans-53"/>
      </g>
     </g>
    </g>
    <g id="ytick_5">
     <g id="line2d_11">
      <g>
       <use style="stroke:#000000;stroke-width:0.8;" x="0" xlink:href="#m2d17b9939d" y="50.145254"/>
      </g>
     </g>
     <g id="text_12">
      <!-- 0.60 -->
      <defs>
       <path d="M 33.015625 40.375 
Q 26.375 40.375 22.484375 35.828125 
Q 18.609375 31.296875 18.609375 23.390625 
Q 18.609375 15.53125 22.484375 10.953125 
Q 26.375 6.390625 33.015625 6.390625 
Q 39.65625 6.390625 43.53125 10.953125 
Q 47.40625 15.53125 47.40625 23.390625 
Q 47.40625 31.296875 43.53125 35.828125 
Q 39.65625 40.375 33.015625 40.375 
z
M 52.59375 71.296875 
L 52.59375 62.3125 
Q 48.875 64.0625 45.09375 64.984375 
Q 41.3125 65.921875 37.59375 65.921875 
Q 27.828125 65.921875 22.671875 59.328125 
Q 17.53125 52.734375 16.796875 39.40625 
Q 19.671875 43.65625 24.015625 45.921875 
Q 28.375 48.1875 33.59375 48.1875 
Q 44.578125 48.1875 50.953125 41.515625 
Q 57.328125 34.859375 57.328125 23.390625 
Q 57.328125 12.15625 50.6875 5.359375 
Q 44.046875 -1.421875 33.015625 -1.421875 
Q 20.359375 -1.421875 13.671875 8.265625 
Q 6.984375 17.96875 6.984375 36.375 
Q 6.984375 53.65625 15.1875 63.9375 
Q 23.390625 74.21875 37.203125 74.21875 
Q 40.921875 74.21875 44.703125 73.484375 
Q 48.484375 72.75 52.59375 71.296875 
z
" id="DejaVuSans-54"/>
      </defs>
      <g transform="translate(-29.265625 53.944472)scale(0.1 -0.1)">
       <use xlink:href="#DejaVuSans-48"/>
       <use x="63.623047" xlink:href="#DejaVuSans-46"/>
       <use x="95.410156" xlink:href="#DejaVuSans-54"/>
       <use x="159.033203" xlink:href="#DejaVuSans-48"/>
      </g>
     </g>
    </g>
    <g id="text_13">
     <!-- Accuracy (classes=2) -->
     <defs>
      <path d="M 34.1875 63.1875 
L 20.796875 26.90625 
L 47.609375 26.90625 
z
M 28.609375 72.90625 
L 39.796875 72.90625 
L 67.578125 0 
L 57.328125 0 
L 50.6875 18.703125 
L 17.828125 18.703125 
L 11.1875 0 
L 0.78125 0 
z
" id="DejaVuSans-65"/>
      <path d="M 48.78125 52.59375 
L 48.78125 44.1875 
Q 44.96875 46.296875 41.140625 47.34375 
Q 37.3125 48.390625 33.40625 48.390625 
Q 24.65625 48.390625 19.8125 42.84375 
Q 14.984375 37.3125 14.984375 27.296875 
Q 14.984375 17.28125 19.8125 11.734375 
Q 24.65625 6.203125 33.40625 6.203125 
Q 37.3125 6.203125 41.140625 7.25 
Q 44.96875 8.296875 48.78125 10.40625 
L 48.78125 2.09375 
Q 45.015625 0.34375 40.984375 -0.53125 
Q 36.96875 -1.421875 32.421875 -1.421875 
Q 20.0625 -1.421875 12.78125 6.34375 
Q 5.515625 14.109375 5.515625 27.296875 
Q 5.515625 40.671875 12.859375 48.328125 
Q 20.21875 56 33.015625 56 
Q 37.15625 56 41.109375 55.140625 
Q 45.0625 54.296875 48.78125 52.59375 
z
" id="DejaVuSans-99"/>
      <path d="M 8.5 21.578125 
L 8.5 54.6875 
L 17.484375 54.6875 
L 17.484375 21.921875 
Q 17.484375 14.15625 20.5 10.265625 
Q 23.53125 6.390625 29.59375 6.390625 
Q 36.859375 6.390625 41.078125 11.03125 
Q 45.3125 15.671875 45.3125 23.6875 
L 45.3125 54.6875 
L 54.296875 54.6875 
L 54.296875 0 
L 45.3125 0 
L 45.3125 8.40625 
Q 42.046875 3.421875 37.71875 1 
Q 33.40625 -1.421875 27.6875 -1.421875 
Q 18.265625 -1.421875 13.375 4.4375 
Q 8.5 10.296875 8.5 21.578125 
z
M 31.109375 56 
z
" id="DejaVuSans-117"/>
      <path d="M 41.109375 46.296875 
Q 39.59375 47.171875 37.8125 47.578125 
Q 36.03125 48 33.890625 48 
Q 26.265625 48 22.1875 43.046875 
Q 18.109375 38.09375 18.109375 28.8125 
L 18.109375 0 
L 9.078125 0 
L 9.078125 54.6875 
L 18.109375 54.6875 
L 18.109375 46.1875 
Q 20.953125 51.171875 25.484375 53.578125 
Q 30.03125 56 36.53125 56 
Q 37.453125 56 38.578125 55.875 
Q 39.703125 55.765625 41.0625 55.515625 
z
" id="DejaVuSans-114"/>
      <path d="M 32.171875 -5.078125 
Q 28.375 -14.84375 24.75 -17.8125 
Q 21.140625 -20.796875 15.09375 -20.796875 
L 7.90625 -20.796875 
L 7.90625 -13.28125 
L 13.1875 -13.28125 
Q 16.890625 -13.28125 18.9375 -11.515625 
Q 21 -9.765625 23.484375 -3.21875 
L 25.09375 0.875 
L 2.984375 54.6875 
L 12.5 54.6875 
L 29.59375 11.921875 
L 46.6875 54.6875 
L 56.203125 54.6875 
z
" id="DejaVuSans-121"/>
      <path id="DejaVuSans-32"/>
      <path d="M 31 75.875 
Q 24.46875 64.65625 21.28125 53.65625 
Q 18.109375 42.671875 18.109375 31.390625 
Q 18.109375 20.125 21.3125 9.0625 
Q 24.515625 -2 31 -13.1875 
L 23.1875 -13.1875 
Q 15.875 -1.703125 12.234375 9.375 
Q 8.59375 20.453125 8.59375 31.390625 
Q 8.59375 42.28125 12.203125 53.3125 
Q 15.828125 64.359375 23.1875 75.875 
z
" id="DejaVuSans-40"/>
      <path d="M 9.421875 75.984375 
L 18.40625 75.984375 
L 18.40625 0 
L 9.421875 0 
z
" id="DejaVuSans-108"/>
      <path d="M 44.28125 53.078125 
L 44.28125 44.578125 
Q 40.484375 46.53125 36.375 47.5 
Q 32.28125 48.484375 27.875 48.484375 
Q 21.1875 48.484375 17.84375 46.4375 
Q 14.5 44.390625 14.5 40.28125 
Q 14.5 37.15625 16.890625 35.375 
Q 19.28125 33.59375 26.515625 31.984375 
L 29.59375 31.296875 
Q 39.15625 29.25 43.1875 25.515625 
Q 47.21875 21.78125 47.21875 15.09375 
Q 47.21875 7.46875 41.1875 3.015625 
Q 35.15625 -1.421875 24.609375 -1.421875 
Q 20.21875 -1.421875 15.453125 -0.5625 
Q 10.6875 0.296875 5.421875 2 
L 5.421875 11.28125 
Q 10.40625 8.6875 15.234375 7.390625 
Q 20.0625 6.109375 24.8125 6.109375 
Q 31.15625 6.109375 34.5625 8.28125 
Q 37.984375 10.453125 37.984375 14.40625 
Q 37.984375 18.0625 35.515625 20.015625 
Q 33.0625 21.96875 24.703125 23.78125 
L 21.578125 24.515625 
Q 13.234375 26.265625 9.515625 29.90625 
Q 5.8125 33.546875 5.8125 39.890625 
Q 5.8125 47.609375 11.28125 51.796875 
Q 16.75 56 26.8125 56 
Q 31.78125 56 36.171875 55.265625 
Q 40.578125 54.546875 44.28125 53.078125 
z
" id="DejaVuSans-115"/>
      <path d="M 56.203125 29.59375 
L 56.203125 25.203125 
L 14.890625 25.203125 
Q 15.484375 15.921875 20.484375 11.0625 
Q 25.484375 6.203125 34.421875 6.203125 
Q 39.59375 6.203125 44.453125 7.46875 
Q 49.3125 8.734375 54.109375 11.28125 
L 54.109375 2.78125 
Q 49.265625 0.734375 44.1875 -0.34375 
Q 39.109375 -1.421875 33.890625 -1.421875 
Q 20.796875 -1.421875 13.15625 6.1875 
Q 5.515625 13.8125 5.515625 26.8125 
Q 5.515625 40.234375 12.765625 48.109375 
Q 20.015625 56 32.328125 56 
Q 43.359375 56 49.78125 48.890625 
Q 56.203125 41.796875 56.203125 29.59375 
z
M 47.21875 32.234375 
Q 47.125 39.59375 43.09375 43.984375 
Q 39.0625 48.390625 32.421875 48.390625 
Q 24.90625 48.390625 20.390625 44.140625 
Q 15.875 39.890625 15.1875 32.171875 
z
" id="DejaVuSans-101"/>
      <path d="M 10.59375 45.40625 
L 73.1875 45.40625 
L 73.1875 37.203125 
L 10.59375 37.203125 
z
M 10.59375 25.484375 
L 73.1875 25.484375 
L 73.1875 17.1875 
L 10.59375 17.1875 
z
" id="DejaVuSans-61"/>
      <path d="M 8.015625 75.875 
L 15.828125 75.875 
Q 23.140625 64.359375 26.78125 53.3125 
Q 30.421875 42.28125 30.421875 31.390625 
Q 30.421875 20.453125 26.78125 9.375 
Q 23.140625 -1.703125 15.828125 -13.1875 
L 8.015625 -13.1875 
Q 14.5 -2 17.703125 9.0625 
Q 20.90625 20.125 20.90625 31.390625 
Q 20.90625 42.671875 17.703125 53.65625 
Q 14.5 64.65625 8.015625 75.875 
z
" id="DejaVuSans-41"/>
     </defs>
     <g transform="translate(-35.76125 244.643438)rotate(-90)scale(0.12 -0.12)">
      <use xlink:href="#DejaVuSans-65"/>
      <use x="68.392578" xlink:href="#DejaVuSans-99"/>
      <use x="123.373047" xlink:href="#DejaVuSans-99"/>
      <use x="178.353516" xlink:href="#DejaVuSans-117"/>
      <use x="241.732422" xlink:href="#DejaVuSans-114"/>
      <use x="282.845703" xlink:href="#DejaVuSans-97"/>
      <use x="344.125" xlink:href="#DejaVuSans-99"/>
      <use x="399.105469" xlink:href="#DejaVuSans-121"/>
      <use x="458.285156" xlink:href="#DejaVuSans-32"/>
      <use x="490.072266" xlink:href="#DejaVuSans-40"/>
      <use x="529.085938" xlink:href="#DejaVuSans-99"/>
      <use x="584.066406" xlink:href="#DejaVuSans-108"/>
      <use x="611.849609" xlink:href="#DejaVuSans-97"/>
      <use x="673.128906" xlink:href="#DejaVuSans-115"/>
      <use x="725.228516" xlink:href="#DejaVuSans-115"/>
      <use x="777.328125" xlink:href="#DejaVuSans-101"/>
      <use x="838.851562" xlink:href="#DejaVuSans-115"/>
      <use x="890.951172" xlink:href="#DejaVuSans-61"/>
      <use x="974.740234" xlink:href="#DejaVuSans-50"/>
      <use x="1038.363281" xlink:href="#DejaVuSans-41"/>
     </g>
    </g>
   </g>
   <g id="LineCollection_1">
    <path clip-path="url(#p9a97e06058)" d="M 47.603306 38.317547 
L 77.355372 38.317547 
" style="fill:none;stroke:#1f77b4;stroke-width:1.5;"/>
    <path clip-path="url(#p9a97e06058)" d="M 166.61157 41.336516 
L 196.363636 41.336516 
" style="fill:none;stroke:#1f77b4;stroke-width:1.5;"/>
    <path clip-path="url(#p9a97e06058)" d="M 285.619835 39.827032 
L 315.371901 39.827032 
" style="fill:none;stroke:#1f77b4;stroke-width:1.5;"/>
    <path clip-path="url(#p9a97e06058)" d="M 404.628099 38.336736 
L 434.380165 38.336736 
" style="fill:none;stroke:#1f77b4;stroke-width:1.5;"/>
    <path clip-path="url(#p9a97e06058)" d="M 523.636364 41.336516 
L 553.38843 41.336516 
" style="fill:none;stroke:#1f77b4;stroke-width:1.5;"/>
    <path clip-path="url(#p9a97e06058)" d="M 642.644628 39.84622 
L 672.396694 39.84622 
" style="fill:none;stroke:#1f77b4;stroke-width:1.5;"/>
   </g>
   <g id="LineCollection_2">
    <path clip-path="url(#p9a97e06058)" d="M 47.603306 343.636364 
L 77.355372 343.636364 
" style="fill:none;stroke:#1f77b4;stroke-width:1.5;"/>
    <path clip-path="url(#p9a97e06058)" d="M 166.61157 340.604602 
L 196.363636 340.604602 
" style="fill:none;stroke:#1f77b4;stroke-width:1.5;"/>
    <path clip-path="url(#p9a97e06058)" d="M 285.619835 340.604602 
L 315.371901 340.604602 
" style="fill:none;stroke:#1f77b4;stroke-width:1.5;"/>
    <path clip-path="url(#p9a97e06058)" d="M 404.628099 340.604602 
L 434.380165 340.604602 
" style="fill:none;stroke:#1f77b4;stroke-width:1.5;"/>
    <path clip-path="url(#p9a97e06058)" d="M 523.636364 343.623571 
L 553.38843 343.623571 
" style="fill:none;stroke:#1f77b4;stroke-width:1.5;"/>
    <path clip-path="url(#p9a97e06058)" d="M 642.644628 162.235988 
L 672.396694 162.235988 
" style="fill:none;stroke:#1f77b4;stroke-width:1.5;"/>
   </g>
   <g id="LineCollection_3">
    <path clip-path="url(#p9a97e06058)" d="M 62.479339 343.636364 
L 62.479339 38.317547 
" style="fill:none;stroke:#1f77b4;stroke-width:1.5;"/>
    <path clip-path="url(#p9a97e06058)" d="M 181.487603 340.604602 
L 181.487603 41.336516 
" style="fill:none;stroke:#1f77b4;stroke-width:1.5;"/>
    <path clip-path="url(#p9a97e06058)" d="M 300.495868 340.604602 
L 300.495868 39.827032 
" style="fill:none;stroke:#1f77b4;stroke-width:1.5;"/>
    <path clip-path="url(#p9a97e06058)" d="M 419.504132 340.604602 
L 419.504132 38.336736 
" style="fill:none;stroke:#1f77b4;stroke-width:1.5;"/>
    <path clip-path="url(#p9a97e06058)" d="M 538.512397 343.623571 
L 538.512397 41.336516 
" style="fill:none;stroke:#1f77b4;stroke-width:1.5;"/>
    <path clip-path="url(#p9a97e06058)" d="M 657.520661 162.235988 
L 657.520661 39.84622 
" style="fill:none;stroke:#1f77b4;stroke-width:1.5;"/>
   </g>
   <g id="patch_3">
    <path d="M 0 360 
L 0 0 
" style="fill:none;stroke:#000000;stroke-linecap:square;stroke-linejoin:miter;stroke-width:0.8;"/>
   </g>
   <g id="patch_4">
    <path d="M 720 360 
L 720 0 
" style="fill:none;stroke:#000000;stroke-linecap:square;stroke-linejoin:miter;stroke-width:0.8;"/>
   </g>
   <g id="patch_5">
    <path d="M 0 360 
L 720 360 
" style="fill:none;stroke:#000000;stroke-linecap:square;stroke-linejoin:miter;stroke-width:0.8;"/>
   </g>
   <g id="patch_6">
    <path d="M 0 0 
L 720 0 
" style="fill:none;stroke:#000000;stroke-linecap:square;stroke-linejoin:miter;stroke-width:0.8;"/>
   </g>
   <g id="text_14">
    <!-- Accuracy for CoDACl and Baseline Methods vs Epochs -->
    <defs>
     <path d="M 37.109375 75.984375 
L 37.109375 68.5 
L 28.515625 68.5 
Q 23.6875 68.5 21.796875 66.546875 
Q 19.921875 64.59375 19.921875 59.515625 
L 19.921875 54.6875 
L 34.71875 54.6875 
L 34.71875 47.703125 
L 19.921875 47.703125 
L 19.921875 0 
L 10.890625 0 
L 10.890625 47.703125 
L 2.296875 47.703125 
L 2.296875 54.6875 
L 10.890625 54.6875 
L 10.890625 58.5 
Q 10.890625 67.625 15.140625 71.796875 
Q 19.390625 75.984375 28.609375 75.984375 
z
" id="DejaVuSans-102"/>
     <path d="M 30.609375 48.390625 
Q 23.390625 48.390625 19.1875 42.75 
Q 14.984375 37.109375 14.984375 27.296875 
Q 14.984375 17.484375 19.15625 11.84375 
Q 23.34375 6.203125 30.609375 6.203125 
Q 37.796875 6.203125 41.984375 11.859375 
Q 46.1875 17.53125 46.1875 27.296875 
Q 46.1875 37.015625 41.984375 42.703125 
Q 37.796875 48.390625 30.609375 48.390625 
z
M 30.609375 56 
Q 42.328125 56 49.015625 48.375 
Q 55.71875 40.765625 55.71875 27.296875 
Q 55.71875 13.875 49.015625 6.21875 
Q 42.328125 -1.421875 30.609375 -1.421875 
Q 18.84375 -1.421875 12.171875 6.21875 
Q 5.515625 13.875 5.515625 27.296875 
Q 5.515625 40.765625 12.171875 48.375 
Q 18.84375 56 30.609375 56 
z
" id="DejaVuSans-111"/>
     <path d="M 64.40625 67.28125 
L 64.40625 56.890625 
Q 59.421875 61.53125 53.78125 63.8125 
Q 48.140625 66.109375 41.796875 66.109375 
Q 29.296875 66.109375 22.65625 58.46875 
Q 16.015625 50.828125 16.015625 36.375 
Q 16.015625 21.96875 22.65625 14.328125 
Q 29.296875 6.6875 41.796875 6.6875 
Q 48.140625 6.6875 53.78125 8.984375 
Q 59.421875 11.28125 64.40625 15.921875 
L 64.40625 5.609375 
Q 59.234375 2.09375 53.4375 0.328125 
Q 47.65625 -1.421875 41.21875 -1.421875 
Q 24.65625 -1.421875 15.125 8.703125 
Q 5.609375 18.84375 5.609375 36.375 
Q 5.609375 53.953125 15.125 64.078125 
Q 24.65625 74.21875 41.21875 74.21875 
Q 47.75 74.21875 53.53125 72.484375 
Q 59.328125 70.75 64.40625 67.28125 
z
" id="DejaVuSans-67"/>
     <path d="M 19.671875 64.796875 
L 19.671875 8.109375 
L 31.59375 8.109375 
Q 46.6875 8.109375 53.6875 14.9375 
Q 60.6875 21.78125 60.6875 36.53125 
Q 60.6875 51.171875 53.6875 57.984375 
Q 46.6875 64.796875 31.59375 64.796875 
z
M 9.8125 72.90625 
L 30.078125 72.90625 
Q 51.265625 72.90625 61.171875 64.09375 
Q 71.09375 55.28125 71.09375 36.53125 
Q 71.09375 17.671875 61.125 8.828125 
Q 51.171875 0 30.078125 0 
L 9.8125 0 
z
" id="DejaVuSans-68"/>
     <path d="M 54.890625 33.015625 
L 54.890625 0 
L 45.90625 0 
L 45.90625 32.71875 
Q 45.90625 40.484375 42.875 44.328125 
Q 39.84375 48.1875 33.796875 48.1875 
Q 26.515625 48.1875 22.3125 43.546875 
Q 18.109375 38.921875 18.109375 30.90625 
L 18.109375 0 
L 9.078125 0 
L 9.078125 54.6875 
L 18.109375 54.6875 
L 18.109375 46.1875 
Q 21.34375 51.125 25.703125 53.5625 
Q 30.078125 56 35.796875 56 
Q 45.21875 56 50.046875 50.171875 
Q 54.890625 44.34375 54.890625 33.015625 
z
" id="DejaVuSans-110"/>
     <path d="M 19.671875 34.8125 
L 19.671875 8.109375 
L 35.5 8.109375 
Q 43.453125 8.109375 47.28125 11.40625 
Q 51.125 14.703125 51.125 21.484375 
Q 51.125 28.328125 47.28125 31.5625 
Q 43.453125 34.8125 35.5 34.8125 
z
M 19.671875 64.796875 
L 19.671875 42.828125 
L 34.28125 42.828125 
Q 41.5 42.828125 45.03125 45.53125 
Q 48.578125 48.25 48.578125 53.8125 
Q 48.578125 59.328125 45.03125 62.0625 
Q 41.5 64.796875 34.28125 64.796875 
z
M 9.8125 72.90625 
L 35.015625 72.90625 
Q 46.296875 72.90625 52.390625 68.21875 
Q 58.5 63.53125 58.5 54.890625 
Q 58.5 48.1875 55.375 44.234375 
Q 52.25 40.28125 46.1875 39.3125 
Q 53.46875 37.75 57.5 32.78125 
Q 61.53125 27.828125 61.53125 20.40625 
Q 61.53125 10.640625 54.890625 5.3125 
Q 48.25 0 35.984375 0 
L 9.8125 0 
z
" id="DejaVuSans-66"/>
     <path d="M 9.421875 54.6875 
L 18.40625 54.6875 
L 18.40625 0 
L 9.421875 0 
z
M 9.421875 75.984375 
L 18.40625 75.984375 
L 18.40625 64.59375 
L 9.421875 64.59375 
z
" id="DejaVuSans-105"/>
     <path d="M 9.8125 72.90625 
L 24.515625 72.90625 
L 43.109375 23.296875 
L 61.8125 72.90625 
L 76.515625 72.90625 
L 76.515625 0 
L 66.890625 0 
L 66.890625 64.015625 
L 48.09375 14.015625 
L 38.1875 14.015625 
L 19.390625 64.015625 
L 19.390625 0 
L 9.8125 0 
z
" id="DejaVuSans-77"/>
     <path d="M 18.3125 70.21875 
L 18.3125 54.6875 
L 36.8125 54.6875 
L 36.8125 47.703125 
L 18.3125 47.703125 
L 18.3125 18.015625 
Q 18.3125 11.328125 20.140625 9.421875 
Q 21.96875 7.515625 27.59375 7.515625 
L 36.8125 7.515625 
L 36.8125 0 
L 27.59375 0 
Q 17.1875 0 13.234375 3.875 
Q 9.28125 7.765625 9.28125 18.015625 
L 9.28125 47.703125 
L 2.6875 47.703125 
L 2.6875 54.6875 
L 9.28125 54.6875 
L 9.28125 70.21875 
z
" id="DejaVuSans-116"/>
     <path d="M 54.890625 33.015625 
L 54.890625 0 
L 45.90625 0 
L 45.90625 32.71875 
Q 45.90625 40.484375 42.875 44.328125 
Q 39.84375 48.1875 33.796875 48.1875 
Q 26.515625 48.1875 22.3125 43.546875 
Q 18.109375 38.921875 18.109375 30.90625 
L 18.109375 0 
L 9.078125 0 
L 9.078125 75.984375 
L 18.109375 75.984375 
L 18.109375 46.1875 
Q 21.34375 51.125 25.703125 53.5625 
Q 30.078125 56 35.796875 56 
Q 45.21875 56 50.046875 50.171875 
Q 54.890625 44.34375 54.890625 33.015625 
z
" id="DejaVuSans-104"/>
     <path d="M 2.984375 54.6875 
L 12.5 54.6875 
L 29.59375 8.796875 
L 46.6875 54.6875 
L 56.203125 54.6875 
L 35.6875 0 
L 23.484375 0 
z
" id="DejaVuSans-118"/>
     <path d="M 9.8125 72.90625 
L 55.90625 72.90625 
L 55.90625 64.59375 
L 19.671875 64.59375 
L 19.671875 43.015625 
L 54.390625 43.015625 
L 54.390625 34.71875 
L 19.671875 34.71875 
L 19.671875 8.296875 
L 56.78125 8.296875 
L 56.78125 0 
L 9.8125 0 
z
" id="DejaVuSans-69"/>
     <path d="M 18.109375 8.203125 
L 18.109375 -20.796875 
L 9.078125 -20.796875 
L 9.078125 54.6875 
L 18.109375 54.6875 
L 18.109375 46.390625 
Q 20.953125 51.265625 25.265625 53.625 
Q 29.59375 56 35.59375 56 
Q 45.5625 56 51.78125 48.09375 
Q 58.015625 40.1875 58.015625 27.296875 
Q 58.015625 14.40625 51.78125 6.484375 
Q 45.5625 -1.421875 35.59375 -1.421875 
Q 29.59375 -1.421875 25.265625 0.953125 
Q 20.953125 3.328125 18.109375 8.203125 
z
M 48.6875 27.296875 
Q 48.6875 37.203125 44.609375 42.84375 
Q 40.53125 48.484375 33.40625 48.484375 
Q 26.265625 48.484375 22.1875 42.84375 
Q 18.109375 37.203125 18.109375 27.296875 
Q 18.109375 17.390625 22.1875 11.75 
Q 26.265625 6.109375 33.40625 6.109375 
Q 40.53125 6.109375 44.609375 11.75 
Q 48.6875 17.390625 48.6875 27.296875 
z
" id="DejaVuSans-112"/>
    </defs>
    <g transform="translate(197.931563 -6)scale(0.12 -0.12)">
     <use xlink:href="#DejaVuSans-65"/>
     <use x="68.392578" xlink:href="#DejaVuSans-99"/>
     <use x="123.373047" xlink:href="#DejaVuSans-99"/>
     <use x="178.353516" xlink:href="#DejaVuSans-117"/>
     <use x="241.732422" xlink:href="#DejaVuSans-114"/>
     <use x="282.845703" xlink:href="#DejaVuSans-97"/>
     <use x="344.125" xlink:href="#DejaVuSans-99"/>
     <use x="399.105469" xlink:href="#DejaVuSans-121"/>
     <use x="458.285156" xlink:href="#DejaVuSans-32"/>
     <use x="490.072266" xlink:href="#DejaVuSans-102"/>
     <use x="525.277344" xlink:href="#DejaVuSans-111"/>
     <use x="586.458984" xlink:href="#DejaVuSans-114"/>
     <use x="627.572266" xlink:href="#DejaVuSans-32"/>
     <use x="659.359375" xlink:href="#DejaVuSans-67"/>
     <use x="729.183594" xlink:href="#DejaVuSans-111"/>
     <use x="790.365234" xlink:href="#DejaVuSans-68"/>
     <use x="867.351562" xlink:href="#DejaVuSans-65"/>
     <use x="935.744141" xlink:href="#DejaVuSans-67"/>
     <use x="1005.568359" xlink:href="#DejaVuSans-108"/>
     <use x="1033.351562" xlink:href="#DejaVuSans-32"/>
     <use x="1065.138672" xlink:href="#DejaVuSans-97"/>
     <use x="1126.417969" xlink:href="#DejaVuSans-110"/>
     <use x="1189.796875" xlink:href="#DejaVuSans-100"/>
     <use x="1253.273438" xlink:href="#DejaVuSans-32"/>
     <use x="1285.060547" xlink:href="#DejaVuSans-66"/>
     <use x="1353.664062" xlink:href="#DejaVuSans-97"/>
     <use x="1414.943359" xlink:href="#DejaVuSans-115"/>
     <use x="1467.042969" xlink:href="#DejaVuSans-101"/>
     <use x="1528.566406" xlink:href="#DejaVuSans-108"/>
     <use x="1556.349609" xlink:href="#DejaVuSans-105"/>
     <use x="1584.132812" xlink:href="#DejaVuSans-110"/>
     <use x="1647.511719" xlink:href="#DejaVuSans-101"/>
     <use x="1709.035156" xlink:href="#DejaVuSans-32"/>
     <use x="1740.822266" xlink:href="#DejaVuSans-77"/>
     <use x="1827.101562" xlink:href="#DejaVuSans-101"/>
     <use x="1888.625" xlink:href="#DejaVuSans-116"/>
     <use x="1927.833984" xlink:href="#DejaVuSans-104"/>
     <use x="1991.212891" xlink:href="#DejaVuSans-111"/>
     <use x="2052.394531" xlink:href="#DejaVuSans-100"/>
     <use x="2115.871094" xlink:href="#DejaVuSans-115"/>
     <use x="2167.970703" xlink:href="#DejaVuSans-32"/>
     <use x="2199.757812" xlink:href="#DejaVuSans-118"/>
     <use x="2258.9375" xlink:href="#DejaVuSans-115"/>
     <use x="2311.037109" xlink:href="#DejaVuSans-32"/>
     <use x="2342.824219" xlink:href="#DejaVuSans-69"/>
     <use x="2406.007812" xlink:href="#DejaVuSans-112"/>
     <use x="2469.484375" xlink:href="#DejaVuSans-111"/>
     <use x="2530.666016" xlink:href="#DejaVuSans-99"/>
     <use x="2585.646484" xlink:href="#DejaVuSans-104"/>
     <use x="2649.025391" xlink:href="#DejaVuSans-115"/>
    </g>
   </g>
   <g id="legend_1">
    <g id="patch_7">
     <path d="M 7 355 
L 201.592188 355 
Q 203.592188 355 203.592188 353 
L 203.592188 295.2875 
Q 203.592188 293.2875 201.592188 293.2875 
L 7 293.2875 
Q 5 293.2875 5 295.2875 
L 5 353 
Q 5 355 7 355 
z
" style="fill:#ffffff;opacity:0.8;stroke:#cccccc;stroke-linejoin:miter;"/>
    </g>
    <g id="PathCollection_5">
     <g>
      <use style="fill:#ff0000;stroke:#ff0000;" x="19" xlink:href="#mfd7802bc87" y="302.260938"/>
     </g>
    </g>
    <g id="text_15">
     <!-- CoDA-PCA + Logistic Regression -->
     <defs>
      <path d="M 4.890625 31.390625 
L 31.203125 31.390625 
L 31.203125 23.390625 
L 4.890625 23.390625 
z
" id="DejaVuSans-45"/>
      <path d="M 19.671875 64.796875 
L 19.671875 37.40625 
L 32.078125 37.40625 
Q 38.96875 37.40625 42.71875 40.96875 
Q 46.484375 44.53125 46.484375 51.125 
Q 46.484375 57.671875 42.71875 61.234375 
Q 38.96875 64.796875 32.078125 64.796875 
z
M 9.8125 72.90625 
L 32.078125 72.90625 
Q 44.34375 72.90625 50.609375 67.359375 
Q 56.890625 61.8125 56.890625 51.125 
Q 56.890625 40.328125 50.609375 34.8125 
Q 44.34375 29.296875 32.078125 29.296875 
L 19.671875 29.296875 
L 19.671875 0 
L 9.8125 0 
z
" id="DejaVuSans-80"/>
      <path d="M 46 62.703125 
L 46 35.5 
L 73.1875 35.5 
L 73.1875 27.203125 
L 46 27.203125 
L 46 0 
L 37.796875 0 
L 37.796875 27.203125 
L 10.59375 27.203125 
L 10.59375 35.5 
L 37.796875 35.5 
L 37.796875 62.703125 
z
" id="DejaVuSans-43"/>
      <path d="M 45.40625 27.984375 
Q 45.40625 37.75 41.375 43.109375 
Q 37.359375 48.484375 30.078125 48.484375 
Q 22.859375 48.484375 18.828125 43.109375 
Q 14.796875 37.75 14.796875 27.984375 
Q 14.796875 18.265625 18.828125 12.890625 
Q 22.859375 7.515625 30.078125 7.515625 
Q 37.359375 7.515625 41.375 12.890625 
Q 45.40625 18.265625 45.40625 27.984375 
z
M 54.390625 6.78125 
Q 54.390625 -7.171875 48.1875 -13.984375 
Q 42 -20.796875 29.203125 -20.796875 
Q 24.46875 -20.796875 20.265625 -20.09375 
Q 16.0625 -19.390625 12.109375 -17.921875 
L 12.109375 -9.1875 
Q 16.0625 -11.328125 19.921875 -12.34375 
Q 23.78125 -13.375 27.78125 -13.375 
Q 36.625 -13.375 41.015625 -8.765625 
Q 45.40625 -4.15625 45.40625 5.171875 
L 45.40625 9.625 
Q 42.625 4.78125 38.28125 2.390625 
Q 33.9375 0 27.875 0 
Q 17.828125 0 11.671875 7.65625 
Q 5.515625 15.328125 5.515625 27.984375 
Q 5.515625 40.671875 11.671875 48.328125 
Q 17.828125 56 27.875 56 
Q 33.9375 56 38.28125 53.609375 
Q 42.625 51.21875 45.40625 46.390625 
L 45.40625 54.6875 
L 54.390625 54.6875 
z
" id="DejaVuSans-103"/>
      <path d="M 44.390625 34.1875 
Q 47.5625 33.109375 50.5625 29.59375 
Q 53.5625 26.078125 56.59375 19.921875 
L 66.609375 0 
L 56 0 
L 46.6875 18.703125 
Q 43.0625 26.03125 39.671875 28.421875 
Q 36.28125 30.8125 30.421875 30.8125 
L 19.671875 30.8125 
L 19.671875 0 
L 9.8125 0 
L 9.8125 72.90625 
L 32.078125 72.90625 
Q 44.578125 72.90625 50.734375 67.671875 
Q 56.890625 62.453125 56.890625 51.90625 
Q 56.890625 45.015625 53.6875 40.46875 
Q 50.484375 35.9375 44.390625 34.1875 
z
M 19.671875 64.796875 
L 19.671875 38.921875 
L 32.078125 38.921875 
Q 39.203125 38.921875 42.84375 42.21875 
Q 46.484375 45.515625 46.484375 51.90625 
Q 46.484375 58.296875 42.84375 61.546875 
Q 39.203125 64.796875 32.078125 64.796875 
z
" id="DejaVuSans-82"/>
     </defs>
     <g transform="translate(37 304.885938)scale(0.1 -0.1)">
      <use xlink:href="#DejaVuSans-67"/>
      <use x="69.824219" xlink:href="#DejaVuSans-111"/>
      <use x="131.005859" xlink:href="#DejaVuSans-68"/>
      <use x="207.992188" xlink:href="#DejaVuSans-65"/>
      <use x="276.369141" xlink:href="#DejaVuSans-45"/>
      <use x="312.453125" xlink:href="#DejaVuSans-80"/>
      <use x="372.755859" xlink:href="#DejaVuSans-67"/>
      <use x="442.580078" xlink:href="#DejaVuSans-65"/>
      <use x="510.988281" xlink:href="#DejaVuSans-32"/>
      <use x="542.775391" xlink:href="#DejaVuSans-43"/>
      <use x="626.564453" xlink:href="#DejaVuSans-32"/>
      <use x="658.351562" xlink:href="#DejaVuSans-76"/>
      <use x="714.048828" xlink:href="#DejaVuSans-111"/>
      <use x="775.230469" xlink:href="#DejaVuSans-103"/>
      <use x="838.707031" xlink:href="#DejaVuSans-105"/>
      <use x="866.490234" xlink:href="#DejaVuSans-115"/>
      <use x="918.589844" xlink:href="#DejaVuSans-116"/>
      <use x="957.798828" xlink:href="#DejaVuSans-105"/>
      <use x="985.582031" xlink:href="#DejaVuSans-99"/>
      <use x="1040.5625" xlink:href="#DejaVuSans-32"/>
      <use x="1072.349609" xlink:href="#DejaVuSans-82"/>
      <use x="1141.769531" xlink:href="#DejaVuSans-101"/>
      <use x="1203.292969" xlink:href="#DejaVuSans-103"/>
      <use x="1266.769531" xlink:href="#DejaVuSans-114"/>
      <use x="1307.851562" xlink:href="#DejaVuSans-101"/>
      <use x="1369.375" xlink:href="#DejaVuSans-115"/>
      <use x="1421.474609" xlink:href="#DejaVuSans-115"/>
      <use x="1473.574219" xlink:href="#DejaVuSans-105"/>
      <use x="1501.357422" xlink:href="#DejaVuSans-111"/>
      <use x="1562.539062" xlink:href="#DejaVuSans-110"/>
     </g>
    </g>
    <g id="PathCollection_6">
     <g>
      <use style="fill:#0000ff;stroke:#0000ff;" x="19" xlink:href="#m608a45641f" y="316.939062"/>
     </g>
    </g>
    <g id="text_16">
     <!-- CLR-PCA + Logistic Regression -->
     <g transform="translate(37 319.564062)scale(0.1 -0.1)">
      <use xlink:href="#DejaVuSans-67"/>
      <use x="69.824219" xlink:href="#DejaVuSans-76"/>
      <use x="125.537109" xlink:href="#DejaVuSans-82"/>
      <use x="194.957031" xlink:href="#DejaVuSans-45"/>
      <use x="231.041016" xlink:href="#DejaVuSans-80"/>
      <use x="291.34375" xlink:href="#DejaVuSans-67"/>
      <use x="361.167969" xlink:href="#DejaVuSans-65"/>
      <use x="429.576172" xlink:href="#DejaVuSans-32"/>
      <use x="461.363281" xlink:href="#DejaVuSans-43"/>
      <use x="545.152344" xlink:href="#DejaVuSans-32"/>
      <use x="576.939453" xlink:href="#DejaVuSans-76"/>
      <use x="632.636719" xlink:href="#DejaVuSans-111"/>
      <use x="693.818359" xlink:href="#DejaVuSans-103"/>
      <use x="757.294922" xlink:href="#DejaVuSans-105"/>
      <use x="785.078125" xlink:href="#DejaVuSans-115"/>
      <use x="837.177734" xlink:href="#DejaVuSans-116"/>
      <use x="876.386719" xlink:href="#DejaVuSans-105"/>
      <use x="904.169922" xlink:href="#DejaVuSans-99"/>
      <use x="959.150391" xlink:href="#DejaVuSans-32"/>
      <use x="990.9375" xlink:href="#DejaVuSans-82"/>
      <use x="1060.357422" xlink:href="#DejaVuSans-101"/>
      <use x="1121.880859" xlink:href="#DejaVuSans-103"/>
      <use x="1185.357422" xlink:href="#DejaVuSans-114"/>
      <use x="1226.439453" xlink:href="#DejaVuSans-101"/>
      <use x="1287.962891" xlink:href="#DejaVuSans-115"/>
      <use x="1340.0625" xlink:href="#DejaVuSans-115"/>
      <use x="1392.162109" xlink:href="#DejaVuSans-105"/>
      <use x="1419.945312" xlink:href="#DejaVuSans-111"/>
      <use x="1481.126953" xlink:href="#DejaVuSans-110"/>
     </g>
    </g>
    <g id="PathCollection_7">
     <g>
      <use style="fill:#008000;stroke:#008000;" x="19" xlink:href="#m0c8dbf9d89" y="331.617188"/>
     </g>
    </g>
    <g id="text_17">
     <!-- PCA + Logistic Regression -->
     <g transform="translate(37 334.242188)scale(0.1 -0.1)">
      <use xlink:href="#DejaVuSans-80"/>
      <use x="60.302734" xlink:href="#DejaVuSans-67"/>
      <use x="130.126953" xlink:href="#DejaVuSans-65"/>
      <use x="198.535156" xlink:href="#DejaVuSans-32"/>
      <use x="230.322266" xlink:href="#DejaVuSans-43"/>
      <use x="314.111328" xlink:href="#DejaVuSans-32"/>
      <use x="345.898438" xlink:href="#DejaVuSans-76"/>
      <use x="401.595703" xlink:href="#DejaVuSans-111"/>
      <use x="462.777344" xlink:href="#DejaVuSans-103"/>
      <use x="526.253906" xlink:href="#DejaVuSans-105"/>
      <use x="554.037109" xlink:href="#DejaVuSans-115"/>
      <use x="606.136719" xlink:href="#DejaVuSans-116"/>
      <use x="645.345703" xlink:href="#DejaVuSans-105"/>
      <use x="673.128906" xlink:href="#DejaVuSans-99"/>
      <use x="728.109375" xlink:href="#DejaVuSans-32"/>
      <use x="759.896484" xlink:href="#DejaVuSans-82"/>
      <use x="829.316406" xlink:href="#DejaVuSans-101"/>
      <use x="890.839844" xlink:href="#DejaVuSans-103"/>
      <use x="954.316406" xlink:href="#DejaVuSans-114"/>
      <use x="995.398438" xlink:href="#DejaVuSans-101"/>
      <use x="1056.921875" xlink:href="#DejaVuSans-115"/>
      <use x="1109.021484" xlink:href="#DejaVuSans-115"/>
      <use x="1161.121094" xlink:href="#DejaVuSans-105"/>
      <use x="1188.904297" xlink:href="#DejaVuSans-111"/>
      <use x="1250.085938" xlink:href="#DejaVuSans-110"/>
     </g>
    </g>
    <g id="PathCollection_8">
     <g>
      <use style="fill:#ffff00;stroke:#ffff00;" x="19" xlink:href="#mf66fc1c23f" y="346.295313"/>
     </g>
    </g>
    <g id="text_18">
     <!-- Logistic Regression -->
     <g transform="translate(37 348.920313)scale(0.1 -0.1)">
      <use xlink:href="#DejaVuSans-76"/>
      <use x="55.697266" xlink:href="#DejaVuSans-111"/>
      <use x="116.878906" xlink:href="#DejaVuSans-103"/>
      <use x="180.355469" xlink:href="#DejaVuSans-105"/>
      <use x="208.138672" xlink:href="#DejaVuSans-115"/>
      <use x="260.238281" xlink:href="#DejaVuSans-116"/>
      <use x="299.447266" xlink:href="#DejaVuSans-105"/>
      <use x="327.230469" xlink:href="#DejaVuSans-99"/>
      <use x="382.210938" xlink:href="#DejaVuSans-32"/>
      <use x="413.998047" xlink:href="#DejaVuSans-82"/>
      <use x="483.417969" xlink:href="#DejaVuSans-101"/>
      <use x="544.941406" xlink:href="#DejaVuSans-103"/>
      <use x="608.417969" xlink:href="#DejaVuSans-114"/>
      <use x="649.5" xlink:href="#DejaVuSans-101"/>
      <use x="711.023438" xlink:href="#DejaVuSans-115"/>
      <use x="763.123047" xlink:href="#DejaVuSans-115"/>
      <use x="815.222656" xlink:href="#DejaVuSans-105"/>
      <use x="843.005859" xlink:href="#DejaVuSans-111"/>
      <use x="904.1875" xlink:href="#DejaVuSans-110"/>
     </g>
    </g>
   </g>
  </g>
 </g>
 <defs>
  <clipPath id="p9a97e06058">
   <rect height="360" width="720" x="0" y="0"/>
  </clipPath>
 </defs>
</svg>
