<?xml version="1.0" encoding="utf-8" standalone="no"?>
<!DOCTYPE svg PUBLIC "-//W3C//DTD SVG 1.1//EN"
  "http://www.w3.org/Graphics/SVG/1.1/DTD/svg11.dtd">
<!-- Created with matplotlib (https://matplotlib.org/) -->
<svg height="360pt" version="1.1" viewBox="0 0 720 360" width="720pt" xmlns="http://www.w3.org/2000/svg" xmlns:xlink="http://www.w3.org/1999/xlink">
 <defs>
  <style type="text/css">
*{stroke-linecap:butt;stroke-linejoin:round;}
  </style>
 </defs>
 <g id="figure_1">
  <g id="patch_1">
   <path d="M 0 360 
L 720 360 
L 720 0 
L 0 0 
z
" style="fill:#ffffff;"/>
  </g>
  <g id="axes_1">
   <g id="patch_2">
    <path d="M 0 360 
L 720 360 
L 720 0 
L 0 0 
z
" style="fill:#ffffff;"/>
   </g>
   <g id="PathCollection_1">
    <defs>
     <path d="M 0 3 
C 0.795609 3 1.55874 2.683901 2.12132 2.12132 
C 2.683901 1.55874 3 0.795609 3 0 
C 3 -0.795609 2.683901 -1.55874 2.12132 -2.12132 
C 1.55874 -2.683901 0.795609 -3 0 -3 
C -0.795609 -3 -1.55874 -2.683901 -2.12132 -2.12132 
C -2.683901 -1.55874 -3 -0.795609 -3 0 
C -3 0.795609 -2.683901 1.55874 -2.12132 2.12132 
C -1.55874 2.683901 -0.795609 3 0 3 
z
" id="mc05db076ab" style="stroke:#ff0000;"/>
    </defs>
    <g clip-path="url(#p2fe98706db)">
     <use style="fill:#ff0000;stroke:#ff0000;" x="54.545455" xlink:href="#mc05db076ab" y="133.661143"/>
     <use style="fill:#ff0000;stroke:#ff0000;" x="141.818182" xlink:href="#mc05db076ab" y="137.391741"/>
     <use style="fill:#ff0000;stroke:#ff0000;" x="229.090909" xlink:href="#mc05db076ab" y="137.227515"/>
     <use style="fill:#ff0000;stroke:#ff0000;" x="316.363636" xlink:href="#mc05db076ab" y="137.527737"/>
     <use style="fill:#ff0000;stroke:#ff0000;" x="403.636364" xlink:href="#mc05db076ab" y="138.649089"/>
     <use style="fill:#ff0000;stroke:#ff0000;" x="490.909091" xlink:href="#mc05db076ab" y="137.20287"/>
     <use style="fill:#ff0000;stroke:#ff0000;" x="578.181818" xlink:href="#mc05db076ab" y="135.296906"/>
     <use style="fill:#ff0000;stroke:#ff0000;" x="665.454545" xlink:href="#mc05db076ab" y="137.811828"/>
    </g>
   </g>
   <g id="PathCollection_2">
    <defs>
     <path d="M 0 3 
C 0.795609 3 1.55874 2.683901 2.12132 2.12132 
C 2.683901 1.55874 3 0.795609 3 0 
C 3 -0.795609 2.683901 -1.55874 2.12132 -2.12132 
C 1.55874 -2.683901 0.795609 -3 0 -3 
C -0.795609 -3 -1.55874 -2.683901 -2.12132 -2.12132 
C -2.683901 -1.55874 -3 -0.795609 -3 0 
C -3 0.795609 -2.683901 1.55874 -2.12132 2.12132 
C -1.55874 2.683901 -0.795609 3 0 3 
z
" id="m088b044b4d" style="stroke:#0000ff;"/>
    </defs>
    <g clip-path="url(#p2fe98706db)">
     <use style="fill:#0000ff;stroke:#0000ff;" x="54.545455" xlink:href="#m088b044b4d" y="88.309435"/>
     <use style="fill:#0000ff;stroke:#0000ff;" x="141.818182" xlink:href="#m088b044b4d" y="88.309435"/>
     <use style="fill:#0000ff;stroke:#0000ff;" x="229.090909" xlink:href="#m088b044b4d" y="88.309435"/>
     <use style="fill:#0000ff;stroke:#0000ff;" x="316.363636" xlink:href="#m088b044b4d" y="88.309435"/>
     <use style="fill:#0000ff;stroke:#0000ff;" x="403.636364" xlink:href="#m088b044b4d" y="88.309435"/>
     <use style="fill:#0000ff;stroke:#0000ff;" x="490.909091" xlink:href="#m088b044b4d" y="88.309435"/>
     <use style="fill:#0000ff;stroke:#0000ff;" x="578.181818" xlink:href="#m088b044b4d" y="88.309435"/>
     <use style="fill:#0000ff;stroke:#0000ff;" x="665.454545" xlink:href="#m088b044b4d" y="88.309435"/>
    </g>
   </g>
   <g id="PathCollection_3">
    <defs>
     <path d="M 0 3 
C 0.795609 3 1.55874 2.683901 2.12132 2.12132 
C 2.683901 1.55874 3 0.795609 3 0 
C 3 -0.795609 2.683901 -1.55874 2.12132 -2.12132 
C 1.55874 -2.683901 0.795609 -3 0 -3 
C -0.795609 -3 -1.55874 -2.683901 -2.12132 -2.12132 
C -2.683901 -1.55874 -3 -0.795609 -3 0 
C -3 0.795609 -2.683901 1.55874 -2.12132 2.12132 
C -1.55874 2.683901 -0.795609 3 0 3 
z
" id="mbbd8107040" style="stroke:#008000;"/>
    </defs>
    <g clip-path="url(#p2fe98706db)">
     <use style="fill:#008000;stroke:#008000;" x="54.545455" xlink:href="#mbbd8107040" y="141.123459"/>
     <use style="fill:#008000;stroke:#008000;" x="141.818182" xlink:href="#mbbd8107040" y="141.123459"/>
     <use style="fill:#008000;stroke:#008000;" x="229.090909" xlink:href="#mbbd8107040" y="141.123459"/>
     <use style="fill:#008000;stroke:#008000;" x="316.363636" xlink:href="#mbbd8107040" y="141.123459"/>
     <use style="fill:#008000;stroke:#008000;" x="403.636364" xlink:href="#mbbd8107040" y="141.123459"/>
     <use style="fill:#008000;stroke:#008000;" x="490.909091" xlink:href="#mbbd8107040" y="141.123459"/>
     <use style="fill:#008000;stroke:#008000;" x="578.181818" xlink:href="#mbbd8107040" y="141.123459"/>
     <use style="fill:#008000;stroke:#008000;" x="665.454545" xlink:href="#mbbd8107040" y="141.123459"/>
    </g>
   </g>
   <g id="PathCollection_4">
    <defs>
     <path d="M 0 3 
C 0.795609 3 1.55874 2.683901 2.12132 2.12132 
C 2.683901 1.55874 3 0.795609 3 0 
C 3 -0.795609 2.683901 -1.55874 2.12132 -2.12132 
C 1.55874 -2.683901 0.795609 -3 0 -3 
C -0.795609 -3 -1.55874 -2.683901 -2.12132 -2.12132 
C -2.683901 -1.55874 -3 -0.795609 -3 0 
C -3 0.795609 -2.683901 1.55874 -2.12132 2.12132 
C -1.55874 2.683901 -0.795609 3 0 3 
z
" id="m4ee3de7b26" style="stroke:#ffff00;"/>
    </defs>
    <g clip-path="url(#p2fe98706db)">
     <use style="fill:#ffff00;stroke:#ffff00;" x="54.545455" xlink:href="#m4ee3de7b26" y="175.999426"/>
     <use style="fill:#ffff00;stroke:#ffff00;" x="141.818182" xlink:href="#m4ee3de7b26" y="175.999426"/>
     <use style="fill:#ffff00;stroke:#ffff00;" x="229.090909" xlink:href="#m4ee3de7b26" y="175.999426"/>
     <use style="fill:#ffff00;stroke:#ffff00;" x="316.363636" xlink:href="#m4ee3de7b26" y="175.999426"/>
     <use style="fill:#ffff00;stroke:#ffff00;" x="403.636364" xlink:href="#m4ee3de7b26" y="175.999426"/>
     <use style="fill:#ffff00;stroke:#ffff00;" x="490.909091" xlink:href="#m4ee3de7b26" y="175.999426"/>
     <use style="fill:#ffff00;stroke:#ffff00;" x="578.181818" xlink:href="#m4ee3de7b26" y="175.999426"/>
     <use style="fill:#ffff00;stroke:#ffff00;" x="665.454545" xlink:href="#m4ee3de7b26" y="175.999426"/>
    </g>
   </g>
   <g id="PolyCollection_1">
    <path clip-path="url(#p2fe98706db)" d="M 59.07423 334.60281 
L 50.016679 334.60281 
L 49.445455 331.527101 
L 48.834774 328.451391 
L 48.186247 325.375681 
L 47.503054 322.299971 
L 46.790227 319.224262 
L 46.054777 316.148552 
L 45.30561 313.072842 
L 44.553201 309.997132 
L 43.80903 306.921422 
L 43.084831 303.845713 
L 42.391725 300.770003 
L 41.739329 297.694293 
L 41.134954 294.618583 
L 40.582987 291.542874 
L 40.084533 288.467164 
L 39.637371 285.391454 
L 39.236223 282.315744 
L 38.873307 279.240034 
L 38.539116 276.164325 
L 38.223327 273.088615 
L 37.915747 270.012905 
L 37.607193 266.937195 
L 37.290229 263.861486 
L 36.959699 260.785776 
L 36.613013 257.710066 
L 36.2502 254.634356 
L 35.873746 251.558646 
L 35.48825 248.482937 
L 35.09998 245.407227 
L 34.716369 242.331517 
L 34.345511 239.255807 
L 33.995708 236.180098 
L 33.675077 233.104388 
L 33.391236 230.028678 
L 33.151056 226.952968 
L 32.960455 223.877258 
L 32.824219 220.801549 
L 32.745825 217.725839 
L 32.727273 214.650129 
L 32.768914 211.574419 
L 32.869321 208.498709 
L 33.025214 205.423 
L 33.231492 202.34729 
L 33.48139 199.27158 
L 33.766773 196.19587 
L 34.078578 193.120161 
L 34.407347 190.044451 
L 34.743816 186.968741 
L 35.079495 183.893031 
L 35.407149 180.817321 
L 35.721146 177.741612 
L 36.017607 174.665902 
L 36.294357 171.590192 
L 36.550697 168.514482 
L 36.787043 165.438773 
L 37.004515 162.363063 
L 37.204541 159.287353 
L 37.38858 156.211643 
L 37.557999 153.135933 
L 37.71415 150.060224 
L 37.858623 146.984514 
L 37.99364 143.908804 
L 38.122488 140.833094 
L 38.249921 137.757385 
L 38.382399 134.681675 
L 38.528102 131.605965 
L 38.696658 128.530255 
L 38.898572 125.454545 
L 39.144416 122.378836 
L 39.443841 119.303126 
L 39.804556 116.227416 
L 40.231384 113.151706 
L 40.725548 110.075997 
L 41.284274 107.000287 
L 41.900789 103.924577 
L 42.564703 100.848867 
L 43.262765 97.773157 
L 43.979882 94.697448 
L 44.700283 91.621738 
L 45.408716 88.546028 
L 46.09152 85.470318 
L 46.737498 82.394609 
L 47.338486 79.318899 
L 47.88962 76.243189 
L 48.38928 73.167479 
L 48.83878 70.091769 
L 49.241847 67.01606 
L 49.603978 63.94035 
L 49.931751 60.86464 
L 50.232157 57.78893 
L 50.512005 54.713221 
L 50.777438 51.637511 
L 51.033583 48.561801 
L 51.284328 45.486091 
L 51.532229 42.410381 
L 51.778537 39.334672 
L 52.023303 36.258962 
L 52.265573 33.183252 
L 52.503612 30.107542 
L 56.587297 30.107542 
L 56.587297 30.107542 
L 56.825336 33.183252 
L 57.067606 36.258962 
L 57.312372 39.334672 
L 57.55868 42.410381 
L 57.806581 45.486091 
L 58.057326 48.561801 
L 58.313471 51.637511 
L 58.578905 54.713221 
L 58.858752 57.78893 
L 59.159158 60.86464 
L 59.486931 63.94035 
L 59.849062 67.01606 
L 60.252129 70.091769 
L 60.701629 73.167479 
L 61.201289 76.243189 
L 61.752423 79.318899 
L 62.353411 82.394609 
L 62.999389 85.470318 
L 63.682194 88.546028 
L 64.390626 91.621738 
L 65.111027 94.697448 
L 65.828144 97.773157 
L 66.526207 100.848867 
L 67.190121 103.924577 
L 67.806635 107.000287 
L 68.365361 110.075997 
L 68.859525 113.151706 
L 69.286353 116.227416 
L 69.647068 119.303126 
L 69.946493 122.378836 
L 70.192337 125.454545 
L 70.394252 128.530255 
L 70.562807 131.605965 
L 70.70851 134.681675 
L 70.840988 137.757385 
L 70.968421 140.833094 
L 71.097269 143.908804 
L 71.232286 146.984514 
L 71.376759 150.060224 
L 71.53291 153.135933 
L 71.702329 156.211643 
L 71.886368 159.287353 
L 72.086394 162.363063 
L 72.303866 165.438773 
L 72.540212 168.514482 
L 72.796552 171.590192 
L 73.073302 174.665902 
L 73.369763 177.741612 
L 73.68376 180.817321 
L 74.011414 183.893031 
L 74.347093 186.968741 
L 74.683562 190.044451 
L 75.012331 193.120161 
L 75.324136 196.19587 
L 75.609519 199.27158 
L 75.859417 202.34729 
L 76.065695 205.423 
L 76.221588 208.498709 
L 76.321995 211.574419 
L 76.363636 214.650129 
L 76.345084 217.725839 
L 76.266691 220.801549 
L 76.130454 223.877258 
L 75.939853 226.952968 
L 75.699673 230.028678 
L 75.415832 233.104388 
L 75.095201 236.180098 
L 74.745398 239.255807 
L 74.37454 242.331517 
L 73.990929 245.407227 
L 73.602659 248.482937 
L 73.217163 251.558646 
L 72.840709 254.634356 
L 72.477896 257.710066 
L 72.13121 260.785776 
L 71.80068 263.861486 
L 71.483716 266.937195 
L 71.175162 270.012905 
L 70.867582 273.088615 
L 70.551793 276.164325 
L 70.217602 279.240034 
L 69.854686 282.315744 
L 69.453538 285.391454 
L 69.006376 288.467164 
L 68.507922 291.542874 
L 67.955955 294.618583 
L 67.35158 297.694293 
L 66.699184 300.770003 
L 66.006078 303.845713 
L 65.281879 306.921422 
L 64.537708 309.997132 
L 63.785299 313.072842 
L 63.036132 316.148552 
L 62.300682 319.224262 
L 61.587855 322.299971 
L 60.904662 325.375681 
L 60.256136 328.451391 
L 59.645454 331.527101 
L 59.07423 334.60281 
z
" style="fill:#1f77b4;fill-opacity:0.3;"/>
   </g>
   <g id="PolyCollection_2">
    <path clip-path="url(#p2fe98706db)" d="M 147.168212 334.60281 
L 136.468151 334.60281 
L 135.894191 331.662017 
L 135.277882 328.721224 
L 134.614673 325.780431 
L 133.900691 322.839638 
L 133.133493 319.898845 
L 132.312797 316.958052 
L 131.441105 314.017259 
L 130.524133 311.076466 
L 129.570961 308.135673 
L 128.593875 305.19488 
L 127.607888 302.254087 
L 126.629957 299.313294 
L 125.677989 296.3725 
L 124.769701 293.431707 
L 123.921467 290.490914 
L 123.147267 287.550121 
L 122.457826 284.609328 
L 121.860045 281.668535 
L 121.356752 278.727742 
L 120.946794 275.786949 
L 120.625421 272.846156 
L 120.384922 269.905363 
L 120.215401 266.96457 
L 120.105629 264.023777 
L 120.043856 261.082984 
L 120.018534 258.14219 
L 120.018882 255.201397 
L 120.035301 252.260604 
L 120.059607 249.319811 
L 120.085149 246.379018 
L 120.106825 243.438225 
L 120.121048 240.497432 
L 120.125695 237.556639 
L 120.120064 234.615846 
L 120.104842 231.675053 
L 120.082078 228.73426 
L 120.055132 225.793467 
L 120.028583 222.852674 
L 120.008062 219.91188 
L 120 216.971087 
L 120.011288 214.030294 
L 120.048865 211.089501 
L 120.119254 208.148708 
L 120.228107 205.207915 
L 120.379779 202.267122 
L 120.576987 199.326329 
L 120.820594 196.385536 
L 121.109511 193.444743 
L 121.440756 190.50395 
L 121.809623 187.563157 
L 122.209966 184.622364 
L 122.634542 181.681571 
L 123.0754 178.740777 
L 123.524267 175.799984 
L 123.972915 172.859191 
L 124.413499 169.918398 
L 124.838847 166.977605 
L 125.242712 164.036812 
L 125.619983 161.096019 
L 125.966868 158.155226 
L 126.281046 155.214433 
L 126.561788 152.27364 
L 126.810047 149.332847 
L 127.028492 146.392054 
L 127.221489 143.451261 
L 127.395002 140.510467 
L 127.556406 137.569674 
L 127.714207 134.628881 
L 127.877659 131.688088 
L 128.056298 128.747295 
L 128.259414 125.806502 
L 128.495468 122.865709 
L 128.771526 119.924916 
L 129.092722 116.984123 
L 129.461818 114.04333 
L 129.878893 111.102537 
L 130.341204 108.161744 
L 130.843238 105.220951 
L 131.376977 102.280157 
L 131.932349 99.339364 
L 132.497857 96.398571 
L 133.06133 93.457778 
L 133.610741 90.516985 
L 134.135028 87.576192 
L 134.624843 84.635399 
L 135.073176 81.694606 
L 135.475785 78.753813 
L 135.831406 75.81302 
L 136.141729 72.872227 
L 136.411135 69.931434 
L 136.646224 66.990641 
L 136.855188 64.049847 
L 137.047076 61.109054 
L 137.231023 58.168261 
L 137.415519 55.227468 
L 137.607765 52.286675 
L 137.813185 49.345882 
L 138.035119 46.405089 
L 138.274713 43.464296 
L 145.36165 43.464296 
L 145.36165 43.464296 
L 145.601244 46.405089 
L 145.823179 49.345882 
L 146.028599 52.286675 
L 146.220845 55.227468 
L 146.40534 58.168261 
L 146.589288 61.109054 
L 146.781176 64.049847 
L 146.99014 66.990641 
L 147.225229 69.931434 
L 147.494635 72.872227 
L 147.804958 75.81302 
L 148.160579 78.753813 
L 148.563187 81.694606 
L 149.01152 84.635399 
L 149.501336 87.576192 
L 150.025622 90.516985 
L 150.575033 93.457778 
L 151.138506 96.398571 
L 151.704014 99.339364 
L 152.259386 102.280157 
L 152.793125 105.220951 
L 153.29516 108.161744 
L 153.757471 111.102537 
L 154.174546 114.04333 
L 154.543642 116.984123 
L 154.864838 119.924916 
L 155.140895 122.865709 
L 155.37695 125.806502 
L 155.580065 128.747295 
L 155.758705 131.688088 
L 155.922156 134.628881 
L 156.079957 137.569674 
L 156.241362 140.510467 
L 156.414875 143.451261 
L 156.607872 146.392054 
L 156.826317 149.332847 
L 157.074575 152.27364 
L 157.355318 155.214433 
L 157.669495 158.155226 
L 158.01638 161.096019 
L 158.393651 164.036812 
L 158.797516 166.977605 
L 159.222865 169.918398 
L 159.663449 172.859191 
L 160.112097 175.799984 
L 160.560963 178.740777 
L 161.001822 181.681571 
L 161.426398 184.622364 
L 161.826741 187.563157 
L 162.195608 190.50395 
L 162.526852 193.444743 
L 162.81577 196.385536 
L 163.059376 199.326329 
L 163.256585 202.267122 
L 163.408256 205.207915 
L 163.517109 208.148708 
L 163.587499 211.089501 
L 163.625075 214.030294 
L 163.636364 216.971087 
L 163.628302 219.91188 
L 163.60778 222.852674 
L 163.581231 225.793467 
L 163.554286 228.73426 
L 163.531521 231.675053 
L 163.5163 234.615846 
L 163.510668 237.556639 
L 163.515315 240.497432 
L 163.529538 243.438225 
L 163.551215 246.379018 
L 163.576757 249.319811 
L 163.601063 252.260604 
L 163.617481 255.201397 
L 163.61783 258.14219 
L 163.592507 261.082984 
L 163.530734 264.023777 
L 163.420962 266.96457 
L 163.251442 269.905363 
L 163.010942 272.846156 
L 162.68957 275.786949 
L 162.279612 278.727742 
L 161.776319 281.668535 
L 161.178537 284.609328 
L 160.489096 287.550121 
L 159.714896 290.490914 
L 158.866663 293.431707 
L 157.958375 296.3725 
L 157.006406 299.313294 
L 156.028476 302.254087 
L 155.042488 305.19488 
L 154.065403 308.135673 
L 153.112231 311.076466 
L 152.195259 314.017259 
L 151.323567 316.958052 
L 150.50287 319.898845 
L 149.735672 322.839638 
L 149.021691 325.780431 
L 148.358482 328.721224 
L 147.742173 331.662017 
L 147.168212 334.60281 
z
" style="fill:#1f77b4;fill-opacity:0.3;"/>
   </g>
   <g id="PolyCollection_3">
    <path clip-path="url(#p2fe98706db)" d="M 233.868503 334.60281 
L 224.313315 334.60281 
L 223.711431 331.572073 
L 223.079935 328.541335 
L 222.422333 325.510598 
L 221.742399 322.47986 
L 221.04417 319.449123 
L 220.331965 316.418385 
L 219.610382 313.387648 
L 218.88427 310.35691 
L 218.15864 307.326173 
L 217.438517 304.295435 
L 216.728709 301.264697 
L 216.033549 298.23396 
L 215.356607 295.203222 
L 214.700449 292.172485 
L 214.066485 289.141747 
L 213.45495 286.11101 
L 212.86505 283.080272 
L 212.295293 280.049535 
L 211.743951 277.018797 
L 211.209622 273.98806 
L 210.691801 270.957322 
L 210.19137 267.926584 
L 209.710927 264.895847 
L 209.254868 261.865109 
L 208.829212 258.834372 
L 208.441157 255.803634 
L 208.098415 252.772897 
L 207.808426 249.742159 
L 207.577538 246.711422 
L 207.410278 243.680684 
L 207.308823 240.649947 
L 207.272727 237.619209 
L 207.298956 234.588471 
L 207.382217 231.557734 
L 207.515525 228.526996 
L 207.690938 225.496259 
L 207.900333 222.465521 
L 208.136145 219.434784 
L 208.391951 216.404046 
L 208.662852 213.373309 
L 208.9456 210.342571 
L 209.238499 207.311834 
L 209.541088 204.281096 
L 209.853692 201.250358 
L 210.176904 198.219621 
L 210.511068 195.188883 
L 210.855841 192.158146 
L 211.209867 189.127408 
L 211.570598 186.096671 
L 211.934259 183.065933 
L 212.29595 180.035196 
L 212.64986 177.004458 
L 212.989565 173.973721 
L 213.308383 170.942983 
L 213.599776 167.912245 
L 213.85776 164.881508 
L 214.077343 161.85077 
L 214.254945 158.820033 
L 214.388809 155.789295 
L 214.479357 152.758558 
L 214.529476 149.72782 
L 214.544677 146.697083 
L 214.533106 143.666345 
L 214.505345 140.635608 
L 214.474014 137.60487 
L 214.453148 134.574132 
L 214.45739 131.543395 
L 214.501036 128.512657 
L 214.597037 125.48192 
L 214.756012 122.451182 
L 214.985398 119.420445 
L 215.288825 116.389707 
L 215.665765 113.35897 
L 216.111534 110.328232 
L 216.617626 107.297495 
L 217.172365 104.266757 
L 217.761814 101.23602 
L 218.370841 98.205282 
L 218.984259 95.174544 
L 219.587915 92.143807 
L 220.169635 89.113069 
L 220.719955 86.082332 
L 221.232566 83.051594 
L 221.704472 80.020857 
L 222.13585 76.990119 
L 222.529653 73.959382 
L 222.891015 70.928644 
L 223.22653 67.897907 
L 223.54347 64.867169 
L 223.849036 61.836431 
L 224.149688 58.805694 
L 224.450621 55.774956 
L 224.755416 52.744219 
L 225.065868 49.713481 
L 225.382005 46.682744 
L 225.702256 43.652006 
L 226.023753 40.621269 
L 226.342705 37.590531 
L 226.654813 34.559794 
L 231.527005 34.559794 
L 231.527005 34.559794 
L 231.839113 37.590531 
L 232.158065 40.621269 
L 232.479562 43.652006 
L 232.799814 46.682744 
L 233.11595 49.713481 
L 233.426402 52.744219 
L 233.731197 55.774956 
L 234.032131 58.805694 
L 234.332782 61.836431 
L 234.638348 64.867169 
L 234.955288 67.897907 
L 235.290803 70.928644 
L 235.652165 73.959382 
L 236.045968 76.990119 
L 236.477346 80.020857 
L 236.949253 83.051594 
L 237.461864 86.082332 
L 238.012183 89.113069 
L 238.593903 92.143807 
L 239.197559 95.174544 
L 239.810977 98.205282 
L 240.420004 101.23602 
L 241.009453 104.266757 
L 241.564192 107.297495 
L 242.070284 110.328232 
L 242.516054 113.35897 
L 242.892994 116.389707 
L 243.19642 119.420445 
L 243.425807 122.451182 
L 243.584781 125.48192 
L 243.680782 128.512657 
L 243.724429 131.543395 
L 243.72867 134.574132 
L 243.707804 137.60487 
L 243.676474 140.635608 
L 243.648712 143.666345 
L 243.637141 146.697083 
L 243.652343 149.72782 
L 243.702461 152.758558 
L 243.793009 155.789295 
L 243.926873 158.820033 
L 244.104475 161.85077 
L 244.324058 164.881508 
L 244.582043 167.912245 
L 244.873435 170.942983 
L 245.192253 173.973721 
L 245.531958 177.004458 
L 245.885868 180.035196 
L 246.247559 183.065933 
L 246.61122 186.096671 
L 246.971951 189.127408 
L 247.325977 192.158146 
L 247.67075 195.188883 
L 248.004914 198.219621 
L 248.328126 201.250358 
L 248.64073 204.281096 
L 248.943319 207.311834 
L 249.236218 210.342571 
L 249.518967 213.373309 
L 249.789867 216.404046 
L 250.045673 219.434784 
L 250.281485 222.465521 
L 250.49088 225.496259 
L 250.666293 228.526996 
L 250.799602 231.557734 
L 250.882862 234.588471 
L 250.909091 237.619209 
L 250.872995 240.649947 
L 250.77154 243.680684 
L 250.604281 246.711422 
L 250.373392 249.742159 
L 250.083403 252.772897 
L 249.740662 255.803634 
L 249.352606 258.834372 
L 248.92695 261.865109 
L 248.470891 264.895847 
L 247.990448 267.926584 
L 247.490018 270.957322 
L 246.972196 273.98806 
L 246.437867 277.018797 
L 245.886525 280.049535 
L 245.316768 283.080272 
L 244.726869 286.11101 
L 244.115333 289.141747 
L 243.481369 292.172485 
L 242.825212 295.203222 
L 242.148269 298.23396 
L 241.453109 301.264697 
L 240.743301 304.295435 
L 240.023178 307.326173 
L 239.297549 310.35691 
L 238.571436 313.387648 
L 237.849853 316.418385 
L 237.137648 319.449123 
L 236.439419 322.47986 
L 235.759485 325.510598 
L 235.101884 328.541335 
L 234.470387 331.572073 
L 233.868503 334.60281 
z
" style="fill:#1f77b4;fill-opacity:0.3;"/>
   </g>
   <g id="PolyCollection_4">
    <path clip-path="url(#p2fe98706db)" d="M 337.34878 339.119587 
L 295.378493 339.119587 
L 294.898732 336.043877 
L 294.620836 332.968167 
L 294.545455 329.892458 
L 294.665937 326.816748 
L 294.968756 323.741038 
L 295.434311 320.665328 
L 296.03805 317.589619 
L 296.751822 314.513909 
L 297.545349 311.438199 
L 298.387718 308.362489 
L 299.248782 305.286779 
L 300.100394 302.21107 
L 300.917394 299.13536 
L 301.678325 296.05965 
L 302.365856 292.98394 
L 302.96692 289.908231 
L 303.472614 286.832521 
L 303.877894 283.756811 
L 304.18113 280.681101 
L 304.383581 277.605391 
L 304.488837 274.529682 
L 304.502284 271.453972 
L 304.430618 268.378262 
L 304.28144 265.302552 
L 304.062927 262.226843 
L 303.783595 259.151133 
L 303.452128 256.075423 
L 303.077265 252.999713 
L 302.66772 249.924003 
L 302.232122 246.848294 
L 301.778954 243.772584 
L 301.316476 240.696874 
L 300.852636 237.621164 
L 300.394947 234.545455 
L 299.950362 231.469745 
L 299.525124 228.394035 
L 299.124629 225.318325 
L 298.753295 222.242615 
L 298.414463 219.166906 
L 298.110332 216.091196 
L 297.841946 213.015486 
L 297.60923 209.939776 
L 297.411088 206.864067 
L 297.245543 203.788357 
L 297.109936 200.712647 
L 297.001154 197.636937 
L 296.915886 194.561227 
L 296.850884 191.485518 
L 296.80322 188.409808 
L 296.770519 185.334098 
L 296.751152 182.258388 
L 296.744382 179.182679 
L 296.750441 176.106969 
L 296.770546 173.031259 
L 296.806847 169.955549 
L 296.862306 166.879839 
L 296.940516 163.80413 
L 297.045483 160.72842 
L 297.181361 157.65271 
L 297.352189 154.577 
L 297.561612 151.501291 
L 297.812637 148.425581 
L 298.107414 145.349871 
L 298.447066 142.274161 
L 298.83158 139.198451 
L 299.259744 136.122742 
L 299.729164 133.047032 
L 300.236324 129.971322 
L 300.776699 126.895612 
L 301.344916 123.819902 
L 301.934937 120.744193 
L 302.540268 117.668483 
L 303.154176 114.592773 
L 303.769904 111.517063 
L 304.380882 108.441354 
L 304.980918 105.365644 
L 305.564374 102.289934 
L 306.126317 99.214224 
L 306.662641 96.138514 
L 307.170168 93.062805 
L 307.646708 89.987095 
L 308.091092 86.911385 
L 308.503176 83.835675 
L 308.883797 80.759966 
L 309.234706 77.684256 
L 309.55846 74.608546 
L 309.858286 71.532836 
L 310.137912 68.457126 
L 310.401385 65.381417 
L 310.652872 62.305707 
L 310.896453 59.229997 
L 311.135934 56.154287 
L 311.374663 53.078578 
L 311.615387 50.002868 
L 311.860133 46.927158 
L 312.110143 43.851448 
L 312.365847 40.775738 
L 312.626887 37.700029 
L 312.892177 34.624319 
L 319.835096 34.624319 
L 319.835096 34.624319 
L 320.100386 37.700029 
L 320.361425 40.775738 
L 320.61713 43.851448 
L 320.86714 46.927158 
L 321.111886 50.002868 
L 321.352609 53.078578 
L 321.591339 56.154287 
L 321.830819 59.229997 
L 322.074401 62.305707 
L 322.325887 65.381417 
L 322.589361 68.457126 
L 322.868987 71.532836 
L 323.168813 74.608546 
L 323.492567 77.684256 
L 323.843476 80.759966 
L 324.224097 83.835675 
L 324.636181 86.911385 
L 325.080565 89.987095 
L 325.557104 93.062805 
L 326.064631 96.138514 
L 326.600956 99.214224 
L 327.162898 102.289934 
L 327.746354 105.365644 
L 328.34639 108.441354 
L 328.957368 111.517063 
L 329.573097 114.592773 
L 330.187005 117.668483 
L 330.792336 120.744193 
L 331.382357 123.819902 
L 331.950574 126.895612 
L 332.490949 129.971322 
L 332.998109 133.047032 
L 333.467529 136.122742 
L 333.895693 139.198451 
L 334.280206 142.274161 
L 334.619859 145.349871 
L 334.914636 148.425581 
L 335.165661 151.501291 
L 335.375084 154.577 
L 335.545911 157.65271 
L 335.68179 160.72842 
L 335.786757 163.80413 
L 335.864967 166.879839 
L 335.920426 169.955549 
L 335.956727 173.031259 
L 335.976832 176.106969 
L 335.982891 179.182679 
L 335.97612 182.258388 
L 335.956754 185.334098 
L 335.924053 188.409808 
L 335.876389 191.485518 
L 335.811386 194.561227 
L 335.726118 197.636937 
L 335.617337 200.712647 
L 335.48173 203.788357 
L 335.316185 206.864067 
L 335.118042 209.939776 
L 334.885327 213.015486 
L 334.616941 216.091196 
L 334.31281 219.166906 
L 333.973978 222.242615 
L 333.602644 225.318325 
L 333.202149 228.394035 
L 332.776911 231.469745 
L 332.332325 234.545455 
L 331.874637 237.621164 
L 331.410796 240.696874 
L 330.948319 243.772584 
L 330.495151 246.848294 
L 330.059553 249.924003 
L 329.650008 252.999713 
L 329.275145 256.075423 
L 328.943678 259.151133 
L 328.664346 262.226843 
L 328.445833 265.302552 
L 328.296654 268.378262 
L 328.224989 271.453972 
L 328.238436 274.529682 
L 328.343692 277.605391 
L 328.546143 280.681101 
L 328.849379 283.756811 
L 329.254659 286.832521 
L 329.760353 289.908231 
L 330.361417 292.98394 
L 331.048948 296.05965 
L 331.809879 299.13536 
L 332.626879 302.21107 
L 333.47849 305.286779 
L 334.339555 308.362489 
L 335.181924 311.438199 
L 335.975451 314.513909 
L 336.689222 317.589619 
L 337.292961 320.665328 
L 337.758516 323.741038 
L 338.061335 326.816748 
L 338.181818 329.892458 
L 338.106437 332.968167 
L 337.828541 336.043877 
L 337.34878 339.119587 
z
" style="fill:#1f77b4;fill-opacity:0.3;"/>
   </g>
   <g id="PolyCollection_5">
    <path clip-path="url(#p2fe98706db)" d="M 425.256806 334.60281 
L 382.015921 334.60281 
L 381.818182 331.388273 
L 381.832396 328.173736 
L 382.049169 324.959199 
L 382.451815 321.744662 
L 383.017334 318.530125 
L 383.717725 315.315588 
L 384.521542 312.101051 
L 385.395574 308.886514 
L 386.30653 305.671976 
L 387.222616 302.457439 
L 388.114914 299.242902 
L 388.958486 296.028365 
L 389.733151 292.813828 
L 390.423923 289.599291 
L 391.021116 286.384754 
L 391.520136 283.170217 
L 391.921022 279.95568 
L 392.227777 276.741142 
L 392.447568 273.526605 
L 392.589851 270.312068 
L 392.665483 267.097531 
L 392.68588 263.882994 
L 392.662258 260.668457 
L 392.604993 257.45392 
L 392.523125 254.239383 
L 392.424008 251.024846 
L 392.313119 247.810308 
L 392.194002 244.595771 
L 392.068346 241.381234 
L 391.936176 238.166697 
L 391.796118 234.95216 
L 391.645737 231.737623 
L 391.481905 228.523086 
L 391.30119 225.308549 
L 391.100232 222.094012 
L 390.876104 218.879474 
L 390.626634 215.664937 
L 390.350676 212.4504 
L 390.048331 209.235863 
L 389.721101 206.021326 
L 389.371972 202.806789 
L 389.00543 199.592252 
L 388.627401 196.377715 
L 388.245115 193.163178 
L 387.866904 189.94864 
L 387.50193 186.734103 
L 387.159864 183.519566 
L 386.850517 180.305029 
L 386.583448 177.090492 
L 386.367566 173.875955 
L 386.210748 170.661418 
L 386.119491 167.446881 
L 386.098619 164.232344 
L 386.151072 161.017806 
L 386.277771 157.803269 
L 386.477586 154.588732 
L 386.747398 151.374195 
L 387.082249 148.159658 
L 387.475579 144.945121 
L 387.919524 141.730584 
L 388.405268 138.516047 
L 388.923417 135.30151 
L 389.464382 132.086972 
L 390.018741 128.872435 
L 390.57758 125.657898 
L 391.132778 122.443361 
L 391.677236 119.228824 
L 392.205044 116.014287 
L 392.711584 112.79975 
L 393.193563 109.585213 
L 393.648992 106.370675 
L 394.077117 103.156138 
L 394.478299 99.941601 
L 394.853871 96.727064 
L 395.205966 93.512527 
L 395.537341 90.29799 
L 395.851187 87.083453 
L 396.150949 83.868916 
L 396.440148 80.654379 
L 396.722223 77.439841 
L 397.000379 74.225304 
L 397.277467 71.010767 
L 397.555872 67.79623 
L 397.837436 64.581693 
L 398.123398 61.367156 
L 398.41437 58.152619 
L 398.710329 54.938082 
L 399.010652 51.723545 
L 399.31416 48.509007 
L 399.619203 45.29447 
L 399.923753 42.079933 
L 400.225516 38.865396 
L 400.522053 35.650859 
L 400.810901 32.436322 
L 401.089688 29.221785 
L 401.356238 26.007248 
L 401.608657 22.792711 
L 401.8454 19.578173 
L 402.065309 16.363636 
L 405.207419 16.363636 
L 405.207419 16.363636 
L 405.427328 19.578173 
L 405.66407 22.792711 
L 405.916489 26.007248 
L 406.183039 29.221785 
L 406.461826 32.436322 
L 406.750674 35.650859 
L 407.047211 38.865396 
L 407.348974 42.079933 
L 407.653524 45.29447 
L 407.958567 48.509007 
L 408.262075 51.723545 
L 408.562398 54.938082 
L 408.858357 58.152619 
L 409.149329 61.367156 
L 409.435292 64.581693 
L 409.716855 67.79623 
L 409.99526 71.010767 
L 410.272348 74.225304 
L 410.550504 77.439841 
L 410.832579 80.654379 
L 411.121778 83.868916 
L 411.42154 87.083453 
L 411.735386 90.29799 
L 412.066761 93.512527 
L 412.418857 96.727064 
L 412.794428 99.941601 
L 413.19561 103.156138 
L 413.623735 106.370675 
L 414.079165 109.585213 
L 414.561143 112.79975 
L 415.067683 116.014287 
L 415.595491 119.228824 
L 416.139949 122.443361 
L 416.695147 125.657898 
L 417.253986 128.872435 
L 417.808346 132.086972 
L 418.34931 135.30151 
L 418.867459 138.516047 
L 419.353204 141.730584 
L 419.797149 144.945121 
L 420.190478 148.159658 
L 420.525329 151.374195 
L 420.795141 154.588732 
L 420.994956 157.803269 
L 421.121655 161.017806 
L 421.174108 164.232344 
L 421.153236 167.446881 
L 421.061979 170.661418 
L 420.905161 173.875955 
L 420.68928 177.090492 
L 420.422211 180.305029 
L 420.112863 183.519566 
L 419.770797 186.734103 
L 419.405824 189.94864 
L 419.027612 193.163178 
L 418.645326 196.377715 
L 418.267297 199.592252 
L 417.900755 202.806789 
L 417.551626 206.021326 
L 417.224396 209.235863 
L 416.922052 212.4504 
L 416.646093 215.664937 
L 416.396623 218.879474 
L 416.172495 222.094012 
L 415.971537 225.308549 
L 415.790822 228.523086 
L 415.626991 231.737623 
L 415.47661 234.95216 
L 415.336551 238.166697 
L 415.204381 241.381234 
L 415.078726 244.595771 
L 414.959608 247.810308 
L 414.848719 251.024846 
L 414.749603 254.239383 
L 414.667734 257.45392 
L 414.61047 260.668457 
L 414.586847 263.882994 
L 414.607244 267.097531 
L 414.682876 270.312068 
L 414.825159 273.526605 
L 415.04495 276.741142 
L 415.351705 279.95568 
L 415.752591 283.170217 
L 416.251612 286.384754 
L 416.848804 289.599291 
L 417.539577 292.813828 
L 418.314242 296.028365 
L 419.157814 299.242902 
L 420.050112 302.457439 
L 420.966197 305.671976 
L 421.877153 308.886514 
L 422.751185 312.101051 
L 423.555003 315.315588 
L 424.255394 318.530125 
L 424.820913 321.744662 
L 425.223559 324.959199 
L 425.440331 328.173736 
L 425.454545 331.388273 
L 425.256806 334.60281 
z
" style="fill:#1f77b4;fill-opacity:0.3;"/>
   </g>
   <g id="PolyCollection_6">
    <path clip-path="url(#p2fe98706db)" d="M 510.89638 343.636364 
L 470.921802 343.636364 
L 470.107574 340.332534 
L 469.523655 337.028704 
L 469.183736 333.724874 
L 469.090909 330.421044 
L 469.237453 327.117215 
L 469.605356 323.813385 
L 470.167535 320.509555 
L 470.889623 317.205725 
L 471.73218 313.901895 
L 472.653122 310.598066 
L 473.610168 307.294236 
L 474.563119 303.990406 
L 475.475808 300.686576 
L 476.317615 297.382746 
L 477.064468 294.078916 
L 477.699331 290.775087 
L 478.212205 287.471257 
L 478.599698 284.167427 
L 478.864269 280.863597 
L 479.013227 277.559767 
L 479.057595 274.255938 
L 479.010928 270.952108 
L 478.888164 267.648278 
L 478.704572 264.344448 
L 478.474832 261.040618 
L 478.212309 257.736789 
L 477.928507 254.432959 
L 477.632727 251.129129 
L 477.331931 247.825299 
L 477.030779 244.521469 
L 476.731842 241.21764 
L 476.435942 237.91381 
L 476.142589 234.60998 
L 475.850482 231.30615 
L 475.558015 228.00232 
L 475.263764 224.69849 
L 474.966896 221.394661 
L 474.667492 218.090831 
L 474.366742 214.787001 
L 474.06702 211.483171 
L 473.771828 208.179341 
L 473.48564 204.875512 
L 473.213653 201.571682 
L 472.961487 198.267852 
L 472.734866 194.964022 
L 472.539314 191.660192 
L 472.379883 188.356363 
L 472.260954 185.052533 
L 472.186104 181.748703 
L 472.158057 178.444873 
L 472.178706 175.141043 
L 472.249185 171.837214 
L 472.369998 168.533384 
L 472.541147 165.229554 
L 472.762272 161.925724 
L 473.032766 158.621894 
L 473.351849 155.318064 
L 473.718601 152.014235 
L 474.131944 148.710405 
L 474.590577 145.406575 
L 475.092874 142.102745 
L 475.636755 138.798915 
L 476.219545 135.495086 
L 476.837847 132.191256 
L 477.487434 128.887426 
L 478.163192 125.583596 
L 478.859115 122.279766 
L 479.568367 118.975937 
L 480.283417 115.672107 
L 480.996234 112.368277 
L 481.698549 109.064447 
L 482.382148 105.760617 
L 483.039194 102.456788 
L 483.662543 99.152958 
L 484.246032 95.849128 
L 484.784729 92.545298 
L 485.275104 89.241468 
L 485.715137 85.937639 
L 486.104332 82.633809 
L 486.44366 79.329979 
L 486.73543 76.026149 
L 486.983095 72.722319 
L 487.191034 69.418489 
L 487.364296 66.11466 
L 487.508354 62.81083 
L 487.628864 59.507 
L 487.731444 56.20317 
L 487.821488 52.89934 
L 487.904007 49.595511 
L 487.983507 46.291681 
L 488.063896 42.987851 
L 488.148414 39.684021 
L 488.239595 36.380191 
L 488.339243 33.076362 
L 488.448434 29.772532 
L 488.567538 26.468702 
L 488.696257 23.164872 
L 488.833691 19.861042 
L 488.978415 16.557213 
L 492.839766 16.557213 
L 492.839766 16.557213 
L 492.984491 19.861042 
L 493.121925 23.164872 
L 493.250644 26.468702 
L 493.369748 29.772532 
L 493.478939 33.076362 
L 493.578587 36.380191 
L 493.669767 39.684021 
L 493.754286 42.987851 
L 493.834674 46.291681 
L 493.914175 49.595511 
L 493.996694 52.89934 
L 494.086737 56.20317 
L 494.189318 59.507 
L 494.309828 62.81083 
L 494.453886 66.11466 
L 494.627148 69.418489 
L 494.835087 72.722319 
L 495.082752 76.026149 
L 495.374522 79.329979 
L 495.71385 82.633809 
L 496.103045 85.937639 
L 496.543078 89.241468 
L 497.033453 92.545298 
L 497.572149 95.849128 
L 498.155639 99.152958 
L 498.778987 102.456788 
L 499.436034 105.760617 
L 500.119633 109.064447 
L 500.821948 112.368277 
L 501.534765 115.672107 
L 502.249815 118.975937 
L 502.959067 122.279766 
L 503.65499 125.583596 
L 504.330748 128.887426 
L 504.980335 132.191256 
L 505.598637 135.495086 
L 506.181427 138.798915 
L 506.725308 142.102745 
L 507.227605 145.406575 
L 507.686238 148.710405 
L 508.099581 152.014235 
L 508.466332 155.318064 
L 508.785415 158.621894 
L 509.05591 161.925724 
L 509.277035 165.229554 
L 509.448184 168.533384 
L 509.568996 171.837214 
L 509.639476 175.141043 
L 509.660124 178.444873 
L 509.632078 181.748703 
L 509.557228 185.052533 
L 509.438298 188.356363 
L 509.278868 191.660192 
L 509.083315 194.964022 
L 508.856695 198.267852 
L 508.604529 201.571682 
L 508.332541 204.875512 
L 508.046354 208.179341 
L 507.751162 211.483171 
L 507.451439 214.787001 
L 507.15069 218.090831 
L 506.851285 221.394661 
L 506.554418 224.69849 
L 506.260167 228.00232 
L 505.9677 231.30615 
L 505.675593 234.60998 
L 505.38224 237.91381 
L 505.08634 241.21764 
L 504.787403 244.521469 
L 504.486251 247.825299 
L 504.185455 251.129129 
L 503.889675 254.432959 
L 503.605873 257.736789 
L 503.34335 261.040618 
L 503.11361 264.344448 
L 502.930017 267.648278 
L 502.807254 270.952108 
L 502.760587 274.255938 
L 502.804955 277.559767 
L 502.953912 280.863597 
L 503.218484 284.167427 
L 503.605977 287.471257 
L 504.118851 290.775087 
L 504.753714 294.078916 
L 505.500567 297.382746 
L 506.342373 300.686576 
L 507.255063 303.990406 
L 508.208013 307.294236 
L 509.16506 310.598066 
L 510.086002 313.901895 
L 510.928559 317.205725 
L 511.650647 320.509555 
L 512.212826 323.813385 
L 512.580729 327.117215 
L 512.727273 330.421044 
L 512.634446 333.724874 
L 512.294527 337.028704 
L 511.710608 340.332534 
L 510.89638 343.636364 
z
" style="fill:#1f77b4;fill-opacity:0.3;"/>
   </g>
   <g id="PolyCollection_7">
    <path clip-path="url(#p2fe98706db)" d="M 599.919914 334.60281 
L 556.443723 334.60281 
L 556.363636 332.490419 
L 556.487281 330.378027 
L 556.803652 328.265636 
L 557.295245 326.153245 
L 557.938964 324.040853 
L 558.70731 321.928462 
L 559.569753 319.81607 
L 560.494209 317.703679 
L 561.448495 315.591287 
L 562.40171 313.478896 
L 563.325428 311.366504 
L 564.19467 309.254113 
L 564.988604 307.141721 
L 565.690964 305.02933 
L 566.290194 302.916938 
L 566.77934 300.804547 
L 567.155738 298.692155 
L 567.420534 296.579764 
L 567.578098 294.467372 
L 567.63538 292.354981 
L 567.60126 290.242589 
L 567.485922 288.130198 
L 567.300296 286.017806 
L 567.055577 283.905415 
L 566.76283 281.793023 
L 566.432697 279.680632 
L 566.075181 277.56824 
L 565.699506 275.455849 
L 565.314038 273.343458 
L 564.926242 271.231066 
L 564.542677 269.118675 
L 564.168988 267.006283 
L 563.809916 264.893892 
L 563.469299 262.7815 
L 563.150064 260.669109 
L 562.854224 258.556717 
L 562.582873 256.444326 
L 562.336186 254.331934 
L 562.113443 252.219543 
L 561.913074 250.107151 
L 561.732735 247.99476 
L 561.569418 245.882368 
L 561.419595 243.769977 
L 561.2794 241.657585 
L 561.14483 239.545194 
L 561.011965 237.432802 
L 560.877199 235.320411 
L 560.737454 233.208019 
L 560.590387 231.095628 
L 560.434554 228.983236 
L 560.269542 226.870845 
L 560.096038 224.758453 
L 559.91586 222.646062 
L 559.731915 220.533671 
L 559.548115 218.421279 
L 559.36923 216.308888 
L 559.200711 214.196496 
L 559.048469 212.084105 
L 558.91864 209.971713 
L 558.817338 207.859322 
L 558.750408 205.74693 
L 558.723205 203.634539 
L 558.740385 201.522147 
L 558.805747 199.409756 
L 558.922108 197.297364 
L 559.09123 195.184973 
L 559.313794 193.072581 
L 559.589424 190.96019 
L 559.916753 188.847798 
L 560.293527 186.735407 
L 560.716736 184.623015 
L 561.182767 182.510624 
L 561.687562 180.398232 
L 562.226773 178.285841 
L 562.795911 176.173449 
L 563.39047 174.061058 
L 564.006027 171.948666 
L 564.638316 169.836275 
L 565.283276 167.723884 
L 565.937064 165.611492 
L 566.596051 163.499101 
L 567.256807 161.386709 
L 567.916065 159.274318 
L 568.570691 157.161926 
L 569.217657 155.049535 
L 569.854018 152.937143 
L 570.476907 150.824752 
L 571.083549 148.71236 
L 571.671275 146.599969 
L 572.237567 144.487577 
L 572.7801 142.375186 
L 573.296794 140.262794 
L 573.785863 138.150403 
L 574.245861 136.038011 
L 574.675721 133.92562 
L 575.074774 131.813228 
L 575.442764 129.700837 
L 575.779837 127.588445 
L 576.086522 125.476054 
L 580.277114 125.476054 
L 580.277114 125.476054 
L 580.583799 127.588445 
L 580.920872 129.700837 
L 581.288862 131.813228 
L 581.687916 133.92562 
L 582.117775 136.038011 
L 582.577773 138.150403 
L 583.066842 140.262794 
L 583.583536 142.375186 
L 584.126069 144.487577 
L 584.692362 146.599969 
L 585.280088 148.71236 
L 585.886729 150.824752 
L 586.509619 152.937143 
L 587.145979 155.049535 
L 587.792945 157.161926 
L 588.447571 159.274318 
L 589.106829 161.386709 
L 589.767585 163.499101 
L 590.426573 165.611492 
L 591.08036 167.723884 
L 591.72532 169.836275 
L 592.35761 171.948666 
L 592.973166 174.061058 
L 593.567725 176.173449 
L 594.136863 178.285841 
L 594.676075 180.398232 
L 595.180869 182.510624 
L 595.646901 184.623015 
L 596.07011 186.735407 
L 596.446883 188.847798 
L 596.774212 190.96019 
L 597.049842 193.072581 
L 597.272406 195.184973 
L 597.441528 197.297364 
L 597.557889 199.409756 
L 597.623251 201.522147 
L 597.640432 203.634539 
L 597.613228 205.74693 
L 597.546299 207.859322 
L 597.444996 209.971713 
L 597.315168 212.084105 
L 597.162926 214.196496 
L 596.994406 216.308888 
L 596.815521 218.421279 
L 596.631721 220.533671 
L 596.447777 222.646062 
L 596.267598 224.758453 
L 596.094095 226.870845 
L 595.929082 228.983236 
L 595.77325 231.095628 
L 595.626183 233.208019 
L 595.486438 235.320411 
L 595.351671 237.432802 
L 595.218806 239.545194 
L 595.084236 241.657585 
L 594.944041 243.769977 
L 594.794219 245.882368 
L 594.630901 247.99476 
L 594.450562 250.107151 
L 594.250193 252.219543 
L 594.027451 254.331934 
L 593.780763 256.444326 
L 593.509412 258.556717 
L 593.213573 260.669109 
L 592.894338 262.7815 
L 592.55372 264.893892 
L 592.194649 267.006283 
L 591.820959 269.118675 
L 591.437394 271.231066 
L 591.049599 273.343458 
L 590.66413 275.455849 
L 590.288455 277.56824 
L 589.930939 279.680632 
L 589.600806 281.793023 
L 589.30806 283.905415 
L 589.06334 286.017806 
L 588.877715 288.130198 
L 588.762377 290.242589 
L 588.728256 292.354981 
L 588.785538 294.467372 
L 588.943102 296.579764 
L 589.207898 298.692155 
L 589.584297 300.804547 
L 590.073443 302.916938 
L 590.672672 305.02933 
L 591.375032 307.141721 
L 592.168966 309.254113 
L 593.038208 311.366504 
L 593.961926 313.478896 
L 594.915141 315.591287 
L 595.869428 317.703679 
L 596.793883 319.81607 
L 597.656327 321.928462 
L 598.424672 324.040853 
L 599.068391 326.153245 
L 599.559984 328.265636 
L 599.876356 330.378027 
L 600 332.490419 
L 599.919914 334.60281 
z
" style="fill:#1f77b4;fill-opacity:0.3;"/>
   </g>
   <g id="PolyCollection_8">
    <path clip-path="url(#p2fe98706db)" d="M 687.21672 334.60281 
L 643.692371 334.60281 
L 643.636364 332.118909 
L 643.858138 329.635008 
L 644.339508 327.151107 
L 645.051158 324.667205 
L 645.95472 322.183304 
L 647.0054 319.699403 
L 648.154916 317.215502 
L 649.35446 314.7316 
L 650.557456 312.247699 
L 651.72188 309.763798 
L 652.812017 307.279897 
L 653.79955 304.795996 
L 654.664001 302.312094 
L 655.392557 299.828193 
L 655.979403 297.344292 
L 656.424684 294.860391 
L 656.73326 292.376489 
L 656.913382 289.892588 
L 656.975427 287.408687 
L 656.930787 284.924786 
L 656.79097 282.440884 
L 656.566964 279.956983 
L 656.26885 277.473082 
L 655.90565 274.989181 
L 655.485371 272.505279 
L 655.015194 270.021378 
L 654.501748 267.537477 
L 653.951412 265.053576 
L 653.370602 262.569674 
L 652.765993 260.085773 
L 652.144662 257.601872 
L 651.514114 255.117971 
L 650.882217 252.634069 
L 650.257036 250.150168 
L 649.646594 247.666267 
L 649.058593 245.182366 
L 648.500118 242.698464 
L 647.977369 240.214563 
L 647.495435 237.730662 
L 647.058145 235.246761 
L 646.668004 232.762859 
L 646.326223 230.278958 
L 646.032825 227.795057 
L 645.786844 225.311156 
L 645.586557 222.827254 
L 645.429769 220.343353 
L 645.314096 217.859452 
L 645.237247 215.375551 
L 645.197274 212.89165 
L 645.192783 210.407748 
L 645.223093 207.923847 
L 645.288336 205.439946 
L 645.389495 202.956045 
L 645.528375 200.472143 
L 645.707514 197.988242 
L 645.930021 195.504341 
L 646.199363 193.02044 
L 646.5191 190.536538 
L 646.892581 188.052637 
L 647.322618 185.568736 
L 647.811173 183.084835 
L 648.359054 180.600933 
L 648.965678 178.117032 
L 649.628897 175.633131 
L 650.34492 173.14923 
L 651.108328 170.665328 
L 651.9122 168.181427 
L 652.748322 165.697526 
L 653.607483 163.213625 
L 654.479817 160.729723 
L 655.355181 158.245822 
L 656.223525 155.761921 
L 657.075247 153.27802 
L 657.901495 150.794118 
L 658.694416 148.310217 
L 659.447326 145.826316 
L 660.154825 143.342415 
L 660.812829 140.858513 
L 661.418559 138.374612 
L 661.970474 135.890711 
L 662.46817 133.40681 
L 662.912256 130.922908 
L 663.304223 128.439007 
L 663.646298 125.955106 
L 663.94131 123.471205 
L 664.192554 120.987303 
L 664.403671 118.503402 
L 664.578534 116.019501 
L 664.721145 113.5356 
L 664.835539 111.051699 
L 664.925703 108.567797 
L 664.995495 106.083896 
L 665.04858 103.599995 
L 665.088364 101.116094 
L 665.117951 98.632192 
L 665.140092 96.148291 
L 665.157166 93.66439 
L 665.171154 91.180489 
L 665.183637 88.696587 
L 665.725454 88.696587 
L 665.725454 88.696587 
L 665.737937 91.180489 
L 665.751925 93.66439 
L 665.768998 96.148291 
L 665.79114 98.632192 
L 665.820727 101.116094 
L 665.860511 103.599995 
L 665.913596 106.083896 
L 665.983388 108.567797 
L 666.073551 111.051699 
L 666.187946 113.5356 
L 666.330556 116.019501 
L 666.50542 118.503402 
L 666.716537 120.987303 
L 666.967781 123.471205 
L 667.262793 125.955106 
L 667.604868 128.439007 
L 667.996835 130.922908 
L 668.440921 133.40681 
L 668.938617 135.890711 
L 669.490531 138.374612 
L 670.096262 140.858513 
L 670.754266 143.342415 
L 671.461765 145.826316 
L 672.214675 148.310217 
L 673.007596 150.794118 
L 673.833844 153.27802 
L 674.685566 155.761921 
L 675.55391 158.245822 
L 676.429274 160.729723 
L 677.301608 163.213625 
L 678.160769 165.697526 
L 678.996891 168.181427 
L 679.800762 170.665328 
L 680.564171 173.14923 
L 681.280194 175.633131 
L 681.943413 178.117032 
L 682.550037 180.600933 
L 683.097918 183.084835 
L 683.586473 185.568736 
L 684.01651 188.052637 
L 684.389991 190.536538 
L 684.709728 193.02044 
L 684.97907 195.504341 
L 685.201577 197.988242 
L 685.380715 200.472143 
L 685.519596 202.956045 
L 685.620755 205.439946 
L 685.685998 207.923847 
L 685.716308 210.407748 
L 685.711817 212.89165 
L 685.671844 215.375551 
L 685.594995 217.859452 
L 685.479322 220.343353 
L 685.322534 222.827254 
L 685.122247 225.311156 
L 684.876266 227.795057 
L 684.582868 230.278958 
L 684.241086 232.762859 
L 683.850946 235.246761 
L 683.413656 237.730662 
L 682.931722 240.214563 
L 682.408973 242.698464 
L 681.850498 245.182366 
L 681.262497 247.666267 
L 680.652055 250.150168 
L 680.026874 252.634069 
L 679.394977 255.117971 
L 678.764429 257.601872 
L 678.143098 260.085773 
L 677.538489 262.569674 
L 676.957679 265.053576 
L 676.407343 267.537477 
L 675.893897 270.021378 
L 675.42372 272.505279 
L 675.003441 274.989181 
L 674.64024 277.473082 
L 674.342126 279.956983 
L 674.118121 282.440884 
L 673.978304 284.924786 
L 673.933664 287.408687 
L 673.995709 289.892588 
L 674.175831 292.376489 
L 674.484407 294.860391 
L 674.929688 297.344292 
L 675.516533 299.828193 
L 676.24509 302.312094 
L 677.109541 304.795996 
L 678.097074 307.279897 
L 679.187211 309.763798 
L 680.351635 312.247699 
L 681.554631 314.7316 
L 682.754175 317.215502 
L 683.903691 319.699403 
L 684.954371 322.183304 
L 685.857933 324.667205 
L 686.569583 327.151107 
L 687.050953 329.635008 
L 687.272727 332.118909 
L 687.21672 334.60281 
z
" style="fill:#1f77b4;fill-opacity:0.3;"/>
   </g>
   <g id="matplotlib.axis_1">
    <g id="xtick_1">
     <g id="line2d_1">
      <defs>
       <path d="M 0 0 
L 0 3.5 
" id="m865f61f620" style="stroke:#000000;stroke-width:0.8;"/>
      </defs>
      <g>
       <use style="stroke:#000000;stroke-width:0.8;" x="54.545455" xlink:href="#m865f61f620" y="360"/>
      </g>
     </g>
     <g id="text_1">
      <!-- 0 -->
      <defs>
       <path d="M 31.78125 66.40625 
Q 24.171875 66.40625 20.328125 58.90625 
Q 16.5 51.421875 16.5 36.375 
Q 16.5 21.390625 20.328125 13.890625 
Q 24.171875 6.390625 31.78125 6.390625 
Q 39.453125 6.390625 43.28125 13.890625 
Q 47.125 21.390625 47.125 36.375 
Q 47.125 51.421875 43.28125 58.90625 
Q 39.453125 66.40625 31.78125 66.40625 
z
M 31.78125 74.21875 
Q 44.046875 74.21875 50.515625 64.515625 
Q 56.984375 54.828125 56.984375 36.375 
Q 56.984375 17.96875 50.515625 8.265625 
Q 44.046875 -1.421875 31.78125 -1.421875 
Q 19.53125 -1.421875 13.0625 8.265625 
Q 6.59375 17.96875 6.59375 36.375 
Q 6.59375 54.828125 13.0625 64.515625 
Q 19.53125 74.21875 31.78125 74.21875 
z
" id="DejaVuSans-48"/>
      </defs>
      <g transform="translate(51.364205 374.598437)scale(0.1 -0.1)">
       <use xlink:href="#DejaVuSans-48"/>
      </g>
     </g>
    </g>
    <g id="xtick_2">
     <g id="line2d_2">
      <g>
       <use style="stroke:#000000;stroke-width:0.8;" x="141.818182" xlink:href="#m865f61f620" y="360"/>
      </g>
     </g>
     <g id="text_2">
      <!-- 1e-12 -->
      <defs>
       <path d="M 12.40625 8.296875 
L 28.515625 8.296875 
L 28.515625 63.921875 
L 10.984375 60.40625 
L 10.984375 69.390625 
L 28.421875 72.90625 
L 38.28125 72.90625 
L 38.28125 8.296875 
L 54.390625 8.296875 
L 54.390625 0 
L 12.40625 0 
z
" id="DejaVuSans-49"/>
       <path d="M 56.203125 29.59375 
L 56.203125 25.203125 
L 14.890625 25.203125 
Q 15.484375 15.921875 20.484375 11.0625 
Q 25.484375 6.203125 34.421875 6.203125 
Q 39.59375 6.203125 44.453125 7.46875 
Q 49.3125 8.734375 54.109375 11.28125 
L 54.109375 2.78125 
Q 49.265625 0.734375 44.1875 -0.34375 
Q 39.109375 -1.421875 33.890625 -1.421875 
Q 20.796875 -1.421875 13.15625 6.1875 
Q 5.515625 13.8125 5.515625 26.8125 
Q 5.515625 40.234375 12.765625 48.109375 
Q 20.015625 56 32.328125 56 
Q 43.359375 56 49.78125 48.890625 
Q 56.203125 41.796875 56.203125 29.59375 
z
M 47.21875 32.234375 
Q 47.125 39.59375 43.09375 43.984375 
Q 39.0625 48.390625 32.421875 48.390625 
Q 24.90625 48.390625 20.390625 44.140625 
Q 15.875 39.890625 15.1875 32.171875 
z
" id="DejaVuSans-101"/>
       <path d="M 4.890625 31.390625 
L 31.203125 31.390625 
L 31.203125 23.390625 
L 4.890625 23.390625 
z
" id="DejaVuSans-45"/>
       <path d="M 19.1875 8.296875 
L 53.609375 8.296875 
L 53.609375 0 
L 7.328125 0 
L 7.328125 8.296875 
Q 12.9375 14.109375 22.625 23.890625 
Q 32.328125 33.6875 34.8125 36.53125 
Q 39.546875 41.84375 41.421875 45.53125 
Q 43.3125 49.21875 43.3125 52.78125 
Q 43.3125 58.59375 39.234375 62.25 
Q 35.15625 65.921875 28.609375 65.921875 
Q 23.96875 65.921875 18.8125 64.3125 
Q 13.671875 62.703125 7.8125 59.421875 
L 7.8125 69.390625 
Q 13.765625 71.78125 18.9375 73 
Q 24.125 74.21875 28.421875 74.21875 
Q 39.75 74.21875 46.484375 68.546875 
Q 53.21875 62.890625 53.21875 53.421875 
Q 53.21875 48.921875 51.53125 44.890625 
Q 49.859375 40.875 45.40625 35.40625 
Q 44.1875 33.984375 37.640625 27.21875 
Q 31.109375 20.453125 19.1875 8.296875 
z
" id="DejaVuSans-50"/>
      </defs>
      <g transform="translate(127.393963 374.598437)scale(0.1 -0.1)">
       <use xlink:href="#DejaVuSans-49"/>
       <use x="63.623047" xlink:href="#DejaVuSans-101"/>
       <use x="125.146484" xlink:href="#DejaVuSans-45"/>
       <use x="161.230469" xlink:href="#DejaVuSans-49"/>
       <use x="224.853516" xlink:href="#DejaVuSans-50"/>
      </g>
     </g>
    </g>
    <g id="xtick_3">
     <g id="line2d_3">
      <g>
       <use style="stroke:#000000;stroke-width:0.8;" x="229.090909" xlink:href="#m865f61f620" y="360"/>
      </g>
     </g>
     <g id="text_3">
      <!-- 1e-11 -->
      <g transform="translate(214.66669 374.598437)scale(0.1 -0.1)">
       <use xlink:href="#DejaVuSans-49"/>
       <use x="63.623047" xlink:href="#DejaVuSans-101"/>
       <use x="125.146484" xlink:href="#DejaVuSans-45"/>
       <use x="161.230469" xlink:href="#DejaVuSans-49"/>
       <use x="224.853516" xlink:href="#DejaVuSans-49"/>
      </g>
     </g>
    </g>
    <g id="xtick_4">
     <g id="line2d_4">
      <g>
       <use style="stroke:#000000;stroke-width:0.8;" x="316.363636" xlink:href="#m865f61f620" y="360"/>
      </g>
     </g>
     <g id="text_4">
      <!-- 1e-10 -->
      <g transform="translate(301.939418 374.598437)scale(0.1 -0.1)">
       <use xlink:href="#DejaVuSans-49"/>
       <use x="63.623047" xlink:href="#DejaVuSans-101"/>
       <use x="125.146484" xlink:href="#DejaVuSans-45"/>
       <use x="161.230469" xlink:href="#DejaVuSans-49"/>
       <use x="224.853516" xlink:href="#DejaVuSans-48"/>
      </g>
     </g>
    </g>
    <g id="xtick_5">
     <g id="line2d_5">
      <g>
       <use style="stroke:#000000;stroke-width:0.8;" x="403.636364" xlink:href="#m865f61f620" y="360"/>
      </g>
     </g>
     <g id="text_5">
      <!-- 1e-08 -->
      <defs>
       <path d="M 31.78125 34.625 
Q 24.75 34.625 20.71875 30.859375 
Q 16.703125 27.09375 16.703125 20.515625 
Q 16.703125 13.921875 20.71875 10.15625 
Q 24.75 6.390625 31.78125 6.390625 
Q 38.8125 6.390625 42.859375 10.171875 
Q 46.921875 13.96875 46.921875 20.515625 
Q 46.921875 27.09375 42.890625 30.859375 
Q 38.875 34.625 31.78125 34.625 
z
M 21.921875 38.8125 
Q 15.578125 40.375 12.03125 44.71875 
Q 8.5 49.078125 8.5 55.328125 
Q 8.5 64.0625 14.71875 69.140625 
Q 20.953125 74.21875 31.78125 74.21875 
Q 42.671875 74.21875 48.875 69.140625 
Q 55.078125 64.0625 55.078125 55.328125 
Q 55.078125 49.078125 51.53125 44.71875 
Q 48 40.375 41.703125 38.8125 
Q 48.828125 37.15625 52.796875 32.3125 
Q 56.78125 27.484375 56.78125 20.515625 
Q 56.78125 9.90625 50.3125 4.234375 
Q 43.84375 -1.421875 31.78125 -1.421875 
Q 19.734375 -1.421875 13.25 4.234375 
Q 6.78125 9.90625 6.78125 20.515625 
Q 6.78125 27.484375 10.78125 32.3125 
Q 14.796875 37.15625 21.921875 38.8125 
z
M 18.3125 54.390625 
Q 18.3125 48.734375 21.84375 45.5625 
Q 25.390625 42.390625 31.78125 42.390625 
Q 38.140625 42.390625 41.71875 45.5625 
Q 45.3125 48.734375 45.3125 54.390625 
Q 45.3125 60.0625 41.71875 63.234375 
Q 38.140625 66.40625 31.78125 66.40625 
Q 25.390625 66.40625 21.84375 63.234375 
Q 18.3125 60.0625 18.3125 54.390625 
z
" id="DejaVuSans-56"/>
      </defs>
      <g transform="translate(389.212145 374.598437)scale(0.1 -0.1)">
       <use xlink:href="#DejaVuSans-49"/>
       <use x="63.623047" xlink:href="#DejaVuSans-101"/>
       <use x="125.146484" xlink:href="#DejaVuSans-45"/>
       <use x="161.230469" xlink:href="#DejaVuSans-48"/>
       <use x="224.853516" xlink:href="#DejaVuSans-56"/>
      </g>
     </g>
    </g>
    <g id="xtick_6">
     <g id="line2d_6">
      <g>
       <use style="stroke:#000000;stroke-width:0.8;" x="490.909091" xlink:href="#m865f61f620" y="360"/>
      </g>
     </g>
     <g id="text_6">
      <!-- 1e-05 -->
      <defs>
       <path d="M 10.796875 72.90625 
L 49.515625 72.90625 
L 49.515625 64.59375 
L 19.828125 64.59375 
L 19.828125 46.734375 
Q 21.96875 47.46875 24.109375 47.828125 
Q 26.265625 48.1875 28.421875 48.1875 
Q 40.625 48.1875 47.75 41.5 
Q 54.890625 34.8125 54.890625 23.390625 
Q 54.890625 11.625 47.5625 5.09375 
Q 40.234375 -1.421875 26.90625 -1.421875 
Q 22.3125 -1.421875 17.546875 -0.640625 
Q 12.796875 0.140625 7.71875 1.703125 
L 7.71875 11.625 
Q 12.109375 9.234375 16.796875 8.0625 
Q 21.484375 6.890625 26.703125 6.890625 
Q 35.15625 6.890625 40.078125 11.328125 
Q 45.015625 15.765625 45.015625 23.390625 
Q 45.015625 31 40.078125 35.4375 
Q 35.15625 39.890625 26.703125 39.890625 
Q 22.75 39.890625 18.8125 39.015625 
Q 14.890625 38.140625 10.796875 36.28125 
z
" id="DejaVuSans-53"/>
      </defs>
      <g transform="translate(476.484872 374.598437)scale(0.1 -0.1)">
       <use xlink:href="#DejaVuSans-49"/>
       <use x="63.623047" xlink:href="#DejaVuSans-101"/>
       <use x="125.146484" xlink:href="#DejaVuSans-45"/>
       <use x="161.230469" xlink:href="#DejaVuSans-48"/>
       <use x="224.853516" xlink:href="#DejaVuSans-53"/>
      </g>
     </g>
    </g>
    <g id="xtick_7">
     <g id="line2d_7">
      <g>
       <use style="stroke:#000000;stroke-width:0.8;" x="578.181818" xlink:href="#m865f61f620" y="360"/>
      </g>
     </g>
     <g id="text_7">
      <!-- 0.01 -->
      <defs>
       <path d="M 10.6875 12.40625 
L 21 12.40625 
L 21 0 
L 10.6875 0 
z
" id="DejaVuSans-46"/>
      </defs>
      <g transform="translate(567.049006 374.598437)scale(0.1 -0.1)">
       <use xlink:href="#DejaVuSans-48"/>
       <use x="63.623047" xlink:href="#DejaVuSans-46"/>
       <use x="95.410156" xlink:href="#DejaVuSans-48"/>
       <use x="159.033203" xlink:href="#DejaVuSans-49"/>
      </g>
     </g>
    </g>
    <g id="xtick_8">
     <g id="line2d_8">
      <g>
       <use style="stroke:#000000;stroke-width:0.8;" x="665.454545" xlink:href="#m865f61f620" y="360"/>
      </g>
     </g>
     <g id="text_8">
      <!-- 1 -->
      <g transform="translate(662.273295 374.598437)scale(0.1 -0.1)">
       <use xlink:href="#DejaVuSans-49"/>
      </g>
     </g>
    </g>
    <g id="text_9">
     <!-- $\lambda$ -->
     <defs>
      <path d="M 36.71875 67.4375 
L 48.828125 0 
L 39.3125 0 
L 31.84375 40.4375 
L 5.125 0 
L -4.390625 0 
L 29.734375 52.4375 
L 28.03125 62.109375 
Q 26.953125 68.265625 21.734375 68.265625 
L 17.046875 68.265625 
L 18.5 75.984375 
L 24.21875 75.875 
Q 35.203125 75.734375 36.71875 67.4375 
z
" id="DejaVuSans-Oblique-955"/>
     </defs>
     <g transform="translate(356.4 389.79625)scale(0.12 -0.12)">
      <use transform="translate(0 0.015625)" xlink:href="#DejaVuSans-Oblique-955"/>
     </g>
    </g>
   </g>
   <g id="matplotlib.axis_2">
    <g id="ytick_1">
     <g id="line2d_9">
      <defs>
       <path d="M 0 0 
L -3.5 0 
" id="m92f128d8ba" style="stroke:#000000;stroke-width:0.8;"/>
      </defs>
      <g>
       <use style="stroke:#000000;stroke-width:0.8;" x="0" xlink:href="#m92f128d8ba" y="351.379409"/>
      </g>
     </g>
     <g id="text_10">
      <!-- 0.15 -->
      <g transform="translate(-29.265625 355.178628)scale(0.1 -0.1)">
       <use xlink:href="#DejaVuSans-48"/>
       <use x="63.623047" xlink:href="#DejaVuSans-46"/>
       <use x="95.410156" xlink:href="#DejaVuSans-49"/>
       <use x="159.033203" xlink:href="#DejaVuSans-53"/>
      </g>
     </g>
    </g>
    <g id="ytick_2">
     <g id="line2d_10">
      <g>
       <use style="stroke:#000000;stroke-width:0.8;" x="0" xlink:href="#m92f128d8ba" y="287.241182"/>
      </g>
     </g>
     <g id="text_11">
      <!-- 0.20 -->
      <g transform="translate(-29.265625 291.0404)scale(0.1 -0.1)">
       <use xlink:href="#DejaVuSans-48"/>
       <use x="63.623047" xlink:href="#DejaVuSans-46"/>
       <use x="95.410156" xlink:href="#DejaVuSans-50"/>
       <use x="159.033203" xlink:href="#DejaVuSans-48"/>
      </g>
     </g>
    </g>
    <g id="ytick_3">
     <g id="line2d_11">
      <g>
       <use style="stroke:#000000;stroke-width:0.8;" x="0" xlink:href="#m92f128d8ba" y="223.102954"/>
      </g>
     </g>
     <g id="text_12">
      <!-- 0.25 -->
      <g transform="translate(-29.265625 226.902173)scale(0.1 -0.1)">
       <use xlink:href="#DejaVuSans-48"/>
       <use x="63.623047" xlink:href="#DejaVuSans-46"/>
       <use x="95.410156" xlink:href="#DejaVuSans-50"/>
       <use x="159.033203" xlink:href="#DejaVuSans-53"/>
      </g>
     </g>
    </g>
    <g id="ytick_4">
     <g id="line2d_12">
      <g>
       <use style="stroke:#000000;stroke-width:0.8;" x="0" xlink:href="#m92f128d8ba" y="158.964726"/>
      </g>
     </g>
     <g id="text_13">
      <!-- 0.30 -->
      <defs>
       <path d="M 40.578125 39.3125 
Q 47.65625 37.796875 51.625 33 
Q 55.609375 28.21875 55.609375 21.1875 
Q 55.609375 10.40625 48.1875 4.484375 
Q 40.765625 -1.421875 27.09375 -1.421875 
Q 22.515625 -1.421875 17.65625 -0.515625 
Q 12.796875 0.390625 7.625 2.203125 
L 7.625 11.71875 
Q 11.71875 9.328125 16.59375 8.109375 
Q 21.484375 6.890625 26.8125 6.890625 
Q 36.078125 6.890625 40.9375 10.546875 
Q 45.796875 14.203125 45.796875 21.1875 
Q 45.796875 27.640625 41.28125 31.265625 
Q 36.765625 34.90625 28.71875 34.90625 
L 20.21875 34.90625 
L 20.21875 43.015625 
L 29.109375 43.015625 
Q 36.375 43.015625 40.234375 45.921875 
Q 44.09375 48.828125 44.09375 54.296875 
Q 44.09375 59.90625 40.109375 62.90625 
Q 36.140625 65.921875 28.71875 65.921875 
Q 24.65625 65.921875 20.015625 65.03125 
Q 15.375 64.15625 9.8125 62.3125 
L 9.8125 71.09375 
Q 15.4375 72.65625 20.34375 73.4375 
Q 25.25 74.21875 29.59375 74.21875 
Q 40.828125 74.21875 47.359375 69.109375 
Q 53.90625 64.015625 53.90625 55.328125 
Q 53.90625 49.265625 50.4375 45.09375 
Q 46.96875 40.921875 40.578125 39.3125 
z
" id="DejaVuSans-51"/>
      </defs>
      <g transform="translate(-29.265625 162.763945)scale(0.1 -0.1)">
       <use xlink:href="#DejaVuSans-48"/>
       <use x="63.623047" xlink:href="#DejaVuSans-46"/>
       <use x="95.410156" xlink:href="#DejaVuSans-51"/>
       <use x="159.033203" xlink:href="#DejaVuSans-48"/>
      </g>
     </g>
    </g>
    <g id="ytick_5">
     <g id="line2d_13">
      <g>
       <use style="stroke:#000000;stroke-width:0.8;" x="0" xlink:href="#m92f128d8ba" y="94.826498"/>
      </g>
     </g>
     <g id="text_14">
      <!-- 0.35 -->
      <g transform="translate(-29.265625 98.625717)scale(0.1 -0.1)">
       <use xlink:href="#DejaVuSans-48"/>
       <use x="63.623047" xlink:href="#DejaVuSans-46"/>
       <use x="95.410156" xlink:href="#DejaVuSans-51"/>
       <use x="159.033203" xlink:href="#DejaVuSans-53"/>
      </g>
     </g>
    </g>
    <g id="ytick_6">
     <g id="line2d_14">
      <g>
       <use style="stroke:#000000;stroke-width:0.8;" x="0" xlink:href="#m92f128d8ba" y="30.688271"/>
      </g>
     </g>
     <g id="text_15">
      <!-- 0.40 -->
      <defs>
       <path d="M 37.796875 64.3125 
L 12.890625 25.390625 
L 37.796875 25.390625 
z
M 35.203125 72.90625 
L 47.609375 72.90625 
L 47.609375 25.390625 
L 58.015625 25.390625 
L 58.015625 17.1875 
L 47.609375 17.1875 
L 47.609375 0 
L 37.796875 0 
L 37.796875 17.1875 
L 4.890625 17.1875 
L 4.890625 26.703125 
z
" id="DejaVuSans-52"/>
      </defs>
      <g transform="translate(-29.265625 34.487489)scale(0.1 -0.1)">
       <use xlink:href="#DejaVuSans-48"/>
       <use x="63.623047" xlink:href="#DejaVuSans-46"/>
       <use x="95.410156" xlink:href="#DejaVuSans-52"/>
       <use x="159.033203" xlink:href="#DejaVuSans-48"/>
      </g>
     </g>
    </g>
    <g id="text_16">
     <!-- Accuracy (classes=4) -->
     <defs>
      <path d="M 34.1875 63.1875 
L 20.796875 26.90625 
L 47.609375 26.90625 
z
M 28.609375 72.90625 
L 39.796875 72.90625 
L 67.578125 0 
L 57.328125 0 
L 50.6875 18.703125 
L 17.828125 18.703125 
L 11.1875 0 
L 0.78125 0 
z
" id="DejaVuSans-65"/>
      <path d="M 48.78125 52.59375 
L 48.78125 44.1875 
Q 44.96875 46.296875 41.140625 47.34375 
Q 37.3125 48.390625 33.40625 48.390625 
Q 24.65625 48.390625 19.8125 42.84375 
Q 14.984375 37.3125 14.984375 27.296875 
Q 14.984375 17.28125 19.8125 11.734375 
Q 24.65625 6.203125 33.40625 6.203125 
Q 37.3125 6.203125 41.140625 7.25 
Q 44.96875 8.296875 48.78125 10.40625 
L 48.78125 2.09375 
Q 45.015625 0.34375 40.984375 -0.53125 
Q 36.96875 -1.421875 32.421875 -1.421875 
Q 20.0625 -1.421875 12.78125 6.34375 
Q 5.515625 14.109375 5.515625 27.296875 
Q 5.515625 40.671875 12.859375 48.328125 
Q 20.21875 56 33.015625 56 
Q 37.15625 56 41.109375 55.140625 
Q 45.0625 54.296875 48.78125 52.59375 
z
" id="DejaVuSans-99"/>
      <path d="M 8.5 21.578125 
L 8.5 54.6875 
L 17.484375 54.6875 
L 17.484375 21.921875 
Q 17.484375 14.15625 20.5 10.265625 
Q 23.53125 6.390625 29.59375 6.390625 
Q 36.859375 6.390625 41.078125 11.03125 
Q 45.3125 15.671875 45.3125 23.6875 
L 45.3125 54.6875 
L 54.296875 54.6875 
L 54.296875 0 
L 45.3125 0 
L 45.3125 8.40625 
Q 42.046875 3.421875 37.71875 1 
Q 33.40625 -1.421875 27.6875 -1.421875 
Q 18.265625 -1.421875 13.375 4.4375 
Q 8.5 10.296875 8.5 21.578125 
z
M 31.109375 56 
z
" id="DejaVuSans-117"/>
      <path d="M 41.109375 46.296875 
Q 39.59375 47.171875 37.8125 47.578125 
Q 36.03125 48 33.890625 48 
Q 26.265625 48 22.1875 43.046875 
Q 18.109375 38.09375 18.109375 28.8125 
L 18.109375 0 
L 9.078125 0 
L 9.078125 54.6875 
L 18.109375 54.6875 
L 18.109375 46.1875 
Q 20.953125 51.171875 25.484375 53.578125 
Q 30.03125 56 36.53125 56 
Q 37.453125 56 38.578125 55.875 
Q 39.703125 55.765625 41.0625 55.515625 
z
" id="DejaVuSans-114"/>
      <path d="M 34.28125 27.484375 
Q 23.390625 27.484375 19.1875 25 
Q 14.984375 22.515625 14.984375 16.5 
Q 14.984375 11.71875 18.140625 8.90625 
Q 21.296875 6.109375 26.703125 6.109375 
Q 34.1875 6.109375 38.703125 11.40625 
Q 43.21875 16.703125 43.21875 25.484375 
L 43.21875 27.484375 
z
M 52.203125 31.203125 
L 52.203125 0 
L 43.21875 0 
L 43.21875 8.296875 
Q 40.140625 3.328125 35.546875 0.953125 
Q 30.953125 -1.421875 24.3125 -1.421875 
Q 15.921875 -1.421875 10.953125 3.296875 
Q 6 8.015625 6 15.921875 
Q 6 25.140625 12.171875 29.828125 
Q 18.359375 34.515625 30.609375 34.515625 
L 43.21875 34.515625 
L 43.21875 35.40625 
Q 43.21875 41.609375 39.140625 45 
Q 35.0625 48.390625 27.6875 48.390625 
Q 23 48.390625 18.546875 47.265625 
Q 14.109375 46.140625 10.015625 43.890625 
L 10.015625 52.203125 
Q 14.9375 54.109375 19.578125 55.046875 
Q 24.21875 56 28.609375 56 
Q 40.484375 56 46.34375 49.84375 
Q 52.203125 43.703125 52.203125 31.203125 
z
" id="DejaVuSans-97"/>
      <path d="M 32.171875 -5.078125 
Q 28.375 -14.84375 24.75 -17.8125 
Q 21.140625 -20.796875 15.09375 -20.796875 
L 7.90625 -20.796875 
L 7.90625 -13.28125 
L 13.1875 -13.28125 
Q 16.890625 -13.28125 18.9375 -11.515625 
Q 21 -9.765625 23.484375 -3.21875 
L 25.09375 0.875 
L 2.984375 54.6875 
L 12.5 54.6875 
L 29.59375 11.921875 
L 46.6875 54.6875 
L 56.203125 54.6875 
z
" id="DejaVuSans-121"/>
      <path id="DejaVuSans-32"/>
      <path d="M 31 75.875 
Q 24.46875 64.65625 21.28125 53.65625 
Q 18.109375 42.671875 18.109375 31.390625 
Q 18.109375 20.125 21.3125 9.0625 
Q 24.515625 -2 31 -13.1875 
L 23.1875 -13.1875 
Q 15.875 -1.703125 12.234375 9.375 
Q 8.59375 20.453125 8.59375 31.390625 
Q 8.59375 42.28125 12.203125 53.3125 
Q 15.828125 64.359375 23.1875 75.875 
z
" id="DejaVuSans-40"/>
      <path d="M 9.421875 75.984375 
L 18.40625 75.984375 
L 18.40625 0 
L 9.421875 0 
z
" id="DejaVuSans-108"/>
      <path d="M 44.28125 53.078125 
L 44.28125 44.578125 
Q 40.484375 46.53125 36.375 47.5 
Q 32.28125 48.484375 27.875 48.484375 
Q 21.1875 48.484375 17.84375 46.4375 
Q 14.5 44.390625 14.5 40.28125 
Q 14.5 37.15625 16.890625 35.375 
Q 19.28125 33.59375 26.515625 31.984375 
L 29.59375 31.296875 
Q 39.15625 29.25 43.1875 25.515625 
Q 47.21875 21.78125 47.21875 15.09375 
Q 47.21875 7.46875 41.1875 3.015625 
Q 35.15625 -1.421875 24.609375 -1.421875 
Q 20.21875 -1.421875 15.453125 -0.5625 
Q 10.6875 0.296875 5.421875 2 
L 5.421875 11.28125 
Q 10.40625 8.6875 15.234375 7.390625 
Q 20.0625 6.109375 24.8125 6.109375 
Q 31.15625 6.109375 34.5625 8.28125 
Q 37.984375 10.453125 37.984375 14.40625 
Q 37.984375 18.0625 35.515625 20.015625 
Q 33.0625 21.96875 24.703125 23.78125 
L 21.578125 24.515625 
Q 13.234375 26.265625 9.515625 29.90625 
Q 5.8125 33.546875 5.8125 39.890625 
Q 5.8125 47.609375 11.28125 51.796875 
Q 16.75 56 26.8125 56 
Q 31.78125 56 36.171875 55.265625 
Q 40.578125 54.546875 44.28125 53.078125 
z
" id="DejaVuSans-115"/>
      <path d="M 10.59375 45.40625 
L 73.1875 45.40625 
L 73.1875 37.203125 
L 10.59375 37.203125 
z
M 10.59375 25.484375 
L 73.1875 25.484375 
L 73.1875 17.1875 
L 10.59375 17.1875 
z
" id="DejaVuSans-61"/>
      <path d="M 8.015625 75.875 
L 15.828125 75.875 
Q 23.140625 64.359375 26.78125 53.3125 
Q 30.421875 42.28125 30.421875 31.390625 
Q 30.421875 20.453125 26.78125 9.375 
Q 23.140625 -1.703125 15.828125 -13.1875 
L 8.015625 -13.1875 
Q 14.5 -2 17.703125 9.0625 
Q 20.90625 20.125 20.90625 31.390625 
Q 20.90625 42.671875 17.703125 53.65625 
Q 14.5 64.65625 8.015625 75.875 
z
" id="DejaVuSans-41"/>
     </defs>
     <g transform="translate(-35.76125 244.643438)rotate(-90)scale(0.12 -0.12)">
      <use xlink:href="#DejaVuSans-65"/>
      <use x="68.392578" xlink:href="#DejaVuSans-99"/>
      <use x="123.373047" xlink:href="#DejaVuSans-99"/>
      <use x="178.353516" xlink:href="#DejaVuSans-117"/>
      <use x="241.732422" xlink:href="#DejaVuSans-114"/>
      <use x="282.845703" xlink:href="#DejaVuSans-97"/>
      <use x="344.125" xlink:href="#DejaVuSans-99"/>
      <use x="399.105469" xlink:href="#DejaVuSans-121"/>
      <use x="458.285156" xlink:href="#DejaVuSans-32"/>
      <use x="490.072266" xlink:href="#DejaVuSans-40"/>
      <use x="529.085938" xlink:href="#DejaVuSans-99"/>
      <use x="584.066406" xlink:href="#DejaVuSans-108"/>
      <use x="611.849609" xlink:href="#DejaVuSans-97"/>
      <use x="673.128906" xlink:href="#DejaVuSans-115"/>
      <use x="725.228516" xlink:href="#DejaVuSans-115"/>
      <use x="777.328125" xlink:href="#DejaVuSans-101"/>
      <use x="838.851562" xlink:href="#DejaVuSans-115"/>
      <use x="890.951172" xlink:href="#DejaVuSans-61"/>
      <use x="974.740234" xlink:href="#DejaVuSans-52"/>
      <use x="1038.363281" xlink:href="#DejaVuSans-41"/>
     </g>
    </g>
   </g>
   <g id="LineCollection_1">
    <path clip-path="url(#p2fe98706db)" d="M 43.636364 30.107542 
L 65.454545 30.107542 
" style="fill:none;stroke:#1f77b4;stroke-width:1.5;"/>
    <path clip-path="url(#p2fe98706db)" d="M 130.909091 43.464296 
L 152.727273 43.464296 
" style="fill:none;stroke:#1f77b4;stroke-width:1.5;"/>
    <path clip-path="url(#p2fe98706db)" d="M 218.181818 34.559794 
L 240 34.559794 
" style="fill:none;stroke:#1f77b4;stroke-width:1.5;"/>
    <path clip-path="url(#p2fe98706db)" d="M 305.454545 34.624319 
L 327.272727 34.624319 
" style="fill:none;stroke:#1f77b4;stroke-width:1.5;"/>
    <path clip-path="url(#p2fe98706db)" d="M 392.727273 16.363636 
L 414.545455 16.363636 
" style="fill:none;stroke:#1f77b4;stroke-width:1.5;"/>
    <path clip-path="url(#p2fe98706db)" d="M 480 16.557213 
L 501.818182 16.557213 
" style="fill:none;stroke:#1f77b4;stroke-width:1.5;"/>
    <path clip-path="url(#p2fe98706db)" d="M 567.272727 125.476054 
L 589.090909 125.476054 
" style="fill:none;stroke:#1f77b4;stroke-width:1.5;"/>
    <path clip-path="url(#p2fe98706db)" d="M 654.545455 88.696587 
L 676.363636 88.696587 
" style="fill:none;stroke:#1f77b4;stroke-width:1.5;"/>
   </g>
   <g id="LineCollection_2">
    <path clip-path="url(#p2fe98706db)" d="M 43.636364 334.60281 
L 65.454545 334.60281 
" style="fill:none;stroke:#1f77b4;stroke-width:1.5;"/>
    <path clip-path="url(#p2fe98706db)" d="M 130.909091 334.60281 
L 152.727273 334.60281 
" style="fill:none;stroke:#1f77b4;stroke-width:1.5;"/>
    <path clip-path="url(#p2fe98706db)" d="M 218.181818 334.60281 
L 240 334.60281 
" style="fill:none;stroke:#1f77b4;stroke-width:1.5;"/>
    <path clip-path="url(#p2fe98706db)" d="M 305.454545 339.119587 
L 327.272727 339.119587 
" style="fill:none;stroke:#1f77b4;stroke-width:1.5;"/>
    <path clip-path="url(#p2fe98706db)" d="M 392.727273 334.60281 
L 414.545455 334.60281 
" style="fill:none;stroke:#1f77b4;stroke-width:1.5;"/>
    <path clip-path="url(#p2fe98706db)" d="M 480 343.636364 
L 501.818182 343.636364 
" style="fill:none;stroke:#1f77b4;stroke-width:1.5;"/>
    <path clip-path="url(#p2fe98706db)" d="M 567.272727 334.60281 
L 589.090909 334.60281 
" style="fill:none;stroke:#1f77b4;stroke-width:1.5;"/>
    <path clip-path="url(#p2fe98706db)" d="M 654.545455 334.60281 
L 676.363636 334.60281 
" style="fill:none;stroke:#1f77b4;stroke-width:1.5;"/>
   </g>
   <g id="LineCollection_3">
    <path clip-path="url(#p2fe98706db)" d="M 54.545455 334.60281 
L 54.545455 30.107542 
" style="fill:none;stroke:#1f77b4;stroke-width:1.5;"/>
    <path clip-path="url(#p2fe98706db)" d="M 141.818182 334.60281 
L 141.818182 43.464296 
" style="fill:none;stroke:#1f77b4;stroke-width:1.5;"/>
    <path clip-path="url(#p2fe98706db)" d="M 229.090909 334.60281 
L 229.090909 34.559794 
" style="fill:none;stroke:#1f77b4;stroke-width:1.5;"/>
    <path clip-path="url(#p2fe98706db)" d="M 316.363636 339.119587 
L 316.363636 34.624319 
" style="fill:none;stroke:#1f77b4;stroke-width:1.5;"/>
    <path clip-path="url(#p2fe98706db)" d="M 403.636364 334.60281 
L 403.636364 16.363636 
" style="fill:none;stroke:#1f77b4;stroke-width:1.5;"/>
    <path clip-path="url(#p2fe98706db)" d="M 490.909091 343.636364 
L 490.909091 16.557213 
" style="fill:none;stroke:#1f77b4;stroke-width:1.5;"/>
    <path clip-path="url(#p2fe98706db)" d="M 578.181818 334.60281 
L 578.181818 125.476054 
" style="fill:none;stroke:#1f77b4;stroke-width:1.5;"/>
    <path clip-path="url(#p2fe98706db)" d="M 665.454545 334.60281 
L 665.454545 88.696587 
" style="fill:none;stroke:#1f77b4;stroke-width:1.5;"/>
   </g>
   <g id="patch_3">
    <path d="M 0 360 
L 0 0 
" style="fill:none;stroke:#000000;stroke-linecap:square;stroke-linejoin:miter;stroke-width:0.8;"/>
   </g>
   <g id="patch_4">
    <path d="M 720 360 
L 720 0 
" style="fill:none;stroke:#000000;stroke-linecap:square;stroke-linejoin:miter;stroke-width:0.8;"/>
   </g>
   <g id="patch_5">
    <path d="M 0 360 
L 720 360 
" style="fill:none;stroke:#000000;stroke-linecap:square;stroke-linejoin:miter;stroke-width:0.8;"/>
   </g>
   <g id="patch_6">
    <path d="M 0 0 
L 720 0 
" style="fill:none;stroke:#000000;stroke-linecap:square;stroke-linejoin:miter;stroke-width:0.8;"/>
   </g>
   <g id="text_17">
    <!-- Accuracy for CoDACl and Baseline Methods vs $\lambda$ -->
    <defs>
     <path d="M 37.109375 75.984375 
L 37.109375 68.5 
L 28.515625 68.5 
Q 23.6875 68.5 21.796875 66.546875 
Q 19.921875 64.59375 19.921875 59.515625 
L 19.921875 54.6875 
L 34.71875 54.6875 
L 34.71875 47.703125 
L 19.921875 47.703125 
L 19.921875 0 
L 10.890625 0 
L 10.890625 47.703125 
L 2.296875 47.703125 
L 2.296875 54.6875 
L 10.890625 54.6875 
L 10.890625 58.5 
Q 10.890625 67.625 15.140625 71.796875 
Q 19.390625 75.984375 28.609375 75.984375 
z
" id="DejaVuSans-102"/>
     <path d="M 30.609375 48.390625 
Q 23.390625 48.390625 19.1875 42.75 
Q 14.984375 37.109375 14.984375 27.296875 
Q 14.984375 17.484375 19.15625 11.84375 
Q 23.34375 6.203125 30.609375 6.203125 
Q 37.796875 6.203125 41.984375 11.859375 
Q 46.1875 17.53125 46.1875 27.296875 
Q 46.1875 37.015625 41.984375 42.703125 
Q 37.796875 48.390625 30.609375 48.390625 
z
M 30.609375 56 
Q 42.328125 56 49.015625 48.375 
Q 55.71875 40.765625 55.71875 27.296875 
Q 55.71875 13.875 49.015625 6.21875 
Q 42.328125 -1.421875 30.609375 -1.421875 
Q 18.84375 -1.421875 12.171875 6.21875 
Q 5.515625 13.875 5.515625 27.296875 
Q 5.515625 40.765625 12.171875 48.375 
Q 18.84375 56 30.609375 56 
z
" id="DejaVuSans-111"/>
     <path d="M 64.40625 67.28125 
L 64.40625 56.890625 
Q 59.421875 61.53125 53.78125 63.8125 
Q 48.140625 66.109375 41.796875 66.109375 
Q 29.296875 66.109375 22.65625 58.46875 
Q 16.015625 50.828125 16.015625 36.375 
Q 16.015625 21.96875 22.65625 14.328125 
Q 29.296875 6.6875 41.796875 6.6875 
Q 48.140625 6.6875 53.78125 8.984375 
Q 59.421875 11.28125 64.40625 15.921875 
L 64.40625 5.609375 
Q 59.234375 2.09375 53.4375 0.328125 
Q 47.65625 -1.421875 41.21875 -1.421875 
Q 24.65625 -1.421875 15.125 8.703125 
Q 5.609375 18.84375 5.609375 36.375 
Q 5.609375 53.953125 15.125 64.078125 
Q 24.65625 74.21875 41.21875 74.21875 
Q 47.75 74.21875 53.53125 72.484375 
Q 59.328125 70.75 64.40625 67.28125 
z
" id="DejaVuSans-67"/>
     <path d="M 19.671875 64.796875 
L 19.671875 8.109375 
L 31.59375 8.109375 
Q 46.6875 8.109375 53.6875 14.9375 
Q 60.6875 21.78125 60.6875 36.53125 
Q 60.6875 51.171875 53.6875 57.984375 
Q 46.6875 64.796875 31.59375 64.796875 
z
M 9.8125 72.90625 
L 30.078125 72.90625 
Q 51.265625 72.90625 61.171875 64.09375 
Q 71.09375 55.28125 71.09375 36.53125 
Q 71.09375 17.671875 61.125 8.828125 
Q 51.171875 0 30.078125 0 
L 9.8125 0 
z
" id="DejaVuSans-68"/>
     <path d="M 54.890625 33.015625 
L 54.890625 0 
L 45.90625 0 
L 45.90625 32.71875 
Q 45.90625 40.484375 42.875 44.328125 
Q 39.84375 48.1875 33.796875 48.1875 
Q 26.515625 48.1875 22.3125 43.546875 
Q 18.109375 38.921875 18.109375 30.90625 
L 18.109375 0 
L 9.078125 0 
L 9.078125 54.6875 
L 18.109375 54.6875 
L 18.109375 46.1875 
Q 21.34375 51.125 25.703125 53.5625 
Q 30.078125 56 35.796875 56 
Q 45.21875 56 50.046875 50.171875 
Q 54.890625 44.34375 54.890625 33.015625 
z
" id="DejaVuSans-110"/>
     <path d="M 45.40625 46.390625 
L 45.40625 75.984375 
L 54.390625 75.984375 
L 54.390625 0 
L 45.40625 0 
L 45.40625 8.203125 
Q 42.578125 3.328125 38.25 0.953125 
Q 33.9375 -1.421875 27.875 -1.421875 
Q 17.96875 -1.421875 11.734375 6.484375 
Q 5.515625 14.40625 5.515625 27.296875 
Q 5.515625 40.1875 11.734375 48.09375 
Q 17.96875 56 27.875 56 
Q 33.9375 56 38.25 53.625 
Q 42.578125 51.265625 45.40625 46.390625 
z
M 14.796875 27.296875 
Q 14.796875 17.390625 18.875 11.75 
Q 22.953125 6.109375 30.078125 6.109375 
Q 37.203125 6.109375 41.296875 11.75 
Q 45.40625 17.390625 45.40625 27.296875 
Q 45.40625 37.203125 41.296875 42.84375 
Q 37.203125 48.484375 30.078125 48.484375 
Q 22.953125 48.484375 18.875 42.84375 
Q 14.796875 37.203125 14.796875 27.296875 
z
" id="DejaVuSans-100"/>
     <path d="M 19.671875 34.8125 
L 19.671875 8.109375 
L 35.5 8.109375 
Q 43.453125 8.109375 47.28125 11.40625 
Q 51.125 14.703125 51.125 21.484375 
Q 51.125 28.328125 47.28125 31.5625 
Q 43.453125 34.8125 35.5 34.8125 
z
M 19.671875 64.796875 
L 19.671875 42.828125 
L 34.28125 42.828125 
Q 41.5 42.828125 45.03125 45.53125 
Q 48.578125 48.25 48.578125 53.8125 
Q 48.578125 59.328125 45.03125 62.0625 
Q 41.5 64.796875 34.28125 64.796875 
z
M 9.8125 72.90625 
L 35.015625 72.90625 
Q 46.296875 72.90625 52.390625 68.21875 
Q 58.5 63.53125 58.5 54.890625 
Q 58.5 48.1875 55.375 44.234375 
Q 52.25 40.28125 46.1875 39.3125 
Q 53.46875 37.75 57.5 32.78125 
Q 61.53125 27.828125 61.53125 20.40625 
Q 61.53125 10.640625 54.890625 5.3125 
Q 48.25 0 35.984375 0 
L 9.8125 0 
z
" id="DejaVuSans-66"/>
     <path d="M 9.421875 54.6875 
L 18.40625 54.6875 
L 18.40625 0 
L 9.421875 0 
z
M 9.421875 75.984375 
L 18.40625 75.984375 
L 18.40625 64.59375 
L 9.421875 64.59375 
z
" id="DejaVuSans-105"/>
     <path d="M 9.8125 72.90625 
L 24.515625 72.90625 
L 43.109375 23.296875 
L 61.8125 72.90625 
L 76.515625 72.90625 
L 76.515625 0 
L 66.890625 0 
L 66.890625 64.015625 
L 48.09375 14.015625 
L 38.1875 14.015625 
L 19.390625 64.015625 
L 19.390625 0 
L 9.8125 0 
z
" id="DejaVuSans-77"/>
     <path d="M 18.3125 70.21875 
L 18.3125 54.6875 
L 36.8125 54.6875 
L 36.8125 47.703125 
L 18.3125 47.703125 
L 18.3125 18.015625 
Q 18.3125 11.328125 20.140625 9.421875 
Q 21.96875 7.515625 27.59375 7.515625 
L 36.8125 7.515625 
L 36.8125 0 
L 27.59375 0 
Q 17.1875 0 13.234375 3.875 
Q 9.28125 7.765625 9.28125 18.015625 
L 9.28125 47.703125 
L 2.6875 47.703125 
L 2.6875 54.6875 
L 9.28125 54.6875 
L 9.28125 70.21875 
z
" id="DejaVuSans-116"/>
     <path d="M 54.890625 33.015625 
L 54.890625 0 
L 45.90625 0 
L 45.90625 32.71875 
Q 45.90625 40.484375 42.875 44.328125 
Q 39.84375 48.1875 33.796875 48.1875 
Q 26.515625 48.1875 22.3125 43.546875 
Q 18.109375 38.921875 18.109375 30.90625 
L 18.109375 0 
L 9.078125 0 
L 9.078125 75.984375 
L 18.109375 75.984375 
L 18.109375 46.1875 
Q 21.34375 51.125 25.703125 53.5625 
Q 30.078125 56 35.796875 56 
Q 45.21875 56 50.046875 50.171875 
Q 54.890625 44.34375 54.890625 33.015625 
z
" id="DejaVuSans-104"/>
     <path d="M 2.984375 54.6875 
L 12.5 54.6875 
L 29.59375 8.796875 
L 46.6875 54.6875 
L 56.203125 54.6875 
L 35.6875 0 
L 23.484375 0 
z
" id="DejaVuSans-118"/>
    </defs>
    <g transform="translate(215.82 -6)scale(0.12 -0.12)">
     <use transform="translate(0 0.015625)" xlink:href="#DejaVuSans-65"/>
     <use transform="translate(68.408203 0.015625)" xlink:href="#DejaVuSans-99"/>
     <use transform="translate(123.388672 0.015625)" xlink:href="#DejaVuSans-99"/>
     <use transform="translate(178.369141 0.015625)" xlink:href="#DejaVuSans-117"/>
     <use transform="translate(241.748047 0.015625)" xlink:href="#DejaVuSans-114"/>
     <use transform="translate(282.861328 0.015625)" xlink:href="#DejaVuSans-97"/>
     <use transform="translate(344.140625 0.015625)" xlink:href="#DejaVuSans-99"/>
     <use transform="translate(399.121094 0.015625)" xlink:href="#DejaVuSans-121"/>
     <use transform="translate(458.300781 0.015625)" xlink:href="#DejaVuSans-32"/>
     <use transform="translate(490.087891 0.015625)" xlink:href="#DejaVuSans-102"/>
     <use transform="translate(525.292969 0.015625)" xlink:href="#DejaVuSans-111"/>
     <use transform="translate(586.474609 0.015625)" xlink:href="#DejaVuSans-114"/>
     <use transform="translate(627.587891 0.015625)" xlink:href="#DejaVuSans-32"/>
     <use transform="translate(659.375 0.015625)" xlink:href="#DejaVuSans-67"/>
     <use transform="translate(729.199219 0.015625)" xlink:href="#DejaVuSans-111"/>
     <use transform="translate(790.380859 0.015625)" xlink:href="#DejaVuSans-68"/>
     <use transform="translate(867.382812 0.015625)" xlink:href="#DejaVuSans-65"/>
     <use transform="translate(935.791016 0.015625)" xlink:href="#DejaVuSans-67"/>
     <use transform="translate(1005.615234 0.015625)" xlink:href="#DejaVuSans-108"/>
     <use transform="translate(1033.398438 0.015625)" xlink:href="#DejaVuSans-32"/>
     <use transform="translate(1065.185547 0.015625)" xlink:href="#DejaVuSans-97"/>
     <use transform="translate(1126.464844 0.015625)" xlink:href="#DejaVuSans-110"/>
     <use transform="translate(1189.84375 0.015625)" xlink:href="#DejaVuSans-100"/>
     <use transform="translate(1253.320312 0.015625)" xlink:href="#DejaVuSans-32"/>
     <use transform="translate(1285.107422 0.015625)" xlink:href="#DejaVuSans-66"/>
     <use transform="translate(1353.710938 0.015625)" xlink:href="#DejaVuSans-97"/>
     <use transform="translate(1414.990234 0.015625)" xlink:href="#DejaVuSans-115"/>
     <use transform="translate(1467.089844 0.015625)" xlink:href="#DejaVuSans-101"/>
     <use transform="translate(1528.613281 0.015625)" xlink:href="#DejaVuSans-108"/>
     <use transform="translate(1556.396484 0.015625)" xlink:href="#DejaVuSans-105"/>
     <use transform="translate(1584.179688 0.015625)" xlink:href="#DejaVuSans-110"/>
     <use transform="translate(1647.558594 0.015625)" xlink:href="#DejaVuSans-101"/>
     <use transform="translate(1709.082031 0.015625)" xlink:href="#DejaVuSans-32"/>
     <use transform="translate(1740.869141 0.015625)" xlink:href="#DejaVuSans-77"/>
     <use transform="translate(1827.148438 0.015625)" xlink:href="#DejaVuSans-101"/>
     <use transform="translate(1888.671875 0.015625)" xlink:href="#DejaVuSans-116"/>
     <use transform="translate(1927.880859 0.015625)" xlink:href="#DejaVuSans-104"/>
     <use transform="translate(1991.259766 0.015625)" xlink:href="#DejaVuSans-111"/>
     <use transform="translate(2052.441406 0.015625)" xlink:href="#DejaVuSans-100"/>
     <use transform="translate(2115.917969 0.015625)" xlink:href="#DejaVuSans-115"/>
     <use transform="translate(2168.017578 0.015625)" xlink:href="#DejaVuSans-32"/>
     <use transform="translate(2199.804688 0.015625)" xlink:href="#DejaVuSans-118"/>
     <use transform="translate(2258.984375 0.015625)" xlink:href="#DejaVuSans-115"/>
     <use transform="translate(2311.083984 0.015625)" xlink:href="#DejaVuSans-32"/>
     <use transform="translate(2342.871094 0.015625)" xlink:href="#DejaVuSans-Oblique-955"/>
    </g>
   </g>
   <g id="legend_1">
    <g id="patch_7">
     <path d="M 518.407812 66.7125 
L 713 66.7125 
Q 715 66.7125 715 64.7125 
L 715 7 
Q 715 5 713 5 
L 518.407812 5 
Q 516.407812 5 516.407812 7 
L 516.407812 64.7125 
Q 516.407812 66.7125 518.407812 66.7125 
z
" style="fill:#ffffff;opacity:0.8;stroke:#cccccc;stroke-linejoin:miter;"/>
    </g>
    <g id="PathCollection_5">
     <g>
      <use style="fill:#ff0000;stroke:#ff0000;" x="530.407812" xlink:href="#mc05db076ab" y="13.973437"/>
     </g>
    </g>
    <g id="text_18">
     <!-- CoDA-PCA + Logistic Regression -->
     <defs>
      <path d="M 19.671875 64.796875 
L 19.671875 37.40625 
L 32.078125 37.40625 
Q 38.96875 37.40625 42.71875 40.96875 
Q 46.484375 44.53125 46.484375 51.125 
Q 46.484375 57.671875 42.71875 61.234375 
Q 38.96875 64.796875 32.078125 64.796875 
z
M 9.8125 72.90625 
L 32.078125 72.90625 
Q 44.34375 72.90625 50.609375 67.359375 
Q 56.890625 61.8125 56.890625 51.125 
Q 56.890625 40.328125 50.609375 34.8125 
Q 44.34375 29.296875 32.078125 29.296875 
L 19.671875 29.296875 
L 19.671875 0 
L 9.8125 0 
z
" id="DejaVuSans-80"/>
      <path d="M 46 62.703125 
L 46 35.5 
L 73.1875 35.5 
L 73.1875 27.203125 
L 46 27.203125 
L 46 0 
L 37.796875 0 
L 37.796875 27.203125 
L 10.59375 27.203125 
L 10.59375 35.5 
L 37.796875 35.5 
L 37.796875 62.703125 
z
" id="DejaVuSans-43"/>
      <path d="M 9.8125 72.90625 
L 19.671875 72.90625 
L 19.671875 8.296875 
L 55.171875 8.296875 
L 55.171875 0 
L 9.8125 0 
z
" id="DejaVuSans-76"/>
      <path d="M 45.40625 27.984375 
Q 45.40625 37.75 41.375 43.109375 
Q 37.359375 48.484375 30.078125 48.484375 
Q 22.859375 48.484375 18.828125 43.109375 
Q 14.796875 37.75 14.796875 27.984375 
Q 14.796875 18.265625 18.828125 12.890625 
Q 22.859375 7.515625 30.078125 7.515625 
Q 37.359375 7.515625 41.375 12.890625 
Q 45.40625 18.265625 45.40625 27.984375 
z
M 54.390625 6.78125 
Q 54.390625 -7.171875 48.1875 -13.984375 
Q 42 -20.796875 29.203125 -20.796875 
Q 24.46875 -20.796875 20.265625 -20.09375 
Q 16.0625 -19.390625 12.109375 -17.921875 
L 12.109375 -9.1875 
Q 16.0625 -11.328125 19.921875 -12.34375 
Q 23.78125 -13.375 27.78125 -13.375 
Q 36.625 -13.375 41.015625 -8.765625 
Q 45.40625 -4.15625 45.40625 5.171875 
L 45.40625 9.625 
Q 42.625 4.78125 38.28125 2.390625 
Q 33.9375 0 27.875 0 
Q 17.828125 0 11.671875 7.65625 
Q 5.515625 15.328125 5.515625 27.984375 
Q 5.515625 40.671875 11.671875 48.328125 
Q 17.828125 56 27.875 56 
Q 33.9375 56 38.28125 53.609375 
Q 42.625 51.21875 45.40625 46.390625 
L 45.40625 54.6875 
L 54.390625 54.6875 
z
" id="DejaVuSans-103"/>
      <path d="M 44.390625 34.1875 
Q 47.5625 33.109375 50.5625 29.59375 
Q 53.5625 26.078125 56.59375 19.921875 
L 66.609375 0 
L 56 0 
L 46.6875 18.703125 
Q 43.0625 26.03125 39.671875 28.421875 
Q 36.28125 30.8125 30.421875 30.8125 
L 19.671875 30.8125 
L 19.671875 0 
L 9.8125 0 
L 9.8125 72.90625 
L 32.078125 72.90625 
Q 44.578125 72.90625 50.734375 67.671875 
Q 56.890625 62.453125 56.890625 51.90625 
Q 56.890625 45.015625 53.6875 40.46875 
Q 50.484375 35.9375 44.390625 34.1875 
z
M 19.671875 64.796875 
L 19.671875 38.921875 
L 32.078125 38.921875 
Q 39.203125 38.921875 42.84375 42.21875 
Q 46.484375 45.515625 46.484375 51.90625 
Q 46.484375 58.296875 42.84375 61.546875 
Q 39.203125 64.796875 32.078125 64.796875 
z
" id="DejaVuSans-82"/>
     </defs>
     <g transform="translate(548.407812 16.598437)scale(0.1 -0.1)">
      <use xlink:href="#DejaVuSans-67"/>
      <use x="69.824219" xlink:href="#DejaVuSans-111"/>
      <use x="131.005859" xlink:href="#DejaVuSans-68"/>
      <use x="207.992188" xlink:href="#DejaVuSans-65"/>
      <use x="276.369141" xlink:href="#DejaVuSans-45"/>
      <use x="312.453125" xlink:href="#DejaVuSans-80"/>
      <use x="372.755859" xlink:href="#DejaVuSans-67"/>
      <use x="442.580078" xlink:href="#DejaVuSans-65"/>
      <use x="510.988281" xlink:href="#DejaVuSans-32"/>
      <use x="542.775391" xlink:href="#DejaVuSans-43"/>
      <use x="626.564453" xlink:href="#DejaVuSans-32"/>
      <use x="658.351562" xlink:href="#DejaVuSans-76"/>
      <use x="714.048828" xlink:href="#DejaVuSans-111"/>
      <use x="775.230469" xlink:href="#DejaVuSans-103"/>
      <use x="838.707031" xlink:href="#DejaVuSans-105"/>
      <use x="866.490234" xlink:href="#DejaVuSans-115"/>
      <use x="918.589844" xlink:href="#DejaVuSans-116"/>
      <use x="957.798828" xlink:href="#DejaVuSans-105"/>
      <use x="985.582031" xlink:href="#DejaVuSans-99"/>
      <use x="1040.5625" xlink:href="#DejaVuSans-32"/>
      <use x="1072.349609" xlink:href="#DejaVuSans-82"/>
      <use x="1141.769531" xlink:href="#DejaVuSans-101"/>
      <use x="1203.292969" xlink:href="#DejaVuSans-103"/>
      <use x="1266.769531" xlink:href="#DejaVuSans-114"/>
      <use x="1307.851562" xlink:href="#DejaVuSans-101"/>
      <use x="1369.375" xlink:href="#DejaVuSans-115"/>
      <use x="1421.474609" xlink:href="#DejaVuSans-115"/>
      <use x="1473.574219" xlink:href="#DejaVuSans-105"/>
      <use x="1501.357422" xlink:href="#DejaVuSans-111"/>
      <use x="1562.539062" xlink:href="#DejaVuSans-110"/>
     </g>
    </g>
    <g id="PathCollection_6">
     <g>
      <use style="fill:#0000ff;stroke:#0000ff;" x="530.407812" xlink:href="#m088b044b4d" y="28.651563"/>
     </g>
    </g>
    <g id="text_19">
     <!-- CLR-PCA + Logistic Regression -->
     <g transform="translate(548.407812 31.276563)scale(0.1 -0.1)">
      <use xlink:href="#DejaVuSans-67"/>
      <use x="69.824219" xlink:href="#DejaVuSans-76"/>
      <use x="125.537109" xlink:href="#DejaVuSans-82"/>
      <use x="194.957031" xlink:href="#DejaVuSans-45"/>
      <use x="231.041016" xlink:href="#DejaVuSans-80"/>
      <use x="291.34375" xlink:href="#DejaVuSans-67"/>
      <use x="361.167969" xlink:href="#DejaVuSans-65"/>
      <use x="429.576172" xlink:href="#DejaVuSans-32"/>
      <use x="461.363281" xlink:href="#DejaVuSans-43"/>
      <use x="545.152344" xlink:href="#DejaVuSans-32"/>
      <use x="576.939453" xlink:href="#DejaVuSans-76"/>
      <use x="632.636719" xlink:href="#DejaVuSans-111"/>
      <use x="693.818359" xlink:href="#DejaVuSans-103"/>
      <use x="757.294922" xlink:href="#DejaVuSans-105"/>
      <use x="785.078125" xlink:href="#DejaVuSans-115"/>
      <use x="837.177734" xlink:href="#DejaVuSans-116"/>
      <use x="876.386719" xlink:href="#DejaVuSans-105"/>
      <use x="904.169922" xlink:href="#DejaVuSans-99"/>
      <use x="959.150391" xlink:href="#DejaVuSans-32"/>
      <use x="990.9375" xlink:href="#DejaVuSans-82"/>
      <use x="1060.357422" xlink:href="#DejaVuSans-101"/>
      <use x="1121.880859" xlink:href="#DejaVuSans-103"/>
      <use x="1185.357422" xlink:href="#DejaVuSans-114"/>
      <use x="1226.439453" xlink:href="#DejaVuSans-101"/>
      <use x="1287.962891" xlink:href="#DejaVuSans-115"/>
      <use x="1340.0625" xlink:href="#DejaVuSans-115"/>
      <use x="1392.162109" xlink:href="#DejaVuSans-105"/>
      <use x="1419.945312" xlink:href="#DejaVuSans-111"/>
      <use x="1481.126953" xlink:href="#DejaVuSans-110"/>
     </g>
    </g>
    <g id="PathCollection_7">
     <g>
      <use style="fill:#008000;stroke:#008000;" x="530.407812" xlink:href="#mbbd8107040" y="43.329687"/>
     </g>
    </g>
    <g id="text_20">
     <!-- PCA + Logistic Regression -->
     <g transform="translate(548.407812 45.954687)scale(0.1 -0.1)">
      <use xlink:href="#DejaVuSans-80"/>
      <use x="60.302734" xlink:href="#DejaVuSans-67"/>
      <use x="130.126953" xlink:href="#DejaVuSans-65"/>
      <use x="198.535156" xlink:href="#DejaVuSans-32"/>
      <use x="230.322266" xlink:href="#DejaVuSans-43"/>
      <use x="314.111328" xlink:href="#DejaVuSans-32"/>
      <use x="345.898438" xlink:href="#DejaVuSans-76"/>
      <use x="401.595703" xlink:href="#DejaVuSans-111"/>
      <use x="462.777344" xlink:href="#DejaVuSans-103"/>
      <use x="526.253906" xlink:href="#DejaVuSans-105"/>
      <use x="554.037109" xlink:href="#DejaVuSans-115"/>
      <use x="606.136719" xlink:href="#DejaVuSans-116"/>
      <use x="645.345703" xlink:href="#DejaVuSans-105"/>
      <use x="673.128906" xlink:href="#DejaVuSans-99"/>
      <use x="728.109375" xlink:href="#DejaVuSans-32"/>
      <use x="759.896484" xlink:href="#DejaVuSans-82"/>
      <use x="829.316406" xlink:href="#DejaVuSans-101"/>
      <use x="890.839844" xlink:href="#DejaVuSans-103"/>
      <use x="954.316406" xlink:href="#DejaVuSans-114"/>
      <use x="995.398438" xlink:href="#DejaVuSans-101"/>
      <use x="1056.921875" xlink:href="#DejaVuSans-115"/>
      <use x="1109.021484" xlink:href="#DejaVuSans-115"/>
      <use x="1161.121094" xlink:href="#DejaVuSans-105"/>
      <use x="1188.904297" xlink:href="#DejaVuSans-111"/>
      <use x="1250.085938" xlink:href="#DejaVuSans-110"/>
     </g>
    </g>
    <g id="PathCollection_8">
     <g>
      <use style="fill:#ffff00;stroke:#ffff00;" x="530.407812" xlink:href="#m4ee3de7b26" y="58.007812"/>
     </g>
    </g>
    <g id="text_21">
     <!-- Logistic Regression -->
     <g transform="translate(548.407812 60.632812)scale(0.1 -0.1)">
      <use xlink:href="#DejaVuSans-76"/>
      <use x="55.697266" xlink:href="#DejaVuSans-111"/>
      <use x="116.878906" xlink:href="#DejaVuSans-103"/>
      <use x="180.355469" xlink:href="#DejaVuSans-105"/>
      <use x="208.138672" xlink:href="#DejaVuSans-115"/>
      <use x="260.238281" xlink:href="#DejaVuSans-116"/>
      <use x="299.447266" xlink:href="#DejaVuSans-105"/>
      <use x="327.230469" xlink:href="#DejaVuSans-99"/>
      <use x="382.210938" xlink:href="#DejaVuSans-32"/>
      <use x="413.998047" xlink:href="#DejaVuSans-82"/>
      <use x="483.417969" xlink:href="#DejaVuSans-101"/>
      <use x="544.941406" xlink:href="#DejaVuSans-103"/>
      <use x="608.417969" xlink:href="#DejaVuSans-114"/>
      <use x="649.5" xlink:href="#DejaVuSans-101"/>
      <use x="711.023438" xlink:href="#DejaVuSans-115"/>
      <use x="763.123047" xlink:href="#DejaVuSans-115"/>
      <use x="815.222656" xlink:href="#DejaVuSans-105"/>
      <use x="843.005859" xlink:href="#DejaVuSans-111"/>
      <use x="904.1875" xlink:href="#DejaVuSans-110"/>
     </g>
    </g>
   </g>
  </g>
 </g>
 <defs>
  <clipPath id="p2fe98706db">
   <rect height="360" width="720" x="0" y="0"/>
  </clipPath>
 </defs>
</svg>
