<?xml version="1.0" encoding="utf-8" standalone="no"?>
<!DOCTYPE svg PUBLIC "-//W3C//DTD SVG 1.1//EN"
  "http://www.w3.org/Graphics/SVG/1.1/DTD/svg11.dtd">
<!-- Created with matplotlib (https://matplotlib.org/) -->
<svg height="360pt" version="1.1" viewBox="0 0 720 360" width="720pt" xmlns="http://www.w3.org/2000/svg" xmlns:xlink="http://www.w3.org/1999/xlink">
 <defs>
  <style type="text/css">
*{stroke-linecap:butt;stroke-linejoin:round;}
  </style>
 </defs>
 <g id="figure_1">
  <g id="patch_1">
   <path d="M 0 360 
L 720 360 
L 720 0 
L 0 0 
z
" style="fill:#ffffff;"/>
  </g>
  <g id="axes_1">
   <g id="patch_2">
    <path d="M 0 360 
L 720 360 
L 720 0 
L 0 0 
z
" style="fill:#ffffff;"/>
   </g>
   <g id="PathCollection_1">
    <defs>
     <path d="M 0 3 
C 0.795609 3 1.55874 2.683901 2.12132 2.12132 
C 2.683901 1.55874 3 0.795609 3 0 
C 3 -0.795609 2.683901 -1.55874 2.12132 -2.12132 
C 1.55874 -2.683901 0.795609 -3 0 -3 
C -0.795609 -3 -1.55874 -2.683901 -2.12132 -2.12132 
C -2.683901 -1.55874 -3 -0.795609 -3 0 
C -3 0.795609 -2.683901 1.55874 -2.12132 2.12132 
C -1.55874 2.683901 -0.795609 3 0 3 
z
" id="m3fc1ddecb8" style="stroke:#ff0000;"/>
    </defs>
    <g clip-path="url(#pc3ff30605c)">
     <use style="fill:#ff0000;stroke:#ff0000;" x="62.479339" xlink:href="#m3fc1ddecb8" y="142.627706"/>
     <use style="fill:#ff0000;stroke:#ff0000;" x="181.487603" xlink:href="#m3fc1ddecb8" y="132.466303"/>
     <use style="fill:#ff0000;stroke:#ff0000;" x="300.495868" xlink:href="#m3fc1ddecb8" y="131.948924"/>
     <use style="fill:#ff0000;stroke:#ff0000;" x="419.504132" xlink:href="#m3fc1ddecb8" y="137.785446"/>
     <use style="fill:#ff0000;stroke:#ff0000;" x="538.512397" xlink:href="#m3fc1ddecb8" y="134.125311"/>
     <use style="fill:#ff0000;stroke:#ff0000;" x="657.520661" xlink:href="#m3fc1ddecb8" y="142.12293"/>
    </g>
   </g>
   <g id="PathCollection_2">
    <defs>
     <path d="M 0 3 
C 0.795609 3 1.55874 2.683901 2.12132 2.12132 
C 2.683901 1.55874 3 0.795609 3 0 
C 3 -0.795609 2.683901 -1.55874 2.12132 -2.12132 
C 1.55874 -2.683901 0.795609 -3 0 -3 
C -0.795609 -3 -1.55874 -2.683901 -2.12132 -2.12132 
C -2.683901 -1.55874 -3 -0.795609 -3 0 
C -3 0.795609 -2.683901 1.55874 -2.12132 2.12132 
C -1.55874 2.683901 -0.795609 3 0 3 
z
" id="m961ea2976a" style="stroke:#0000ff;"/>
    </defs>
    <g clip-path="url(#pc3ff30605c)">
     <use style="fill:#0000ff;stroke:#0000ff;" x="62.479339" xlink:href="#m961ea2976a" y="88.309435"/>
     <use style="fill:#0000ff;stroke:#0000ff;" x="181.487603" xlink:href="#m961ea2976a" y="88.309435"/>
     <use style="fill:#0000ff;stroke:#0000ff;" x="300.495868" xlink:href="#m961ea2976a" y="88.309435"/>
     <use style="fill:#0000ff;stroke:#0000ff;" x="419.504132" xlink:href="#m961ea2976a" y="88.309435"/>
     <use style="fill:#0000ff;stroke:#0000ff;" x="538.512397" xlink:href="#m961ea2976a" y="88.309435"/>
     <use style="fill:#0000ff;stroke:#0000ff;" x="657.520661" xlink:href="#m961ea2976a" y="88.309435"/>
    </g>
   </g>
   <g id="PathCollection_3">
    <defs>
     <path d="M 0 3 
C 0.795609 3 1.55874 2.683901 2.12132 2.12132 
C 2.683901 1.55874 3 0.795609 3 0 
C 3 -0.795609 2.683901 -1.55874 2.12132 -2.12132 
C 1.55874 -2.683901 0.795609 -3 0 -3 
C -0.795609 -3 -1.55874 -2.683901 -2.12132 -2.12132 
C -2.683901 -1.55874 -3 -0.795609 -3 0 
C -3 0.795609 -2.683901 1.55874 -2.12132 2.12132 
C -1.55874 2.683901 -0.795609 3 0 3 
z
" id="mb12c8a17ce" style="stroke:#008000;"/>
    </defs>
    <g clip-path="url(#pc3ff30605c)">
     <use style="fill:#008000;stroke:#008000;" x="62.479339" xlink:href="#mb12c8a17ce" y="141.123459"/>
     <use style="fill:#008000;stroke:#008000;" x="181.487603" xlink:href="#mb12c8a17ce" y="141.123459"/>
     <use style="fill:#008000;stroke:#008000;" x="300.495868" xlink:href="#mb12c8a17ce" y="141.123459"/>
     <use style="fill:#008000;stroke:#008000;" x="419.504132" xlink:href="#mb12c8a17ce" y="141.123459"/>
     <use style="fill:#008000;stroke:#008000;" x="538.512397" xlink:href="#mb12c8a17ce" y="141.123459"/>
     <use style="fill:#008000;stroke:#008000;" x="657.520661" xlink:href="#mb12c8a17ce" y="141.123459"/>
    </g>
   </g>
   <g id="PathCollection_4">
    <defs>
     <path d="M 0 3 
C 0.795609 3 1.55874 2.683901 2.12132 2.12132 
C 2.683901 1.55874 3 0.795609 3 0 
C 3 -0.795609 2.683901 -1.55874 2.12132 -2.12132 
C 1.55874 -2.683901 0.795609 -3 0 -3 
C -0.795609 -3 -1.55874 -2.683901 -2.12132 -2.12132 
C -2.683901 -1.55874 -3 -0.795609 -3 0 
C -3 0.795609 -2.683901 1.55874 -2.12132 2.12132 
C -1.55874 2.683901 -0.795609 3 0 3 
z
" id="m56b8b6d46b" style="stroke:#ffff00;"/>
    </defs>
    <g clip-path="url(#pc3ff30605c)">
     <use style="fill:#ffff00;stroke:#ffff00;" x="62.479339" xlink:href="#m56b8b6d46b" y="175.999426"/>
     <use style="fill:#ffff00;stroke:#ffff00;" x="181.487603" xlink:href="#m56b8b6d46b" y="175.999426"/>
     <use style="fill:#ffff00;stroke:#ffff00;" x="300.495868" xlink:href="#m56b8b6d46b" y="175.999426"/>
     <use style="fill:#ffff00;stroke:#ffff00;" x="419.504132" xlink:href="#m56b8b6d46b" y="175.999426"/>
     <use style="fill:#ffff00;stroke:#ffff00;" x="538.512397" xlink:href="#m56b8b6d46b" y="175.999426"/>
     <use style="fill:#ffff00;stroke:#ffff00;" x="657.520661" xlink:href="#m56b8b6d46b" y="175.999426"/>
    </g>
   </g>
   <g id="PolyCollection_1">
    <path clip-path="url(#pc3ff30605c)" d="M 73.78051 343.636364 
L 51.178167 343.636364 
L 50.261874 340.880674 
L 49.506233 338.124984 
L 48.935601 335.369294 
L 48.560559 332.613604 
L 48.376682 329.857914 
L 48.364965 327.102224 
L 48.493815 324.346534 
L 48.72233 321.590844 
L 49.004386 318.835154 
L 49.292952 316.079464 
L 49.544111 313.323774 
L 49.720295 310.568084 
L 49.792477 307.812394 
L 49.741196 305.056704 
L 49.556492 302.301014 
L 49.236964 299.545324 
L 48.788243 296.789634 
L 48.221183 294.033944 
L 47.550055 291.278254 
L 46.790974 288.522564 
L 45.960672 285.766874 
L 45.075691 283.011184 
L 44.151969 280.255494 
L 43.204736 277.499804 
L 42.248626 274.744115 
L 41.297866 271.988425 
L 40.366429 269.232735 
L 39.468053 266.477045 
L 38.616056 263.721355 
L 37.822928 260.965665 
L 37.09972 258.209975 
L 36.4553 255.454285 
L 35.895583 252.698595 
L 35.422848 249.942905 
L 35.035276 247.187215 
L 34.72682 244.431525 
L 34.487481 241.675835 
L 34.304012 238.920145 
L 34.161019 236.164455 
L 34.042374 233.408765 
L 33.932797 230.653075 
L 33.819429 227.897385 
L 33.693219 225.141695 
L 33.549963 222.386005 
L 33.390841 219.630315 
L 33.222399 216.874625 
L 33.055947 214.118935 
L 32.906452 211.363245 
L 32.791039 208.607555 
L 32.727273 205.851865 
L 32.731424 203.096175 
L 32.816918 200.340485 
L 32.993126 197.584795 
L 33.26465 194.829106 
L 33.631135 192.073416 
L 34.087636 189.317726 
L 34.625454 186.562036 
L 35.233319 183.806346 
L 35.898769 181.050656 
L 36.609545 178.294966 
L 37.35482 175.539276 
L 38.126142 172.783586 
L 38.917961 170.027896 
L 39.727718 167.272206 
L 40.555489 164.516516 
L 41.403254 161.760826 
L 42.273905 159.005136 
L 43.170135 156.249446 
L 44.09336 153.493756 
L 45.042831 150.738066 
L 46.015047 147.982376 
L 47.003566 145.226686 
L 47.999222 142.470996 
L 48.990731 139.715306 
L 49.965595 136.959616 
L 50.911192 134.203926 
L 51.815895 131.448236 
L 52.670084 128.692546 
L 53.466923 125.936856 
L 54.202809 123.181166 
L 54.877457 120.425476 
L 55.493614 117.669786 
L 56.056478 114.914097 
L 56.572887 112.158407 
L 57.050418 109.402717 
L 57.496497 106.647027 
L 57.917636 103.891337 
L 58.318878 101.135647 
L 58.703503 98.379957 
L 59.072997 95.624267 
L 59.427257 92.868577 
L 59.764975 90.112887 
L 60.084122 87.357197 
L 60.382449 84.601507 
L 60.657934 81.845817 
L 60.909115 79.090127 
L 61.135295 76.334437 
L 61.336588 73.578747 
L 61.513862 70.823057 
L 63.444816 70.823057 
L 63.444816 70.823057 
L 63.62209 73.578747 
L 63.823383 76.334437 
L 64.049562 79.090127 
L 64.300744 81.845817 
L 64.576228 84.601507 
L 64.874555 87.357197 
L 65.193702 90.112887 
L 65.531421 92.868577 
L 65.885681 95.624267 
L 66.255175 98.379957 
L 66.6398 101.135647 
L 67.041042 103.891337 
L 67.462181 106.647027 
L 67.90826 109.402717 
L 68.385791 112.158407 
L 68.9022 114.914097 
L 69.465064 117.669786 
L 70.081221 120.425476 
L 70.755869 123.181166 
L 71.491755 125.936856 
L 72.288593 128.692546 
L 73.142782 131.448236 
L 74.047485 134.203926 
L 74.993083 136.959616 
L 75.967947 139.715306 
L 76.959455 142.470996 
L 77.955111 145.226686 
L 78.943631 147.982376 
L 79.915847 150.738066 
L 80.865318 153.493756 
L 81.788543 156.249446 
L 82.684773 159.005136 
L 83.555424 161.760826 
L 84.403188 164.516516 
L 85.230959 167.272206 
L 86.040717 170.027896 
L 86.832536 172.783586 
L 87.603857 175.539276 
L 88.349133 178.294966 
L 89.059908 181.050656 
L 89.725359 183.806346 
L 90.333224 186.562036 
L 90.871041 189.317726 
L 91.327543 192.073416 
L 91.694028 194.829106 
L 91.965551 197.584795 
L 92.14176 200.340485 
L 92.227253 203.096175 
L 92.231405 205.851865 
L 92.167638 208.607555 
L 92.052226 211.363245 
L 91.902731 214.118935 
L 91.736279 216.874625 
L 91.567836 219.630315 
L 91.408715 222.386005 
L 91.265459 225.141695 
L 91.139249 227.897385 
L 91.02588 230.653075 
L 90.916304 233.408765 
L 90.797659 236.164455 
L 90.654666 238.920145 
L 90.471196 241.675835 
L 90.231858 244.431525 
L 89.923402 247.187215 
L 89.53583 249.942905 
L 89.063095 252.698595 
L 88.503378 255.454285 
L 87.858958 258.209975 
L 87.135749 260.965665 
L 86.342621 263.721355 
L 85.490625 266.477045 
L 84.592249 269.232735 
L 83.660812 271.988425 
L 82.710051 274.744115 
L 81.753941 277.499804 
L 80.806709 280.255494 
L 79.882987 283.011184 
L 78.998006 285.766874 
L 78.167704 288.522564 
L 77.408623 291.278254 
L 76.737495 294.033944 
L 76.170434 296.789634 
L 75.721714 299.545324 
L 75.402186 302.301014 
L 75.217481 305.056704 
L 75.1662 307.812394 
L 75.238383 310.568084 
L 75.414567 313.323774 
L 75.665725 316.079464 
L 75.954292 318.835154 
L 76.236347 321.590844 
L 76.464863 324.346534 
L 76.593712 327.102224 
L 76.581995 329.857914 
L 76.398119 332.613604 
L 76.023077 335.369294 
L 75.452445 338.124984 
L 74.696803 340.880674 
L 73.78051 343.636364 
z
" style="fill:#1f77b4;fill-opacity:0.3;"/>
   </g>
   <g id="PolyCollection_2">
    <path clip-path="url(#pc3ff30605c)" d="M 199.691393 339.119587 
L 163.283813 339.119587 
L 162.632289 336.089501 
L 162.243273 333.059415 
L 162.117632 330.02933 
L 162.240525 326.999244 
L 162.582628 323.969158 
L 163.10257 320.939072 
L 163.750294 317.908987 
L 164.470932 314.878901 
L 165.208762 311.848815 
L 165.910844 308.818729 
L 166.530009 305.788644 
L 167.026998 302.758558 
L 167.371685 299.728472 
L 167.543426 296.698386 
L 167.530695 293.6683 
L 167.33021 290.638215 
L 166.94578 287.608129 
L 166.387082 284.578043 
L 165.668524 281.547957 
L 164.808297 278.517872 
L 163.827628 275.487786 
L 162.750224 272.4577 
L 161.601822 269.427614 
L 160.409754 266.397528 
L 159.202454 263.367443 
L 158.008825 260.337357 
L 156.857447 257.307271 
L 155.775644 254.277185 
L 154.788451 251.2471 
L 153.917575 248.217014 
L 153.180451 245.186928 
L 152.589502 242.156842 
L 152.151674 239.126757 
L 151.868338 236.096671 
L 151.735537 233.066585 
L 151.744597 230.036499 
L 151.882998 227.006413 
L 152.135448 223.976328 
L 152.485022 220.946242 
L 152.914277 217.916156 
L 153.406229 214.88607 
L 153.945145 211.855985 
L 154.517098 208.825899 
L 155.110287 205.795813 
L 155.715153 202.765727 
L 156.324324 199.735641 
L 156.932447 196.705556 
L 157.535948 193.67547 
L 158.132755 190.645384 
L 158.722019 187.615298 
L 159.30383 184.585213 
L 159.878938 181.555127 
L 160.44848 178.525041 
L 161.013725 175.494955 
L 161.575829 172.46487 
L 162.135627 169.434784 
L 162.69348 166.404698 
L 163.24918 163.374612 
L 163.801937 160.344526 
L 164.350438 157.314441 
L 164.892972 154.284355 
L 165.427609 151.254269 
L 165.952394 148.224183 
L 166.465547 145.194098 
L 166.965636 142.164012 
L 167.451709 139.133926 
L 167.923384 136.10384 
L 168.380876 133.073754 
L 168.824995 130.043669 
L 169.257094 127.013583 
L 169.678992 123.983497 
L 170.092874 120.953411 
L 170.501172 117.923326 
L 170.906422 114.89324 
L 171.311114 111.863154 
L 171.717528 108.833068 
L 172.127558 105.802983 
L 172.542547 102.772897 
L 172.963151 99.742811 
L 173.389221 96.712725 
L 173.819763 93.682639 
L 174.252949 90.652554 
L 174.686209 87.622468 
L 175.116399 84.592382 
L 175.540025 81.562296 
L 175.953507 78.532211 
L 176.353462 75.502125 
L 176.736966 72.472039 
L 177.101766 69.441953 
L 177.446429 66.411867 
L 177.770398 63.381782 
L 178.073956 60.351696 
L 178.358105 57.32161 
L 178.624382 54.291524 
L 178.874621 51.261439 
L 179.110716 48.231353 
L 179.334393 45.201267 
L 179.54703 42.171181 
L 179.749539 39.141095 
L 183.225668 39.141095 
L 183.225668 39.141095 
L 183.428176 42.171181 
L 183.640813 45.201267 
L 183.864491 48.231353 
L 184.100586 51.261439 
L 184.350825 54.291524 
L 184.617101 57.32161 
L 184.901251 60.351696 
L 185.204809 63.381782 
L 185.528778 66.411867 
L 185.873441 69.441953 
L 186.238241 72.472039 
L 186.621745 75.502125 
L 187.0217 78.532211 
L 187.435182 81.562296 
L 187.858807 84.592382 
L 188.288998 87.622468 
L 188.722258 90.652554 
L 189.155443 93.682639 
L 189.585985 96.712725 
L 190.012056 99.742811 
L 190.432659 102.772897 
L 190.847649 105.802983 
L 191.257678 108.833068 
L 191.664092 111.863154 
L 192.068785 114.89324 
L 192.474035 117.923326 
L 192.882332 120.953411 
L 193.296215 123.983497 
L 193.718112 127.013583 
L 194.150211 130.043669 
L 194.59433 133.073754 
L 195.051823 136.10384 
L 195.523497 139.133926 
L 196.009571 142.164012 
L 196.50966 145.194098 
L 197.022813 148.224183 
L 197.547598 151.254269 
L 198.082235 154.284355 
L 198.624769 157.314441 
L 199.173269 160.344526 
L 199.726026 163.374612 
L 200.281727 166.404698 
L 200.839579 169.434784 
L 201.399378 172.46487 
L 201.961481 175.494955 
L 202.526727 178.525041 
L 203.096269 181.555127 
L 203.671376 184.585213 
L 204.253187 187.615298 
L 204.842452 190.645384 
L 205.439259 193.67547 
L 206.042759 196.705556 
L 206.650882 199.735641 
L 207.260054 202.765727 
L 207.86492 205.795813 
L 208.458109 208.825899 
L 209.030062 211.855985 
L 209.568978 214.88607 
L 210.06093 217.916156 
L 210.490184 220.946242 
L 210.839759 223.976328 
L 211.092209 227.006413 
L 211.23061 230.036499 
L 211.239669 233.066585 
L 211.106869 236.096671 
L 210.823532 239.126757 
L 210.385705 242.156842 
L 209.794755 245.186928 
L 209.057632 248.217014 
L 208.186756 251.2471 
L 207.199562 254.277185 
L 206.11776 257.307271 
L 204.966382 260.337357 
L 203.772752 263.367443 
L 202.565452 266.397528 
L 201.373385 269.427614 
L 200.224982 272.4577 
L 199.147579 275.487786 
L 198.16691 278.517872 
L 197.306682 281.547957 
L 196.588125 284.578043 
L 196.029427 287.608129 
L 195.644996 290.638215 
L 195.444511 293.6683 
L 195.43178 296.698386 
L 195.603521 299.728472 
L 195.948208 302.758558 
L 196.445198 305.788644 
L 197.064362 308.818729 
L 197.766445 311.848815 
L 198.504275 314.878901 
L 199.224913 317.908987 
L 199.872637 320.939072 
L 200.392579 323.969158 
L 200.734681 326.999244 
L 200.857575 330.02933 
L 200.731934 333.059415 
L 200.342918 336.089501 
L 199.691393 339.119587 
z
" style="fill:#1f77b4;fill-opacity:0.3;"/>
   </g>
   <g id="PolyCollection_3">
    <path clip-path="url(#pc3ff30605c)" d="M 321.106373 334.60281 
L 279.885363 334.60281 
L 279.438539 331.572073 
L 279.208005 328.541335 
L 279.175747 325.510598 
L 279.314069 322.47986 
L 279.58819 319.449123 
L 279.959284 316.418385 
L 280.387607 313.387648 
L 280.83538 310.35691 
L 281.269123 307.326173 
L 281.661263 304.295435 
L 281.990927 301.264697 
L 282.243959 298.23396 
L 282.412295 295.203222 
L 282.492888 292.172485 
L 282.486425 289.141747 
L 282.396042 286.11101 
L 282.226236 283.080272 
L 281.982074 280.049535 
L 281.66875 277.018797 
L 281.291476 273.98806 
L 280.855604 270.957322 
L 280.366894 267.926584 
L 279.831796 264.895847 
L 279.257644 261.865109 
L 278.652693 258.834372 
L 278.025981 255.803634 
L 277.387018 252.772897 
L 276.745364 249.742159 
L 276.110168 246.711422 
L 275.489746 243.680684 
L 274.891265 240.649947 
L 274.320584 237.619209 
L 273.782268 234.588471 
L 273.279754 231.557734 
L 272.815637 228.526996 
L 272.392015 225.496259 
L 272.01083 222.465521 
L 271.67415 219.434784 
L 271.384361 216.404046 
L 271.144225 213.373309 
L 270.956843 210.342571 
L 270.825502 207.311834 
L 270.753478 204.281096 
L 270.743802 201.250358 
L 270.799043 198.219621 
L 270.921141 195.188883 
L 271.111279 192.158146 
L 271.369842 189.127408 
L 271.696412 186.096671 
L 272.089822 183.065933 
L 272.548226 180.035196 
L 273.069184 177.004458 
L 273.649735 173.973721 
L 274.286465 170.942983 
L 274.97555 167.912245 
L 275.712788 164.881508 
L 276.493616 161.85077 
L 277.313127 158.820033 
L 278.166083 155.789295 
L 279.046939 152.758558 
L 279.949875 149.72782 
L 280.868828 146.697083 
L 281.797549 143.666345 
L 282.729656 140.635608 
L 283.658701 137.60487 
L 284.57824 134.574132 
L 285.481918 131.543395 
L 286.363547 128.512657 
L 287.217198 125.48192 
L 288.037294 122.451182 
L 288.818698 119.420445 
L 289.556803 116.389707 
L 290.247616 113.35897 
L 290.887842 110.328232 
L 291.474957 107.297495 
L 292.007278 104.266757 
L 292.484038 101.23602 
L 292.905445 98.205282 
L 293.272741 95.174544 
L 293.588247 92.143807 
L 293.855385 89.113069 
L 294.078664 86.082332 
L 294.263629 83.051594 
L 294.416745 80.020857 
L 294.545233 76.990119 
L 294.656833 73.959382 
L 294.759521 70.928644 
L 294.861183 67.897907 
L 294.969268 64.867169 
L 295.090448 61.836431 
L 295.230301 58.805694 
L 295.393054 55.774956 
L 295.581399 52.744219 
L 295.796399 49.713481 
L 296.037487 46.682744 
L 296.302568 43.652006 
L 296.588199 40.621269 
L 296.889846 37.590531 
L 297.202189 34.559794 
L 303.789547 34.559794 
L 303.789547 34.559794 
L 304.10189 37.590531 
L 304.403537 40.621269 
L 304.689168 43.652006 
L 304.954249 46.682744 
L 305.195337 49.713481 
L 305.410336 52.744219 
L 305.598681 55.774956 
L 305.761434 58.805694 
L 305.901287 61.836431 
L 306.022467 64.867169 
L 306.130553 67.897907 
L 306.232215 70.928644 
L 306.334902 73.959382 
L 306.446502 76.990119 
L 306.57499 80.020857 
L 306.728107 83.051594 
L 306.913071 86.082332 
L 307.136351 89.113069 
L 307.403488 92.143807 
L 307.718995 95.174544 
L 308.086291 98.205282 
L 308.507697 101.23602 
L 308.984457 104.266757 
L 309.516779 107.297495 
L 310.103893 110.328232 
L 310.744119 113.35897 
L 311.434933 116.389707 
L 312.173037 119.420445 
L 312.954441 122.451182 
L 313.774537 125.48192 
L 314.628189 128.512657 
L 315.509818 131.543395 
L 316.413495 134.574132 
L 317.333035 137.60487 
L 318.262079 140.635608 
L 319.194186 143.666345 
L 320.122907 146.697083 
L 321.041861 149.72782 
L 321.944796 152.758558 
L 322.825653 155.789295 
L 323.678609 158.820033 
L 324.498119 161.85077 
L 325.278947 164.881508 
L 326.016185 167.912245 
L 326.705271 170.942983 
L 327.342001 173.973721 
L 327.922552 177.004458 
L 328.443509 180.035196 
L 328.901913 183.065933 
L 329.295324 186.096671 
L 329.621894 189.127408 
L 329.880457 192.158146 
L 330.070595 195.188883 
L 330.192692 198.219621 
L 330.247934 201.250358 
L 330.238257 204.281096 
L 330.166233 207.311834 
L 330.034893 210.342571 
L 329.84751 213.373309 
L 329.607375 216.404046 
L 329.317585 219.434784 
L 328.980906 222.465521 
L 328.599721 225.496259 
L 328.176099 228.526996 
L 327.711982 231.557734 
L 327.209468 234.588471 
L 326.671151 237.619209 
L 326.10047 240.649947 
L 325.501989 243.680684 
L 324.881567 246.711422 
L 324.246372 249.742159 
L 323.604718 252.772897 
L 322.965755 255.803634 
L 322.339042 258.834372 
L 321.734092 261.865109 
L 321.159939 264.895847 
L 320.624841 267.926584 
L 320.136132 270.957322 
L 319.700259 273.98806 
L 319.322985 277.018797 
L 319.009662 280.049535 
L 318.765499 283.080272 
L 318.595693 286.11101 
L 318.505311 289.141747 
L 318.498847 292.172485 
L 318.579441 295.203222 
L 318.747777 298.23396 
L 319.000809 301.264697 
L 319.330473 304.295435 
L 319.722612 307.326173 
L 320.156355 310.35691 
L 320.604128 313.387648 
L 321.032452 316.418385 
L 321.403545 319.449123 
L 321.677667 322.47986 
L 321.815989 325.510598 
L 321.78373 328.541335 
L 321.553197 331.572073 
L 321.106373 334.60281 
z
" style="fill:#1f77b4;fill-opacity:0.3;"/>
   </g>
   <g id="PolyCollection_4">
    <path clip-path="url(#pc3ff30605c)" d="M 442.447933 334.60281 
L 396.560332 334.60281 
L 396.177572 331.480173 
L 396.039805 328.357536 
L 396.123466 325.234898 
L 396.393525 322.112261 
L 396.806343 318.989624 
L 397.313137 315.866986 
L 397.863682 312.744349 
L 398.409898 309.621712 
L 398.908978 306.499074 
L 399.325825 303.376437 
L 399.634622 300.2538 
L 399.819506 297.131162 
L 399.874384 294.008525 
L 399.802033 290.885888 
L 399.612662 287.763251 
L 399.322137 284.640613 
L 398.95008 281.517976 
L 398.517995 278.395339 
L 398.047577 275.272701 
L 397.559263 272.150064 
L 397.0711 269.027427 
L 396.597915 265.904789 
L 396.150801 262.782152 
L 395.736882 259.659515 
L 395.359335 256.536877 
L 395.017644 253.41424 
L 394.708053 250.291603 
L 394.424202 247.168965 
L 394.157897 244.046328 
L 393.89999 240.923691 
L 393.641306 237.801053 
L 393.373567 234.678416 
L 393.09024 231.555779 
L 392.787246 228.433141 
L 392.46347 225.310504 
L 392.121031 222.187867 
L 391.765275 219.065229 
L 391.404506 215.942592 
L 391.049465 212.819955 
L 390.712626 209.697317 
L 390.407349 206.57468 
L 390.147002 203.452043 
L 389.944096 200.329405 
L 389.809544 197.206768 
L 389.752066 194.084131 
L 389.777812 190.961493 
L 389.890186 187.838856 
L 390.089885 184.716219 
L 390.375111 181.593581 
L 390.741917 178.470944 
L 391.184635 175.348307 
L 391.696329 172.225669 
L 392.269239 169.103032 
L 392.89517 165.980395 
L 393.565817 162.857757 
L 394.273022 159.73512 
L 395.008956 156.612483 
L 395.766266 153.489845 
L 396.538187 150.367208 
L 397.318637 147.244571 
L 398.10231 144.121933 
L 398.884758 140.999296 
L 399.662459 137.876659 
L 400.432843 134.754021 
L 401.194267 131.631384 
L 401.94592 128.508747 
L 402.687643 125.386109 
L 403.419679 122.263472 
L 404.142356 119.140835 
L 404.855755 116.018197 
L 405.559373 112.89556 
L 406.251861 109.772923 
L 406.930845 106.650285 
L 407.592885 103.527648 
L 408.233586 100.405011 
L 408.847848 97.282373 
L 409.430258 94.159736 
L 409.975564 91.037099 
L 410.479199 87.914462 
L 410.937786 84.791824 
L 411.349574 81.669187 
L 411.714753 78.54655 
L 412.035599 75.423912 
L 412.316452 72.301275 
L 412.563499 69.178638 
L 412.784401 66.056 
L 412.987787 62.933363 
L 413.182665 59.810726 
L 413.377809 56.688088 
L 413.581166 53.565451 
L 413.799346 50.442814 
L 414.03723 47.320176 
L 414.297722 44.197539 
L 414.581663 41.074902 
L 414.887902 37.952264 
L 415.213497 34.829627 
L 415.554047 31.70699 
L 415.904081 28.584352 
L 416.2575 25.461715 
L 422.750765 25.461715 
L 422.750765 25.461715 
L 423.104183 28.584352 
L 423.454217 31.70699 
L 423.794767 34.829627 
L 424.120363 37.952264 
L 424.426601 41.074902 
L 424.710543 44.197539 
L 424.971035 47.320176 
L 425.208918 50.442814 
L 425.427098 53.565451 
L 425.630455 56.688088 
L 425.825599 59.810726 
L 426.020478 62.933363 
L 426.223864 66.056 
L 426.444765 69.178638 
L 426.691812 72.301275 
L 426.972665 75.423912 
L 427.293511 78.54655 
L 427.65869 81.669187 
L 428.070479 84.791824 
L 428.529066 87.914462 
L 429.0327 91.037099 
L 429.578006 94.159736 
L 430.160416 97.282373 
L 430.774679 100.405011 
L 431.415379 103.527648 
L 432.07742 106.650285 
L 432.756404 109.772923 
L 433.448891 112.89556 
L 434.15251 116.018197 
L 434.865908 119.140835 
L 435.588586 122.263472 
L 436.320621 125.386109 
L 437.062345 128.508747 
L 437.813998 131.631384 
L 438.575422 134.754021 
L 439.345805 137.876659 
L 440.123506 140.999296 
L 440.905955 144.121933 
L 441.689628 147.244571 
L 442.470078 150.367208 
L 443.241999 153.489845 
L 443.999309 156.612483 
L 444.735243 159.73512 
L 445.442447 162.857757 
L 446.113095 165.980395 
L 446.739025 169.103032 
L 447.311935 172.225669 
L 447.823629 175.348307 
L 448.266347 178.470944 
L 448.633153 181.593581 
L 448.918379 184.716219 
L 449.118078 187.838856 
L 449.230452 190.961493 
L 449.256198 194.084131 
L 449.198721 197.206768 
L 449.064168 200.329405 
L 448.861263 203.452043 
L 448.600915 206.57468 
L 448.295639 209.697317 
L 447.958799 212.819955 
L 447.603759 215.942592 
L 447.242989 219.065229 
L 446.887233 222.187867 
L 446.544794 225.310504 
L 446.221019 228.433141 
L 445.918024 231.555779 
L 445.634697 234.678416 
L 445.366959 237.801053 
L 445.108275 240.923691 
L 444.850367 244.046328 
L 444.584062 247.168965 
L 444.300211 250.291603 
L 443.990621 253.41424 
L 443.648929 256.536877 
L 443.271382 259.659515 
L 442.857463 262.782152 
L 442.410349 265.904789 
L 441.937164 269.027427 
L 441.449001 272.150064 
L 440.960688 275.272701 
L 440.490269 278.395339 
L 440.058185 281.517976 
L 439.686127 284.640613 
L 439.395603 287.763251 
L 439.206231 290.885888 
L 439.133881 294.008525 
L 439.188759 297.131162 
L 439.373642 300.2538 
L 439.68244 303.376437 
L 440.099287 306.499074 
L 440.598367 309.621712 
L 441.144582 312.744349 
L 441.695128 315.866986 
L 442.201922 318.989624 
L 442.61474 322.112261 
L 442.884798 325.234898 
L 442.968459 328.357536 
L 442.830692 331.480173 
L 442.447933 334.60281 
z
" style="fill:#1f77b4;fill-opacity:0.3;"/>
   </g>
   <g id="PolyCollection_5">
    <path clip-path="url(#pc3ff30605c)" d="M 567.466744 334.60281 
L 509.558049 334.60281 
L 509.004107 331.436504 
L 508.760331 328.270198 
L 508.806254 325.103892 
L 509.108057 321.937586 
L 509.621506 318.77128 
L 510.295588 315.604974 
L 511.076466 312.438668 
L 511.911341 309.272362 
L 512.75187 306.106056 
L 513.55685 302.93975 
L 514.293987 299.773444 
L 514.940684 296.607138 
L 515.483901 293.440832 
L 515.91923 290.274526 
L 516.249402 287.10822 
L 516.48245 283.941914 
L 516.629779 280.775608 
L 516.70435 277.609302 
L 516.719128 274.442996 
L 516.685899 271.27669 
L 516.614492 268.110384 
L 516.512399 264.944078 
L 516.384732 261.777772 
L 516.234455 258.611466 
L 516.062791 255.44516 
L 515.869734 252.278854 
L 515.654584 249.112548 
L 515.416453 245.946242 
L 515.154695 242.779936 
L 514.869248 239.61363 
L 514.560855 236.447324 
L 514.231184 233.281018 
L 513.882846 230.114712 
L 513.519324 226.948406 
L 513.144838 223.7821 
L 512.764171 220.615794 
L 512.382476 217.449488 
L 512.005104 214.283182 
L 511.637455 211.116876 
L 511.284895 207.95057 
L 510.952727 204.784264 
L 510.646225 201.617958 
L 510.370707 198.451652 
L 510.131637 195.285346 
L 509.934713 192.11904 
L 509.785906 188.952734 
L 509.691435 185.786428 
L 509.657641 182.620121 
L 509.690767 179.453815 
L 509.79664 176.287509 
L 509.980307 173.121203 
L 510.245631 169.954897 
L 510.594931 166.788591 
L 511.028691 163.622285 
L 511.545398 160.455979 
L 512.141523 157.289673 
L 512.811667 154.123367 
L 513.548849 150.957061 
L 514.34491 147.790755 
L 515.190978 144.624449 
L 516.077934 141.458143 
L 516.996827 138.291837 
L 517.939176 135.125531 
L 518.897145 131.959225 
L 519.863562 128.792919 
L 520.831804 125.626613 
L 521.79559 122.460307 
L 522.748719 119.294001 
L 523.684827 116.127695 
L 524.597209 112.961389 
L 525.478762 109.795083 
L 526.322067 106.628777 
L 527.119633 103.462471 
L 527.864263 100.296165 
L 528.549527 97.129859 
L 529.170265 93.963553 
L 529.723081 90.797247 
L 530.206743 87.630941 
L 530.622457 84.464635 
L 530.973961 81.298329 
L 531.26743 78.132023 
L 531.511184 74.965717 
L 531.715231 71.799411 
L 531.890679 68.633105 
L 532.049069 65.466799 
L 532.201679 62.300493 
L 532.358873 59.134187 
L 532.529526 55.967881 
L 532.720586 52.801575 
L 532.936786 49.635269 
L 533.180528 46.468963 
L 533.451931 43.302657 
L 533.749035 40.136351 
L 534.068116 36.970045 
L 534.404097 33.803739 
L 534.750997 30.637433 
L 535.102391 27.471127 
L 535.451843 24.304821 
L 535.793277 21.138514 
L 541.231516 21.138514 
L 541.231516 21.138514 
L 541.572951 24.304821 
L 541.922402 27.471127 
L 542.273797 30.637433 
L 542.620696 33.803739 
L 542.956677 36.970045 
L 543.275758 40.136351 
L 543.572862 43.302657 
L 543.844266 46.468963 
L 544.088007 49.635269 
L 544.304207 52.801575 
L 544.495267 55.967881 
L 544.665921 59.134187 
L 544.823114 62.300493 
L 544.975725 65.466799 
L 545.134114 68.633105 
L 545.309563 71.799411 
L 545.513609 74.965717 
L 545.757363 78.132023 
L 546.050832 81.298329 
L 546.402337 84.464635 
L 546.818051 87.630941 
L 547.301713 90.797247 
L 547.854528 93.963553 
L 548.475267 97.129859 
L 549.16053 100.296165 
L 549.905161 103.462471 
L 550.702727 106.628777 
L 551.546032 109.795083 
L 552.427584 112.961389 
L 553.339967 116.127695 
L 554.276075 119.294001 
L 555.229204 122.460307 
L 556.19299 125.626613 
L 557.161232 128.792919 
L 558.127649 131.959225 
L 559.085618 135.125531 
L 560.027967 138.291837 
L 560.946859 141.458143 
L 561.833815 144.624449 
L 562.679883 147.790755 
L 563.475944 150.957061 
L 564.213126 154.123367 
L 564.88327 157.289673 
L 565.479395 160.455979 
L 565.996102 163.622285 
L 566.429863 166.788591 
L 566.779162 169.954897 
L 567.044486 173.121203 
L 567.228153 176.287509 
L 567.334027 179.453815 
L 567.367152 182.620121 
L 567.333358 185.786428 
L 567.238887 188.952734 
L 567.09008 192.11904 
L 566.893156 195.285346 
L 566.654087 198.451652 
L 566.378569 201.617958 
L 566.072066 204.784264 
L 565.739899 207.95057 
L 565.387339 211.116876 
L 565.01969 214.283182 
L 564.642317 217.449488 
L 564.260623 220.615794 
L 563.879955 223.7821 
L 563.505469 226.948406 
L 563.141947 230.114712 
L 562.793609 233.281018 
L 562.463939 236.447324 
L 562.155545 239.61363 
L 561.870098 242.779936 
L 561.608341 245.946242 
L 561.370209 249.112548 
L 561.155059 252.278854 
L 560.962002 255.44516 
L 560.790338 258.611466 
L 560.640061 261.777772 
L 560.512394 264.944078 
L 560.410301 268.110384 
L 560.338894 271.27669 
L 560.305665 274.442996 
L 560.320444 277.609302 
L 560.395015 280.775608 
L 560.542344 283.941914 
L 560.775391 287.10822 
L 561.105563 290.274526 
L 561.540893 293.440832 
L 562.084109 296.607138 
L 562.730806 299.773444 
L 563.467944 302.93975 
L 564.272924 306.106056 
L 565.113452 309.272362 
L 565.948327 312.438668 
L 566.729205 315.604974 
L 567.403288 318.77128 
L 567.916736 321.937586 
L 568.218539 325.103892 
L 568.264463 328.270198 
L 568.020686 331.436504 
L 567.466744 334.60281 
z
" style="fill:#1f77b4;fill-opacity:0.3;"/>
   </g>
   <g id="PolyCollection_6">
    <path clip-path="url(#pc3ff30605c)" d="M 686.629077 334.60281 
L 628.412246 334.60281 
L 627.9514 331.388273 
L 627.768595 328.173736 
L 627.856093 324.959199 
L 628.196955 321.744662 
L 628.766294 318.530125 
L 629.532922 315.315588 
L 630.461268 312.101051 
L 631.513377 308.886514 
L 632.650861 305.671976 
L 633.836643 302.457439 
L 635.036403 299.242902 
L 636.219648 296.028365 
L 637.3604 292.813828 
L 638.437495 289.599291 
L 639.434558 286.384754 
L 640.339715 283.170217 
L 641.145123 279.95568 
L 641.846404 276.741142 
L 642.442051 273.526605 
L 642.93287 270.312068 
L 643.321491 267.097531 
L 643.611983 263.882994 
L 643.809555 260.668457 
L 643.920349 257.45392 
L 643.951303 254.239383 
L 643.91005 251.024846 
L 643.804837 247.810308 
L 643.644437 244.595771 
L 643.438044 241.381234 
L 643.195134 238.166697 
L 642.925301 234.95216 
L 642.638055 231.737623 
L 642.342613 228.523086 
L 642.047666 225.308549 
L 641.761159 222.094012 
L 641.490084 218.879474 
L 641.240289 215.664937 
L 641.016325 212.4504 
L 640.821328 209.235863 
L 640.656943 206.021326 
L 640.523291 202.806789 
L 640.418983 199.592252 
L 640.341182 196.377715 
L 640.285716 193.163178 
L 640.247245 189.94864 
L 640.219475 186.734103 
L 640.195429 183.519566 
L 640.167772 180.305029 
L 640.129171 177.090492 
L 640.072702 173.875955 
L 639.992271 170.661418 
L 639.883039 167.446881 
L 639.74183 164.232344 
L 639.567487 161.017806 
L 639.361159 157.803269 
L 639.12648 154.588732 
L 638.869622 151.374195 
L 638.59921 148.159658 
L 638.326068 144.945121 
L 638.062825 141.730584 
L 637.823372 138.516047 
L 637.622199 135.30151 
L 637.473668 132.086972 
L 637.391233 128.872435 
L 637.386696 125.657898 
L 637.469524 122.443361 
L 637.646298 119.228824 
L 637.920319 116.014287 
L 638.291414 112.79975 
L 638.755959 109.585213 
L 639.307103 106.370675 
L 639.935188 103.156138 
L 640.628325 99.941601 
L 641.373085 96.727064 
L 642.15524 93.512527 
L 642.96051 90.29799 
L 643.775256 87.083453 
L 644.587068 83.868916 
L 645.385229 80.654379 
L 646.16101 77.439841 
L 646.907813 74.225304 
L 647.621156 71.010767 
L 648.298517 67.79623 
L 648.939084 64.581693 
L 649.543421 61.367156 
L 650.11311 58.152619 
L 650.650384 54.938082 
L 651.157788 51.723545 
L 651.637897 48.509007 
L 652.093091 45.29447 
L 652.525405 42.079933 
L 652.936444 38.865396 
L 653.327362 35.650859 
L 653.698892 32.436322 
L 654.051408 29.221785 
L 654.385012 26.007248 
L 654.699626 22.792711 
L 654.99509 19.578173 
L 655.271237 16.363636 
L 659.770085 16.363636 
L 659.770085 16.363636 
L 660.046232 19.578173 
L 660.341696 22.792711 
L 660.656311 26.007248 
L 660.989914 29.221785 
L 661.34243 32.436322 
L 661.71396 35.650859 
L 662.104878 38.865396 
L 662.515917 42.079933 
L 662.948231 45.29447 
L 663.403426 48.509007 
L 663.883535 51.723545 
L 664.390939 54.938082 
L 664.928212 58.152619 
L 665.497901 61.367156 
L 666.102239 64.581693 
L 666.742805 67.79623 
L 667.420166 71.010767 
L 668.133509 74.225304 
L 668.880313 77.439841 
L 669.656094 80.654379 
L 670.454254 83.868916 
L 671.266067 87.083453 
L 672.080812 90.29799 
L 672.886082 93.512527 
L 673.668237 96.727064 
L 674.412997 99.941601 
L 675.106135 103.156138 
L 675.734219 106.370675 
L 676.285363 109.585213 
L 676.749908 112.79975 
L 677.121004 116.014287 
L 677.395024 119.228824 
L 677.571798 122.443361 
L 677.654627 125.657898 
L 677.650089 128.872435 
L 677.567654 132.086972 
L 677.419123 135.30151 
L 677.217951 138.516047 
L 676.978497 141.730584 
L 676.715254 144.945121 
L 676.442113 148.159658 
L 676.1717 151.374195 
L 675.914843 154.588732 
L 675.680163 157.803269 
L 675.473835 161.017806 
L 675.299492 164.232344 
L 675.158283 167.446881 
L 675.049051 170.661418 
L 674.96862 173.875955 
L 674.912151 177.090492 
L 674.87355 180.305029 
L 674.845893 183.519566 
L 674.821847 186.734103 
L 674.794077 189.94864 
L 674.755606 193.163178 
L 674.70014 196.377715 
L 674.622339 199.592252 
L 674.518031 202.806789 
L 674.384379 206.021326 
L 674.219994 209.235863 
L 674.024998 212.4504 
L 673.801034 215.664937 
L 673.551238 218.879474 
L 673.280163 222.094012 
L 672.993657 225.308549 
L 672.698709 228.523086 
L 672.403267 231.737623 
L 672.116022 234.95216 
L 671.846188 238.166697 
L 671.603279 241.381234 
L 671.396885 244.595771 
L 671.236485 247.810308 
L 671.131272 251.024846 
L 671.090019 254.239383 
L 671.120974 257.45392 
L 671.231768 260.668457 
L 671.429339 263.882994 
L 671.719831 267.097531 
L 672.108453 270.312068 
L 672.599271 273.526605 
L 673.194918 276.741142 
L 673.896199 279.95568 
L 674.701608 283.170217 
L 675.606765 286.384754 
L 676.603828 289.599291 
L 677.680922 292.813828 
L 678.821674 296.028365 
L 680.004919 299.242902 
L 681.204679 302.457439 
L 682.390461 305.671976 
L 683.527946 308.886514 
L 684.580055 312.101051 
L 685.5084 315.315588 
L 686.275028 318.530125 
L 686.844367 321.744662 
L 687.185229 324.959199 
L 687.272727 328.173736 
L 687.089922 331.388273 
L 686.629077 334.60281 
z
" style="fill:#1f77b4;fill-opacity:0.3;"/>
   </g>
   <g id="matplotlib.axis_1">
    <g id="xtick_1">
     <g id="line2d_1">
      <defs>
       <path d="M 0 0 
L 0 3.5 
" id="mff12956e31" style="stroke:#000000;stroke-width:0.8;"/>
      </defs>
      <g>
       <use style="stroke:#000000;stroke-width:0.8;" x="62.479339" xlink:href="#mff12956e31" y="360"/>
      </g>
     </g>
     <g id="text_1">
      <!-- 100 -->
      <defs>
       <path d="M 12.40625 8.296875 
L 28.515625 8.296875 
L 28.515625 63.921875 
L 10.984375 60.40625 
L 10.984375 69.390625 
L 28.421875 72.90625 
L 38.28125 72.90625 
L 38.28125 8.296875 
L 54.390625 8.296875 
L 54.390625 0 
L 12.40625 0 
z
" id="DejaVuSans-49"/>
       <path d="M 31.78125 66.40625 
Q 24.171875 66.40625 20.328125 58.90625 
Q 16.5 51.421875 16.5 36.375 
Q 16.5 21.390625 20.328125 13.890625 
Q 24.171875 6.390625 31.78125 6.390625 
Q 39.453125 6.390625 43.28125 13.890625 
Q 47.125 21.390625 47.125 36.375 
Q 47.125 51.421875 43.28125 58.90625 
Q 39.453125 66.40625 31.78125 66.40625 
z
M 31.78125 74.21875 
Q 44.046875 74.21875 50.515625 64.515625 
Q 56.984375 54.828125 56.984375 36.375 
Q 56.984375 17.96875 50.515625 8.265625 
Q 44.046875 -1.421875 31.78125 -1.421875 
Q 19.53125 -1.421875 13.0625 8.265625 
Q 6.59375 17.96875 6.59375 36.375 
Q 6.59375 54.828125 13.0625 64.515625 
Q 19.53125 74.21875 31.78125 74.21875 
z
" id="DejaVuSans-48"/>
      </defs>
      <g transform="translate(52.935589 374.598437)scale(0.1 -0.1)">
       <use xlink:href="#DejaVuSans-49"/>
       <use x="63.623047" xlink:href="#DejaVuSans-48"/>
       <use x="127.246094" xlink:href="#DejaVuSans-48"/>
      </g>
     </g>
    </g>
    <g id="xtick_2">
     <g id="line2d_2">
      <g>
       <use style="stroke:#000000;stroke-width:0.8;" x="181.487603" xlink:href="#mff12956e31" y="360"/>
      </g>
     </g>
     <g id="text_2">
      <!-- 200 -->
      <defs>
       <path d="M 19.1875 8.296875 
L 53.609375 8.296875 
L 53.609375 0 
L 7.328125 0 
L 7.328125 8.296875 
Q 12.9375 14.109375 22.625 23.890625 
Q 32.328125 33.6875 34.8125 36.53125 
Q 39.546875 41.84375 41.421875 45.53125 
Q 43.3125 49.21875 43.3125 52.78125 
Q 43.3125 58.59375 39.234375 62.25 
Q 35.15625 65.921875 28.609375 65.921875 
Q 23.96875 65.921875 18.8125 64.3125 
Q 13.671875 62.703125 7.8125 59.421875 
L 7.8125 69.390625 
Q 13.765625 71.78125 18.9375 73 
Q 24.125 74.21875 28.421875 74.21875 
Q 39.75 74.21875 46.484375 68.546875 
Q 53.21875 62.890625 53.21875 53.421875 
Q 53.21875 48.921875 51.53125 44.890625 
Q 49.859375 40.875 45.40625 35.40625 
Q 44.1875 33.984375 37.640625 27.21875 
Q 31.109375 20.453125 19.1875 8.296875 
z
" id="DejaVuSans-50"/>
      </defs>
      <g transform="translate(171.943853 374.598437)scale(0.1 -0.1)">
       <use xlink:href="#DejaVuSans-50"/>
       <use x="63.623047" xlink:href="#DejaVuSans-48"/>
       <use x="127.246094" xlink:href="#DejaVuSans-48"/>
      </g>
     </g>
    </g>
    <g id="xtick_3">
     <g id="line2d_3">
      <g>
       <use style="stroke:#000000;stroke-width:0.8;" x="300.495868" xlink:href="#mff12956e31" y="360"/>
      </g>
     </g>
     <g id="text_3">
      <!-- 300 -->
      <defs>
       <path d="M 40.578125 39.3125 
Q 47.65625 37.796875 51.625 33 
Q 55.609375 28.21875 55.609375 21.1875 
Q 55.609375 10.40625 48.1875 4.484375 
Q 40.765625 -1.421875 27.09375 -1.421875 
Q 22.515625 -1.421875 17.65625 -0.515625 
Q 12.796875 0.390625 7.625 2.203125 
L 7.625 11.71875 
Q 11.71875 9.328125 16.59375 8.109375 
Q 21.484375 6.890625 26.8125 6.890625 
Q 36.078125 6.890625 40.9375 10.546875 
Q 45.796875 14.203125 45.796875 21.1875 
Q 45.796875 27.640625 41.28125 31.265625 
Q 36.765625 34.90625 28.71875 34.90625 
L 20.21875 34.90625 
L 20.21875 43.015625 
L 29.109375 43.015625 
Q 36.375 43.015625 40.234375 45.921875 
Q 44.09375 48.828125 44.09375 54.296875 
Q 44.09375 59.90625 40.109375 62.90625 
Q 36.140625 65.921875 28.71875 65.921875 
Q 24.65625 65.921875 20.015625 65.03125 
Q 15.375 64.15625 9.8125 62.3125 
L 9.8125 71.09375 
Q 15.4375 72.65625 20.34375 73.4375 
Q 25.25 74.21875 29.59375 74.21875 
Q 40.828125 74.21875 47.359375 69.109375 
Q 53.90625 64.015625 53.90625 55.328125 
Q 53.90625 49.265625 50.4375 45.09375 
Q 46.96875 40.921875 40.578125 39.3125 
z
" id="DejaVuSans-51"/>
      </defs>
      <g transform="translate(290.952118 374.598437)scale(0.1 -0.1)">
       <use xlink:href="#DejaVuSans-51"/>
       <use x="63.623047" xlink:href="#DejaVuSans-48"/>
       <use x="127.246094" xlink:href="#DejaVuSans-48"/>
      </g>
     </g>
    </g>
    <g id="xtick_4">
     <g id="line2d_4">
      <g>
       <use style="stroke:#000000;stroke-width:0.8;" x="419.504132" xlink:href="#mff12956e31" y="360"/>
      </g>
     </g>
     <g id="text_4">
      <!-- 400 -->
      <defs>
       <path d="M 37.796875 64.3125 
L 12.890625 25.390625 
L 37.796875 25.390625 
z
M 35.203125 72.90625 
L 47.609375 72.90625 
L 47.609375 25.390625 
L 58.015625 25.390625 
L 58.015625 17.1875 
L 47.609375 17.1875 
L 47.609375 0 
L 37.796875 0 
L 37.796875 17.1875 
L 4.890625 17.1875 
L 4.890625 26.703125 
z
" id="DejaVuSans-52"/>
      </defs>
      <g transform="translate(409.960382 374.598437)scale(0.1 -0.1)">
       <use xlink:href="#DejaVuSans-52"/>
       <use x="63.623047" xlink:href="#DejaVuSans-48"/>
       <use x="127.246094" xlink:href="#DejaVuSans-48"/>
      </g>
     </g>
    </g>
    <g id="xtick_5">
     <g id="line2d_5">
      <g>
       <use style="stroke:#000000;stroke-width:0.8;" x="538.512397" xlink:href="#mff12956e31" y="360"/>
      </g>
     </g>
     <g id="text_5">
      <!-- 500 -->
      <defs>
       <path d="M 10.796875 72.90625 
L 49.515625 72.90625 
L 49.515625 64.59375 
L 19.828125 64.59375 
L 19.828125 46.734375 
Q 21.96875 47.46875 24.109375 47.828125 
Q 26.265625 48.1875 28.421875 48.1875 
Q 40.625 48.1875 47.75 41.5 
Q 54.890625 34.8125 54.890625 23.390625 
Q 54.890625 11.625 47.5625 5.09375 
Q 40.234375 -1.421875 26.90625 -1.421875 
Q 22.3125 -1.421875 17.546875 -0.640625 
Q 12.796875 0.140625 7.71875 1.703125 
L 7.71875 11.625 
Q 12.109375 9.234375 16.796875 8.0625 
Q 21.484375 6.890625 26.703125 6.890625 
Q 35.15625 6.890625 40.078125 11.328125 
Q 45.015625 15.765625 45.015625 23.390625 
Q 45.015625 31 40.078125 35.4375 
Q 35.15625 39.890625 26.703125 39.890625 
Q 22.75 39.890625 18.8125 39.015625 
Q 14.890625 38.140625 10.796875 36.28125 
z
" id="DejaVuSans-53"/>
      </defs>
      <g transform="translate(528.968647 374.598437)scale(0.1 -0.1)">
       <use xlink:href="#DejaVuSans-53"/>
       <use x="63.623047" xlink:href="#DejaVuSans-48"/>
       <use x="127.246094" xlink:href="#DejaVuSans-48"/>
      </g>
     </g>
    </g>
    <g id="xtick_6">
     <g id="line2d_6">
      <g>
       <use style="stroke:#000000;stroke-width:0.8;" x="657.520661" xlink:href="#mff12956e31" y="360"/>
      </g>
     </g>
     <g id="text_6">
      <!-- 1000 -->
      <g transform="translate(644.795661 374.598437)scale(0.1 -0.1)">
       <use xlink:href="#DejaVuSans-49"/>
       <use x="63.623047" xlink:href="#DejaVuSans-48"/>
       <use x="127.246094" xlink:href="#DejaVuSans-48"/>
       <use x="190.869141" xlink:href="#DejaVuSans-48"/>
      </g>
     </g>
    </g>
    <g id="text_7">
     <!-- Epochs -->
     <defs>
      <path d="M 9.8125 72.90625 
L 55.90625 72.90625 
L 55.90625 64.59375 
L 19.671875 64.59375 
L 19.671875 43.015625 
L 54.390625 43.015625 
L 54.390625 34.71875 
L 19.671875 34.71875 
L 19.671875 8.296875 
L 56.78125 8.296875 
L 56.78125 0 
L 9.8125 0 
z
" id="DejaVuSans-69"/>
      <path d="M 18.109375 8.203125 
L 18.109375 -20.796875 
L 9.078125 -20.796875 
L 9.078125 54.6875 
L 18.109375 54.6875 
L 18.109375 46.390625 
Q 20.953125 51.265625 25.265625 53.625 
Q 29.59375 56 35.59375 56 
Q 45.5625 56 51.78125 48.09375 
Q 58.015625 40.1875 58.015625 27.296875 
Q 58.015625 14.40625 51.78125 6.484375 
Q 45.5625 -1.421875 35.59375 -1.421875 
Q 29.59375 -1.421875 25.265625 0.953125 
Q 20.953125 3.328125 18.109375 8.203125 
z
M 48.6875 27.296875 
Q 48.6875 37.203125 44.609375 42.84375 
Q 40.53125 48.484375 33.40625 48.484375 
Q 26.265625 48.484375 22.1875 42.84375 
Q 18.109375 37.203125 18.109375 27.296875 
Q 18.109375 17.390625 22.1875 11.75 
Q 26.265625 6.109375 33.40625 6.109375 
Q 40.53125 6.109375 44.609375 11.75 
Q 48.6875 17.390625 48.6875 27.296875 
z
" id="DejaVuSans-112"/>
      <path d="M 30.609375 48.390625 
Q 23.390625 48.390625 19.1875 42.75 
Q 14.984375 37.109375 14.984375 27.296875 
Q 14.984375 17.484375 19.15625 11.84375 
Q 23.34375 6.203125 30.609375 6.203125 
Q 37.796875 6.203125 41.984375 11.859375 
Q 46.1875 17.53125 46.1875 27.296875 
Q 46.1875 37.015625 41.984375 42.703125 
Q 37.796875 48.390625 30.609375 48.390625 
z
M 30.609375 56 
Q 42.328125 56 49.015625 48.375 
Q 55.71875 40.765625 55.71875 27.296875 
Q 55.71875 13.875 49.015625 6.21875 
Q 42.328125 -1.421875 30.609375 -1.421875 
Q 18.84375 -1.421875 12.171875 6.21875 
Q 5.515625 13.875 5.515625 27.296875 
Q 5.515625 40.765625 12.171875 48.375 
Q 18.84375 56 30.609375 56 
z
" id="DejaVuSans-111"/>
      <path d="M 48.78125 52.59375 
L 48.78125 44.1875 
Q 44.96875 46.296875 41.140625 47.34375 
Q 37.3125 48.390625 33.40625 48.390625 
Q 24.65625 48.390625 19.8125 42.84375 
Q 14.984375 37.3125 14.984375 27.296875 
Q 14.984375 17.28125 19.8125 11.734375 
Q 24.65625 6.203125 33.40625 6.203125 
Q 37.3125 6.203125 41.140625 7.25 
Q 44.96875 8.296875 48.78125 10.40625 
L 48.78125 2.09375 
Q 45.015625 0.34375 40.984375 -0.53125 
Q 36.96875 -1.421875 32.421875 -1.421875 
Q 20.0625 -1.421875 12.78125 6.34375 
Q 5.515625 14.109375 5.515625 27.296875 
Q 5.515625 40.671875 12.859375 48.328125 
Q 20.21875 56 33.015625 56 
Q 37.15625 56 41.109375 55.140625 
Q 45.0625 54.296875 48.78125 52.59375 
z
" id="DejaVuSans-99"/>
      <path d="M 54.890625 33.015625 
L 54.890625 0 
L 45.90625 0 
L 45.90625 32.71875 
Q 45.90625 40.484375 42.875 44.328125 
Q 39.84375 48.1875 33.796875 48.1875 
Q 26.515625 48.1875 22.3125 43.546875 
Q 18.109375 38.921875 18.109375 30.90625 
L 18.109375 0 
L 9.078125 0 
L 9.078125 75.984375 
L 18.109375 75.984375 
L 18.109375 46.1875 
Q 21.34375 51.125 25.703125 53.5625 
Q 30.078125 56 35.796875 56 
Q 45.21875 56 50.046875 50.171875 
Q 54.890625 44.34375 54.890625 33.015625 
z
" id="DejaVuSans-104"/>
      <path d="M 44.28125 53.078125 
L 44.28125 44.578125 
Q 40.484375 46.53125 36.375 47.5 
Q 32.28125 48.484375 27.875 48.484375 
Q 21.1875 48.484375 17.84375 46.4375 
Q 14.5 44.390625 14.5 40.28125 
Q 14.5 37.15625 16.890625 35.375 
Q 19.28125 33.59375 26.515625 31.984375 
L 29.59375 31.296875 
Q 39.15625 29.25 43.1875 25.515625 
Q 47.21875 21.78125 47.21875 15.09375 
Q 47.21875 7.46875 41.1875 3.015625 
Q 35.15625 -1.421875 24.609375 -1.421875 
Q 20.21875 -1.421875 15.453125 -0.5625 
Q 10.6875 0.296875 5.421875 2 
L 5.421875 11.28125 
Q 10.40625 8.6875 15.234375 7.390625 
Q 20.0625 6.109375 24.8125 6.109375 
Q 31.15625 6.109375 34.5625 8.28125 
Q 37.984375 10.453125 37.984375 14.40625 
Q 37.984375 18.0625 35.515625 20.015625 
Q 33.0625 21.96875 24.703125 23.78125 
L 21.578125 24.515625 
Q 13.234375 26.265625 9.515625 29.90625 
Q 5.8125 33.546875 5.8125 39.890625 
Q 5.8125 47.609375 11.28125 51.796875 
Q 16.75 56 26.8125 56 
Q 31.78125 56 36.171875 55.265625 
Q 40.578125 54.546875 44.28125 53.078125 
z
" id="DejaVuSans-115"/>
     </defs>
     <g transform="translate(338.50125 389.79625)scale(0.12 -0.12)">
      <use xlink:href="#DejaVuSans-69"/>
      <use x="63.183594" xlink:href="#DejaVuSans-112"/>
      <use x="126.660156" xlink:href="#DejaVuSans-111"/>
      <use x="187.841797" xlink:href="#DejaVuSans-99"/>
      <use x="242.822266" xlink:href="#DejaVuSans-104"/>
      <use x="306.201172" xlink:href="#DejaVuSans-115"/>
     </g>
    </g>
   </g>
   <g id="matplotlib.axis_2">
    <g id="ytick_1">
     <g id="line2d_7">
      <defs>
       <path d="M 0 0 
L -3.5 0 
" id="m3ded9c9200" style="stroke:#000000;stroke-width:0.8;"/>
      </defs>
      <g>
       <use style="stroke:#000000;stroke-width:0.8;" x="0" xlink:href="#m3ded9c9200" y="351.379409"/>
      </g>
     </g>
     <g id="text_8">
      <!-- 0.15 -->
      <defs>
       <path d="M 10.6875 12.40625 
L 21 12.40625 
L 21 0 
L 10.6875 0 
z
" id="DejaVuSans-46"/>
      </defs>
      <g transform="translate(-29.265625 355.178628)scale(0.1 -0.1)">
       <use xlink:href="#DejaVuSans-48"/>
       <use x="63.623047" xlink:href="#DejaVuSans-46"/>
       <use x="95.410156" xlink:href="#DejaVuSans-49"/>
       <use x="159.033203" xlink:href="#DejaVuSans-53"/>
      </g>
     </g>
    </g>
    <g id="ytick_2">
     <g id="line2d_8">
      <g>
       <use style="stroke:#000000;stroke-width:0.8;" x="0" xlink:href="#m3ded9c9200" y="287.241182"/>
      </g>
     </g>
     <g id="text_9">
      <!-- 0.20 -->
      <g transform="translate(-29.265625 291.0404)scale(0.1 -0.1)">
       <use xlink:href="#DejaVuSans-48"/>
       <use x="63.623047" xlink:href="#DejaVuSans-46"/>
       <use x="95.410156" xlink:href="#DejaVuSans-50"/>
       <use x="159.033203" xlink:href="#DejaVuSans-48"/>
      </g>
     </g>
    </g>
    <g id="ytick_3">
     <g id="line2d_9">
      <g>
       <use style="stroke:#000000;stroke-width:0.8;" x="0" xlink:href="#m3ded9c9200" y="223.102954"/>
      </g>
     </g>
     <g id="text_10">
      <!-- 0.25 -->
      <g transform="translate(-29.265625 226.902173)scale(0.1 -0.1)">
       <use xlink:href="#DejaVuSans-48"/>
       <use x="63.623047" xlink:href="#DejaVuSans-46"/>
       <use x="95.410156" xlink:href="#DejaVuSans-50"/>
       <use x="159.033203" xlink:href="#DejaVuSans-53"/>
      </g>
     </g>
    </g>
    <g id="ytick_4">
     <g id="line2d_10">
      <g>
       <use style="stroke:#000000;stroke-width:0.8;" x="0" xlink:href="#m3ded9c9200" y="158.964726"/>
      </g>
     </g>
     <g id="text_11">
      <!-- 0.30 -->
      <g transform="translate(-29.265625 162.763945)scale(0.1 -0.1)">
       <use xlink:href="#DejaVuSans-48"/>
       <use x="63.623047" xlink:href="#DejaVuSans-46"/>
       <use x="95.410156" xlink:href="#DejaVuSans-51"/>
       <use x="159.033203" xlink:href="#DejaVuSans-48"/>
      </g>
     </g>
    </g>
    <g id="ytick_5">
     <g id="line2d_11">
      <g>
       <use style="stroke:#000000;stroke-width:0.8;" x="0" xlink:href="#m3ded9c9200" y="94.826498"/>
      </g>
     </g>
     <g id="text_12">
      <!-- 0.35 -->
      <g transform="translate(-29.265625 98.625717)scale(0.1 -0.1)">
       <use xlink:href="#DejaVuSans-48"/>
       <use x="63.623047" xlink:href="#DejaVuSans-46"/>
       <use x="95.410156" xlink:href="#DejaVuSans-51"/>
       <use x="159.033203" xlink:href="#DejaVuSans-53"/>
      </g>
     </g>
    </g>
    <g id="ytick_6">
     <g id="line2d_12">
      <g>
       <use style="stroke:#000000;stroke-width:0.8;" x="0" xlink:href="#m3ded9c9200" y="30.688271"/>
      </g>
     </g>
     <g id="text_13">
      <!-- 0.40 -->
      <g transform="translate(-29.265625 34.487489)scale(0.1 -0.1)">
       <use xlink:href="#DejaVuSans-48"/>
       <use x="63.623047" xlink:href="#DejaVuSans-46"/>
       <use x="95.410156" xlink:href="#DejaVuSans-52"/>
       <use x="159.033203" xlink:href="#DejaVuSans-48"/>
      </g>
     </g>
    </g>
    <g id="text_14">
     <!-- Accuracy (classes=4) -->
     <defs>
      <path d="M 34.1875 63.1875 
L 20.796875 26.90625 
L 47.609375 26.90625 
z
M 28.609375 72.90625 
L 39.796875 72.90625 
L 67.578125 0 
L 57.328125 0 
L 50.6875 18.703125 
L 17.828125 18.703125 
L 11.1875 0 
L 0.78125 0 
z
" id="DejaVuSans-65"/>
      <path d="M 8.5 21.578125 
L 8.5 54.6875 
L 17.484375 54.6875 
L 17.484375 21.921875 
Q 17.484375 14.15625 20.5 10.265625 
Q 23.53125 6.390625 29.59375 6.390625 
Q 36.859375 6.390625 41.078125 11.03125 
Q 45.3125 15.671875 45.3125 23.6875 
L 45.3125 54.6875 
L 54.296875 54.6875 
L 54.296875 0 
L 45.3125 0 
L 45.3125 8.40625 
Q 42.046875 3.421875 37.71875 1 
Q 33.40625 -1.421875 27.6875 -1.421875 
Q 18.265625 -1.421875 13.375 4.4375 
Q 8.5 10.296875 8.5 21.578125 
z
M 31.109375 56 
z
" id="DejaVuSans-117"/>
      <path d="M 41.109375 46.296875 
Q 39.59375 47.171875 37.8125 47.578125 
Q 36.03125 48 33.890625 48 
Q 26.265625 48 22.1875 43.046875 
Q 18.109375 38.09375 18.109375 28.8125 
L 18.109375 0 
L 9.078125 0 
L 9.078125 54.6875 
L 18.109375 54.6875 
L 18.109375 46.1875 
Q 20.953125 51.171875 25.484375 53.578125 
Q 30.03125 56 36.53125 56 
Q 37.453125 56 38.578125 55.875 
Q 39.703125 55.765625 41.0625 55.515625 
z
" id="DejaVuSans-114"/>
      <path d="M 34.28125 27.484375 
Q 23.390625 27.484375 19.1875 25 
Q 14.984375 22.515625 14.984375 16.5 
Q 14.984375 11.71875 18.140625 8.90625 
Q 21.296875 6.109375 26.703125 6.109375 
Q 34.1875 6.109375 38.703125 11.40625 
Q 43.21875 16.703125 43.21875 25.484375 
L 43.21875 27.484375 
z
M 52.203125 31.203125 
L 52.203125 0 
L 43.21875 0 
L 43.21875 8.296875 
Q 40.140625 3.328125 35.546875 0.953125 
Q 30.953125 -1.421875 24.3125 -1.421875 
Q 15.921875 -1.421875 10.953125 3.296875 
Q 6 8.015625 6 15.921875 
Q 6 25.140625 12.171875 29.828125 
Q 18.359375 34.515625 30.609375 34.515625 
L 43.21875 34.515625 
L 43.21875 35.40625 
Q 43.21875 41.609375 39.140625 45 
Q 35.0625 48.390625 27.6875 48.390625 
Q 23 48.390625 18.546875 47.265625 
Q 14.109375 46.140625 10.015625 43.890625 
L 10.015625 52.203125 
Q 14.9375 54.109375 19.578125 55.046875 
Q 24.21875 56 28.609375 56 
Q 40.484375 56 46.34375 49.84375 
Q 52.203125 43.703125 52.203125 31.203125 
z
" id="DejaVuSans-97"/>
      <path d="M 32.171875 -5.078125 
Q 28.375 -14.84375 24.75 -17.8125 
Q 21.140625 -20.796875 15.09375 -20.796875 
L 7.90625 -20.796875 
L 7.90625 -13.28125 
L 13.1875 -13.28125 
Q 16.890625 -13.28125 18.9375 -11.515625 
Q 21 -9.765625 23.484375 -3.21875 
L 25.09375 0.875 
L 2.984375 54.6875 
L 12.5 54.6875 
L 29.59375 11.921875 
L 46.6875 54.6875 
L 56.203125 54.6875 
z
" id="DejaVuSans-121"/>
      <path id="DejaVuSans-32"/>
      <path d="M 31 75.875 
Q 24.46875 64.65625 21.28125 53.65625 
Q 18.109375 42.671875 18.109375 31.390625 
Q 18.109375 20.125 21.3125 9.0625 
Q 24.515625 -2 31 -13.1875 
L 23.1875 -13.1875 
Q 15.875 -1.703125 12.234375 9.375 
Q 8.59375 20.453125 8.59375 31.390625 
Q 8.59375 42.28125 12.203125 53.3125 
Q 15.828125 64.359375 23.1875 75.875 
z
" id="DejaVuSans-40"/>
      <path d="M 9.421875 75.984375 
L 18.40625 75.984375 
L 18.40625 0 
L 9.421875 0 
z
" id="DejaVuSans-108"/>
      <path d="M 56.203125 29.59375 
L 56.203125 25.203125 
L 14.890625 25.203125 
Q 15.484375 15.921875 20.484375 11.0625 
Q 25.484375 6.203125 34.421875 6.203125 
Q 39.59375 6.203125 44.453125 7.46875 
Q 49.3125 8.734375 54.109375 11.28125 
L 54.109375 2.78125 
Q 49.265625 0.734375 44.1875 -0.34375 
Q 39.109375 -1.421875 33.890625 -1.421875 
Q 20.796875 -1.421875 13.15625 6.1875 
Q 5.515625 13.8125 5.515625 26.8125 
Q 5.515625 40.234375 12.765625 48.109375 
Q 20.015625 56 32.328125 56 
Q 43.359375 56 49.78125 48.890625 
Q 56.203125 41.796875 56.203125 29.59375 
z
M 47.21875 32.234375 
Q 47.125 39.59375 43.09375 43.984375 
Q 39.0625 48.390625 32.421875 48.390625 
Q 24.90625 48.390625 20.390625 44.140625 
Q 15.875 39.890625 15.1875 32.171875 
z
" id="DejaVuSans-101"/>
      <path d="M 10.59375 45.40625 
L 73.1875 45.40625 
L 73.1875 37.203125 
L 10.59375 37.203125 
z
M 10.59375 25.484375 
L 73.1875 25.484375 
L 73.1875 17.1875 
L 10.59375 17.1875 
z
" id="DejaVuSans-61"/>
      <path d="M 8.015625 75.875 
L 15.828125 75.875 
Q 23.140625 64.359375 26.78125 53.3125 
Q 30.421875 42.28125 30.421875 31.390625 
Q 30.421875 20.453125 26.78125 9.375 
Q 23.140625 -1.703125 15.828125 -13.1875 
L 8.015625 -13.1875 
Q 14.5 -2 17.703125 9.0625 
Q 20.90625 20.125 20.90625 31.390625 
Q 20.90625 42.671875 17.703125 53.65625 
Q 14.5 64.65625 8.015625 75.875 
z
" id="DejaVuSans-41"/>
     </defs>
     <g transform="translate(-35.76125 244.643438)rotate(-90)scale(0.12 -0.12)">
      <use xlink:href="#DejaVuSans-65"/>
      <use x="68.392578" xlink:href="#DejaVuSans-99"/>
      <use x="123.373047" xlink:href="#DejaVuSans-99"/>
      <use x="178.353516" xlink:href="#DejaVuSans-117"/>
      <use x="241.732422" xlink:href="#DejaVuSans-114"/>
      <use x="282.845703" xlink:href="#DejaVuSans-97"/>
      <use x="344.125" xlink:href="#DejaVuSans-99"/>
      <use x="399.105469" xlink:href="#DejaVuSans-121"/>
      <use x="458.285156" xlink:href="#DejaVuSans-32"/>
      <use x="490.072266" xlink:href="#DejaVuSans-40"/>
      <use x="529.085938" xlink:href="#DejaVuSans-99"/>
      <use x="584.066406" xlink:href="#DejaVuSans-108"/>
      <use x="611.849609" xlink:href="#DejaVuSans-97"/>
      <use x="673.128906" xlink:href="#DejaVuSans-115"/>
      <use x="725.228516" xlink:href="#DejaVuSans-115"/>
      <use x="777.328125" xlink:href="#DejaVuSans-101"/>
      <use x="838.851562" xlink:href="#DejaVuSans-115"/>
      <use x="890.951172" xlink:href="#DejaVuSans-61"/>
      <use x="974.740234" xlink:href="#DejaVuSans-52"/>
      <use x="1038.363281" xlink:href="#DejaVuSans-41"/>
     </g>
    </g>
   </g>
   <g id="LineCollection_1">
    <path clip-path="url(#pc3ff30605c)" d="M 47.603306 70.823057 
L 77.355372 70.823057 
" style="fill:none;stroke:#1f77b4;stroke-width:1.5;"/>
    <path clip-path="url(#pc3ff30605c)" d="M 166.61157 39.141095 
L 196.363636 39.141095 
" style="fill:none;stroke:#1f77b4;stroke-width:1.5;"/>
    <path clip-path="url(#pc3ff30605c)" d="M 285.619835 34.559794 
L 315.371901 34.559794 
" style="fill:none;stroke:#1f77b4;stroke-width:1.5;"/>
    <path clip-path="url(#pc3ff30605c)" d="M 404.628099 25.461715 
L 434.380165 25.461715 
" style="fill:none;stroke:#1f77b4;stroke-width:1.5;"/>
    <path clip-path="url(#pc3ff30605c)" d="M 523.636364 21.138514 
L 553.38843 21.138514 
" style="fill:none;stroke:#1f77b4;stroke-width:1.5;"/>
    <path clip-path="url(#pc3ff30605c)" d="M 642.644628 16.363636 
L 672.396694 16.363636 
" style="fill:none;stroke:#1f77b4;stroke-width:1.5;"/>
   </g>
   <g id="LineCollection_2">
    <path clip-path="url(#pc3ff30605c)" d="M 47.603306 343.636364 
L 77.355372 343.636364 
" style="fill:none;stroke:#1f77b4;stroke-width:1.5;"/>
    <path clip-path="url(#pc3ff30605c)" d="M 166.61157 339.119587 
L 196.363636 339.119587 
" style="fill:none;stroke:#1f77b4;stroke-width:1.5;"/>
    <path clip-path="url(#pc3ff30605c)" d="M 285.619835 334.60281 
L 315.371901 334.60281 
" style="fill:none;stroke:#1f77b4;stroke-width:1.5;"/>
    <path clip-path="url(#pc3ff30605c)" d="M 404.628099 334.60281 
L 434.380165 334.60281 
" style="fill:none;stroke:#1f77b4;stroke-width:1.5;"/>
    <path clip-path="url(#pc3ff30605c)" d="M 523.636364 334.60281 
L 553.38843 334.60281 
" style="fill:none;stroke:#1f77b4;stroke-width:1.5;"/>
    <path clip-path="url(#pc3ff30605c)" d="M 642.644628 334.60281 
L 672.396694 334.60281 
" style="fill:none;stroke:#1f77b4;stroke-width:1.5;"/>
   </g>
   <g id="LineCollection_3">
    <path clip-path="url(#pc3ff30605c)" d="M 62.479339 343.636364 
L 62.479339 70.823057 
" style="fill:none;stroke:#1f77b4;stroke-width:1.5;"/>
    <path clip-path="url(#pc3ff30605c)" d="M 181.487603 339.119587 
L 181.487603 39.141095 
" style="fill:none;stroke:#1f77b4;stroke-width:1.5;"/>
    <path clip-path="url(#pc3ff30605c)" d="M 300.495868 334.60281 
L 300.495868 34.559794 
" style="fill:none;stroke:#1f77b4;stroke-width:1.5;"/>
    <path clip-path="url(#pc3ff30605c)" d="M 419.504132 334.60281 
L 419.504132 25.461715 
" style="fill:none;stroke:#1f77b4;stroke-width:1.5;"/>
    <path clip-path="url(#pc3ff30605c)" d="M 538.512397 334.60281 
L 538.512397 21.138514 
" style="fill:none;stroke:#1f77b4;stroke-width:1.5;"/>
    <path clip-path="url(#pc3ff30605c)" d="M 657.520661 334.60281 
L 657.520661 16.363636 
" style="fill:none;stroke:#1f77b4;stroke-width:1.5;"/>
   </g>
   <g id="patch_3">
    <path d="M 0 360 
L 0 0 
" style="fill:none;stroke:#000000;stroke-linecap:square;stroke-linejoin:miter;stroke-width:0.8;"/>
   </g>
   <g id="patch_4">
    <path d="M 720 360 
L 720 0 
" style="fill:none;stroke:#000000;stroke-linecap:square;stroke-linejoin:miter;stroke-width:0.8;"/>
   </g>
   <g id="patch_5">
    <path d="M 0 360 
L 720 360 
" style="fill:none;stroke:#000000;stroke-linecap:square;stroke-linejoin:miter;stroke-width:0.8;"/>
   </g>
   <g id="patch_6">
    <path d="M 0 0 
L 720 0 
" style="fill:none;stroke:#000000;stroke-linecap:square;stroke-linejoin:miter;stroke-width:0.8;"/>
   </g>
   <g id="text_15">
    <!-- Accuracy for CoDACl and Baseline Methods vs Epochs -->
    <defs>
     <path d="M 37.109375 75.984375 
L 37.109375 68.5 
L 28.515625 68.5 
Q 23.6875 68.5 21.796875 66.546875 
Q 19.921875 64.59375 19.921875 59.515625 
L 19.921875 54.6875 
L 34.71875 54.6875 
L 34.71875 47.703125 
L 19.921875 47.703125 
L 19.921875 0 
L 10.890625 0 
L 10.890625 47.703125 
L 2.296875 47.703125 
L 2.296875 54.6875 
L 10.890625 54.6875 
L 10.890625 58.5 
Q 10.890625 67.625 15.140625 71.796875 
Q 19.390625 75.984375 28.609375 75.984375 
z
" id="DejaVuSans-102"/>
     <path d="M 64.40625 67.28125 
L 64.40625 56.890625 
Q 59.421875 61.53125 53.78125 63.8125 
Q 48.140625 66.109375 41.796875 66.109375 
Q 29.296875 66.109375 22.65625 58.46875 
Q 16.015625 50.828125 16.015625 36.375 
Q 16.015625 21.96875 22.65625 14.328125 
Q 29.296875 6.6875 41.796875 6.6875 
Q 48.140625 6.6875 53.78125 8.984375 
Q 59.421875 11.28125 64.40625 15.921875 
L 64.40625 5.609375 
Q 59.234375 2.09375 53.4375 0.328125 
Q 47.65625 -1.421875 41.21875 -1.421875 
Q 24.65625 -1.421875 15.125 8.703125 
Q 5.609375 18.84375 5.609375 36.375 
Q 5.609375 53.953125 15.125 64.078125 
Q 24.65625 74.21875 41.21875 74.21875 
Q 47.75 74.21875 53.53125 72.484375 
Q 59.328125 70.75 64.40625 67.28125 
z
" id="DejaVuSans-67"/>
     <path d="M 19.671875 64.796875 
L 19.671875 8.109375 
L 31.59375 8.109375 
Q 46.6875 8.109375 53.6875 14.9375 
Q 60.6875 21.78125 60.6875 36.53125 
Q 60.6875 51.171875 53.6875 57.984375 
Q 46.6875 64.796875 31.59375 64.796875 
z
M 9.8125 72.90625 
L 30.078125 72.90625 
Q 51.265625 72.90625 61.171875 64.09375 
Q 71.09375 55.28125 71.09375 36.53125 
Q 71.09375 17.671875 61.125 8.828125 
Q 51.171875 0 30.078125 0 
L 9.8125 0 
z
" id="DejaVuSans-68"/>
     <path d="M 54.890625 33.015625 
L 54.890625 0 
L 45.90625 0 
L 45.90625 32.71875 
Q 45.90625 40.484375 42.875 44.328125 
Q 39.84375 48.1875 33.796875 48.1875 
Q 26.515625 48.1875 22.3125 43.546875 
Q 18.109375 38.921875 18.109375 30.90625 
L 18.109375 0 
L 9.078125 0 
L 9.078125 54.6875 
L 18.109375 54.6875 
L 18.109375 46.1875 
Q 21.34375 51.125 25.703125 53.5625 
Q 30.078125 56 35.796875 56 
Q 45.21875 56 50.046875 50.171875 
Q 54.890625 44.34375 54.890625 33.015625 
z
" id="DejaVuSans-110"/>
     <path d="M 45.40625 46.390625 
L 45.40625 75.984375 
L 54.390625 75.984375 
L 54.390625 0 
L 45.40625 0 
L 45.40625 8.203125 
Q 42.578125 3.328125 38.25 0.953125 
Q 33.9375 -1.421875 27.875 -1.421875 
Q 17.96875 -1.421875 11.734375 6.484375 
Q 5.515625 14.40625 5.515625 27.296875 
Q 5.515625 40.1875 11.734375 48.09375 
Q 17.96875 56 27.875 56 
Q 33.9375 56 38.25 53.625 
Q 42.578125 51.265625 45.40625 46.390625 
z
M 14.796875 27.296875 
Q 14.796875 17.390625 18.875 11.75 
Q 22.953125 6.109375 30.078125 6.109375 
Q 37.203125 6.109375 41.296875 11.75 
Q 45.40625 17.390625 45.40625 27.296875 
Q 45.40625 37.203125 41.296875 42.84375 
Q 37.203125 48.484375 30.078125 48.484375 
Q 22.953125 48.484375 18.875 42.84375 
Q 14.796875 37.203125 14.796875 27.296875 
z
" id="DejaVuSans-100"/>
     <path d="M 19.671875 34.8125 
L 19.671875 8.109375 
L 35.5 8.109375 
Q 43.453125 8.109375 47.28125 11.40625 
Q 51.125 14.703125 51.125 21.484375 
Q 51.125 28.328125 47.28125 31.5625 
Q 43.453125 34.8125 35.5 34.8125 
z
M 19.671875 64.796875 
L 19.671875 42.828125 
L 34.28125 42.828125 
Q 41.5 42.828125 45.03125 45.53125 
Q 48.578125 48.25 48.578125 53.8125 
Q 48.578125 59.328125 45.03125 62.0625 
Q 41.5 64.796875 34.28125 64.796875 
z
M 9.8125 72.90625 
L 35.015625 72.90625 
Q 46.296875 72.90625 52.390625 68.21875 
Q 58.5 63.53125 58.5 54.890625 
Q 58.5 48.1875 55.375 44.234375 
Q 52.25 40.28125 46.1875 39.3125 
Q 53.46875 37.75 57.5 32.78125 
Q 61.53125 27.828125 61.53125 20.40625 
Q 61.53125 10.640625 54.890625 5.3125 
Q 48.25 0 35.984375 0 
L 9.8125 0 
z
" id="DejaVuSans-66"/>
     <path d="M 9.421875 54.6875 
L 18.40625 54.6875 
L 18.40625 0 
L 9.421875 0 
z
M 9.421875 75.984375 
L 18.40625 75.984375 
L 18.40625 64.59375 
L 9.421875 64.59375 
z
" id="DejaVuSans-105"/>
     <path d="M 9.8125 72.90625 
L 24.515625 72.90625 
L 43.109375 23.296875 
L 61.8125 72.90625 
L 76.515625 72.90625 
L 76.515625 0 
L 66.890625 0 
L 66.890625 64.015625 
L 48.09375 14.015625 
L 38.1875 14.015625 
L 19.390625 64.015625 
L 19.390625 0 
L 9.8125 0 
z
" id="DejaVuSans-77"/>
     <path d="M 18.3125 70.21875 
L 18.3125 54.6875 
L 36.8125 54.6875 
L 36.8125 47.703125 
L 18.3125 47.703125 
L 18.3125 18.015625 
Q 18.3125 11.328125 20.140625 9.421875 
Q 21.96875 7.515625 27.59375 7.515625 
L 36.8125 7.515625 
L 36.8125 0 
L 27.59375 0 
Q 17.1875 0 13.234375 3.875 
Q 9.28125 7.765625 9.28125 18.015625 
L 9.28125 47.703125 
L 2.6875 47.703125 
L 2.6875 54.6875 
L 9.28125 54.6875 
L 9.28125 70.21875 
z
" id="DejaVuSans-116"/>
     <path d="M 2.984375 54.6875 
L 12.5 54.6875 
L 29.59375 8.796875 
L 46.6875 54.6875 
L 56.203125 54.6875 
L 35.6875 0 
L 23.484375 0 
z
" id="DejaVuSans-118"/>
    </defs>
    <g transform="translate(197.931563 -6)scale(0.12 -0.12)">
     <use xlink:href="#DejaVuSans-65"/>
     <use x="68.392578" xlink:href="#DejaVuSans-99"/>
     <use x="123.373047" xlink:href="#DejaVuSans-99"/>
     <use x="178.353516" xlink:href="#DejaVuSans-117"/>
     <use x="241.732422" xlink:href="#DejaVuSans-114"/>
     <use x="282.845703" xlink:href="#DejaVuSans-97"/>
     <use x="344.125" xlink:href="#DejaVuSans-99"/>
     <use x="399.105469" xlink:href="#DejaVuSans-121"/>
     <use x="458.285156" xlink:href="#DejaVuSans-32"/>
     <use x="490.072266" xlink:href="#DejaVuSans-102"/>
     <use x="525.277344" xlink:href="#DejaVuSans-111"/>
     <use x="586.458984" xlink:href="#DejaVuSans-114"/>
     <use x="627.572266" xlink:href="#DejaVuSans-32"/>
     <use x="659.359375" xlink:href="#DejaVuSans-67"/>
     <use x="729.183594" xlink:href="#DejaVuSans-111"/>
     <use x="790.365234" xlink:href="#DejaVuSans-68"/>
     <use x="867.351562" xlink:href="#DejaVuSans-65"/>
     <use x="935.744141" xlink:href="#DejaVuSans-67"/>
     <use x="1005.568359" xlink:href="#DejaVuSans-108"/>
     <use x="1033.351562" xlink:href="#DejaVuSans-32"/>
     <use x="1065.138672" xlink:href="#DejaVuSans-97"/>
     <use x="1126.417969" xlink:href="#DejaVuSans-110"/>
     <use x="1189.796875" xlink:href="#DejaVuSans-100"/>
     <use x="1253.273438" xlink:href="#DejaVuSans-32"/>
     <use x="1285.060547" xlink:href="#DejaVuSans-66"/>
     <use x="1353.664062" xlink:href="#DejaVuSans-97"/>
     <use x="1414.943359" xlink:href="#DejaVuSans-115"/>
     <use x="1467.042969" xlink:href="#DejaVuSans-101"/>
     <use x="1528.566406" xlink:href="#DejaVuSans-108"/>
     <use x="1556.349609" xlink:href="#DejaVuSans-105"/>
     <use x="1584.132812" xlink:href="#DejaVuSans-110"/>
     <use x="1647.511719" xlink:href="#DejaVuSans-101"/>
     <use x="1709.035156" xlink:href="#DejaVuSans-32"/>
     <use x="1740.822266" xlink:href="#DejaVuSans-77"/>
     <use x="1827.101562" xlink:href="#DejaVuSans-101"/>
     <use x="1888.625" xlink:href="#DejaVuSans-116"/>
     <use x="1927.833984" xlink:href="#DejaVuSans-104"/>
     <use x="1991.212891" xlink:href="#DejaVuSans-111"/>
     <use x="2052.394531" xlink:href="#DejaVuSans-100"/>
     <use x="2115.871094" xlink:href="#DejaVuSans-115"/>
     <use x="2167.970703" xlink:href="#DejaVuSans-32"/>
     <use x="2199.757812" xlink:href="#DejaVuSans-118"/>
     <use x="2258.9375" xlink:href="#DejaVuSans-115"/>
     <use x="2311.037109" xlink:href="#DejaVuSans-32"/>
     <use x="2342.824219" xlink:href="#DejaVuSans-69"/>
     <use x="2406.007812" xlink:href="#DejaVuSans-112"/>
     <use x="2469.484375" xlink:href="#DejaVuSans-111"/>
     <use x="2530.666016" xlink:href="#DejaVuSans-99"/>
     <use x="2585.646484" xlink:href="#DejaVuSans-104"/>
     <use x="2649.025391" xlink:href="#DejaVuSans-115"/>
    </g>
   </g>
   <g id="legend_1">
    <g id="patch_7">
     <path d="M 518.407812 66.7125 
L 713 66.7125 
Q 715 66.7125 715 64.7125 
L 715 7 
Q 715 5 713 5 
L 518.407812 5 
Q 516.407812 5 516.407812 7 
L 516.407812 64.7125 
Q 516.407812 66.7125 518.407812 66.7125 
z
" style="fill:#ffffff;opacity:0.8;stroke:#cccccc;stroke-linejoin:miter;"/>
    </g>
    <g id="PathCollection_5">
     <g>
      <use style="fill:#ff0000;stroke:#ff0000;" x="530.407812" xlink:href="#m3fc1ddecb8" y="13.973437"/>
     </g>
    </g>
    <g id="text_16">
     <!-- CoDA-PCA + Logistic Regression -->
     <defs>
      <path d="M 4.890625 31.390625 
L 31.203125 31.390625 
L 31.203125 23.390625 
L 4.890625 23.390625 
z
" id="DejaVuSans-45"/>
      <path d="M 19.671875 64.796875 
L 19.671875 37.40625 
L 32.078125 37.40625 
Q 38.96875 37.40625 42.71875 40.96875 
Q 46.484375 44.53125 46.484375 51.125 
Q 46.484375 57.671875 42.71875 61.234375 
Q 38.96875 64.796875 32.078125 64.796875 
z
M 9.8125 72.90625 
L 32.078125 72.90625 
Q 44.34375 72.90625 50.609375 67.359375 
Q 56.890625 61.8125 56.890625 51.125 
Q 56.890625 40.328125 50.609375 34.8125 
Q 44.34375 29.296875 32.078125 29.296875 
L 19.671875 29.296875 
L 19.671875 0 
L 9.8125 0 
z
" id="DejaVuSans-80"/>
      <path d="M 46 62.703125 
L 46 35.5 
L 73.1875 35.5 
L 73.1875 27.203125 
L 46 27.203125 
L 46 0 
L 37.796875 0 
L 37.796875 27.203125 
L 10.59375 27.203125 
L 10.59375 35.5 
L 37.796875 35.5 
L 37.796875 62.703125 
z
" id="DejaVuSans-43"/>
      <path d="M 9.8125 72.90625 
L 19.671875 72.90625 
L 19.671875 8.296875 
L 55.171875 8.296875 
L 55.171875 0 
L 9.8125 0 
z
" id="DejaVuSans-76"/>
      <path d="M 45.40625 27.984375 
Q 45.40625 37.75 41.375 43.109375 
Q 37.359375 48.484375 30.078125 48.484375 
Q 22.859375 48.484375 18.828125 43.109375 
Q 14.796875 37.75 14.796875 27.984375 
Q 14.796875 18.265625 18.828125 12.890625 
Q 22.859375 7.515625 30.078125 7.515625 
Q 37.359375 7.515625 41.375 12.890625 
Q 45.40625 18.265625 45.40625 27.984375 
z
M 54.390625 6.78125 
Q 54.390625 -7.171875 48.1875 -13.984375 
Q 42 -20.796875 29.203125 -20.796875 
Q 24.46875 -20.796875 20.265625 -20.09375 
Q 16.0625 -19.390625 12.109375 -17.921875 
L 12.109375 -9.1875 
Q 16.0625 -11.328125 19.921875 -12.34375 
Q 23.78125 -13.375 27.78125 -13.375 
Q 36.625 -13.375 41.015625 -8.765625 
Q 45.40625 -4.15625 45.40625 5.171875 
L 45.40625 9.625 
Q 42.625 4.78125 38.28125 2.390625 
Q 33.9375 0 27.875 0 
Q 17.828125 0 11.671875 7.65625 
Q 5.515625 15.328125 5.515625 27.984375 
Q 5.515625 40.671875 11.671875 48.328125 
Q 17.828125 56 27.875 56 
Q 33.9375 56 38.28125 53.609375 
Q 42.625 51.21875 45.40625 46.390625 
L 45.40625 54.6875 
L 54.390625 54.6875 
z
" id="DejaVuSans-103"/>
      <path d="M 44.390625 34.1875 
Q 47.5625 33.109375 50.5625 29.59375 
Q 53.5625 26.078125 56.59375 19.921875 
L 66.609375 0 
L 56 0 
L 46.6875 18.703125 
Q 43.0625 26.03125 39.671875 28.421875 
Q 36.28125 30.8125 30.421875 30.8125 
L 19.671875 30.8125 
L 19.671875 0 
L 9.8125 0 
L 9.8125 72.90625 
L 32.078125 72.90625 
Q 44.578125 72.90625 50.734375 67.671875 
Q 56.890625 62.453125 56.890625 51.90625 
Q 56.890625 45.015625 53.6875 40.46875 
Q 50.484375 35.9375 44.390625 34.1875 
z
M 19.671875 64.796875 
L 19.671875 38.921875 
L 32.078125 38.921875 
Q 39.203125 38.921875 42.84375 42.21875 
Q 46.484375 45.515625 46.484375 51.90625 
Q 46.484375 58.296875 42.84375 61.546875 
Q 39.203125 64.796875 32.078125 64.796875 
z
" id="DejaVuSans-82"/>
     </defs>
     <g transform="translate(548.407812 16.598437)scale(0.1 -0.1)">
      <use xlink:href="#DejaVuSans-67"/>
      <use x="69.824219" xlink:href="#DejaVuSans-111"/>
      <use x="131.005859" xlink:href="#DejaVuSans-68"/>
      <use x="207.992188" xlink:href="#DejaVuSans-65"/>
      <use x="276.369141" xlink:href="#DejaVuSans-45"/>
      <use x="312.453125" xlink:href="#DejaVuSans-80"/>
      <use x="372.755859" xlink:href="#DejaVuSans-67"/>
      <use x="442.580078" xlink:href="#DejaVuSans-65"/>
      <use x="510.988281" xlink:href="#DejaVuSans-32"/>
      <use x="542.775391" xlink:href="#DejaVuSans-43"/>
      <use x="626.564453" xlink:href="#DejaVuSans-32"/>
      <use x="658.351562" xlink:href="#DejaVuSans-76"/>
      <use x="714.048828" xlink:href="#DejaVuSans-111"/>
      <use x="775.230469" xlink:href="#DejaVuSans-103"/>
      <use x="838.707031" xlink:href="#DejaVuSans-105"/>
      <use x="866.490234" xlink:href="#DejaVuSans-115"/>
      <use x="918.589844" xlink:href="#DejaVuSans-116"/>
      <use x="957.798828" xlink:href="#DejaVuSans-105"/>
      <use x="985.582031" xlink:href="#DejaVuSans-99"/>
      <use x="1040.5625" xlink:href="#DejaVuSans-32"/>
      <use x="1072.349609" xlink:href="#DejaVuSans-82"/>
      <use x="1141.769531" xlink:href="#DejaVuSans-101"/>
      <use x="1203.292969" xlink:href="#DejaVuSans-103"/>
      <use x="1266.769531" xlink:href="#DejaVuSans-114"/>
      <use x="1307.851562" xlink:href="#DejaVuSans-101"/>
      <use x="1369.375" xlink:href="#DejaVuSans-115"/>
      <use x="1421.474609" xlink:href="#DejaVuSans-115"/>
      <use x="1473.574219" xlink:href="#DejaVuSans-105"/>
      <use x="1501.357422" xlink:href="#DejaVuSans-111"/>
      <use x="1562.539062" xlink:href="#DejaVuSans-110"/>
     </g>
    </g>
    <g id="PathCollection_6">
     <g>
      <use style="fill:#0000ff;stroke:#0000ff;" x="530.407812" xlink:href="#m961ea2976a" y="28.651563"/>
     </g>
    </g>
    <g id="text_17">
     <!-- CLR-PCA + Logistic Regression -->
     <g transform="translate(548.407812 31.276563)scale(0.1 -0.1)">
      <use xlink:href="#DejaVuSans-67"/>
      <use x="69.824219" xlink:href="#DejaVuSans-76"/>
      <use x="125.537109" xlink:href="#DejaVuSans-82"/>
      <use x="194.957031" xlink:href="#DejaVuSans-45"/>
      <use x="231.041016" xlink:href="#DejaVuSans-80"/>
      <use x="291.34375" xlink:href="#DejaVuSans-67"/>
      <use x="361.167969" xlink:href="#DejaVuSans-65"/>
      <use x="429.576172" xlink:href="#DejaVuSans-32"/>
      <use x="461.363281" xlink:href="#DejaVuSans-43"/>
      <use x="545.152344" xlink:href="#DejaVuSans-32"/>
      <use x="576.939453" xlink:href="#DejaVuSans-76"/>
      <use x="632.636719" xlink:href="#DejaVuSans-111"/>
      <use x="693.818359" xlink:href="#DejaVuSans-103"/>
      <use x="757.294922" xlink:href="#DejaVuSans-105"/>
      <use x="785.078125" xlink:href="#DejaVuSans-115"/>
      <use x="837.177734" xlink:href="#DejaVuSans-116"/>
      <use x="876.386719" xlink:href="#DejaVuSans-105"/>
      <use x="904.169922" xlink:href="#DejaVuSans-99"/>
      <use x="959.150391" xlink:href="#DejaVuSans-32"/>
      <use x="990.9375" xlink:href="#DejaVuSans-82"/>
      <use x="1060.357422" xlink:href="#DejaVuSans-101"/>
      <use x="1121.880859" xlink:href="#DejaVuSans-103"/>
      <use x="1185.357422" xlink:href="#DejaVuSans-114"/>
      <use x="1226.439453" xlink:href="#DejaVuSans-101"/>
      <use x="1287.962891" xlink:href="#DejaVuSans-115"/>
      <use x="1340.0625" xlink:href="#DejaVuSans-115"/>
      <use x="1392.162109" xlink:href="#DejaVuSans-105"/>
      <use x="1419.945312" xlink:href="#DejaVuSans-111"/>
      <use x="1481.126953" xlink:href="#DejaVuSans-110"/>
     </g>
    </g>
    <g id="PathCollection_7">
     <g>
      <use style="fill:#008000;stroke:#008000;" x="530.407812" xlink:href="#mb12c8a17ce" y="43.329687"/>
     </g>
    </g>
    <g id="text_18">
     <!-- PCA + Logistic Regression -->
     <g transform="translate(548.407812 45.954687)scale(0.1 -0.1)">
      <use xlink:href="#DejaVuSans-80"/>
      <use x="60.302734" xlink:href="#DejaVuSans-67"/>
      <use x="130.126953" xlink:href="#DejaVuSans-65"/>
      <use x="198.535156" xlink:href="#DejaVuSans-32"/>
      <use x="230.322266" xlink:href="#DejaVuSans-43"/>
      <use x="314.111328" xlink:href="#DejaVuSans-32"/>
      <use x="345.898438" xlink:href="#DejaVuSans-76"/>
      <use x="401.595703" xlink:href="#DejaVuSans-111"/>
      <use x="462.777344" xlink:href="#DejaVuSans-103"/>
      <use x="526.253906" xlink:href="#DejaVuSans-105"/>
      <use x="554.037109" xlink:href="#DejaVuSans-115"/>
      <use x="606.136719" xlink:href="#DejaVuSans-116"/>
      <use x="645.345703" xlink:href="#DejaVuSans-105"/>
      <use x="673.128906" xlink:href="#DejaVuSans-99"/>
      <use x="728.109375" xlink:href="#DejaVuSans-32"/>
      <use x="759.896484" xlink:href="#DejaVuSans-82"/>
      <use x="829.316406" xlink:href="#DejaVuSans-101"/>
      <use x="890.839844" xlink:href="#DejaVuSans-103"/>
      <use x="954.316406" xlink:href="#DejaVuSans-114"/>
      <use x="995.398438" xlink:href="#DejaVuSans-101"/>
      <use x="1056.921875" xlink:href="#DejaVuSans-115"/>
      <use x="1109.021484" xlink:href="#DejaVuSans-115"/>
      <use x="1161.121094" xlink:href="#DejaVuSans-105"/>
      <use x="1188.904297" xlink:href="#DejaVuSans-111"/>
      <use x="1250.085938" xlink:href="#DejaVuSans-110"/>
     </g>
    </g>
    <g id="PathCollection_8">
     <g>
      <use style="fill:#ffff00;stroke:#ffff00;" x="530.407812" xlink:href="#m56b8b6d46b" y="58.007812"/>
     </g>
    </g>
    <g id="text_19">
     <!-- Logistic Regression -->
     <g transform="translate(548.407812 60.632812)scale(0.1 -0.1)">
      <use xlink:href="#DejaVuSans-76"/>
      <use x="55.697266" xlink:href="#DejaVuSans-111"/>
      <use x="116.878906" xlink:href="#DejaVuSans-103"/>
      <use x="180.355469" xlink:href="#DejaVuSans-105"/>
      <use x="208.138672" xlink:href="#DejaVuSans-115"/>
      <use x="260.238281" xlink:href="#DejaVuSans-116"/>
      <use x="299.447266" xlink:href="#DejaVuSans-105"/>
      <use x="327.230469" xlink:href="#DejaVuSans-99"/>
      <use x="382.210938" xlink:href="#DejaVuSans-32"/>
      <use x="413.998047" xlink:href="#DejaVuSans-82"/>
      <use x="483.417969" xlink:href="#DejaVuSans-101"/>
      <use x="544.941406" xlink:href="#DejaVuSans-103"/>
      <use x="608.417969" xlink:href="#DejaVuSans-114"/>
      <use x="649.5" xlink:href="#DejaVuSans-101"/>
      <use x="711.023438" xlink:href="#DejaVuSans-115"/>
      <use x="763.123047" xlink:href="#DejaVuSans-115"/>
      <use x="815.222656" xlink:href="#DejaVuSans-105"/>
      <use x="843.005859" xlink:href="#DejaVuSans-111"/>
      <use x="904.1875" xlink:href="#DejaVuSans-110"/>
     </g>
    </g>
   </g>
  </g>
 </g>
 <defs>
  <clipPath id="pc3ff30605c">
   <rect height="360" width="720" x="0" y="0"/>
  </clipPath>
 </defs>
</svg>
