<?xml version="1.0" encoding="utf-8" standalone="no"?>
<!DOCTYPE svg PUBLIC "-//W3C//DTD SVG 1.1//EN"
  "http://www.w3.org/Graphics/SVG/1.1/DTD/svg11.dtd">
<!-- Created with matplotlib (https://matplotlib.org/) -->
<svg height="360pt" version="1.1" viewBox="0 0 720 360" width="720pt" xmlns="http://www.w3.org/2000/svg" xmlns:xlink="http://www.w3.org/1999/xlink">
 <defs>
  <style type="text/css">
*{stroke-linecap:butt;stroke-linejoin:round;}
  </style>
 </defs>
 <g id="figure_1">
  <g id="patch_1">
   <path d="M 0 360 
L 720 360 
L 720 0 
L 0 0 
z
" style="fill:#ffffff;"/>
  </g>
  <g id="axes_1">
   <g id="patch_2">
    <path d="M 0 360 
L 720 360 
L 720 0 
L 0 0 
z
" style="fill:#ffffff;"/>
   </g>
   <g id="PathCollection_1">
    <defs>
     <path d="M 0 3 
C 0.795609 3 1.55874 2.683901 2.12132 2.12132 
C 2.683901 1.55874 3 0.795609 3 0 
C 3 -0.795609 2.683901 -1.55874 2.12132 -2.12132 
C 1.55874 -2.683901 0.795609 -3 0 -3 
C -0.795609 -3 -1.55874 -2.683901 -2.12132 -2.12132 
C -2.683901 -1.55874 -3 -0.795609 -3 0 
C -3 0.795609 -2.683901 1.55874 -2.12132 2.12132 
C -1.55874 2.683901 -0.795609 3 0 3 
z
" id="m3acb8b3f62" style="stroke:#ff0000;"/>
    </defs>
    <g clip-path="url(#pe76c8fee5f)">
     <use style="fill:#ff0000;stroke:#ff0000;" x="54.545455" xlink:href="#m3acb8b3f62" y="215.186033"/>
     <use style="fill:#ff0000;stroke:#ff0000;" x="141.818182" xlink:href="#m3acb8b3f62" y="260.486755"/>
     <use style="fill:#ff0000;stroke:#ff0000;" x="229.090909" xlink:href="#m3acb8b3f62" y="222.852309"/>
     <use style="fill:#ff0000;stroke:#ff0000;" x="316.363636" xlink:href="#m3acb8b3f62" y="188.809754"/>
     <use style="fill:#ff0000;stroke:#ff0000;" x="403.636364" xlink:href="#m3acb8b3f62" y="105.284873"/>
     <use style="fill:#ff0000;stroke:#ff0000;" x="490.909091" xlink:href="#m3acb8b3f62" y="169.8317"/>
     <use style="fill:#ff0000;stroke:#ff0000;" x="578.181818" xlink:href="#m3acb8b3f62" y="52.157044"/>
     <use style="fill:#ff0000;stroke:#ff0000;" x="665.454545" xlink:href="#m3acb8b3f62" y="71.45676"/>
    </g>
   </g>
   <g id="PathCollection_2">
    <defs>
     <path d="M 0 3 
C 0.795609 3 1.55874 2.683901 2.12132 2.12132 
C 2.683901 1.55874 3 0.795609 3 0 
C 3 -0.795609 2.683901 -1.55874 2.12132 -2.12132 
C 1.55874 -2.683901 0.795609 -3 0 -3 
C -0.795609 -3 -1.55874 -2.683901 -2.12132 -2.12132 
C -2.683901 -1.55874 -3 -0.795609 -3 0 
C -3 0.795609 -2.683901 1.55874 -2.12132 2.12132 
C -1.55874 2.683901 -0.795609 3 0 3 
z
" id="meac001278c" style="stroke:#0000ff;"/>
    </defs>
    <g clip-path="url(#pe76c8fee5f)">
     <use style="fill:#0000ff;stroke:#0000ff;" x="54.545455" xlink:href="#meac001278c" y="241.615921"/>
     <use style="fill:#0000ff;stroke:#0000ff;" x="141.818182" xlink:href="#meac001278c" y="192.508867"/>
     <use style="fill:#0000ff;stroke:#0000ff;" x="229.090909" xlink:href="#meac001278c" y="113.16559"/>
     <use style="fill:#0000ff;stroke:#0000ff;" x="316.363636" xlink:href="#meac001278c" y="120.456594"/>
     <use style="fill:#0000ff;stroke:#0000ff;" x="403.636364" xlink:href="#meac001278c" y="105.552925"/>
     <use style="fill:#0000ff;stroke:#0000ff;" x="490.909091" xlink:href="#meac001278c" y="234.164087"/>
     <use style="fill:#0000ff;stroke:#0000ff;" x="578.181818" xlink:href="#meac001278c" y="26.102428"/>
     <use style="fill:#0000ff;stroke:#0000ff;" x="665.454545" xlink:href="#meac001278c" y="18.436152"/>
    </g>
   </g>
   <g id="PathCollection_3">
    <defs>
     <path d="M 0 3 
C 0.795609 3 1.55874 2.683901 2.12132 2.12132 
C 2.683901 1.55874 3 0.795609 3 0 
C 3 -0.795609 2.683901 -1.55874 2.12132 -2.12132 
C 1.55874 -2.683901 0.795609 -3 0 -3 
C -0.795609 -3 -1.55874 -2.683901 -2.12132 -2.12132 
C -2.683901 -1.55874 -3 -0.795609 -3 0 
C -3 0.795609 -2.683901 1.55874 -2.12132 2.12132 
C -1.55874 2.683901 -0.795609 3 0 3 
z
" id="m9e4b447504" style="stroke:#008000;"/>
    </defs>
    <g clip-path="url(#pe76c8fee5f)">
     <use style="fill:#008000;stroke:#008000;" x="54.545455" xlink:href="#m9e4b447504" y="275.712086"/>
     <use style="fill:#008000;stroke:#008000;" x="141.818182" xlink:href="#m9e4b447504" y="237.809588"/>
     <use style="fill:#008000;stroke:#008000;" x="229.090909" xlink:href="#m9e4b447504" y="181.197089"/>
     <use style="fill:#008000;stroke:#008000;" x="316.363636" xlink:href="#m9e4b447504" y="139.863531"/>
     <use style="fill:#008000;stroke:#008000;" x="403.636364" xlink:href="#m9e4b447504" y="143.08015"/>
     <use style="fill:#008000;stroke:#008000;" x="490.909091" xlink:href="#m9e4b447504" y="188.648923"/>
     <use style="fill:#008000;stroke:#008000;" x="578.181818" xlink:href="#m9e4b447504" y="82.393266"/>
     <use style="fill:#008000;stroke:#008000;" x="665.454545" xlink:href="#m9e4b447504" y="154.338317"/>
    </g>
   </g>
   <g id="PathCollection_4">
    <defs>
     <path d="M 0 3 
C 0.795609 3 1.55874 2.683901 2.12132 2.12132 
C 2.683901 1.55874 3 0.795609 3 0 
C 3 -0.795609 2.683901 -1.55874 2.12132 -2.12132 
C 1.55874 -2.683901 0.795609 -3 0 -3 
C -0.795609 -3 -1.55874 -2.683901 -2.12132 -2.12132 
C -2.683901 -1.55874 -3 -0.795609 -3 0 
C -3 0.795609 -2.683901 1.55874 -2.12132 2.12132 
C -1.55874 2.683901 -0.795609 3 0 3 
z
" id="m5c477b71cc" style="stroke:#ffff00;"/>
    </defs>
    <g clip-path="url(#pe76c8fee5f)">
     <use style="fill:#ffff00;stroke:#ffff00;" x="54.545455" xlink:href="#m5c477b71cc" y="223.01314"/>
     <use style="fill:#ffff00;stroke:#ffff00;" x="141.818182" xlink:href="#m5c477b71cc" y="166.186199"/>
     <use style="fill:#ffff00;stroke:#ffff00;" x="229.090909" xlink:href="#m5c477b71cc" y="203.981475"/>
     <use style="fill:#ffff00;stroke:#ffff00;" x="316.363636" xlink:href="#m5c477b71cc" y="203.981475"/>
     <use style="fill:#ffff00;stroke:#ffff00;" x="403.636364" xlink:href="#m5c477b71cc" y="188.702534"/>
     <use style="fill:#ffff00;stroke:#ffff00;" x="490.909091" xlink:href="#m5c477b71cc" y="188.702534"/>
     <use style="fill:#ffff00;stroke:#ffff00;" x="578.181818" xlink:href="#m5c477b71cc" y="230.143312"/>
     <use style="fill:#ffff00;stroke:#ffff00;" x="665.454545" xlink:href="#m5c477b71cc" y="230.143312"/>
    </g>
   </g>
   <g id="PolyCollection_1">
    <path clip-path="url(#pe76c8fee5f)" d="M 55.217879 317.635358 
L 53.87303 317.635358 
L 53.804664 315.869466 
L 53.740156 314.103575 
L 53.679393 312.337683 
L 53.621296 310.571792 
L 53.563848 308.8059 
L 53.504253 307.040009 
L 53.439227 305.274117 
L 53.365393 303.508226 
L 53.279719 301.742334 
L 53.179949 299.976443 
L 53.064932 298.210551 
L 52.934794 296.444659 
L 52.790881 294.678768 
L 52.635484 292.912876 
L 52.471358 291.146985 
L 52.301131 289.381093 
L 52.12669 287.615202 
L 51.948692 285.84931 
L 51.766271 284.083419 
L 51.577019 282.317527 
L 51.377238 280.551636 
L 51.162395 278.785744 
L 50.927708 277.019853 
L 50.668722 275.253961 
L 50.381795 273.48807 
L 50.064424 271.722178 
L 49.715389 269.956287 
L 49.334761 268.190395 
L 48.923822 266.424504 
L 48.484966 264.658612 
L 48.021612 262.892721 
L 47.538125 261.126829 
L 47.039688 259.360938 
L 46.532046 257.595046 
L 46.021056 255.829155 
L 45.512 254.063263 
L 45.00874 252.297372 
L 44.512836 250.53148 
L 44.022847 248.765589 
L 43.534043 246.999697 
L 43.03871 245.233806 
L 42.527133 243.467914 
L 41.989172 241.702023 
L 41.416196 239.936131 
L 40.80303 238.17024 
L 40.149494 236.404348 
L 39.461188 234.638457 
L 38.749296 232.872565 
L 38.02938 231.106674 
L 37.319359 229.340782 
L 36.63707 227.574891 
L 35.997886 225.808999 
L 35.412901 224.043108 
L 34.888057 222.277216 
L 34.424395 220.511325 
L 34.019353 218.745433 
L 33.668798 216.979542 
L 33.369314 215.21365 
L 33.120193 213.447759 
L 32.924677 211.681867 
L 32.790153 209.915976 
L 32.727273 208.150084 
L 32.748207 206.384193 
L 32.864435 204.618301 
L 33.084553 202.85241 
L 33.412552 201.086518 
L 33.846878 199.320627 
L 34.380381 197.554735 
L 35.001081 195.788844 
L 35.693502 194.022952 
L 36.440279 192.257061 
L 37.223723 190.491169 
L 38.027121 188.725278 
L 38.835645 186.959386 
L 39.636849 185.193495 
L 40.420813 183.427603 
L 41.180037 181.661711 
L 41.909211 179.89582 
L 42.604944 178.129928 
L 43.265543 176.364037 
L 43.890873 174.598145 
L 44.482297 172.832254 
L 45.042657 171.066362 
L 45.57623 169.300471 
L 46.088577 167.534579 
L 46.586202 165.768688 
L 47.075996 164.002796 
L 47.564478 162.236905 
L 48.056945 160.471013 
L 48.55665 158.705122 
L 49.064208 156.93923 
L 49.577341 155.173339 
L 50.091073 153.407447 
L 50.598322 151.641556 
L 51.090812 149.875664 
L 51.560118 148.109773 
L 51.998653 146.343881 
L 52.400446 144.57799 
L 52.761585 142.812098 
L 56.329324 142.812098 
L 56.329324 142.812098 
L 56.690463 144.57799 
L 57.092256 146.343881 
L 57.530792 148.109773 
L 58.000097 149.875664 
L 58.492587 151.641556 
L 58.999836 153.407447 
L 59.513568 155.173339 
L 60.026702 156.93923 
L 60.534259 158.705122 
L 61.033964 160.471013 
L 61.526431 162.236905 
L 62.014913 164.002796 
L 62.504707 165.768688 
L 63.002332 167.534579 
L 63.514679 169.300471 
L 64.048252 171.066362 
L 64.608612 172.832254 
L 65.200036 174.598145 
L 65.825366 176.364037 
L 66.485965 178.129928 
L 67.181698 179.89582 
L 67.910872 181.661711 
L 68.670096 183.427603 
L 69.45406 185.193495 
L 70.255264 186.959386 
L 71.063788 188.725278 
L 71.867187 190.491169 
L 72.650631 192.257061 
L 73.397408 194.022952 
L 74.089829 195.788844 
L 74.710528 197.554735 
L 75.244031 199.320627 
L 75.678357 201.086518 
L 76.006356 202.85241 
L 76.226474 204.618301 
L 76.342702 206.384193 
L 76.363636 208.150084 
L 76.300756 209.915976 
L 76.166232 211.681867 
L 75.970716 213.447759 
L 75.721595 215.21365 
L 75.422111 216.979542 
L 75.071557 218.745433 
L 74.666514 220.511325 
L 74.202852 222.277216 
L 73.678008 224.043108 
L 73.093023 225.808999 
L 72.453839 227.574891 
L 71.77155 229.340782 
L 71.061529 231.106674 
L 70.341613 232.872565 
L 69.629721 234.638457 
L 68.941416 236.404348 
L 68.287879 238.17024 
L 67.674713 239.936131 
L 67.101737 241.702023 
L 66.563776 243.467914 
L 66.0522 245.233806 
L 65.556866 246.999697 
L 65.068062 248.765589 
L 64.578073 250.53148 
L 64.082169 252.297372 
L 63.578909 254.063263 
L 63.069853 255.829155 
L 62.558863 257.595046 
L 62.051221 259.360938 
L 61.552784 261.126829 
L 61.069297 262.892721 
L 60.605943 264.658612 
L 60.167087 266.424504 
L 59.756148 268.190395 
L 59.37552 269.956287 
L 59.026485 271.722178 
L 58.709114 273.48807 
L 58.422187 275.253961 
L 58.163201 277.019853 
L 57.928514 278.785744 
L 57.713671 280.551636 
L 57.51389 282.317527 
L 57.324639 284.083419 
L 57.142217 285.84931 
L 56.964219 287.615202 
L 56.789778 289.381093 
L 56.619551 291.146985 
L 56.455426 292.912876 
L 56.300028 294.678768 
L 56.156115 296.444659 
L 56.025977 298.210551 
L 55.910961 299.976443 
L 55.81119 301.742334 
L 55.725516 303.508226 
L 55.651682 305.274117 
L 55.586656 307.040009 
L 55.527061 308.8059 
L 55.469613 310.571792 
L 55.411516 312.337683 
L 55.350753 314.103575 
L 55.286245 315.869466 
L 55.217879 317.635358 
z
" style="fill:#1f77b4;fill-opacity:0.3;"/>
   </g>
   <g id="PolyCollection_2">
    <path clip-path="url(#pe76c8fee5f)" d="M 144.035978 317.528137 
L 139.600386 317.528137 
L 139.404847 315.045275 
L 139.211724 312.562413 
L 139.021382 310.079551 
L 138.833249 307.596689 
L 138.645724 305.113828 
L 138.456151 302.630966 
L 138.260848 300.148104 
L 138.05522 297.665242 
L 137.833931 295.18238 
L 137.591152 292.699518 
L 137.320853 290.216656 
L 137.017153 287.733794 
L 136.67467 285.250933 
L 136.288885 282.768071 
L 135.856463 280.285209 
L 135.375516 277.802347 
L 134.845785 275.319485 
L 134.268719 272.836623 
L 133.647435 270.353761 
L 132.98657 267.8709 
L 132.292031 265.388038 
L 131.570665 262.905176 
L 130.82988 260.422314 
L 130.077255 257.939452 
L 129.320176 255.45659 
L 128.565521 252.973728 
L 127.819443 250.490866 
L 127.087237 248.008005 
L 126.373327 245.525143 
L 125.681344 243.042281 
L 125.014289 240.559419 
L 124.374757 238.076557 
L 123.765183 235.593695 
L 123.188087 233.110833 
L 122.646282 230.627971 
L 122.143011 228.14511 
L 121.682014 225.662248 
L 121.267482 223.179386 
L 120.903933 220.696524 
L 120.595989 218.213662 
L 120.3481 215.7308 
L 120.164226 213.247938 
L 120.047512 210.765076 
L 120 208.282215 
L 120.022396 205.799353 
L 120.113928 203.316491 
L 120.272301 200.833629 
L 120.493768 198.350767 
L 120.773299 195.867905 
L 121.104841 193.385043 
L 121.481647 190.902181 
L 121.896636 188.41932 
L 122.342747 185.936458 
L 122.813272 183.453596 
L 123.302102 180.970734 
L 123.803893 178.487872 
L 124.314093 176.00501 
L 124.828864 173.522148 
L 125.344855 171.039287 
L 125.858882 168.556425 
L 126.36752 166.073563 
L 126.866665 163.590701 
L 127.351107 161.107839 
L 127.81419 158.624977 
L 128.247601 156.142115 
L 128.641348 153.659253 
L 128.983968 151.176392 
L 129.262979 148.69353 
L 129.465562 146.210668 
L 129.579457 143.727806 
L 129.594001 141.244944 
L 129.501231 138.762082 
L 129.296961 136.27922 
L 128.981719 133.796358 
L 128.561459 131.313497 
L 128.047945 128.830635 
L 127.45876 126.347773 
L 126.816883 123.864911 
L 126.149859 121.382049 
L 125.488578 118.899187 
L 124.865754 116.416325 
L 124.314191 113.933463 
L 123.864976 111.450602 
L 123.545722 108.96774 
L 123.379004 106.484878 
L 123.381102 104.002016 
L 123.561153 101.519154 
L 123.920758 99.036292 
L 124.454077 96.55343 
L 125.148388 94.070569 
L 125.985035 91.587707 
L 126.940696 89.104845 
L 127.988846 86.621983 
L 129.101295 84.139121 
L 130.249689 81.656259 
L 131.406869 79.173397 
L 132.548009 76.690535 
L 133.651477 74.207674 
L 134.699407 71.724812 
L 148.936957 71.724812 
L 148.936957 71.724812 
L 149.984887 74.207674 
L 151.088355 76.690535 
L 152.229494 79.173397 
L 153.386674 81.656259 
L 154.535068 84.139121 
L 155.647517 86.621983 
L 156.695668 89.104845 
L 157.651329 91.587707 
L 158.487975 94.070569 
L 159.182286 96.55343 
L 159.715606 99.036292 
L 160.075211 101.519154 
L 160.255261 104.002016 
L 160.25736 106.484878 
L 160.090641 108.96774 
L 159.771387 111.450602 
L 159.322172 113.933463 
L 158.77061 116.416325 
L 158.147785 118.899187 
L 157.486505 121.382049 
L 156.81948 123.864911 
L 156.177604 126.347773 
L 155.588418 128.830635 
L 155.074905 131.313497 
L 154.654645 133.796358 
L 154.339403 136.27922 
L 154.135132 138.762082 
L 154.042363 141.244944 
L 154.056907 143.727806 
L 154.170802 146.210668 
L 154.373385 148.69353 
L 154.652395 151.176392 
L 154.995016 153.659253 
L 155.388763 156.142115 
L 155.822173 158.624977 
L 156.285257 161.107839 
L 156.769699 163.590701 
L 157.268844 166.073563 
L 157.777482 168.556425 
L 158.291509 171.039287 
L 158.8075 173.522148 
L 159.32227 176.00501 
L 159.832471 178.487872 
L 160.334261 180.970734 
L 160.823092 183.453596 
L 161.293617 185.936458 
L 161.739728 188.41932 
L 162.154716 190.902181 
L 162.531523 193.385043 
L 162.863065 195.867905 
L 163.142595 198.350767 
L 163.364062 200.833629 
L 163.522436 203.316491 
L 163.613967 205.799353 
L 163.636364 208.282215 
L 163.588851 210.765076 
L 163.472137 213.247938 
L 163.288263 215.7308 
L 163.040375 218.213662 
L 162.732431 220.696524 
L 162.368881 223.179386 
L 161.95435 225.662248 
L 161.493352 228.14511 
L 160.990082 230.627971 
L 160.448276 233.110833 
L 159.871181 235.593695 
L 159.261607 238.076557 
L 158.622075 240.559419 
L 157.95502 243.042281 
L 157.263037 245.525143 
L 156.549127 248.008005 
L 155.816921 250.490866 
L 155.070843 252.973728 
L 154.316188 255.45659 
L 153.559108 257.939452 
L 152.806484 260.422314 
L 152.065698 262.905176 
L 151.344332 265.388038 
L 150.649793 267.8709 
L 149.988928 270.353761 
L 149.367644 272.836623 
L 148.790578 275.319485 
L 148.260848 277.802347 
L 147.7799 280.285209 
L 147.347478 282.768071 
L 146.961694 285.250933 
L 146.619211 287.733794 
L 146.31551 290.216656 
L 146.045212 292.699518 
L 145.802432 295.18238 
L 145.581144 297.665242 
L 145.375515 300.148104 
L 145.180213 302.630966 
L 144.990639 305.113828 
L 144.803115 307.596689 
L 144.614981 310.079551 
L 144.424639 312.562413 
L 144.231516 315.045275 
L 144.035978 317.528137 
z
" style="fill:#1f77b4;fill-opacity:0.3;"/>
   </g>
   <g id="PolyCollection_3">
    <path clip-path="url(#pe76c8fee5f)" d="M 229.541344 320.959198 
L 228.640474 320.959198 
L 228.580327 318.671282 
L 228.509843 316.383367 
L 228.425279 314.095452 
L 228.322205 311.807537 
L 228.195553 309.519621 
L 228.039639 307.231706 
L 227.848172 304.943791 
L 227.614266 302.655876 
L 227.33052 300.36796 
L 226.989227 298.080045 
L 226.582803 295.79213 
L 226.104452 293.504215 
L 225.54909 291.216299 
L 224.914451 288.928384 
L 224.202222 286.640469 
L 223.419033 284.352554 
L 222.577041 282.064638 
L 221.693939 279.776723 
L 220.792199 277.488808 
L 219.897556 275.200893 
L 219.036812 272.912977 
L 218.235209 270.625062 
L 217.513728 268.337147 
L 216.886711 266.049232 
L 216.360202 263.761316 
L 215.931277 261.473401 
L 215.588504 259.185486 
L 215.313467 256.897571 
L 215.083115 254.609655 
L 214.872562 252.32174 
L 214.657898 250.033825 
L 214.418606 247.74591 
L 214.139268 245.457994 
L 213.810404 243.170079 
L 213.428468 240.882164 
L 212.995158 238.594249 
L 212.516317 236.306333 
L 212.000717 234.018418 
L 211.458986 231.730503 
L 210.902835 229.442588 
L 210.344621 227.154672 
L 209.797159 224.866757 
L 209.273631 222.578842 
L 208.787401 220.290927 
L 208.351596 218.003011 
L 207.978419 215.715096 
L 207.678233 213.427181 
L 207.458602 211.139266 
L 207.323472 208.85135 
L 207.272727 206.563435 
L 207.302223 204.27552 
L 207.404341 201.987605 
L 207.568948 199.699689 
L 207.784565 197.411774 
L 208.039491 195.123859 
L 208.322665 192.835944 
L 208.624094 190.548028 
L 208.934827 188.260113 
L 209.246563 185.972198 
L 209.551068 183.684283 
L 209.839677 181.396367 
L 210.103085 179.108452 
L 210.331647 176.820537 
L 210.516221 174.532622 
L 210.649516 172.244706 
L 210.727741 169.956791 
L 210.752282 167.668876 
L 210.73104 165.380961 
L 210.679134 163.093045 
L 210.618685 160.80513 
L 210.577591 158.517215 
L 210.587324 156.2293 
L 210.679989 153.941385 
L 210.885017 151.653469 
L 211.225949 149.365554 
L 211.717798 147.077639 
L 212.365354 144.789724 
L 213.162697 142.501808 
L 214.093928 140.213893 
L 215.134967 137.925978 
L 216.256088 135.638063 
L 217.424779 133.350147 
L 218.608514 131.062232 
L 219.777085 128.774317 
L 220.904305 126.486402 
L 221.969005 124.198486 
L 222.955387 121.910571 
L 223.852889 119.622656 
L 224.655732 117.334741 
L 225.362299 115.046825 
L 225.974474 112.75891 
L 226.496985 110.470995 
L 226.936767 108.18308 
L 227.302339 105.895164 
L 227.603194 103.607249 
L 227.849189 101.319334 
L 228.049974 99.031419 
L 228.214497 96.743503 
L 228.350614 94.455588 
L 229.831204 94.455588 
L 229.831204 94.455588 
L 229.967321 96.743503 
L 230.131844 99.031419 
L 230.33263 101.319334 
L 230.578624 103.607249 
L 230.879479 105.895164 
L 231.245051 108.18308 
L 231.684833 110.470995 
L 232.207344 112.75891 
L 232.81952 115.046825 
L 233.526086 117.334741 
L 234.328929 119.622656 
L 235.226432 121.910571 
L 236.212813 124.198486 
L 237.277513 126.486402 
L 238.404734 128.774317 
L 239.573304 131.062232 
L 240.757039 133.350147 
L 241.925731 135.638063 
L 243.046851 137.925978 
L 244.08789 140.213893 
L 245.019121 142.501808 
L 245.816464 144.789724 
L 246.46402 147.077639 
L 246.955869 149.365554 
L 247.296801 151.653469 
L 247.501829 153.941385 
L 247.594495 156.2293 
L 247.604227 158.517215 
L 247.563133 160.80513 
L 247.502684 163.093045 
L 247.450778 165.380961 
L 247.429537 167.668876 
L 247.454077 169.956791 
L 247.532303 172.244706 
L 247.665597 174.532622 
L 247.850171 176.820537 
L 248.078733 179.108452 
L 248.342142 181.396367 
L 248.63075 183.684283 
L 248.935255 185.972198 
L 249.246991 188.260113 
L 249.557724 190.548028 
L 249.859153 192.835944 
L 250.142327 195.123859 
L 250.397254 197.411774 
L 250.61287 199.699689 
L 250.777477 201.987605 
L 250.879595 204.27552 
L 250.909091 206.563435 
L 250.858346 208.85135 
L 250.723216 211.139266 
L 250.503585 213.427181 
L 250.2034 215.715096 
L 249.830222 218.003011 
L 249.394417 220.290927 
L 248.908187 222.578842 
L 248.384659 224.866757 
L 247.837198 227.154672 
L 247.278983 229.442588 
L 246.722833 231.730503 
L 246.181102 234.018418 
L 245.665501 236.306333 
L 245.18666 238.594249 
L 244.75335 240.882164 
L 244.371414 243.170079 
L 244.04255 245.457994 
L 243.763212 247.74591 
L 243.52392 250.033825 
L 243.309256 252.32174 
L 243.098703 254.609655 
L 242.868351 256.897571 
L 242.593314 259.185486 
L 242.250541 261.473401 
L 241.821616 263.761316 
L 241.295107 266.049232 
L 240.668091 268.337147 
L 239.946609 270.625062 
L 239.145006 272.912977 
L 238.284262 275.200893 
L 237.38962 277.488808 
L 236.487879 279.776723 
L 235.604777 282.064638 
L 234.762786 284.352554 
L 233.979596 286.640469 
L 233.267367 288.928384 
L 232.632728 291.216299 
L 232.077366 293.504215 
L 231.599015 295.79213 
L 231.192591 298.080045 
L 230.851299 300.36796 
L 230.567552 302.655876 
L 230.333646 304.943791 
L 230.142179 307.231706 
L 229.986265 309.519621 
L 229.859613 311.807537 
L 229.756539 314.095452 
L 229.671975 316.383367 
L 229.601492 318.671282 
L 229.541344 320.959198 
z
" style="fill:#1f77b4;fill-opacity:0.3;"/>
   </g>
   <g id="PolyCollection_4">
    <path clip-path="url(#pe76c8fee5f)" d="M 317.787438 313.400142 
L 314.939835 313.400142 
L 314.711538 311.415477 
L 314.467704 309.430812 
L 314.211431 307.446147 
L 313.946285 305.461482 
L 313.676018 303.476817 
L 313.404219 301.492153 
L 313.133946 299.507488 
L 312.867362 297.522823 
L 312.605447 295.538158 
L 312.347799 293.553493 
L 312.092592 291.568828 
L 311.836682 289.584163 
L 311.575878 287.599498 
L 311.305355 285.614833 
L 311.020168 283.630168 
L 310.715818 281.645503 
L 310.388806 279.660838 
L 310.037116 277.676173 
L 309.66056 275.691508 
L 309.260945 273.706843 
L 308.842026 271.722178 
L 308.409237 269.737513 
L 307.969221 267.752848 
L 307.529179 265.768184 
L 307.096123 263.783519 
L 306.676093 261.798854 
L 306.273438 259.814189 
L 305.890242 257.829524 
L 305.526003 255.844859 
L 305.177591 253.860194 
L 304.839554 251.875529 
L 304.504741 249.890864 
L 304.16521 247.906199 
L 303.813326 245.921534 
L 303.442933 243.936869 
L 303.050461 241.952204 
L 302.635817 239.967539 
L 302.202952 237.982874 
L 301.759972 235.998209 
L 301.318785 234.013544 
L 300.894252 232.02888 
L 300.502936 230.044215 
L 300.161544 228.05955 
L 299.88525 226.074885 
L 299.686045 224.09022 
L 299.57134 222.105555 
L 299.542953 220.12089 
L 299.596617 218.136225 
L 299.722067 216.15156 
L 299.903697 214.166895 
L 300.121727 212.18223 
L 300.35374 210.197565 
L 300.576422 208.2129 
L 300.767333 206.228235 
L 300.906516 204.24357 
L 300.977787 202.258905 
L 300.969631 200.27424 
L 300.875621 198.289576 
L 300.694396 196.304911 
L 300.429247 194.320246 
L 300.08742 192.335581 
L 299.679251 190.350916 
L 299.217261 188.366251 
L 298.715309 186.381586 
L 298.187893 184.396921 
L 297.649628 182.412256 
L 297.114919 180.427591 
L 296.597784 178.442926 
L 296.111799 176.458261 
L 295.670087 174.473596 
L 295.285299 172.488931 
L 294.969543 170.504266 
L 294.734226 168.519601 
L 294.589804 166.534936 
L 294.545455 164.550272 
L 294.608694 162.565607 
L 294.784989 160.580942 
L 295.077402 158.596277 
L 295.486302 156.611612 
L 296.009188 154.626947 
L 296.640646 152.642282 
L 297.372444 150.657617 
L 298.193779 148.672952 
L 299.091649 146.688287 
L 300.051359 144.703622 
L 301.057096 142.718957 
L 302.092573 140.734292 
L 303.141682 138.749627 
L 304.189113 136.764962 
L 305.220903 134.780297 
L 306.224874 132.795632 
L 307.190928 130.810968 
L 308.111187 128.826303 
L 308.979976 126.841638 
L 309.793666 124.856973 
L 310.550407 122.872308 
L 311.249794 120.887643 
L 311.892504 118.902978 
L 312.479953 116.918313 
L 320.24732 116.918313 
L 320.24732 116.918313 
L 320.834769 118.902978 
L 321.477479 120.887643 
L 322.176866 122.872308 
L 322.933607 124.856973 
L 323.747297 126.841638 
L 324.616086 128.826303 
L 325.536345 130.810968 
L 326.502399 132.795632 
L 327.50637 134.780297 
L 328.53816 136.764962 
L 329.585591 138.749627 
L 330.6347 140.734292 
L 331.670177 142.718957 
L 332.675914 144.703622 
L 333.635623 146.688287 
L 334.533494 148.672952 
L 335.354828 150.657617 
L 336.086627 152.642282 
L 336.718085 154.626947 
L 337.240971 156.611612 
L 337.64987 158.596277 
L 337.942283 160.580942 
L 338.118579 162.565607 
L 338.181818 164.550272 
L 338.137468 166.534936 
L 337.993047 168.519601 
L 337.75773 170.504266 
L 337.441974 172.488931 
L 337.057186 174.473596 
L 336.615473 176.458261 
L 336.129489 178.442926 
L 335.612354 180.427591 
L 335.077644 182.412256 
L 334.53938 184.396921 
L 334.011963 186.381586 
L 333.510011 188.366251 
L 333.048021 190.350916 
L 332.639853 192.335581 
L 332.298026 194.320246 
L 332.032877 196.304911 
L 331.851651 198.289576 
L 331.757642 200.27424 
L 331.749486 202.258905 
L 331.820757 204.24357 
L 331.959939 206.228235 
L 332.150851 208.2129 
L 332.373533 210.197565 
L 332.605545 212.18223 
L 332.823576 214.166895 
L 333.005206 216.15156 
L 333.130655 218.136225 
L 333.184319 220.12089 
L 333.155933 222.105555 
L 333.041228 224.09022 
L 332.842023 226.074885 
L 332.565728 228.05955 
L 332.224337 230.044215 
L 331.83302 232.02888 
L 331.408488 234.013544 
L 330.9673 235.998209 
L 330.524321 237.982874 
L 330.091455 239.967539 
L 329.676812 241.952204 
L 329.284339 243.936869 
L 328.913947 245.921534 
L 328.562063 247.906199 
L 328.222532 249.890864 
L 327.887718 251.875529 
L 327.549681 253.860194 
L 327.201269 255.844859 
L 326.83703 257.829524 
L 326.453835 259.814189 
L 326.051179 261.798854 
L 325.63115 263.783519 
L 325.198094 265.768184 
L 324.758052 267.752848 
L 324.318036 269.737513 
L 323.885247 271.722178 
L 323.466328 273.706843 
L 323.066713 275.691508 
L 322.690157 277.676173 
L 322.338467 279.660838 
L 322.011455 281.645503 
L 321.707104 283.630168 
L 321.421917 285.614833 
L 321.151394 287.599498 
L 320.890591 289.584163 
L 320.63468 291.568828 
L 320.379474 293.553493 
L 320.121826 295.538158 
L 319.85991 297.522823 
L 319.593327 299.507488 
L 319.323054 301.492153 
L 319.051255 303.476817 
L 318.780987 305.461482 
L 318.515842 307.446147 
L 318.259569 309.430812 
L 318.015735 311.415477 
L 317.787438 313.400142 
z
" style="fill:#1f77b4;fill-opacity:0.3;"/>
   </g>
   <g id="PolyCollection_5">
    <path clip-path="url(#pe76c8fee5f)" d="M 425.317577 336.130919 
L 381.95515 336.130919 
L 381.818182 334.602754 
L 381.886196 333.074589 
L 382.148259 331.546424 
L 382.586706 330.018259 
L 383.178156 328.490094 
L 383.894827 326.961929 
L 384.706045 325.433764 
L 385.57985 323.905599 
L 386.484567 322.377434 
L 387.390267 320.849269 
L 388.27001 319.321104 
L 389.100813 317.792939 
L 389.864314 316.264775 
L 390.547108 314.73661 
L 391.140774 313.208445 
L 391.641632 311.68028 
L 392.050264 310.152115 
L 392.370873 308.62395 
L 392.610534 307.095785 
L 392.778392 305.56762 
L 392.884876 304.039455 
L 392.94096 302.51129 
L 392.957518 300.983125 
L 392.944794 299.45496 
L 392.912001 297.926795 
L 392.867048 296.39863 
L 392.816408 294.870465 
L 392.765091 293.342301 
L 392.716725 291.814136 
L 392.673709 290.285971 
L 392.637427 288.757806 
L 392.60849 287.229641 
L 392.586983 285.701476 
L 392.572698 284.173311 
L 392.565347 282.645146 
L 392.564712 281.116981 
L 392.570765 279.588816 
L 392.583713 278.060651 
L 392.604011 276.532486 
L 392.632312 275.004321 
L 392.669394 273.476156 
L 392.716057 271.947992 
L 392.773015 270.419827 
L 392.840785 268.891662 
L 392.919596 267.363497 
L 393.009318 265.835332 
L 393.109424 264.307167 
L 393.218984 262.779002 
L 393.336698 261.250837 
L 393.460953 259.722672 
L 393.589919 258.194507 
L 393.721655 256.666342 
L 393.854238 255.138177 
L 393.985888 253.610012 
L 394.115097 252.081847 
L 394.24074 250.553683 
L 394.362169 249.025518 
L 394.479273 247.497353 
L 394.592519 245.969188 
L 394.702945 244.441023 
L 394.812126 242.912858 
L 394.922095 241.384693 
L 395.035239 239.856528 
L 395.154169 238.328363 
L 395.281559 236.800198 
L 395.419989 235.272033 
L 395.571774 233.743868 
L 395.738812 232.215703 
L 395.922445 230.687538 
L 396.123353 229.159374 
L 396.341484 227.631209 
L 396.576023 226.103044 
L 396.825412 224.574879 
L 397.087405 223.046714 
L 397.359174 221.518549 
L 397.637439 219.990384 
L 397.918634 218.462219 
L 398.199082 216.934054 
L 398.475178 215.405889 
L 398.743562 213.877724 
L 399.00128 212.349559 
L 399.245916 210.821394 
L 399.475687 209.293229 
L 399.689503 207.765065 
L 399.886987 206.2369 
L 400.068452 204.708735 
L 400.234841 203.18057 
L 400.387635 201.652405 
L 400.528737 200.12424 
L 400.660337 198.596075 
L 400.784769 197.06791 
L 400.904374 195.539745 
L 401.021359 194.01158 
L 401.13769 192.483415 
L 401.254988 190.95525 
L 401.37447 189.427085 
L 401.496905 187.89892 
L 401.622602 186.370756 
L 401.75143 184.842591 
L 405.521297 184.842591 
L 405.521297 184.842591 
L 405.650125 186.370756 
L 405.775822 187.89892 
L 405.898257 189.427085 
L 406.017739 190.95525 
L 406.135038 192.483415 
L 406.251368 194.01158 
L 406.368353 195.539745 
L 406.487958 197.06791 
L 406.612391 198.596075 
L 406.74399 200.12424 
L 406.885092 201.652405 
L 407.037886 203.18057 
L 407.204275 204.708735 
L 407.38574 206.2369 
L 407.583224 207.765065 
L 407.797041 209.293229 
L 408.026811 210.821394 
L 408.271447 212.349559 
L 408.529166 213.877724 
L 408.797549 215.405889 
L 409.073645 216.934054 
L 409.354093 218.462219 
L 409.635288 219.990384 
L 409.913553 221.518549 
L 410.185322 223.046714 
L 410.447315 224.574879 
L 410.696704 226.103044 
L 410.931244 227.631209 
L 411.149374 229.159374 
L 411.350282 230.687538 
L 411.533915 232.215703 
L 411.700953 233.743868 
L 411.852739 235.272033 
L 411.991168 236.800198 
L 412.118559 238.328363 
L 412.237488 239.856528 
L 412.350633 241.384693 
L 412.460601 242.912858 
L 412.569782 244.441023 
L 412.680209 245.969188 
L 412.793455 247.497353 
L 412.910559 249.025518 
L 413.031987 250.553683 
L 413.15763 252.081847 
L 413.28684 253.610012 
L 413.41849 255.138177 
L 413.551072 256.666342 
L 413.682808 258.194507 
L 413.811774 259.722672 
L 413.936029 261.250837 
L 414.053743 262.779002 
L 414.163303 264.307167 
L 414.263409 265.835332 
L 414.353131 267.363497 
L 414.431942 268.891662 
L 414.499712 270.419827 
L 414.55667 271.947992 
L 414.603334 273.476156 
L 414.640415 275.004321 
L 414.668716 276.532486 
L 414.689014 278.060651 
L 414.701963 279.588816 
L 414.708015 281.116981 
L 414.707381 282.645146 
L 414.700029 284.173311 
L 414.685745 285.701476 
L 414.664237 287.229641 
L 414.6353 288.757806 
L 414.599019 290.285971 
L 414.556003 291.814136 
L 414.507636 293.342301 
L 414.456319 294.870465 
L 414.405679 296.39863 
L 414.360727 297.926795 
L 414.327933 299.45496 
L 414.31521 300.983125 
L 414.331768 302.51129 
L 414.387851 304.039455 
L 414.494335 305.56762 
L 414.662193 307.095785 
L 414.901854 308.62395 
L 415.222464 310.152115 
L 415.631096 311.68028 
L 416.131953 313.208445 
L 416.72562 314.73661 
L 417.408413 316.264775 
L 418.171914 317.792939 
L 419.002717 319.321104 
L 419.88246 320.849269 
L 420.78816 322.377434 
L 421.692877 323.905599 
L 422.566682 325.433764 
L 423.377901 326.961929 
L 424.094571 328.490094 
L 424.686021 330.018259 
L 425.124468 331.546424 
L 425.386531 333.074589 
L 425.454545 334.602754 
L 425.317577 336.130919 
z
" style="fill:#1f77b4;fill-opacity:0.3;"/>
   </g>
   <g id="PolyCollection_6">
    <path clip-path="url(#pe76c8fee5f)" d="M 511.139761 339.883641 
L 470.678421 339.883641 
L 470.001913 338.280205 
L 469.509256 336.676769 
L 469.206125 335.073333 
L 469.090909 333.469897 
L 469.154786 331.866461 
L 469.382229 330.263025 
L 469.751901 328.659589 
L 470.237879 327.056153 
L 470.811114 325.452717 
L 471.441022 323.849281 
L 472.097095 322.245845 
L 472.750421 320.642409 
L 473.375031 319.038973 
L 473.948972 317.435537 
L 474.455082 315.832101 
L 474.881423 314.228665 
L 475.221372 312.625229 
L 475.473412 311.021793 
L 475.640641 309.418357 
L 475.730072 307.814921 
L 475.75179 306.211485 
L 475.718022 304.608049 
L 475.642198 303.004613 
L 475.538058 301.401177 
L 475.418851 299.797741 
L 475.296674 298.194305 
L 475.181958 296.590869 
L 475.083137 294.987433 
L 475.006469 293.383997 
L 474.956029 291.780561 
L 474.933825 290.177126 
L 474.940029 288.57369 
L 474.973278 286.970254 
L 475.031018 285.366818 
L 475.109866 283.763382 
L 475.205951 282.159946 
L 475.315213 280.55651 
L 475.433659 278.953074 
L 475.557547 277.349638 
L 475.683519 275.746202 
L 475.808664 274.142766 
L 475.930546 272.53933 
L 476.047187 270.935894 
L 476.157035 269.332458 
L 476.258921 267.729022 
L 476.35202 266.125586 
L 476.435822 264.52215 
L 476.510123 262.918714 
L 476.575026 261.315278 
L 476.630964 259.711842 
L 476.678727 258.108406 
L 476.719495 256.50497 
L 476.75487 254.901534 
L 476.786893 253.298098 
L 476.818042 251.694662 
L 476.851217 250.091226 
L 476.889685 248.48779 
L 476.937012 246.884354 
L 476.996958 245.280918 
L 477.073347 243.677482 
L 477.169922 242.074046 
L 477.290183 240.47061 
L 477.437207 238.867174 
L 477.613489 237.263738 
L 477.820771 235.660302 
L 478.059912 234.056866 
L 478.330774 232.45343 
L 478.632159 230.849994 
L 478.961788 229.246558 
L 479.316338 227.643122 
L 479.691534 226.039686 
L 480.082298 224.43625 
L 480.482945 222.832814 
L 480.88743 221.229378 
L 481.289612 219.625942 
L 481.683548 218.022506 
L 482.06377 216.41907 
L 482.425558 214.815634 
L 482.765164 213.212198 
L 483.079993 211.608762 
L 483.36872 210.005326 
L 483.631328 208.40189 
L 483.869088 206.798454 
L 484.084448 205.195018 
L 484.280873 203.591582 
L 484.462618 201.988146 
L 484.63447 200.38471 
L 484.801456 198.781274 
L 484.968562 197.177838 
L 485.140446 195.574402 
L 485.321195 193.970966 
L 485.514116 192.36753 
L 485.721586 190.764094 
L 485.94496 189.160658 
L 486.184538 187.557222 
L 486.439601 185.953786 
L 486.70849 184.35035 
L 486.988742 182.746914 
L 487.277255 181.143478 
L 494.540927 181.143478 
L 494.540927 181.143478 
L 494.82944 182.746914 
L 495.109692 184.35035 
L 495.378581 185.953786 
L 495.633644 187.557222 
L 495.873222 189.160658 
L 496.096596 190.764094 
L 496.304066 192.36753 
L 496.496987 193.970966 
L 496.677736 195.574402 
L 496.84962 197.177838 
L 497.016725 198.781274 
L 497.183712 200.38471 
L 497.355564 201.988146 
L 497.537309 203.591582 
L 497.733734 205.195018 
L 497.949094 206.798454 
L 498.186854 208.40189 
L 498.449462 210.005326 
L 498.738188 211.608762 
L 499.053018 213.212198 
L 499.392624 214.815634 
L 499.754412 216.41907 
L 500.134634 218.022506 
L 500.52857 219.625942 
L 500.930752 221.229378 
L 501.335237 222.832814 
L 501.735884 224.43625 
L 502.126648 226.039686 
L 502.501844 227.643122 
L 502.856394 229.246558 
L 503.186023 230.849994 
L 503.487408 232.45343 
L 503.75827 234.056866 
L 503.997411 235.660302 
L 504.204693 237.263738 
L 504.380975 238.867174 
L 504.527999 240.47061 
L 504.648259 242.074046 
L 504.744835 243.677482 
L 504.821224 245.280918 
L 504.88117 246.884354 
L 504.928497 248.48779 
L 504.966965 250.091226 
L 505.00014 251.694662 
L 505.031289 253.298098 
L 505.063311 254.901534 
L 505.098687 256.50497 
L 505.139455 258.108406 
L 505.187218 259.711842 
L 505.243156 261.315278 
L 505.308059 262.918714 
L 505.38236 264.52215 
L 505.466162 266.125586 
L 505.559261 267.729022 
L 505.661147 269.332458 
L 505.770995 270.935894 
L 505.887636 272.53933 
L 506.009518 274.142766 
L 506.134663 275.746202 
L 506.260635 277.349638 
L 506.384523 278.953074 
L 506.502969 280.55651 
L 506.612231 282.159946 
L 506.708316 283.763382 
L 506.787164 285.366818 
L 506.844904 286.970254 
L 506.878152 288.57369 
L 506.884357 290.177126 
L 506.862153 291.780561 
L 506.811713 293.383997 
L 506.735045 294.987433 
L 506.636223 296.590869 
L 506.521508 298.194305 
L 506.399331 299.797741 
L 506.280124 301.401177 
L 506.175984 303.004613 
L 506.10016 304.608049 
L 506.066391 306.211485 
L 506.08811 307.814921 
L 506.177541 309.418357 
L 506.34477 311.021793 
L 506.59681 312.625229 
L 506.936759 314.228665 
L 507.363099 315.832101 
L 507.86921 317.435537 
L 508.443151 319.038973 
L 509.067761 320.642409 
L 509.721087 322.245845 
L 510.37716 323.849281 
L 511.007068 325.452717 
L 511.580303 327.056153 
L 512.066281 328.659589 
L 512.435953 330.263025 
L 512.663396 331.866461 
L 512.727273 333.469897 
L 512.612057 335.073333 
L 512.308926 336.676769 
L 511.816268 338.280205 
L 511.139761 339.883641 
z
" style="fill:#1f77b4;fill-opacity:0.3;"/>
   </g>
   <g id="PolyCollection_7">
    <path clip-path="url(#pe76c8fee5f)" d="M 599.938868 336.130919 
L 556.424768 336.130919 
L 556.363636 334.565389 
L 556.550266 332.999859 
L 556.970461 331.434329 
L 557.601098 329.8688 
L 558.411603 328.30327 
L 559.365859 326.73774 
L 560.424368 325.172211 
L 561.546504 323.606681 
L 562.692678 322.041151 
L 563.826255 320.475622 
L 564.915122 318.910092 
L 565.93281 317.344562 
L 566.859148 315.779033 
L 567.680457 314.213503 
L 568.389324 312.647973 
L 568.984037 311.082443 
L 569.467769 309.516914 
L 569.847599 307.951384 
L 570.133471 306.385854 
L 570.33717 304.820325 
L 570.471374 303.254795 
L 570.548833 301.689265 
L 570.581707 300.123736 
L 570.581071 298.558206 
L 570.556583 296.992676 
L 570.516307 295.427146 
L 570.466675 293.861617 
L 570.412553 292.296087 
L 570.357394 290.730557 
L 570.303447 289.165028 
L 570.252007 287.599498 
L 570.203663 286.033968 
L 570.158557 284.468439 
L 570.116601 282.902909 
L 570.077678 281.337379 
L 570.041788 279.771849 
L 570.009158 278.20632 
L 569.9803 276.64079 
L 569.956035 275.07526 
L 569.937468 273.509731 
L 569.925945 271.944201 
L 569.922975 270.378671 
L 569.930151 268.813142 
L 569.949052 267.247612 
L 569.981156 265.682082 
L 570.027748 264.116552 
L 570.089854 262.551023 
L 570.168178 260.985493 
L 570.263063 259.419963 
L 570.374465 257.854434 
L 570.501951 256.288904 
L 570.644712 254.723374 
L 570.801593 253.157845 
L 570.971133 251.592315 
L 571.151622 250.026785 
L 571.341158 248.461255 
L 571.537717 246.895726 
L 571.739218 245.330196 
L 571.943585 243.764666 
L 572.148809 242.199137 
L 572.353004 240.633607 
L 572.554449 239.068077 
L 572.751628 237.502548 
L 572.943264 235.937018 
L 573.128335 234.371488 
L 573.306095 232.805958 
L 573.476077 231.240429 
L 573.638096 229.674899 
L 573.792244 228.109369 
L 573.938867 226.54384 
L 574.07855 224.97831 
L 574.212078 223.41278 
L 574.3404 221.847251 
L 574.464573 220.281721 
L 574.585715 218.716191 
L 574.704941 217.150661 
L 574.823309 215.585132 
L 574.94176 214.019602 
L 575.061073 212.454072 
L 575.18183 210.888543 
L 575.304386 209.323013 
L 575.428864 207.757483 
L 575.555165 206.191954 
L 575.682981 204.626424 
L 575.811836 203.060894 
L 575.941126 201.495364 
L 576.070165 199.929835 
L 576.198237 198.364305 
L 576.324635 196.798775 
L 576.448704 195.233246 
L 576.569864 193.667716 
L 576.687627 192.102186 
L 576.801604 190.536657 
L 576.911499 188.971127 
L 577.017096 187.405597 
L 577.118242 185.840067 
L 577.214825 184.274538 
L 577.306762 182.709008 
L 577.393976 181.143478 
L 578.96966 181.143478 
L 578.96966 181.143478 
L 579.056875 182.709008 
L 579.148811 184.274538 
L 579.245395 185.840067 
L 579.34654 187.405597 
L 579.452137 188.971127 
L 579.562032 190.536657 
L 579.67601 192.102186 
L 579.793773 193.667716 
L 579.914932 195.233246 
L 580.039001 196.798775 
L 580.1654 198.364305 
L 580.293471 199.929835 
L 580.42251 201.495364 
L 580.5518 203.060894 
L 580.680655 204.626424 
L 580.808471 206.191954 
L 580.934772 207.757483 
L 581.059251 209.323013 
L 581.181806 210.888543 
L 581.302563 212.454072 
L 581.421877 214.019602 
L 581.540327 215.585132 
L 581.658695 217.150661 
L 581.777922 218.716191 
L 581.899064 220.281721 
L 582.023237 221.847251 
L 582.151558 223.41278 
L 582.285087 224.97831 
L 582.424769 226.54384 
L 582.571393 228.109369 
L 582.72554 229.674899 
L 582.88756 231.240429 
L 583.057542 232.805958 
L 583.235301 234.371488 
L 583.420372 235.937018 
L 583.612008 237.502548 
L 583.809188 239.068077 
L 584.010632 240.633607 
L 584.214827 242.199137 
L 584.420052 243.764666 
L 584.624418 245.330196 
L 584.825919 246.895726 
L 585.022478 248.461255 
L 585.212015 250.026785 
L 585.392503 251.592315 
L 585.562043 253.157845 
L 585.718924 254.723374 
L 585.861686 256.288904 
L 585.989172 257.854434 
L 586.100573 259.419963 
L 586.195458 260.985493 
L 586.273782 262.551023 
L 586.335889 264.116552 
L 586.382481 265.682082 
L 586.414584 267.247612 
L 586.433485 268.813142 
L 586.440661 270.378671 
L 586.437692 271.944201 
L 586.426168 273.509731 
L 586.407601 275.07526 
L 586.383336 276.64079 
L 586.354479 278.20632 
L 586.321848 279.771849 
L 586.285958 281.337379 
L 586.247035 282.902909 
L 586.20508 284.468439 
L 586.159973 286.033968 
L 586.11163 287.599498 
L 586.060189 289.165028 
L 586.006242 290.730557 
L 585.951083 292.296087 
L 585.896961 293.861617 
L 585.847329 295.427146 
L 585.807054 296.992676 
L 585.782565 298.558206 
L 585.781929 300.123736 
L 585.814803 301.689265 
L 585.892262 303.254795 
L 586.026466 304.820325 
L 586.230165 306.385854 
L 586.516038 307.951384 
L 586.895867 309.516914 
L 587.379599 311.082443 
L 587.974313 312.647973 
L 588.683179 314.213503 
L 589.504488 315.779033 
L 590.430826 317.344562 
L 591.448514 318.910092 
L 592.537381 320.475622 
L 593.670958 322.041151 
L 594.817132 323.606681 
L 595.939269 325.172211 
L 596.997778 326.73774 
L 597.952033 328.30327 
L 598.762538 329.8688 
L 599.393175 331.434329 
L 599.81337 332.999859 
L 600 334.565389 
L 599.938868 336.130919 
z
" style="fill:#1f77b4;fill-opacity:0.3;"/>
   </g>
   <g id="PolyCollection_8">
    <path clip-path="url(#pe76c8fee5f)" d="M 683.827615 343.636364 
L 647.081475 343.636364 
L 645.961362 341.995021 
L 645.03167 340.353679 
L 644.321821 338.712337 
L 643.852916 337.070995 
L 643.636364 335.429652 
L 643.67314 333.78831 
L 643.953739 332.146968 
L 644.458821 330.505625 
L 645.160505 328.864283 
L 646.024166 327.222941 
L 647.010608 325.581599 
L 648.078392 323.940256 
L 649.186161 322.298914 
L 650.294752 320.657572 
L 651.368991 319.01623 
L 652.379027 317.374887 
L 653.301195 315.733545 
L 654.118375 314.092203 
L 654.819896 312.45086 
L 655.401067 310.809518 
L 655.862406 309.168176 
L 656.208691 307.526834 
L 656.447918 305.885491 
L 656.590258 304.244149 
L 656.647088 302.602807 
L 656.630153 300.961464 
L 656.550881 299.320122 
L 656.419878 297.67878 
L 656.246607 296.037438 
L 656.039224 294.396095 
L 655.804573 292.754753 
L 655.548301 291.113411 
L 655.275061 289.472069 
L 654.988783 287.830726 
L 654.69297 286.189384 
L 654.390994 284.548042 
L 654.086353 282.906699 
L 653.782876 281.265357 
L 653.484846 279.624015 
L 653.197043 277.982673 
L 652.924681 276.34133 
L 652.673273 274.699988 
L 652.448414 273.058646 
L 652.255523 271.417304 
L 652.099554 269.775961 
L 651.984717 268.134619 
L 651.914238 266.493277 
L 651.890168 264.851934 
L 651.913279 263.210592 
L 651.983043 261.56925 
L 652.097702 259.927908 
L 652.254416 258.286565 
L 652.449482 256.645223 
L 652.678592 255.003881 
L 652.937117 253.362538 
L 653.220378 251.721196 
L 653.523894 250.079854 
L 653.843581 248.438512 
L 654.175886 246.797169 
L 654.517861 245.155827 
L 654.867166 243.514485 
L 655.222007 241.873143 
L 655.581042 240.2318 
L 655.943236 238.590458 
L 656.307718 236.949116 
L 656.673636 235.307773 
L 657.040027 233.666431 
L 657.405728 232.025089 
L 657.769315 230.383747 
L 658.129098 228.742404 
L 658.483146 227.101062 
L 658.82936 225.45972 
L 659.165566 223.818378 
L 659.489637 222.177035 
L 659.799609 220.535693 
L 660.093806 218.894351 
L 660.370944 217.253008 
L 660.63021 215.611666 
L 660.87132 213.970324 
L 661.094538 212.328982 
L 661.300663 210.687639 
L 661.490988 209.046297 
L 661.667228 207.404955 
L 661.831425 205.763613 
L 661.985839 204.12227 
L 662.132827 202.480928 
L 662.274725 200.839586 
L 662.413729 199.198243 
L 662.551791 197.556901 
L 662.690533 195.915559 
L 662.831181 194.274217 
L 662.974522 192.632874 
L 663.120889 190.991532 
L 663.270174 189.35019 
L 663.421856 187.708847 
L 663.57506 186.067505 
L 663.728624 184.426163 
L 663.881186 182.784821 
L 664.031264 181.143478 
L 666.877827 181.143478 
L 666.877827 181.143478 
L 667.027905 182.784821 
L 667.180466 184.426163 
L 667.334031 186.067505 
L 667.487235 187.708847 
L 667.638917 189.35019 
L 667.788202 190.991532 
L 667.934569 192.632874 
L 668.07791 194.274217 
L 668.218558 195.915559 
L 668.3573 197.556901 
L 668.495362 199.198243 
L 668.634366 200.839586 
L 668.776264 202.480928 
L 668.923252 204.12227 
L 669.077666 205.763613 
L 669.241863 207.404955 
L 669.418103 209.046297 
L 669.608428 210.687639 
L 669.814553 212.328982 
L 670.037771 213.970324 
L 670.278881 215.611666 
L 670.538147 217.253008 
L 670.815285 218.894351 
L 671.109482 220.535693 
L 671.419454 222.177035 
L 671.743525 223.818378 
L 672.079731 225.45972 
L 672.425945 227.101062 
L 672.779993 228.742404 
L 673.139776 230.383747 
L 673.503363 232.025089 
L 673.869064 233.666431 
L 674.235455 235.307773 
L 674.601373 236.949116 
L 674.965855 238.590458 
L 675.328049 240.2318 
L 675.687083 241.873143 
L 676.041925 243.514485 
L 676.39123 245.155827 
L 676.733205 246.797169 
L 677.06551 248.438512 
L 677.385197 250.079854 
L 677.688713 251.721196 
L 677.971974 253.362538 
L 678.230499 255.003881 
L 678.459609 256.645223 
L 678.654675 258.286565 
L 678.811389 259.927908 
L 678.926048 261.56925 
L 678.995812 263.210592 
L 679.018923 264.851934 
L 678.994853 266.493277 
L 678.924374 268.134619 
L 678.809537 269.775961 
L 678.653568 271.417304 
L 678.460676 273.058646 
L 678.235818 274.699988 
L 677.98441 276.34133 
L 677.712048 277.982673 
L 677.424245 279.624015 
L 677.126215 281.265357 
L 676.822738 282.906699 
L 676.518097 284.548042 
L 676.216121 286.189384 
L 675.920308 287.830726 
L 675.63403 289.472069 
L 675.36079 291.113411 
L 675.104518 292.754753 
L 674.869867 294.396095 
L 674.662484 296.037438 
L 674.489213 297.67878 
L 674.35821 299.320122 
L 674.278938 300.961464 
L 674.262003 302.602807 
L 674.318833 304.244149 
L 674.461173 305.885491 
L 674.700399 307.526834 
L 675.046685 309.168176 
L 675.508024 310.809518 
L 676.089195 312.45086 
L 676.790716 314.092203 
L 677.607896 315.733545 
L 678.530064 317.374887 
L 679.5401 319.01623 
L 680.614338 320.657572 
L 681.72293 322.298914 
L 682.830699 323.940256 
L 683.898483 325.581599 
L 684.884925 327.222941 
L 685.748586 328.864283 
L 686.450269 330.505625 
L 686.955352 332.146968 
L 687.235951 333.78831 
L 687.272727 335.429652 
L 687.056175 337.070995 
L 686.58727 338.712337 
L 685.877421 340.353679 
L 684.947728 341.995021 
L 683.827615 343.636364 
z
" style="fill:#1f77b4;fill-opacity:0.3;"/>
   </g>
   <g id="matplotlib.axis_1">
    <g id="xtick_1">
     <g id="line2d_1">
      <defs>
       <path d="M 0 0 
L 0 3.5 
" id="m301666caca" style="stroke:#000000;stroke-width:0.8;"/>
      </defs>
      <g>
       <use style="stroke:#000000;stroke-width:0.8;" x="54.545455" xlink:href="#m301666caca" y="360"/>
      </g>
     </g>
     <g id="text_1">
      <!-- [10, 5] -->
      <defs>
       <path d="M 8.59375 75.984375 
L 29.296875 75.984375 
L 29.296875 69 
L 17.578125 69 
L 17.578125 -6.203125 
L 29.296875 -6.203125 
L 29.296875 -13.1875 
L 8.59375 -13.1875 
z
" id="DejaVuSans-91"/>
       <path d="M 12.40625 8.296875 
L 28.515625 8.296875 
L 28.515625 63.921875 
L 10.984375 60.40625 
L 10.984375 69.390625 
L 28.421875 72.90625 
L 38.28125 72.90625 
L 38.28125 8.296875 
L 54.390625 8.296875 
L 54.390625 0 
L 12.40625 0 
z
" id="DejaVuSans-49"/>
       <path d="M 31.78125 66.40625 
Q 24.171875 66.40625 20.328125 58.90625 
Q 16.5 51.421875 16.5 36.375 
Q 16.5 21.390625 20.328125 13.890625 
Q 24.171875 6.390625 31.78125 6.390625 
Q 39.453125 6.390625 43.28125 13.890625 
Q 47.125 21.390625 47.125 36.375 
Q 47.125 51.421875 43.28125 58.90625 
Q 39.453125 66.40625 31.78125 66.40625 
z
M 31.78125 74.21875 
Q 44.046875 74.21875 50.515625 64.515625 
Q 56.984375 54.828125 56.984375 36.375 
Q 56.984375 17.96875 50.515625 8.265625 
Q 44.046875 -1.421875 31.78125 -1.421875 
Q 19.53125 -1.421875 13.0625 8.265625 
Q 6.59375 17.96875 6.59375 36.375 
Q 6.59375 54.828125 13.0625 64.515625 
Q 19.53125 74.21875 31.78125 74.21875 
z
" id="DejaVuSans-48"/>
       <path d="M 11.71875 12.40625 
L 22.015625 12.40625 
L 22.015625 4 
L 14.015625 -11.625 
L 7.71875 -11.625 
L 11.71875 4 
z
" id="DejaVuSans-44"/>
       <path id="DejaVuSans-32"/>
       <path d="M 10.796875 72.90625 
L 49.515625 72.90625 
L 49.515625 64.59375 
L 19.828125 64.59375 
L 19.828125 46.734375 
Q 21.96875 47.46875 24.109375 47.828125 
Q 26.265625 48.1875 28.421875 48.1875 
Q 40.625 48.1875 47.75 41.5 
Q 54.890625 34.8125 54.890625 23.390625 
Q 54.890625 11.625 47.5625 5.09375 
Q 40.234375 -1.421875 26.90625 -1.421875 
Q 22.3125 -1.421875 17.546875 -0.640625 
Q 12.796875 0.140625 7.71875 1.703125 
L 7.71875 11.625 
Q 12.109375 9.234375 16.796875 8.0625 
Q 21.484375 6.890625 26.703125 6.890625 
Q 35.15625 6.890625 40.078125 11.328125 
Q 45.015625 15.765625 45.015625 23.390625 
Q 45.015625 31 40.078125 35.4375 
Q 35.15625 39.890625 26.703125 39.890625 
Q 22.75 39.890625 18.8125 39.015625 
Q 14.890625 38.140625 10.796875 36.28125 
z
" id="DejaVuSans-53"/>
       <path d="M 30.421875 75.984375 
L 30.421875 -13.1875 
L 9.71875 -13.1875 
L 9.71875 -6.203125 
L 21.390625 -6.203125 
L 21.390625 69 
L 9.71875 69 
L 9.71875 75.984375 
z
" id="DejaVuSans-93"/>
      </defs>
      <g transform="translate(37.922017 374.598437)scale(0.1 -0.1)">
       <use xlink:href="#DejaVuSans-91"/>
       <use x="39.013672" xlink:href="#DejaVuSans-49"/>
       <use x="102.636719" xlink:href="#DejaVuSans-48"/>
       <use x="166.259766" xlink:href="#DejaVuSans-44"/>
       <use x="198.046875" xlink:href="#DejaVuSans-32"/>
       <use x="229.833984" xlink:href="#DejaVuSans-53"/>
       <use x="293.457031" xlink:href="#DejaVuSans-93"/>
      </g>
     </g>
    </g>
    <g id="xtick_2">
     <g id="line2d_2">
      <g>
       <use style="stroke:#000000;stroke-width:0.8;" x="141.818182" xlink:href="#m301666caca" y="360"/>
      </g>
     </g>
     <g id="text_2">
      <!-- [15, 5] -->
      <g transform="translate(125.194744 374.598437)scale(0.1 -0.1)">
       <use xlink:href="#DejaVuSans-91"/>
       <use x="39.013672" xlink:href="#DejaVuSans-49"/>
       <use x="102.636719" xlink:href="#DejaVuSans-53"/>
       <use x="166.259766" xlink:href="#DejaVuSans-44"/>
       <use x="198.046875" xlink:href="#DejaVuSans-32"/>
       <use x="229.833984" xlink:href="#DejaVuSans-53"/>
       <use x="293.457031" xlink:href="#DejaVuSans-93"/>
      </g>
     </g>
    </g>
    <g id="xtick_3">
     <g id="line2d_3">
      <g>
       <use style="stroke:#000000;stroke-width:0.8;" x="229.090909" xlink:href="#m301666caca" y="360"/>
      </g>
     </g>
     <g id="text_3">
      <!-- [20, 5] -->
      <defs>
       <path d="M 19.1875 8.296875 
L 53.609375 8.296875 
L 53.609375 0 
L 7.328125 0 
L 7.328125 8.296875 
Q 12.9375 14.109375 22.625 23.890625 
Q 32.328125 33.6875 34.8125 36.53125 
Q 39.546875 41.84375 41.421875 45.53125 
Q 43.3125 49.21875 43.3125 52.78125 
Q 43.3125 58.59375 39.234375 62.25 
Q 35.15625 65.921875 28.609375 65.921875 
Q 23.96875 65.921875 18.8125 64.3125 
Q 13.671875 62.703125 7.8125 59.421875 
L 7.8125 69.390625 
Q 13.765625 71.78125 18.9375 73 
Q 24.125 74.21875 28.421875 74.21875 
Q 39.75 74.21875 46.484375 68.546875 
Q 53.21875 62.890625 53.21875 53.421875 
Q 53.21875 48.921875 51.53125 44.890625 
Q 49.859375 40.875 45.40625 35.40625 
Q 44.1875 33.984375 37.640625 27.21875 
Q 31.109375 20.453125 19.1875 8.296875 
z
" id="DejaVuSans-50"/>
      </defs>
      <g transform="translate(212.467472 374.598437)scale(0.1 -0.1)">
       <use xlink:href="#DejaVuSans-91"/>
       <use x="39.013672" xlink:href="#DejaVuSans-50"/>
       <use x="102.636719" xlink:href="#DejaVuSans-48"/>
       <use x="166.259766" xlink:href="#DejaVuSans-44"/>
       <use x="198.046875" xlink:href="#DejaVuSans-32"/>
       <use x="229.833984" xlink:href="#DejaVuSans-53"/>
       <use x="293.457031" xlink:href="#DejaVuSans-93"/>
      </g>
     </g>
    </g>
    <g id="xtick_4">
     <g id="line2d_4">
      <g>
       <use style="stroke:#000000;stroke-width:0.8;" x="316.363636" xlink:href="#m301666caca" y="360"/>
      </g>
     </g>
     <g id="text_4">
      <!-- [20, 10] -->
      <g transform="translate(296.558949 374.598437)scale(0.1 -0.1)">
       <use xlink:href="#DejaVuSans-91"/>
       <use x="39.013672" xlink:href="#DejaVuSans-50"/>
       <use x="102.636719" xlink:href="#DejaVuSans-48"/>
       <use x="166.259766" xlink:href="#DejaVuSans-44"/>
       <use x="198.046875" xlink:href="#DejaVuSans-32"/>
       <use x="229.833984" xlink:href="#DejaVuSans-49"/>
       <use x="293.457031" xlink:href="#DejaVuSans-48"/>
       <use x="357.080078" xlink:href="#DejaVuSans-93"/>
      </g>
     </g>
    </g>
    <g id="xtick_5">
     <g id="line2d_5">
      <g>
       <use style="stroke:#000000;stroke-width:0.8;" x="403.636364" xlink:href="#m301666caca" y="360"/>
      </g>
     </g>
     <g id="text_5">
      <!-- [50, 10] -->
      <g transform="translate(383.831676 374.598437)scale(0.1 -0.1)">
       <use xlink:href="#DejaVuSans-91"/>
       <use x="39.013672" xlink:href="#DejaVuSans-53"/>
       <use x="102.636719" xlink:href="#DejaVuSans-48"/>
       <use x="166.259766" xlink:href="#DejaVuSans-44"/>
       <use x="198.046875" xlink:href="#DejaVuSans-32"/>
       <use x="229.833984" xlink:href="#DejaVuSans-49"/>
       <use x="293.457031" xlink:href="#DejaVuSans-48"/>
       <use x="357.080078" xlink:href="#DejaVuSans-93"/>
      </g>
     </g>
    </g>
    <g id="xtick_6">
     <g id="line2d_6">
      <g>
       <use style="stroke:#000000;stroke-width:0.8;" x="490.909091" xlink:href="#m301666caca" y="360"/>
      </g>
     </g>
     <g id="text_6">
      <!-- [50, 5] -->
      <g transform="translate(474.285653 374.598437)scale(0.1 -0.1)">
       <use xlink:href="#DejaVuSans-91"/>
       <use x="39.013672" xlink:href="#DejaVuSans-53"/>
       <use x="102.636719" xlink:href="#DejaVuSans-48"/>
       <use x="166.259766" xlink:href="#DejaVuSans-44"/>
       <use x="198.046875" xlink:href="#DejaVuSans-32"/>
       <use x="229.833984" xlink:href="#DejaVuSans-53"/>
       <use x="293.457031" xlink:href="#DejaVuSans-93"/>
      </g>
     </g>
    </g>
    <g id="xtick_7">
     <g id="line2d_7">
      <g>
       <use style="stroke:#000000;stroke-width:0.8;" x="578.181818" xlink:href="#m301666caca" y="360"/>
      </g>
     </g>
     <g id="text_7">
      <!-- [100, 20] -->
      <g transform="translate(555.195881 374.598437)scale(0.1 -0.1)">
       <use xlink:href="#DejaVuSans-91"/>
       <use x="39.013672" xlink:href="#DejaVuSans-49"/>
       <use x="102.636719" xlink:href="#DejaVuSans-48"/>
       <use x="166.259766" xlink:href="#DejaVuSans-48"/>
       <use x="229.882812" xlink:href="#DejaVuSans-44"/>
       <use x="261.669922" xlink:href="#DejaVuSans-32"/>
       <use x="293.457031" xlink:href="#DejaVuSans-50"/>
       <use x="357.080078" xlink:href="#DejaVuSans-48"/>
       <use x="420.703125" xlink:href="#DejaVuSans-93"/>
      </g>
     </g>
    </g>
    <g id="xtick_8">
     <g id="line2d_8">
      <g>
       <use style="stroke:#000000;stroke-width:0.8;" x="665.454545" xlink:href="#m301666caca" y="360"/>
      </g>
     </g>
     <g id="text_8">
      <!-- [100, 10] -->
      <g transform="translate(642.468608 374.598437)scale(0.1 -0.1)">
       <use xlink:href="#DejaVuSans-91"/>
       <use x="39.013672" xlink:href="#DejaVuSans-49"/>
       <use x="102.636719" xlink:href="#DejaVuSans-48"/>
       <use x="166.259766" xlink:href="#DejaVuSans-48"/>
       <use x="229.882812" xlink:href="#DejaVuSans-44"/>
       <use x="261.669922" xlink:href="#DejaVuSans-32"/>
       <use x="293.457031" xlink:href="#DejaVuSans-49"/>
       <use x="357.080078" xlink:href="#DejaVuSans-48"/>
       <use x="420.703125" xlink:href="#DejaVuSans-93"/>
      </g>
     </g>
    </g>
    <g id="text_9">
     <!-- [Features, Representation] -->
     <defs>
      <path d="M 9.8125 72.90625 
L 51.703125 72.90625 
L 51.703125 64.59375 
L 19.671875 64.59375 
L 19.671875 43.109375 
L 48.578125 43.109375 
L 48.578125 34.8125 
L 19.671875 34.8125 
L 19.671875 0 
L 9.8125 0 
z
" id="DejaVuSans-70"/>
      <path d="M 56.203125 29.59375 
L 56.203125 25.203125 
L 14.890625 25.203125 
Q 15.484375 15.921875 20.484375 11.0625 
Q 25.484375 6.203125 34.421875 6.203125 
Q 39.59375 6.203125 44.453125 7.46875 
Q 49.3125 8.734375 54.109375 11.28125 
L 54.109375 2.78125 
Q 49.265625 0.734375 44.1875 -0.34375 
Q 39.109375 -1.421875 33.890625 -1.421875 
Q 20.796875 -1.421875 13.15625 6.1875 
Q 5.515625 13.8125 5.515625 26.8125 
Q 5.515625 40.234375 12.765625 48.109375 
Q 20.015625 56 32.328125 56 
Q 43.359375 56 49.78125 48.890625 
Q 56.203125 41.796875 56.203125 29.59375 
z
M 47.21875 32.234375 
Q 47.125 39.59375 43.09375 43.984375 
Q 39.0625 48.390625 32.421875 48.390625 
Q 24.90625 48.390625 20.390625 44.140625 
Q 15.875 39.890625 15.1875 32.171875 
z
" id="DejaVuSans-101"/>
      <path d="M 34.28125 27.484375 
Q 23.390625 27.484375 19.1875 25 
Q 14.984375 22.515625 14.984375 16.5 
Q 14.984375 11.71875 18.140625 8.90625 
Q 21.296875 6.109375 26.703125 6.109375 
Q 34.1875 6.109375 38.703125 11.40625 
Q 43.21875 16.703125 43.21875 25.484375 
L 43.21875 27.484375 
z
M 52.203125 31.203125 
L 52.203125 0 
L 43.21875 0 
L 43.21875 8.296875 
Q 40.140625 3.328125 35.546875 0.953125 
Q 30.953125 -1.421875 24.3125 -1.421875 
Q 15.921875 -1.421875 10.953125 3.296875 
Q 6 8.015625 6 15.921875 
Q 6 25.140625 12.171875 29.828125 
Q 18.359375 34.515625 30.609375 34.515625 
L 43.21875 34.515625 
L 43.21875 35.40625 
Q 43.21875 41.609375 39.140625 45 
Q 35.0625 48.390625 27.6875 48.390625 
Q 23 48.390625 18.546875 47.265625 
Q 14.109375 46.140625 10.015625 43.890625 
L 10.015625 52.203125 
Q 14.9375 54.109375 19.578125 55.046875 
Q 24.21875 56 28.609375 56 
Q 40.484375 56 46.34375 49.84375 
Q 52.203125 43.703125 52.203125 31.203125 
z
" id="DejaVuSans-97"/>
      <path d="M 18.3125 70.21875 
L 18.3125 54.6875 
L 36.8125 54.6875 
L 36.8125 47.703125 
L 18.3125 47.703125 
L 18.3125 18.015625 
Q 18.3125 11.328125 20.140625 9.421875 
Q 21.96875 7.515625 27.59375 7.515625 
L 36.8125 7.515625 
L 36.8125 0 
L 27.59375 0 
Q 17.1875 0 13.234375 3.875 
Q 9.28125 7.765625 9.28125 18.015625 
L 9.28125 47.703125 
L 2.6875 47.703125 
L 2.6875 54.6875 
L 9.28125 54.6875 
L 9.28125 70.21875 
z
" id="DejaVuSans-116"/>
      <path d="M 8.5 21.578125 
L 8.5 54.6875 
L 17.484375 54.6875 
L 17.484375 21.921875 
Q 17.484375 14.15625 20.5 10.265625 
Q 23.53125 6.390625 29.59375 6.390625 
Q 36.859375 6.390625 41.078125 11.03125 
Q 45.3125 15.671875 45.3125 23.6875 
L 45.3125 54.6875 
L 54.296875 54.6875 
L 54.296875 0 
L 45.3125 0 
L 45.3125 8.40625 
Q 42.046875 3.421875 37.71875 1 
Q 33.40625 -1.421875 27.6875 -1.421875 
Q 18.265625 -1.421875 13.375 4.4375 
Q 8.5 10.296875 8.5 21.578125 
z
M 31.109375 56 
z
" id="DejaVuSans-117"/>
      <path d="M 41.109375 46.296875 
Q 39.59375 47.171875 37.8125 47.578125 
Q 36.03125 48 33.890625 48 
Q 26.265625 48 22.1875 43.046875 
Q 18.109375 38.09375 18.109375 28.8125 
L 18.109375 0 
L 9.078125 0 
L 9.078125 54.6875 
L 18.109375 54.6875 
L 18.109375 46.1875 
Q 20.953125 51.171875 25.484375 53.578125 
Q 30.03125 56 36.53125 56 
Q 37.453125 56 38.578125 55.875 
Q 39.703125 55.765625 41.0625 55.515625 
z
" id="DejaVuSans-114"/>
      <path d="M 44.28125 53.078125 
L 44.28125 44.578125 
Q 40.484375 46.53125 36.375 47.5 
Q 32.28125 48.484375 27.875 48.484375 
Q 21.1875 48.484375 17.84375 46.4375 
Q 14.5 44.390625 14.5 40.28125 
Q 14.5 37.15625 16.890625 35.375 
Q 19.28125 33.59375 26.515625 31.984375 
L 29.59375 31.296875 
Q 39.15625 29.25 43.1875 25.515625 
Q 47.21875 21.78125 47.21875 15.09375 
Q 47.21875 7.46875 41.1875 3.015625 
Q 35.15625 -1.421875 24.609375 -1.421875 
Q 20.21875 -1.421875 15.453125 -0.5625 
Q 10.6875 0.296875 5.421875 2 
L 5.421875 11.28125 
Q 10.40625 8.6875 15.234375 7.390625 
Q 20.0625 6.109375 24.8125 6.109375 
Q 31.15625 6.109375 34.5625 8.28125 
Q 37.984375 10.453125 37.984375 14.40625 
Q 37.984375 18.0625 35.515625 20.015625 
Q 33.0625 21.96875 24.703125 23.78125 
L 21.578125 24.515625 
Q 13.234375 26.265625 9.515625 29.90625 
Q 5.8125 33.546875 5.8125 39.890625 
Q 5.8125 47.609375 11.28125 51.796875 
Q 16.75 56 26.8125 56 
Q 31.78125 56 36.171875 55.265625 
Q 40.578125 54.546875 44.28125 53.078125 
z
" id="DejaVuSans-115"/>
      <path d="M 44.390625 34.1875 
Q 47.5625 33.109375 50.5625 29.59375 
Q 53.5625 26.078125 56.59375 19.921875 
L 66.609375 0 
L 56 0 
L 46.6875 18.703125 
Q 43.0625 26.03125 39.671875 28.421875 
Q 36.28125 30.8125 30.421875 30.8125 
L 19.671875 30.8125 
L 19.671875 0 
L 9.8125 0 
L 9.8125 72.90625 
L 32.078125 72.90625 
Q 44.578125 72.90625 50.734375 67.671875 
Q 56.890625 62.453125 56.890625 51.90625 
Q 56.890625 45.015625 53.6875 40.46875 
Q 50.484375 35.9375 44.390625 34.1875 
z
M 19.671875 64.796875 
L 19.671875 38.921875 
L 32.078125 38.921875 
Q 39.203125 38.921875 42.84375 42.21875 
Q 46.484375 45.515625 46.484375 51.90625 
Q 46.484375 58.296875 42.84375 61.546875 
Q 39.203125 64.796875 32.078125 64.796875 
z
" id="DejaVuSans-82"/>
      <path d="M 18.109375 8.203125 
L 18.109375 -20.796875 
L 9.078125 -20.796875 
L 9.078125 54.6875 
L 18.109375 54.6875 
L 18.109375 46.390625 
Q 20.953125 51.265625 25.265625 53.625 
Q 29.59375 56 35.59375 56 
Q 45.5625 56 51.78125 48.09375 
Q 58.015625 40.1875 58.015625 27.296875 
Q 58.015625 14.40625 51.78125 6.484375 
Q 45.5625 -1.421875 35.59375 -1.421875 
Q 29.59375 -1.421875 25.265625 0.953125 
Q 20.953125 3.328125 18.109375 8.203125 
z
M 48.6875 27.296875 
Q 48.6875 37.203125 44.609375 42.84375 
Q 40.53125 48.484375 33.40625 48.484375 
Q 26.265625 48.484375 22.1875 42.84375 
Q 18.109375 37.203125 18.109375 27.296875 
Q 18.109375 17.390625 22.1875 11.75 
Q 26.265625 6.109375 33.40625 6.109375 
Q 40.53125 6.109375 44.609375 11.75 
Q 48.6875 17.390625 48.6875 27.296875 
z
" id="DejaVuSans-112"/>
      <path d="M 54.890625 33.015625 
L 54.890625 0 
L 45.90625 0 
L 45.90625 32.71875 
Q 45.90625 40.484375 42.875 44.328125 
Q 39.84375 48.1875 33.796875 48.1875 
Q 26.515625 48.1875 22.3125 43.546875 
Q 18.109375 38.921875 18.109375 30.90625 
L 18.109375 0 
L 9.078125 0 
L 9.078125 54.6875 
L 18.109375 54.6875 
L 18.109375 46.1875 
Q 21.34375 51.125 25.703125 53.5625 
Q 30.078125 56 35.796875 56 
Q 45.21875 56 50.046875 50.171875 
Q 54.890625 44.34375 54.890625 33.015625 
z
" id="DejaVuSans-110"/>
      <path d="M 9.421875 54.6875 
L 18.40625 54.6875 
L 18.40625 0 
L 9.421875 0 
z
M 9.421875 75.984375 
L 18.40625 75.984375 
L 18.40625 64.59375 
L 9.421875 64.59375 
z
" id="DejaVuSans-105"/>
      <path d="M 30.609375 48.390625 
Q 23.390625 48.390625 19.1875 42.75 
Q 14.984375 37.109375 14.984375 27.296875 
Q 14.984375 17.484375 19.15625 11.84375 
Q 23.34375 6.203125 30.609375 6.203125 
Q 37.796875 6.203125 41.984375 11.859375 
Q 46.1875 17.53125 46.1875 27.296875 
Q 46.1875 37.015625 41.984375 42.703125 
Q 37.796875 48.390625 30.609375 48.390625 
z
M 30.609375 56 
Q 42.328125 56 49.015625 48.375 
Q 55.71875 40.765625 55.71875 27.296875 
Q 55.71875 13.875 49.015625 6.21875 
Q 42.328125 -1.421875 30.609375 -1.421875 
Q 18.84375 -1.421875 12.171875 6.21875 
Q 5.515625 13.875 5.515625 27.296875 
Q 5.515625 40.765625 12.171875 48.375 
Q 18.84375 56 30.609375 56 
z
" id="DejaVuSans-111"/>
     </defs>
     <g transform="translate(279.287812 389.79625)scale(0.12 -0.12)">
      <use xlink:href="#DejaVuSans-91"/>
      <use x="39.013672" xlink:href="#DejaVuSans-70"/>
      <use x="96.455078" xlink:href="#DejaVuSans-101"/>
      <use x="157.978516" xlink:href="#DejaVuSans-97"/>
      <use x="219.257812" xlink:href="#DejaVuSans-116"/>
      <use x="258.466797" xlink:href="#DejaVuSans-117"/>
      <use x="321.845703" xlink:href="#DejaVuSans-114"/>
      <use x="362.927734" xlink:href="#DejaVuSans-101"/>
      <use x="424.451172" xlink:href="#DejaVuSans-115"/>
      <use x="476.550781" xlink:href="#DejaVuSans-44"/>
      <use x="508.337891" xlink:href="#DejaVuSans-32"/>
      <use x="540.125" xlink:href="#DejaVuSans-82"/>
      <use x="609.544922" xlink:href="#DejaVuSans-101"/>
      <use x="671.068359" xlink:href="#DejaVuSans-112"/>
      <use x="734.544922" xlink:href="#DejaVuSans-114"/>
      <use x="775.626953" xlink:href="#DejaVuSans-101"/>
      <use x="837.150391" xlink:href="#DejaVuSans-115"/>
      <use x="889.25" xlink:href="#DejaVuSans-101"/>
      <use x="950.773438" xlink:href="#DejaVuSans-110"/>
      <use x="1014.152344" xlink:href="#DejaVuSans-116"/>
      <use x="1053.361328" xlink:href="#DejaVuSans-97"/>
      <use x="1114.640625" xlink:href="#DejaVuSans-116"/>
      <use x="1153.849609" xlink:href="#DejaVuSans-105"/>
      <use x="1181.632812" xlink:href="#DejaVuSans-111"/>
      <use x="1242.814453" xlink:href="#DejaVuSans-110"/>
      <use x="1306.193359" xlink:href="#DejaVuSans-93"/>
     </g>
    </g>
   </g>
   <g id="matplotlib.axis_2">
    <g id="ytick_1">
     <g id="line2d_9">
      <defs>
       <path d="M 0 0 
L -3.5 0 
" id="mccd8f0ad7c" style="stroke:#000000;stroke-width:0.8;"/>
      </defs>
      <g>
       <use style="stroke:#000000;stroke-width:0.8;" x="0" xlink:href="#mccd8f0ad7c" y="350.069602"/>
      </g>
     </g>
     <g id="text_10">
      <!-- 0.15 -->
      <defs>
       <path d="M 10.6875 12.40625 
L 21 12.40625 
L 21 0 
L 10.6875 0 
z
" id="DejaVuSans-46"/>
      </defs>
      <g transform="translate(-29.265625 353.868821)scale(0.1 -0.1)">
       <use xlink:href="#DejaVuSans-48"/>
       <use x="63.623047" xlink:href="#DejaVuSans-46"/>
       <use x="95.410156" xlink:href="#DejaVuSans-49"/>
       <use x="159.033203" xlink:href="#DejaVuSans-53"/>
      </g>
     </g>
    </g>
    <g id="ytick_2">
     <g id="line2d_10">
      <g>
       <use style="stroke:#000000;stroke-width:0.8;" x="0" xlink:href="#mccd8f0ad7c" y="296.780942"/>
      </g>
     </g>
     <g id="text_11">
      <!-- 0.20 -->
      <g transform="translate(-29.265625 300.580161)scale(0.1 -0.1)">
       <use xlink:href="#DejaVuSans-48"/>
       <use x="63.623047" xlink:href="#DejaVuSans-46"/>
       <use x="95.410156" xlink:href="#DejaVuSans-50"/>
       <use x="159.033203" xlink:href="#DejaVuSans-48"/>
      </g>
     </g>
    </g>
    <g id="ytick_3">
     <g id="line2d_11">
      <g>
       <use style="stroke:#000000;stroke-width:0.8;" x="0" xlink:href="#mccd8f0ad7c" y="243.492283"/>
      </g>
     </g>
     <g id="text_12">
      <!-- 0.25 -->
      <g transform="translate(-29.265625 247.291501)scale(0.1 -0.1)">
       <use xlink:href="#DejaVuSans-48"/>
       <use x="63.623047" xlink:href="#DejaVuSans-46"/>
       <use x="95.410156" xlink:href="#DejaVuSans-50"/>
       <use x="159.033203" xlink:href="#DejaVuSans-53"/>
      </g>
     </g>
    </g>
    <g id="ytick_4">
     <g id="line2d_12">
      <g>
       <use style="stroke:#000000;stroke-width:0.8;" x="0" xlink:href="#mccd8f0ad7c" y="190.203623"/>
      </g>
     </g>
     <g id="text_13">
      <!-- 0.30 -->
      <defs>
       <path d="M 40.578125 39.3125 
Q 47.65625 37.796875 51.625 33 
Q 55.609375 28.21875 55.609375 21.1875 
Q 55.609375 10.40625 48.1875 4.484375 
Q 40.765625 -1.421875 27.09375 -1.421875 
Q 22.515625 -1.421875 17.65625 -0.515625 
Q 12.796875 0.390625 7.625 2.203125 
L 7.625 11.71875 
Q 11.71875 9.328125 16.59375 8.109375 
Q 21.484375 6.890625 26.8125 6.890625 
Q 36.078125 6.890625 40.9375 10.546875 
Q 45.796875 14.203125 45.796875 21.1875 
Q 45.796875 27.640625 41.28125 31.265625 
Q 36.765625 34.90625 28.71875 34.90625 
L 20.21875 34.90625 
L 20.21875 43.015625 
L 29.109375 43.015625 
Q 36.375 43.015625 40.234375 45.921875 
Q 44.09375 48.828125 44.09375 54.296875 
Q 44.09375 59.90625 40.109375 62.90625 
Q 36.140625 65.921875 28.71875 65.921875 
Q 24.65625 65.921875 20.015625 65.03125 
Q 15.375 64.15625 9.8125 62.3125 
L 9.8125 71.09375 
Q 15.4375 72.65625 20.34375 73.4375 
Q 25.25 74.21875 29.59375 74.21875 
Q 40.828125 74.21875 47.359375 69.109375 
Q 53.90625 64.015625 53.90625 55.328125 
Q 53.90625 49.265625 50.4375 45.09375 
Q 46.96875 40.921875 40.578125 39.3125 
z
" id="DejaVuSans-51"/>
      </defs>
      <g transform="translate(-29.265625 194.002842)scale(0.1 -0.1)">
       <use xlink:href="#DejaVuSans-48"/>
       <use x="63.623047" xlink:href="#DejaVuSans-46"/>
       <use x="95.410156" xlink:href="#DejaVuSans-51"/>
       <use x="159.033203" xlink:href="#DejaVuSans-48"/>
      </g>
     </g>
    </g>
    <g id="ytick_5">
     <g id="line2d_13">
      <g>
       <use style="stroke:#000000;stroke-width:0.8;" x="0" xlink:href="#mccd8f0ad7c" y="136.914963"/>
      </g>
     </g>
     <g id="text_14">
      <!-- 0.35 -->
      <g transform="translate(-29.265625 140.714182)scale(0.1 -0.1)">
       <use xlink:href="#DejaVuSans-48"/>
       <use x="63.623047" xlink:href="#DejaVuSans-46"/>
       <use x="95.410156" xlink:href="#DejaVuSans-51"/>
       <use x="159.033203" xlink:href="#DejaVuSans-53"/>
      </g>
     </g>
    </g>
    <g id="ytick_6">
     <g id="line2d_14">
      <g>
       <use style="stroke:#000000;stroke-width:0.8;" x="0" xlink:href="#mccd8f0ad7c" y="83.626303"/>
      </g>
     </g>
     <g id="text_15">
      <!-- 0.40 -->
      <defs>
       <path d="M 37.796875 64.3125 
L 12.890625 25.390625 
L 37.796875 25.390625 
z
M 35.203125 72.90625 
L 47.609375 72.90625 
L 47.609375 25.390625 
L 58.015625 25.390625 
L 58.015625 17.1875 
L 47.609375 17.1875 
L 47.609375 0 
L 37.796875 0 
L 37.796875 17.1875 
L 4.890625 17.1875 
L 4.890625 26.703125 
z
" id="DejaVuSans-52"/>
      </defs>
      <g transform="translate(-29.265625 87.425522)scale(0.1 -0.1)">
       <use xlink:href="#DejaVuSans-48"/>
       <use x="63.623047" xlink:href="#DejaVuSans-46"/>
       <use x="95.410156" xlink:href="#DejaVuSans-52"/>
       <use x="159.033203" xlink:href="#DejaVuSans-48"/>
      </g>
     </g>
    </g>
    <g id="ytick_7">
     <g id="line2d_15">
      <g>
       <use style="stroke:#000000;stroke-width:0.8;" x="0" xlink:href="#mccd8f0ad7c" y="30.337643"/>
      </g>
     </g>
     <g id="text_16">
      <!-- 0.45 -->
      <g transform="translate(-29.265625 34.136862)scale(0.1 -0.1)">
       <use xlink:href="#DejaVuSans-48"/>
       <use x="63.623047" xlink:href="#DejaVuSans-46"/>
       <use x="95.410156" xlink:href="#DejaVuSans-52"/>
       <use x="159.033203" xlink:href="#DejaVuSans-53"/>
      </g>
     </g>
    </g>
    <g id="text_17">
     <!-- Accuracy (classes=4) -->
     <defs>
      <path d="M 34.1875 63.1875 
L 20.796875 26.90625 
L 47.609375 26.90625 
z
M 28.609375 72.90625 
L 39.796875 72.90625 
L 67.578125 0 
L 57.328125 0 
L 50.6875 18.703125 
L 17.828125 18.703125 
L 11.1875 0 
L 0.78125 0 
z
" id="DejaVuSans-65"/>
      <path d="M 48.78125 52.59375 
L 48.78125 44.1875 
Q 44.96875 46.296875 41.140625 47.34375 
Q 37.3125 48.390625 33.40625 48.390625 
Q 24.65625 48.390625 19.8125 42.84375 
Q 14.984375 37.3125 14.984375 27.296875 
Q 14.984375 17.28125 19.8125 11.734375 
Q 24.65625 6.203125 33.40625 6.203125 
Q 37.3125 6.203125 41.140625 7.25 
Q 44.96875 8.296875 48.78125 10.40625 
L 48.78125 2.09375 
Q 45.015625 0.34375 40.984375 -0.53125 
Q 36.96875 -1.421875 32.421875 -1.421875 
Q 20.0625 -1.421875 12.78125 6.34375 
Q 5.515625 14.109375 5.515625 27.296875 
Q 5.515625 40.671875 12.859375 48.328125 
Q 20.21875 56 33.015625 56 
Q 37.15625 56 41.109375 55.140625 
Q 45.0625 54.296875 48.78125 52.59375 
z
" id="DejaVuSans-99"/>
      <path d="M 32.171875 -5.078125 
Q 28.375 -14.84375 24.75 -17.8125 
Q 21.140625 -20.796875 15.09375 -20.796875 
L 7.90625 -20.796875 
L 7.90625 -13.28125 
L 13.1875 -13.28125 
Q 16.890625 -13.28125 18.9375 -11.515625 
Q 21 -9.765625 23.484375 -3.21875 
L 25.09375 0.875 
L 2.984375 54.6875 
L 12.5 54.6875 
L 29.59375 11.921875 
L 46.6875 54.6875 
L 56.203125 54.6875 
z
" id="DejaVuSans-121"/>
      <path d="M 31 75.875 
Q 24.46875 64.65625 21.28125 53.65625 
Q 18.109375 42.671875 18.109375 31.390625 
Q 18.109375 20.125 21.3125 9.0625 
Q 24.515625 -2 31 -13.1875 
L 23.1875 -13.1875 
Q 15.875 -1.703125 12.234375 9.375 
Q 8.59375 20.453125 8.59375 31.390625 
Q 8.59375 42.28125 12.203125 53.3125 
Q 15.828125 64.359375 23.1875 75.875 
z
" id="DejaVuSans-40"/>
      <path d="M 9.421875 75.984375 
L 18.40625 75.984375 
L 18.40625 0 
L 9.421875 0 
z
" id="DejaVuSans-108"/>
      <path d="M 10.59375 45.40625 
L 73.1875 45.40625 
L 73.1875 37.203125 
L 10.59375 37.203125 
z
M 10.59375 25.484375 
L 73.1875 25.484375 
L 73.1875 17.1875 
L 10.59375 17.1875 
z
" id="DejaVuSans-61"/>
      <path d="M 8.015625 75.875 
L 15.828125 75.875 
Q 23.140625 64.359375 26.78125 53.3125 
Q 30.421875 42.28125 30.421875 31.390625 
Q 30.421875 20.453125 26.78125 9.375 
Q 23.140625 -1.703125 15.828125 -13.1875 
L 8.015625 -13.1875 
Q 14.5 -2 17.703125 9.0625 
Q 20.90625 20.125 20.90625 31.390625 
Q 20.90625 42.671875 17.703125 53.65625 
Q 14.5 64.65625 8.015625 75.875 
z
" id="DejaVuSans-41"/>
     </defs>
     <g transform="translate(-35.76125 244.643438)rotate(-90)scale(0.12 -0.12)">
      <use xlink:href="#DejaVuSans-65"/>
      <use x="68.392578" xlink:href="#DejaVuSans-99"/>
      <use x="123.373047" xlink:href="#DejaVuSans-99"/>
      <use x="178.353516" xlink:href="#DejaVuSans-117"/>
      <use x="241.732422" xlink:href="#DejaVuSans-114"/>
      <use x="282.845703" xlink:href="#DejaVuSans-97"/>
      <use x="344.125" xlink:href="#DejaVuSans-99"/>
      <use x="399.105469" xlink:href="#DejaVuSans-121"/>
      <use x="458.285156" xlink:href="#DejaVuSans-32"/>
      <use x="490.072266" xlink:href="#DejaVuSans-40"/>
      <use x="529.085938" xlink:href="#DejaVuSans-99"/>
      <use x="584.066406" xlink:href="#DejaVuSans-108"/>
      <use x="611.849609" xlink:href="#DejaVuSans-97"/>
      <use x="673.128906" xlink:href="#DejaVuSans-115"/>
      <use x="725.228516" xlink:href="#DejaVuSans-115"/>
      <use x="777.328125" xlink:href="#DejaVuSans-101"/>
      <use x="838.851562" xlink:href="#DejaVuSans-115"/>
      <use x="890.951172" xlink:href="#DejaVuSans-61"/>
      <use x="974.740234" xlink:href="#DejaVuSans-52"/>
      <use x="1038.363281" xlink:href="#DejaVuSans-41"/>
     </g>
    </g>
   </g>
   <g id="LineCollection_1">
    <path clip-path="url(#pe76c8fee5f)" d="M 43.636364 142.812098 
L 65.454545 142.812098 
" style="fill:none;stroke:#1f77b4;stroke-width:1.5;"/>
    <path clip-path="url(#pe76c8fee5f)" d="M 130.909091 71.724812 
L 152.727273 71.724812 
" style="fill:none;stroke:#1f77b4;stroke-width:1.5;"/>
    <path clip-path="url(#pe76c8fee5f)" d="M 218.181818 94.455588 
L 240 94.455588 
" style="fill:none;stroke:#1f77b4;stroke-width:1.5;"/>
    <path clip-path="url(#pe76c8fee5f)" d="M 305.454545 116.918313 
L 327.272727 116.918313 
" style="fill:none;stroke:#1f77b4;stroke-width:1.5;"/>
    <path clip-path="url(#pe76c8fee5f)" d="M 392.727273 184.842591 
L 414.545455 184.842591 
" style="fill:none;stroke:#1f77b4;stroke-width:1.5;"/>
    <path clip-path="url(#pe76c8fee5f)" d="M 480 181.143478 
L 501.818182 181.143478 
" style="fill:none;stroke:#1f77b4;stroke-width:1.5;"/>
    <path clip-path="url(#pe76c8fee5f)" d="M 567.272727 181.143478 
L 589.090909 181.143478 
" style="fill:none;stroke:#1f77b4;stroke-width:1.5;"/>
    <path clip-path="url(#pe76c8fee5f)" d="M 654.545455 181.143478 
L 676.363636 181.143478 
" style="fill:none;stroke:#1f77b4;stroke-width:1.5;"/>
   </g>
   <g id="LineCollection_2">
    <path clip-path="url(#pe76c8fee5f)" d="M 43.636364 317.635358 
L 65.454545 317.635358 
" style="fill:none;stroke:#1f77b4;stroke-width:1.5;"/>
    <path clip-path="url(#pe76c8fee5f)" d="M 130.909091 317.528137 
L 152.727273 317.528137 
" style="fill:none;stroke:#1f77b4;stroke-width:1.5;"/>
    <path clip-path="url(#pe76c8fee5f)" d="M 218.181818 320.959198 
L 240 320.959198 
" style="fill:none;stroke:#1f77b4;stroke-width:1.5;"/>
    <path clip-path="url(#pe76c8fee5f)" d="M 305.454545 313.400142 
L 327.272727 313.400142 
" style="fill:none;stroke:#1f77b4;stroke-width:1.5;"/>
    <path clip-path="url(#pe76c8fee5f)" d="M 392.727273 336.130919 
L 414.545455 336.130919 
" style="fill:none;stroke:#1f77b4;stroke-width:1.5;"/>
    <path clip-path="url(#pe76c8fee5f)" d="M 480 339.883641 
L 501.818182 339.883641 
" style="fill:none;stroke:#1f77b4;stroke-width:1.5;"/>
    <path clip-path="url(#pe76c8fee5f)" d="M 567.272727 336.130919 
L 589.090909 336.130919 
" style="fill:none;stroke:#1f77b4;stroke-width:1.5;"/>
    <path clip-path="url(#pe76c8fee5f)" d="M 654.545455 343.636364 
L 676.363636 343.636364 
" style="fill:none;stroke:#1f77b4;stroke-width:1.5;"/>
   </g>
   <g id="LineCollection_3">
    <path clip-path="url(#pe76c8fee5f)" d="M 54.545455 317.635358 
L 54.545455 142.812098 
" style="fill:none;stroke:#1f77b4;stroke-width:1.5;"/>
    <path clip-path="url(#pe76c8fee5f)" d="M 141.818182 317.528137 
L 141.818182 71.724812 
" style="fill:none;stroke:#1f77b4;stroke-width:1.5;"/>
    <path clip-path="url(#pe76c8fee5f)" d="M 229.090909 320.959198 
L 229.090909 94.455588 
" style="fill:none;stroke:#1f77b4;stroke-width:1.5;"/>
    <path clip-path="url(#pe76c8fee5f)" d="M 316.363636 313.400142 
L 316.363636 116.918313 
" style="fill:none;stroke:#1f77b4;stroke-width:1.5;"/>
    <path clip-path="url(#pe76c8fee5f)" d="M 403.636364 336.130919 
L 403.636364 184.842591 
" style="fill:none;stroke:#1f77b4;stroke-width:1.5;"/>
    <path clip-path="url(#pe76c8fee5f)" d="M 490.909091 339.883641 
L 490.909091 181.143478 
" style="fill:none;stroke:#1f77b4;stroke-width:1.5;"/>
    <path clip-path="url(#pe76c8fee5f)" d="M 578.181818 336.130919 
L 578.181818 181.143478 
" style="fill:none;stroke:#1f77b4;stroke-width:1.5;"/>
    <path clip-path="url(#pe76c8fee5f)" d="M 665.454545 343.636364 
L 665.454545 181.143478 
" style="fill:none;stroke:#1f77b4;stroke-width:1.5;"/>
   </g>
   <g id="patch_3">
    <path d="M 0 360 
L 0 0 
" style="fill:none;stroke:#000000;stroke-linecap:square;stroke-linejoin:miter;stroke-width:0.8;"/>
   </g>
   <g id="patch_4">
    <path d="M 720 360 
L 720 0 
" style="fill:none;stroke:#000000;stroke-linecap:square;stroke-linejoin:miter;stroke-width:0.8;"/>
   </g>
   <g id="patch_5">
    <path d="M 0 360 
L 720 360 
" style="fill:none;stroke:#000000;stroke-linecap:square;stroke-linejoin:miter;stroke-width:0.8;"/>
   </g>
   <g id="patch_6">
    <path d="M 0 0 
L 720 0 
" style="fill:none;stroke:#000000;stroke-linecap:square;stroke-linejoin:miter;stroke-width:0.8;"/>
   </g>
   <g id="text_18">
    <!-- Accuracy for CoDACl and Baseline Methods vs [Features, Representation] -->
    <defs>
     <path d="M 37.109375 75.984375 
L 37.109375 68.5 
L 28.515625 68.5 
Q 23.6875 68.5 21.796875 66.546875 
Q 19.921875 64.59375 19.921875 59.515625 
L 19.921875 54.6875 
L 34.71875 54.6875 
L 34.71875 47.703125 
L 19.921875 47.703125 
L 19.921875 0 
L 10.890625 0 
L 10.890625 47.703125 
L 2.296875 47.703125 
L 2.296875 54.6875 
L 10.890625 54.6875 
L 10.890625 58.5 
Q 10.890625 67.625 15.140625 71.796875 
Q 19.390625 75.984375 28.609375 75.984375 
z
" id="DejaVuSans-102"/>
     <path d="M 64.40625 67.28125 
L 64.40625 56.890625 
Q 59.421875 61.53125 53.78125 63.8125 
Q 48.140625 66.109375 41.796875 66.109375 
Q 29.296875 66.109375 22.65625 58.46875 
Q 16.015625 50.828125 16.015625 36.375 
Q 16.015625 21.96875 22.65625 14.328125 
Q 29.296875 6.6875 41.796875 6.6875 
Q 48.140625 6.6875 53.78125 8.984375 
Q 59.421875 11.28125 64.40625 15.921875 
L 64.40625 5.609375 
Q 59.234375 2.09375 53.4375 0.328125 
Q 47.65625 -1.421875 41.21875 -1.421875 
Q 24.65625 -1.421875 15.125 8.703125 
Q 5.609375 18.84375 5.609375 36.375 
Q 5.609375 53.953125 15.125 64.078125 
Q 24.65625 74.21875 41.21875 74.21875 
Q 47.75 74.21875 53.53125 72.484375 
Q 59.328125 70.75 64.40625 67.28125 
z
" id="DejaVuSans-67"/>
     <path d="M 19.671875 64.796875 
L 19.671875 8.109375 
L 31.59375 8.109375 
Q 46.6875 8.109375 53.6875 14.9375 
Q 60.6875 21.78125 60.6875 36.53125 
Q 60.6875 51.171875 53.6875 57.984375 
Q 46.6875 64.796875 31.59375 64.796875 
z
M 9.8125 72.90625 
L 30.078125 72.90625 
Q 51.265625 72.90625 61.171875 64.09375 
Q 71.09375 55.28125 71.09375 36.53125 
Q 71.09375 17.671875 61.125 8.828125 
Q 51.171875 0 30.078125 0 
L 9.8125 0 
z
" id="DejaVuSans-68"/>
     <path d="M 45.40625 46.390625 
L 45.40625 75.984375 
L 54.390625 75.984375 
L 54.390625 0 
L 45.40625 0 
L 45.40625 8.203125 
Q 42.578125 3.328125 38.25 0.953125 
Q 33.9375 -1.421875 27.875 -1.421875 
Q 17.96875 -1.421875 11.734375 6.484375 
Q 5.515625 14.40625 5.515625 27.296875 
Q 5.515625 40.1875 11.734375 48.09375 
Q 17.96875 56 27.875 56 
Q 33.9375 56 38.25 53.625 
Q 42.578125 51.265625 45.40625 46.390625 
z
M 14.796875 27.296875 
Q 14.796875 17.390625 18.875 11.75 
Q 22.953125 6.109375 30.078125 6.109375 
Q 37.203125 6.109375 41.296875 11.75 
Q 45.40625 17.390625 45.40625 27.296875 
Q 45.40625 37.203125 41.296875 42.84375 
Q 37.203125 48.484375 30.078125 48.484375 
Q 22.953125 48.484375 18.875 42.84375 
Q 14.796875 37.203125 14.796875 27.296875 
z
" id="DejaVuSans-100"/>
     <path d="M 19.671875 34.8125 
L 19.671875 8.109375 
L 35.5 8.109375 
Q 43.453125 8.109375 47.28125 11.40625 
Q 51.125 14.703125 51.125 21.484375 
Q 51.125 28.328125 47.28125 31.5625 
Q 43.453125 34.8125 35.5 34.8125 
z
M 19.671875 64.796875 
L 19.671875 42.828125 
L 34.28125 42.828125 
Q 41.5 42.828125 45.03125 45.53125 
Q 48.578125 48.25 48.578125 53.8125 
Q 48.578125 59.328125 45.03125 62.0625 
Q 41.5 64.796875 34.28125 64.796875 
z
M 9.8125 72.90625 
L 35.015625 72.90625 
Q 46.296875 72.90625 52.390625 68.21875 
Q 58.5 63.53125 58.5 54.890625 
Q 58.5 48.1875 55.375 44.234375 
Q 52.25 40.28125 46.1875 39.3125 
Q 53.46875 37.75 57.5 32.78125 
Q 61.53125 27.828125 61.53125 20.40625 
Q 61.53125 10.640625 54.890625 5.3125 
Q 48.25 0 35.984375 0 
L 9.8125 0 
z
" id="DejaVuSans-66"/>
     <path d="M 9.8125 72.90625 
L 24.515625 72.90625 
L 43.109375 23.296875 
L 61.8125 72.90625 
L 76.515625 72.90625 
L 76.515625 0 
L 66.890625 0 
L 66.890625 64.015625 
L 48.09375 14.015625 
L 38.1875 14.015625 
L 19.390625 64.015625 
L 19.390625 0 
L 9.8125 0 
z
" id="DejaVuSans-77"/>
     <path d="M 54.890625 33.015625 
L 54.890625 0 
L 45.90625 0 
L 45.90625 32.71875 
Q 45.90625 40.484375 42.875 44.328125 
Q 39.84375 48.1875 33.796875 48.1875 
Q 26.515625 48.1875 22.3125 43.546875 
Q 18.109375 38.921875 18.109375 30.90625 
L 18.109375 0 
L 9.078125 0 
L 9.078125 75.984375 
L 18.109375 75.984375 
L 18.109375 46.1875 
Q 21.34375 51.125 25.703125 53.5625 
Q 30.078125 56 35.796875 56 
Q 45.21875 56 50.046875 50.171875 
Q 54.890625 44.34375 54.890625 33.015625 
z
" id="DejaVuSans-104"/>
     <path d="M 2.984375 54.6875 
L 12.5 54.6875 
L 29.59375 8.796875 
L 46.6875 54.6875 
L 56.203125 54.6875 
L 35.6875 0 
L 23.484375 0 
z
" id="DejaVuSans-118"/>
    </defs>
    <g transform="translate(138.718125 -6)scale(0.12 -0.12)">
     <use xlink:href="#DejaVuSans-65"/>
     <use x="68.392578" xlink:href="#DejaVuSans-99"/>
     <use x="123.373047" xlink:href="#DejaVuSans-99"/>
     <use x="178.353516" xlink:href="#DejaVuSans-117"/>
     <use x="241.732422" xlink:href="#DejaVuSans-114"/>
     <use x="282.845703" xlink:href="#DejaVuSans-97"/>
     <use x="344.125" xlink:href="#DejaVuSans-99"/>
     <use x="399.105469" xlink:href="#DejaVuSans-121"/>
     <use x="458.285156" xlink:href="#DejaVuSans-32"/>
     <use x="490.072266" xlink:href="#DejaVuSans-102"/>
     <use x="525.277344" xlink:href="#DejaVuSans-111"/>
     <use x="586.458984" xlink:href="#DejaVuSans-114"/>
     <use x="627.572266" xlink:href="#DejaVuSans-32"/>
     <use x="659.359375" xlink:href="#DejaVuSans-67"/>
     <use x="729.183594" xlink:href="#DejaVuSans-111"/>
     <use x="790.365234" xlink:href="#DejaVuSans-68"/>
     <use x="867.351562" xlink:href="#DejaVuSans-65"/>
     <use x="935.744141" xlink:href="#DejaVuSans-67"/>
     <use x="1005.568359" xlink:href="#DejaVuSans-108"/>
     <use x="1033.351562" xlink:href="#DejaVuSans-32"/>
     <use x="1065.138672" xlink:href="#DejaVuSans-97"/>
     <use x="1126.417969" xlink:href="#DejaVuSans-110"/>
     <use x="1189.796875" xlink:href="#DejaVuSans-100"/>
     <use x="1253.273438" xlink:href="#DejaVuSans-32"/>
     <use x="1285.060547" xlink:href="#DejaVuSans-66"/>
     <use x="1353.664062" xlink:href="#DejaVuSans-97"/>
     <use x="1414.943359" xlink:href="#DejaVuSans-115"/>
     <use x="1467.042969" xlink:href="#DejaVuSans-101"/>
     <use x="1528.566406" xlink:href="#DejaVuSans-108"/>
     <use x="1556.349609" xlink:href="#DejaVuSans-105"/>
     <use x="1584.132812" xlink:href="#DejaVuSans-110"/>
     <use x="1647.511719" xlink:href="#DejaVuSans-101"/>
     <use x="1709.035156" xlink:href="#DejaVuSans-32"/>
     <use x="1740.822266" xlink:href="#DejaVuSans-77"/>
     <use x="1827.101562" xlink:href="#DejaVuSans-101"/>
     <use x="1888.625" xlink:href="#DejaVuSans-116"/>
     <use x="1927.833984" xlink:href="#DejaVuSans-104"/>
     <use x="1991.212891" xlink:href="#DejaVuSans-111"/>
     <use x="2052.394531" xlink:href="#DejaVuSans-100"/>
     <use x="2115.871094" xlink:href="#DejaVuSans-115"/>
     <use x="2167.970703" xlink:href="#DejaVuSans-32"/>
     <use x="2199.757812" xlink:href="#DejaVuSans-118"/>
     <use x="2258.9375" xlink:href="#DejaVuSans-115"/>
     <use x="2311.037109" xlink:href="#DejaVuSans-32"/>
     <use x="2342.824219" xlink:href="#DejaVuSans-91"/>
     <use x="2381.837891" xlink:href="#DejaVuSans-70"/>
     <use x="2439.279297" xlink:href="#DejaVuSans-101"/>
     <use x="2500.802734" xlink:href="#DejaVuSans-97"/>
     <use x="2562.082031" xlink:href="#DejaVuSans-116"/>
     <use x="2601.291016" xlink:href="#DejaVuSans-117"/>
     <use x="2664.669922" xlink:href="#DejaVuSans-114"/>
     <use x="2705.751953" xlink:href="#DejaVuSans-101"/>
     <use x="2767.275391" xlink:href="#DejaVuSans-115"/>
     <use x="2819.375" xlink:href="#DejaVuSans-44"/>
     <use x="2851.162109" xlink:href="#DejaVuSans-32"/>
     <use x="2882.949219" xlink:href="#DejaVuSans-82"/>
     <use x="2952.369141" xlink:href="#DejaVuSans-101"/>
     <use x="3013.892578" xlink:href="#DejaVuSans-112"/>
     <use x="3077.369141" xlink:href="#DejaVuSans-114"/>
     <use x="3118.451172" xlink:href="#DejaVuSans-101"/>
     <use x="3179.974609" xlink:href="#DejaVuSans-115"/>
     <use x="3232.074219" xlink:href="#DejaVuSans-101"/>
     <use x="3293.597656" xlink:href="#DejaVuSans-110"/>
     <use x="3356.976562" xlink:href="#DejaVuSans-116"/>
     <use x="3396.185547" xlink:href="#DejaVuSans-97"/>
     <use x="3457.464844" xlink:href="#DejaVuSans-116"/>
     <use x="3496.673828" xlink:href="#DejaVuSans-105"/>
     <use x="3524.457031" xlink:href="#DejaVuSans-111"/>
     <use x="3585.638672" xlink:href="#DejaVuSans-110"/>
     <use x="3649.017578" xlink:href="#DejaVuSans-93"/>
    </g>
   </g>
   <g id="legend_1">
    <g id="patch_7">
     <path d="M 7 66.7125 
L 201.592188 66.7125 
Q 203.592188 66.7125 203.592188 64.7125 
L 203.592188 7 
Q 203.592188 5 201.592188 5 
L 7 5 
Q 5 5 5 7 
L 5 64.7125 
Q 5 66.7125 7 66.7125 
z
" style="fill:#ffffff;opacity:0.8;stroke:#cccccc;stroke-linejoin:miter;"/>
    </g>
    <g id="PathCollection_5">
     <g>
      <use style="fill:#ff0000;stroke:#ff0000;" x="19" xlink:href="#m3acb8b3f62" y="13.973437"/>
     </g>
    </g>
    <g id="text_19">
     <!-- CoDA-PCA + Logistic Regression -->
     <defs>
      <path d="M 4.890625 31.390625 
L 31.203125 31.390625 
L 31.203125 23.390625 
L 4.890625 23.390625 
z
" id="DejaVuSans-45"/>
      <path d="M 19.671875 64.796875 
L 19.671875 37.40625 
L 32.078125 37.40625 
Q 38.96875 37.40625 42.71875 40.96875 
Q 46.484375 44.53125 46.484375 51.125 
Q 46.484375 57.671875 42.71875 61.234375 
Q 38.96875 64.796875 32.078125 64.796875 
z
M 9.8125 72.90625 
L 32.078125 72.90625 
Q 44.34375 72.90625 50.609375 67.359375 
Q 56.890625 61.8125 56.890625 51.125 
Q 56.890625 40.328125 50.609375 34.8125 
Q 44.34375 29.296875 32.078125 29.296875 
L 19.671875 29.296875 
L 19.671875 0 
L 9.8125 0 
z
" id="DejaVuSans-80"/>
      <path d="M 46 62.703125 
L 46 35.5 
L 73.1875 35.5 
L 73.1875 27.203125 
L 46 27.203125 
L 46 0 
L 37.796875 0 
L 37.796875 27.203125 
L 10.59375 27.203125 
L 10.59375 35.5 
L 37.796875 35.5 
L 37.796875 62.703125 
z
" id="DejaVuSans-43"/>
      <path d="M 9.8125 72.90625 
L 19.671875 72.90625 
L 19.671875 8.296875 
L 55.171875 8.296875 
L 55.171875 0 
L 9.8125 0 
z
" id="DejaVuSans-76"/>
      <path d="M 45.40625 27.984375 
Q 45.40625 37.75 41.375 43.109375 
Q 37.359375 48.484375 30.078125 48.484375 
Q 22.859375 48.484375 18.828125 43.109375 
Q 14.796875 37.75 14.796875 27.984375 
Q 14.796875 18.265625 18.828125 12.890625 
Q 22.859375 7.515625 30.078125 7.515625 
Q 37.359375 7.515625 41.375 12.890625 
Q 45.40625 18.265625 45.40625 27.984375 
z
M 54.390625 6.78125 
Q 54.390625 -7.171875 48.1875 -13.984375 
Q 42 -20.796875 29.203125 -20.796875 
Q 24.46875 -20.796875 20.265625 -20.09375 
Q 16.0625 -19.390625 12.109375 -17.921875 
L 12.109375 -9.1875 
Q 16.0625 -11.328125 19.921875 -12.34375 
Q 23.78125 -13.375 27.78125 -13.375 
Q 36.625 -13.375 41.015625 -8.765625 
Q 45.40625 -4.15625 45.40625 5.171875 
L 45.40625 9.625 
Q 42.625 4.78125 38.28125 2.390625 
Q 33.9375 0 27.875 0 
Q 17.828125 0 11.671875 7.65625 
Q 5.515625 15.328125 5.515625 27.984375 
Q 5.515625 40.671875 11.671875 48.328125 
Q 17.828125 56 27.875 56 
Q 33.9375 56 38.28125 53.609375 
Q 42.625 51.21875 45.40625 46.390625 
L 45.40625 54.6875 
L 54.390625 54.6875 
z
" id="DejaVuSans-103"/>
     </defs>
     <g transform="translate(37 16.598437)scale(0.1 -0.1)">
      <use xlink:href="#DejaVuSans-67"/>
      <use x="69.824219" xlink:href="#DejaVuSans-111"/>
      <use x="131.005859" xlink:href="#DejaVuSans-68"/>
      <use x="207.992188" xlink:href="#DejaVuSans-65"/>
      <use x="276.369141" xlink:href="#DejaVuSans-45"/>
      <use x="312.453125" xlink:href="#DejaVuSans-80"/>
      <use x="372.755859" xlink:href="#DejaVuSans-67"/>
      <use x="442.580078" xlink:href="#DejaVuSans-65"/>
      <use x="510.988281" xlink:href="#DejaVuSans-32"/>
      <use x="542.775391" xlink:href="#DejaVuSans-43"/>
      <use x="626.564453" xlink:href="#DejaVuSans-32"/>
      <use x="658.351562" xlink:href="#DejaVuSans-76"/>
      <use x="714.048828" xlink:href="#DejaVuSans-111"/>
      <use x="775.230469" xlink:href="#DejaVuSans-103"/>
      <use x="838.707031" xlink:href="#DejaVuSans-105"/>
      <use x="866.490234" xlink:href="#DejaVuSans-115"/>
      <use x="918.589844" xlink:href="#DejaVuSans-116"/>
      <use x="957.798828" xlink:href="#DejaVuSans-105"/>
      <use x="985.582031" xlink:href="#DejaVuSans-99"/>
      <use x="1040.5625" xlink:href="#DejaVuSans-32"/>
      <use x="1072.349609" xlink:href="#DejaVuSans-82"/>
      <use x="1141.769531" xlink:href="#DejaVuSans-101"/>
      <use x="1203.292969" xlink:href="#DejaVuSans-103"/>
      <use x="1266.769531" xlink:href="#DejaVuSans-114"/>
      <use x="1307.851562" xlink:href="#DejaVuSans-101"/>
      <use x="1369.375" xlink:href="#DejaVuSans-115"/>
      <use x="1421.474609" xlink:href="#DejaVuSans-115"/>
      <use x="1473.574219" xlink:href="#DejaVuSans-105"/>
      <use x="1501.357422" xlink:href="#DejaVuSans-111"/>
      <use x="1562.539062" xlink:href="#DejaVuSans-110"/>
     </g>
    </g>
    <g id="PathCollection_6">
     <g>
      <use style="fill:#0000ff;stroke:#0000ff;" x="19" xlink:href="#meac001278c" y="28.651563"/>
     </g>
    </g>
    <g id="text_20">
     <!-- CLR-PCA + Logistic Regression -->
     <g transform="translate(37 31.276563)scale(0.1 -0.1)">
      <use xlink:href="#DejaVuSans-67"/>
      <use x="69.824219" xlink:href="#DejaVuSans-76"/>
      <use x="125.537109" xlink:href="#DejaVuSans-82"/>
      <use x="194.957031" xlink:href="#DejaVuSans-45"/>
      <use x="231.041016" xlink:href="#DejaVuSans-80"/>
      <use x="291.34375" xlink:href="#DejaVuSans-67"/>
      <use x="361.167969" xlink:href="#DejaVuSans-65"/>
      <use x="429.576172" xlink:href="#DejaVuSans-32"/>
      <use x="461.363281" xlink:href="#DejaVuSans-43"/>
      <use x="545.152344" xlink:href="#DejaVuSans-32"/>
      <use x="576.939453" xlink:href="#DejaVuSans-76"/>
      <use x="632.636719" xlink:href="#DejaVuSans-111"/>
      <use x="693.818359" xlink:href="#DejaVuSans-103"/>
      <use x="757.294922" xlink:href="#DejaVuSans-105"/>
      <use x="785.078125" xlink:href="#DejaVuSans-115"/>
      <use x="837.177734" xlink:href="#DejaVuSans-116"/>
      <use x="876.386719" xlink:href="#DejaVuSans-105"/>
      <use x="904.169922" xlink:href="#DejaVuSans-99"/>
      <use x="959.150391" xlink:href="#DejaVuSans-32"/>
      <use x="990.9375" xlink:href="#DejaVuSans-82"/>
      <use x="1060.357422" xlink:href="#DejaVuSans-101"/>
      <use x="1121.880859" xlink:href="#DejaVuSans-103"/>
      <use x="1185.357422" xlink:href="#DejaVuSans-114"/>
      <use x="1226.439453" xlink:href="#DejaVuSans-101"/>
      <use x="1287.962891" xlink:href="#DejaVuSans-115"/>
      <use x="1340.0625" xlink:href="#DejaVuSans-115"/>
      <use x="1392.162109" xlink:href="#DejaVuSans-105"/>
      <use x="1419.945312" xlink:href="#DejaVuSans-111"/>
      <use x="1481.126953" xlink:href="#DejaVuSans-110"/>
     </g>
    </g>
    <g id="PathCollection_7">
     <g>
      <use style="fill:#008000;stroke:#008000;" x="19" xlink:href="#m9e4b447504" y="43.329687"/>
     </g>
    </g>
    <g id="text_21">
     <!-- PCA + Logistic Regression -->
     <g transform="translate(37 45.954687)scale(0.1 -0.1)">
      <use xlink:href="#DejaVuSans-80"/>
      <use x="60.302734" xlink:href="#DejaVuSans-67"/>
      <use x="130.126953" xlink:href="#DejaVuSans-65"/>
      <use x="198.535156" xlink:href="#DejaVuSans-32"/>
      <use x="230.322266" xlink:href="#DejaVuSans-43"/>
      <use x="314.111328" xlink:href="#DejaVuSans-32"/>
      <use x="345.898438" xlink:href="#DejaVuSans-76"/>
      <use x="401.595703" xlink:href="#DejaVuSans-111"/>
      <use x="462.777344" xlink:href="#DejaVuSans-103"/>
      <use x="526.253906" xlink:href="#DejaVuSans-105"/>
      <use x="554.037109" xlink:href="#DejaVuSans-115"/>
      <use x="606.136719" xlink:href="#DejaVuSans-116"/>
      <use x="645.345703" xlink:href="#DejaVuSans-105"/>
      <use x="673.128906" xlink:href="#DejaVuSans-99"/>
      <use x="728.109375" xlink:href="#DejaVuSans-32"/>
      <use x="759.896484" xlink:href="#DejaVuSans-82"/>
      <use x="829.316406" xlink:href="#DejaVuSans-101"/>
      <use x="890.839844" xlink:href="#DejaVuSans-103"/>
      <use x="954.316406" xlink:href="#DejaVuSans-114"/>
      <use x="995.398438" xlink:href="#DejaVuSans-101"/>
      <use x="1056.921875" xlink:href="#DejaVuSans-115"/>
      <use x="1109.021484" xlink:href="#DejaVuSans-115"/>
      <use x="1161.121094" xlink:href="#DejaVuSans-105"/>
      <use x="1188.904297" xlink:href="#DejaVuSans-111"/>
      <use x="1250.085938" xlink:href="#DejaVuSans-110"/>
     </g>
    </g>
    <g id="PathCollection_8">
     <g>
      <use style="fill:#ffff00;stroke:#ffff00;" x="19" xlink:href="#m5c477b71cc" y="58.007812"/>
     </g>
    </g>
    <g id="text_22">
     <!-- Logistic Regression -->
     <g transform="translate(37 60.632812)scale(0.1 -0.1)">
      <use xlink:href="#DejaVuSans-76"/>
      <use x="55.697266" xlink:href="#DejaVuSans-111"/>
      <use x="116.878906" xlink:href="#DejaVuSans-103"/>
      <use x="180.355469" xlink:href="#DejaVuSans-105"/>
      <use x="208.138672" xlink:href="#DejaVuSans-115"/>
      <use x="260.238281" xlink:href="#DejaVuSans-116"/>
      <use x="299.447266" xlink:href="#DejaVuSans-105"/>
      <use x="327.230469" xlink:href="#DejaVuSans-99"/>
      <use x="382.210938" xlink:href="#DejaVuSans-32"/>
      <use x="413.998047" xlink:href="#DejaVuSans-82"/>
      <use x="483.417969" xlink:href="#DejaVuSans-101"/>
      <use x="544.941406" xlink:href="#DejaVuSans-103"/>
      <use x="608.417969" xlink:href="#DejaVuSans-114"/>
      <use x="649.5" xlink:href="#DejaVuSans-101"/>
      <use x="711.023438" xlink:href="#DejaVuSans-115"/>
      <use x="763.123047" xlink:href="#DejaVuSans-115"/>
      <use x="815.222656" xlink:href="#DejaVuSans-105"/>
      <use x="843.005859" xlink:href="#DejaVuSans-111"/>
      <use x="904.1875" xlink:href="#DejaVuSans-110"/>
     </g>
    </g>
   </g>
  </g>
 </g>
 <defs>
  <clipPath id="pe76c8fee5f">
   <rect height="360" width="720" x="0" y="0"/>
  </clipPath>
 </defs>
</svg>
